<?xml version="1.0" encoding="utf-8"?>
<!-- Generator: Adobe Illustrator 23.1.1, SVG Export Plug-In . SVG Version: 6.00 Build 0)  -->
<svg version="1.1" id="Layer_1" xmlns="http://www.w3.org/2000/svg" xmlns:xlink="http://www.w3.org/1999/xlink" x="0px" y="0px"
	 viewBox="0 0 320 320" style="enable-background:new 0 0 320 320;" xml:space="preserve">
<style type="text/css">
	.st0{fill:#7A4F58;}
</style>
<g>
	<g>
		<g>
			<g>
				<path class="st0" d="M160,320c-8.7,0-17-2.7-24-7.8l-24.7-17.8c-3.5-2.5-7.6-4.2-11.9-4.9l-30-4.9c-17.5-2.8-31.1-16.5-34-34
					l-4.9-30c-0.7-4.3-2.4-8.4-4.9-11.9L7.8,184C2.7,177,0,168.7,0,160c0-5.9,1.2-11.6,3.7-17c1.5-3.3,5.3-4.7,8.6-3.2
					c3.3,1.5,4.7,5.3,3.2,8.6C13.8,152,13,155.9,13,160c0,5.9,1.8,11.6,5.3,16.5L36,201.1c3.7,5.1,6.2,11.2,7.2,17.4l4.9,30
					c2,12,11.3,21.3,23.3,23.3l30,4.9c6.3,1,12.3,3.5,17.4,7.2l24.7,17.8c4.8,3.5,10.5,5.3,16.5,5.3c5.9,0,11.6-1.8,16.5-5.3
					l24.7-17.8c5.1-3.7,11.2-6.2,17.4-7.2l1.1-0.2c3.5-0.6,6.9,1.8,7.4,5.4c0.6,3.5-1.8,6.9-5.4,7.4l-1.1,0.2
					c-4.3,0.7-8.4,2.4-11.9,4.9L184,312.2C177,317.3,168.7,320,160,320z M252.7,284.1c-2.9,0-5.5-1.9-6.3-4.9
					c-0.9-3.5,1.2-7,4.7-7.9c0.2,0,0.3-0.1,0.5-0.1c3.5-0.9,7,1.1,8,4.5c0.9,3.5-1.1,7-4.5,8c-0.2,0.1-0.5,0.1-0.7,0.2
					C253.7,284,253.2,284.1,252.7,284.1z M276.4,262.9c-0.8,0-1.6-0.1-2.3-0.4c-3.3-1.3-5-5-3.7-8.4c0.7-1.8,1.2-3.7,1.5-5.6l4.9-30
					c1-6.3,3.5-12.3,7.2-17.4l17.8-24.7c3.5-4.8,5.3-10.5,5.3-16.5s-1.8-11.6-5.3-16.5L284,118.9c-3.7-5.1-6.2-11.2-7.2-17.4
					l-4.9-30c-2-12-11.3-21.3-23.3-23.3l-30-4.9c-6.3-1-12.3-3.5-17.4-7.2l-24.7-17.8c-4.8-3.5-10.5-5.3-16.5-5.3
					c-5.9,0-11.6,1.8-16.5,5.3L118.9,36c-5.1,3.7-11.2,6.2-17.4,7.2l-30,4.9c-12,2-21.3,11.3-23.3,23.3l-2.9,18
					c-0.6,3.5-3.9,5.9-7.4,5.4c-3.5-0.6-5.9-3.9-5.4-7.4l2.9-18c2.8-17.5,16.5-31.1,34-34l30-4.9c4.3-0.7,8.4-2.4,11.9-4.9L136,7.8
					c7-5.1,15.4-7.8,24-7.8c8.7,0,17,2.7,24,7.8l24.7,17.8c3.5,2.5,7.6,4.2,11.9,4.9l30,4.9c17.5,2.8,31.1,16.5,34,34l4.9,30
					c0.7,4.3,2.4,8.4,4.9,11.9l17.8,24.7c5.1,7,7.8,15.4,7.8,24s-2.7,17-7.8,24l-17.8,24.7c-2.5,3.5-4.2,7.6-4.9,11.9l-4.9,30
					c-0.5,2.8-1.2,5.5-2.2,8.1C281.5,261.3,279,262.9,276.4,262.9z M27.9,125.5c-1.3,0-2.6-0.4-3.8-1.2c-2.9-2.1-3.6-6.1-1.5-9
					l0.4-0.5c2.1-2.9,6.1-3.6,9-1.5c2.9,2.1,3.6,6.1,1.5,9l-0.4,0.5C31.9,124.5,30,125.5,27.9,125.5z"/>
			</g>
		</g>
		<g>
			<g>
				<path class="st0" d="M160,287.6c-7.1,0-14-2.2-19.8-6.4l-19.5-14c-2.6-1.9-5.7-3.1-8.8-3.7l-23.7-3.9
					c-14.4-2.3-25.6-13.6-27.9-27.9l-3.9-23.7c-0.5-3.2-1.8-6.2-3.7-8.8l-14-19.5c-0.8-1.1-1.5-2.2-2.2-3.4
					c-1.7-3.1-0.6-7.1,2.5-8.8c3.1-1.7,7.1-0.6,8.8,2.5c0.4,0.7,0.9,1.4,1.3,2.1l14,19.5c3,4.2,5.1,9.2,5.9,14.3l3.9,23.7
					c1.4,8.9,8.4,15.8,17.2,17.2l23.7,3.9c5.1,0.8,10.1,2.9,14.3,5.9l19.5,14c3.6,2.6,7.8,3.9,12.2,3.9c4.4,0,8.6-1.4,12.2-3.9
					l19.5-14c4.2-3,9.2-5.1,14.3-5.9l23.7-3.9c8.9-1.4,15.8-8.4,17.2-17.2l3.9-23.7c0.8-5.1,2.9-10.1,5.9-14.3
					c2.1-2.9,6.1-3.6,9-1.5c2.9,2.1,3.6,6.1,1.5,9c-1.9,2.6-3.1,5.7-3.7,8.8l-3.9,23.7c-2.3,14.4-13.6,25.6-27.9,27.9l-23.7,3.9
					c-3.2,0.5-6.2,1.8-8.8,3.7l-19.5,14C174,285.4,167.1,287.6,160,287.6z M276,150.5c-2,0-4-0.9-5.3-2.7l-14-19.5
					c-3-4.2-5.1-9.2-5.9-14.3l-3.9-23.7c-1.4-8.9-8.4-15.8-17.2-17.2L206,69.3c-5.1-0.8-10.1-2.9-14.3-5.9l-19.5-14
					c-3.6-2.6-7.8-3.9-12.2-3.9c-4.4,0-8.6,1.4-12.2,3.9l-19.5,14c-4.2,3-9.2,5.1-14.3,5.9l-23.7,3.9c-8.9,1.4-15.8,8.4-17.2,17.2
					L69.3,114c-0.1,0.8-0.3,1.6-0.5,2.4c-0.8,3.5-4.3,5.6-7.8,4.8c-3.5-0.8-5.6-4.3-4.8-7.8c0.1-0.5,0.2-1,0.3-1.5l3.9-23.7
					c2.3-14.4,13.6-25.6,27.9-27.9l23.7-3.9c3.2-0.5,6.2-1.8,8.8-3.7l19.5-14c5.8-4.2,12.6-6.4,19.8-6.4c7.1,0,14,2.2,19.8,6.4
					l19.5,14c2.6,1.9,5.7,3.1,8.8,3.7l23.7,3.9c14.4,2.3,25.6,13.6,27.9,27.9l3.9,23.7c0.5,3.2,1.8,6.2,3.7,8.8l14,19.5
					c2.1,2.9,1.4,7-1.5,9C278.6,150.1,277.3,150.5,276,150.5z M45,149.2c-1.3,0-2.6-0.4-3.8-1.2c-2.9-2.1-3.6-6.1-1.5-9l0.4-0.5
					c2.1-2.9,6.1-3.6,9-1.5c2.9,2.1,3.6,6.1,1.5,9l-0.4,0.5C49,148.3,47,149.2,45,149.2z"/>
			</g>
		</g>
		<g>
			<g>
				<path class="st0" d="M162.2,255.1c-3.3,0-6.1-2.4-6.4-5.8c-0.4-3.6,2.2-6.8,5.7-7.2c0.1,0,0.3,0,0.4-0.1c3.5-0.5,6.8,2,7.3,5.5
					c0.5,3.5-2,6.8-5.5,7.3c-0.3,0-0.6,0.1-0.8,0.1C162.7,255,162.4,255.1,162.2,255.1z M133.9,241.1c-1.3,0-2.6-0.4-3.7-1.2
					c-1.7-1.2-3.6-2-5.7-2.3l-17.3-2.8c-11.3-1.8-20.1-10.6-21.9-21.9l-2.8-17.3c-0.3-2.1-1.2-4-2.4-5.7l-10.3-14.3
					c-3.3-4.5-5-9.9-5-15.5c0-5.6,1.7-10.9,5-15.5c2.1-2.9,6.1-3.6,9-1.5s3.6,6.1,1.5,9c-1.7,2.3-2.6,5.1-2.6,7.9
					c0,2.9,0.9,5.6,2.6,7.9l10.3,14.3c2.4,3.3,4,7.2,4.6,11.2l2.8,17.3c0.9,5.8,5.4,10.3,11.2,11.2l17.3,2.8c4,0.6,7.8,2.2,11.1,4.5
					c2.9,2.1,3.6,6.1,1.5,9C138,240.1,136,241.1,133.9,241.1z M190.5,238.7c-2.6,0-5.1-1.6-6.1-4.2c-1.3-3.3,0.4-7.1,3.8-8.4
					c1.7-0.6,3.4-1.1,5.2-1.4l17.3-2.8c5.8-0.9,10.3-5.4,11.2-11.2l2.8-17.3c0.7-4,2.3-7.9,4.6-11.2l10.3-14.3
					c1.7-2.3,2.6-5.1,2.6-7.9c0-2.9-0.9-5.6-2.6-7.9l-10.3-14.3c-2.4-3.3-4-7.2-4.6-11.2l-2.8-17.3c-0.9-5.8-5.4-10.2-11.2-11.2
					l-17.3-2.8c-4-0.7-7.9-2.3-11.2-4.6l-14.3-10.3c-2.3-1.7-5.1-2.6-7.9-2.6c-2.9,0-5.6,0.9-7.9,2.6l-14.3,10.3
					c-3.3,2.4-7.2,4-11.2,4.6l-17.3,2.8c-5.8,0.9-10.2,5.4-11.2,11.2c-0.6,3.5-3.9,5.9-7.4,5.4c-3.5-0.6-5.9-3.9-5.4-7.4
					c1.8-11.3,10.6-20.1,21.9-21.9l17.3-2.8c2.1-0.3,4-1.2,5.7-2.4l14.3-10.3c4.5-3.3,9.9-5,15.5-5c5.6,0,10.9,1.7,15.5,5l14.3,10.3
					c1.7,1.2,3.7,2,5.7,2.4l17.3,2.8c11.3,1.8,20.1,10.6,21.9,21.9l2.8,17.3c0.3,2.1,1.2,4,2.4,5.7l10.3,14.3c3.3,4.5,5,9.9,5,15.5
					c0,5.6-1.7,10.9-5,15.5l-10.3,14.3c-1.2,1.7-2,3.7-2.4,5.7l-2.8,17.3c-1.8,11.3-10.6,20.1-21.9,21.9l-17.3,2.8
					c-0.9,0.1-1.8,0.4-2.6,0.7C192.1,238.5,191.3,238.7,190.5,238.7z"/>
			</g>
		</g>
	</g>
</g>
</svg>
