<svg xmlns="http://www.w3.org/2000/svg" width="320" height="320"><path d="M160 320a40.9 40.9 0 01-24-7.75l-24.68-17.77a28.42 28.42 0 00-11.93-4.94l-30-4.89a41.11 41.11 0 01-34-34l-4.89-30a28.42 28.42 0 00-4.94-11.93L7.75 184a41.14 41.14 0 01-4.07-41 6.48 6.48 0 0111.8 5.36 28.24 28.24 0 002.79 28.11L36 201.14a41.21 41.21 0 017.21 17.42l4.89 30a28.15 28.15 0 0023.28 23.28l30 4.89a41.26 41.26 0 0117.47 7.27l24.68 17.77a28.21 28.21 0 0032.92 0L201.14 284a41.35 41.35 0 0117.41-7.21l1.1-.18a6.48 6.48 0 012.08 12.8l-1.09.17a28.42 28.42 0 00-11.93 4.94L184 312.25a40.91 40.91 0 01-24 7.75zm92.66-35.9a6.48 6.48 0 01-1.6-12.76l.51-.14a6.48 6.48 0 013.43 12.5l-.74.2a6.4 6.4 0 01-1.61.2zm23.76-21.17a6.34 6.34 0 01-2.32-.43 6.48 6.48 0 01-3.73-8.37 28.82 28.82 0 001.5-5.55l4.89-30a41.34 41.34 0 017.24-17.44l17.77-24.69a28.21 28.21 0 000-32.92L284 118.85a41.39 41.39 0 01-7.21-17.42l-4.89-30a28.15 28.15 0 00-23.28-23.28l-30-4.89A41.34 41.34 0 01201.14 36l-24.68-17.73a28.23 28.23 0 00-32.93 0L118.85 36a41.34 41.34 0 01-17.42 7.21l-30 4.89a28.15 28.15 0 00-23.29 23.32l-2.93 18a6.48 6.48 0 11-12.79-2.09l2.93-18a41.09 41.09 0 0134-34l30-4.89a28.42 28.42 0 0011.93-4.94L136 7.75a41.14 41.14 0 0148.07 0l24.68 17.77a28.42 28.42 0 0011.93 4.94l30 4.89a41.11 41.11 0 0134 34l4.89 30a28.42 28.42 0 004.94 11.93L312.25 136a41.14 41.14 0 010 48.07l-17.77 24.68a28.42 28.42 0 00-4.94 11.93l-4.89 30a41.16 41.16 0 01-2.18 8.11 6.49 6.49 0 01-6.06 4.14zM27.94 125.49a6.49 6.49 0 01-5.26-10.28l.38-.52a6.48 6.48 0 0110.52 7.57l-.38.53a6.46 6.46 0 01-5.26 2.7z"/><path d="M160 287.59a33.61 33.61 0 01-19.76-6.38l-19.47-14a21 21 0 00-8.84-3.66l-23.67-3.86a33.78 33.78 0 01-27.94-27.94l-3.86-23.68a20.93 20.93 0 00-3.66-8.83l-14-19.47a32.8 32.8 0 01-2.16-3.42A6.48 6.48 0 1148 170.07a22.84 22.84 0 001.34 2.11l14 19.47A34 34 0 0169.26 206l3.85 23.68a20.85 20.85 0 0017.24 17.24l23.65 3.82a34 34 0 0114.32 5.94l19.47 14a20.85 20.85 0 0024.37 0l19.47-14a34 34 0 0114.37-5.94l23.68-3.85a20.85 20.85 0 0017.24-17.24l3.83-23.65a33.83 33.83 0 015.93-14.32 6.48 6.48 0 1110.52 7.58 20.93 20.93 0 00-3.66 8.83l-3.86 23.68a33.78 33.78 0 01-27.94 27.94l-23.68 3.86a20.93 20.93 0 00-8.83 3.66l-19.47 14a33.63 33.63 0 01-19.76 6.36zm116-137.08a6.48 6.48 0 01-5.27-2.7l-14-19.47a33.83 33.83 0 01-5.98-14.34l-3.86-23.67a20.85 20.85 0 00-17.23-17.24L206 69.25a33.83 33.83 0 01-14.32-5.93l-19.47-14a20.85 20.85 0 00-24.37 0l-19.47 14A33.83 33.83 0 01114 69.25l-23.65 3.86a20.85 20.85 0 00-17.24 17.23L69.26 114c-.14.81-.3 1.63-.49 2.43a6.48 6.48 0 11-12.61-3c.12-.49.22-1 .3-1.5l3.86-23.67a33.8 33.8 0 0127.94-27.95l23.67-3.85a21 21 0 008.84-3.66l19.47-14a33.79 33.79 0 0139.52 0l19.47 14a20.93 20.93 0 008.83 3.66l23.68 3.86a33.78 33.78 0 0127.94 27.94l3.86 23.67a20.93 20.93 0 003.66 8.83l14 19.48a6.49 6.49 0 01-5.2 10.27zm-231-1.27A6.49 6.49 0 0139.7 139l.38-.52A6.48 6.48 0 0150.6 146l-.38.53a6.46 6.46 0 01-5.22 2.71z"/><path d="M162.2 255.05a6.49 6.49 0 01-.71-12.93l.44-.05a6.48 6.48 0 111.84 12.83l-.84.11a6 6 0 01-.73.04zm-28.28-14a6.44 6.44 0 01-3.74-1.2 13.61 13.61 0 00-5.66-2.32l-17.34-2.82a26.5 26.5 0 01-21.9-21.9l-2.82-17.35a13.62 13.62 0 00-2.38-5.73l-10.26-14.25a26.52 26.52 0 010-31 6.48 6.48 0 0110.52 7.58 13.54 13.54 0 000 15.82l10.27 14.26a26.72 26.72 0 014.65 11.22l2.82 17.34a13.52 13.52 0 0011.19 11.19l17.33 2.82a26.67 26.67 0 0111.08 4.55 6.48 6.48 0 01-3.76 11.77zm56.62-2.39a6.48 6.48 0 01-2.31-12.54 26.93 26.93 0 015.16-1.39l17.34-2.82a13.54 13.54 0 0011.19-11.19l2.82-17.34a26.72 26.72 0 014.65-11.22l10.27-14.26a13.54 13.54 0 000-15.82l-10.27-14.26a26.81 26.81 0 01-4.65-11.23l-2.82-17.33a13.52 13.52 0 00-11.19-11.19l-17.34-2.82a26.72 26.72 0 01-11.22-4.65l-14.26-10.26a13.54 13.54 0 00-15.82 0l-14.26 10.27a26.83 26.83 0 01-11.22 4.65l-17.34 2.82a13.52 13.52 0 00-11.19 11.19 6.48 6.48 0 01-12.8-2.09 26.5 26.5 0 0121.9-21.9l17.34-2.82a13.62 13.62 0 005.73-2.38l14.26-10.26a26.52 26.52 0 0131 0l14.26 10.26a13.68 13.68 0 005.73 2.38l17.35 2.82a26.5 26.5 0 0121.9 21.9l2.82 17.34a13.62 13.62 0 002.38 5.73l10.26 14.26a26.52 26.52 0 010 31l-10.26 14.26a13.62 13.62 0 00-2.38 5.73l-2.82 17.35a26.48 26.48 0 01-21.9 21.89l-17.35 2.83a14.2 14.2 0 00-2.63.71 6.44 6.44 0 01-2.33.39z"/></svg>