<?xml version="1.0" encoding="utf-8"?>
<!-- Generator: Adobe Illustrator 23.1.1, SVG Export Plug-In . SVG Version: 6.00 Build 0)  -->
<svg version="1.1" id="Layer_1" xmlns="http://www.w3.org/2000/svg" xmlns:xlink="http://www.w3.org/1999/xlink" x="0px" y="0px"
	 viewBox="0 0 315.6 320" style="enable-background:new 0 0 315.6 320;" xml:space="preserve">
<style type="text/css">
	.st0{fill:#4D4051;}
</style>
<title>logotype-dark</title>
<g>
	<path class="st0" d="M270.2,271.8l0.2,1c-0.1,0.1-0.1,0.2-0.2,0.2c-1.1,0-2,0.6-2.5,1.5c-1.8,2.2-4,4.2-6.3,5.9
		c-0.3,0.3-0.6,0.6-0.9,0.9c-0.4,0.4-0.8,0.8-1.3,1.1c-1.3,0.6-2.4,1.5-3.3,2.6c-0.3,0.3-0.6,0.6-1,0.8c-1.5,0.8-2.7,2.1-4.1,3
		c-2.1,1.4-3.6,3.6-6.1,4.4c-1,1-2.2,1.8-3.6,2.3c-0.6,0.2-1,0.9-1.6,1.4c-0.4,0.3-0.8,0.5-1.2,0.7c-0.7,0.3-1.4,0.6-2,1
		c-0.4,0.2-0.8,0.4-1.2,0.7c-0.5,0.3-1,0.6-1.5,1c-0.5,0.6-1.3,1-2.1,1.1c-0.5,0-1,0.2-1.4,0.5c-1.3,1.1-2.8,1.8-4.4,2.3
		c-1.3,0.4-2.6,1-3.7,1.8c-0.7,0.5-1.4,0.8-2.2,1c-1.2,0.3-2.2,0.8-3.2,1.5c-0.6,0.5-1.3,0.8-2.1,0.9c-1.6,0.2-3.2,0.8-4.6,1.7
		c-0.2,0.2-0.5,0.3-0.8,0.3c-1.9,0.4-3.7,0.9-5.4,1.6c-1.5,0.5-3.2,0.4-4.5,1.4c-1.1-0.1-2.3,0.2-3.2,0.9c-0.3,0.1-0.7,0.2-1,0.1
		c-0.7,0.1-1.4,0.2-2.1,0.4c-1.3,0.5-2.8,0.3-3.9,1.2c-0.1,0.1-0.3,0.1-0.4,0.1c-2.3-0.1-4.6,0.3-6.7,1.1c-0.3,0.1-0.7,0.1-1,0.1
		c-0.3-0.1-0.7-0.1-1,0c-2.1,0.9-4.3,0.3-6.5,0.9c-0.9,0.2-1.8,0.2-2.7,0.2c-1.9,0.2-3.9,0.3-5.8,0.2c-1.6-0.1-3.2,0.1-4.8,0.1
		c-0.7,0-1.3,0-2,0.2c-0.9,0.2-1.8,0.5-2.6-0.2c-0.1-0.1-0.2-0.1-0.3-0.1H150c-0.6,0.1-1.2,0-1.8-0.1c-1.2-0.4-2.5-0.5-3.8-0.2
		c-1.6,0.1-3.1,0-4.6-0.4c-1.9-0.3-3.8-0.5-5.6-0.8c-0.7-0.1-1.3-0.2-1.9-0.3c-1.5-0.5-3-0.8-4.6-0.8c-0.5,0-0.9-0.1-1.4-0.3
		c-0.7-0.1-1.3-0.2-1.9-0.4c-0.9-0.4-1.8-0.8-2.8-1c-0.9,0.1-1.9-0.1-2.8-0.5c-0.2-0.1-0.3-0.2-0.5-0.2c-2.2-0.5-4.4-1-6.7-1.5
		c-0.6-0.1-1.2-0.3-1.8-0.5c-0.8-0.3-1.7-0.7-2.4-1.1c-1.4-0.8-3-0.6-4.4-1.2c-0.4-0.1-0.8-0.3-1.2-0.5c-0.8-0.6-1.6-1-2.6-1.1
		c-1.5-0.5-3-1.2-4.4-2.1c-0.5-0.3-1-0.5-1.6-0.6c-0.7-0.2-1.4-0.3-1.8-1c-0.1-0.1-0.2-0.2-0.3-0.3c-1.2-0.5-2.4-1-3.6-1.5
		c-0.6-0.2-1.1-0.6-1.6-0.9c-1.9-0.8-3.7-1.8-5.4-2.8c-0.6-0.2-1.3-0.3-2-0.3l0.1-0.8c-2.2-1.4-4.2-2.7-6.3-4
		c-0.6-0.4-1.1-0.9-1.7-1.3c-0.4-0.3-0.8-0.6-1.2-0.8c-0.7-0.1-1.3-0.6-1.7-1.1c0,0-0.1-0.1-0.1-0.1c-1.6-0.3-2.3-1.8-3.7-2.3
		c-0.3-0.1-0.5-0.2-0.7-0.5c-0.6-1.1-1.8-1.5-2.7-2.2s-1.5-1.3-2.3-1.9c-2.2-1.4-4.1-3.2-5.7-5.3c-0.3-0.4-0.7-0.8-1.2-1
		c-1.3-0.9-2.5-1.9-3.4-3.2c-0.3-0.3-0.7-0.5-0.9-0.8c-1.1-1-1.9-2.3-3.2-3.1c-0.6-1.6-2.4-2.3-3.3-3.6c-0.2-0.2-0.6-0.4-0.6-0.6
		c-0.1-1.2-1-1.6-1.7-2.3c-0.3-0.3-0.6-0.7-0.8-1.1c-0.4-0.7-0.9-1.3-1.5-1.8c-1.1-1-2-2.2-2.7-3.5c-0.5-1.1-1.3-2-2.2-2.7
		c-0.8-0.6-1.5-1.5-1.9-2.4c-0.5-1.1-1.1-2.1-1.8-3c-0.7-1-1.4-2-2-3c-0.9-1.4-1.7-2.8-2.6-4.3c-0.2-0.4-0.5-0.7-0.7-1.1
		c-0.4-0.7-0.7-1.4-1.1-2.1c-0.1-0.4-0.3-0.8-0.5-1.2c-1.1-1.7-2-3.5-2.7-5.3c-0.5-1.1-1.1-2.1-1.9-3c-0.5-0.6-0.8-1.3-0.8-2
		c0-0.3-0.1-0.7-0.2-0.9c-1.5-1.6-1.6-3.8-2.8-5.6c-0.8-1.1-0.9-2.7-1.3-4c-0.1-0.4-0.3-0.8-0.4-1.2c-0.4-1-0.7-2-1-3
		c-0.1-0.8-0.4-1.7-0.9-2.3c-0.6-0.8-0.9-1.8-0.9-2.8c-0.2-1.3-0.6-2.6-1.1-3.8c-0.3-1-0.7-2.1-1-3.1c-0.2-0.6-0.3-1.3-0.5-1.9
		c-0.1-0.4-0.2-0.7-0.2-1.1c0.2-1.6-0.1-3.2-1-4.6c-0.2-0.4-0.3-0.8-0.3-1.2c-0.1-1-0.2-2.1-0.3-3.1c-0.1-0.5-0.3-1-0.5-1.4
		c-0.1-0.2-0.3-0.4-0.3-0.6c0.2-1-0.3-1.9-0.5-2.9c-0.1-0.3-0.1-0.7,0-1c0.5-1.8,0-3.4-0.5-5.2c-0.2-1.2-0.4-2.4-0.4-3.7
		c0-0.3,0.1-0.6,0-0.9c-0.8-2.4-0.1-4.9-0.6-7.4c-0.1-0.9,0-1.8,0.3-2.7c0.2-0.8,0.2-1.6-0.1-2.4c-0.2-0.6-0.3-1.2-0.2-1.8
		c0-1.2,0.2-2.5,0.3-3.7c0.1-0.2,0.1-0.5,0-0.7c-0.6-1.5-0.1-3,0.4-4.4c0.1-0.3,0.1-0.7,0.2-1c0.1-1.9,0.2-3.8,0.3-5.7
		c0.2-2.3,0.4-4.5,0.6-6.8c0.1-1.2,0.5-2.3,0.7-3.5c0.1-0.6,0.1-1.3,0.2-2c0-0.5,0.1-0.9,0.2-1.4c0-0.4,0.1-0.7,0.2-1.1
		c0.1-0.5,0.2-0.9,0.4-1.3c0.7-1,1.1-2.3,0.9-3.5c-0.1-0.2-0.1-0.4,0-0.6c1-1.4,0.7-3.2,1.3-4.7c0.1-0.4,0.2-0.7,0.3-1.1
		c0.1-1.5,0.6-3,1.3-4.3c0.1-0.3,0.2-0.5,0.2-0.8c0.2-2.3,1.4-4.3,2.3-6.4c0.6-1.1,1-2.4,1.2-3.6c0.2-1.3,0.2-2.7,1.5-3.6
		c0.2-0.2,0.3-0.7,0.4-1c0.2-1.2,0.7-2.4,1.4-3.4c0.3-0.4,0.5-0.8,0.5-1.3c0-0.9,0.4-1.8,1.1-2.4c0.4-0.4,0.7-1,0.9-1.6
		c0.1-0.8,0.5-1.5,1.1-2.1c0.5-0.4,0.8-1,0.8-1.6c0-0.5,0.2-1,0.5-1.4c1.3-1.1,1.6-2.8,2.5-4.1c0.7-1.1,1-2.4,2.2-3
		c0.3-0.2,0.5-0.5,0.5-0.8c0.5-1.9,1.9-3.2,2.9-4.7c1.4-2,2.5-4,3.8-6c0.6-1,1.3-2,2-2.9c0.9-1.1,1.8-2.1,2.8-3.1
		c0.3-0.3,0.5-0.7,0.8-1l2.9-3.7c0.1-0.1,0.3-0.3,0.4-0.4c0.5-1.1,1.3-2,2.4-2.5c0.4-0.3,0.8-0.7,1.1-1.1c0.2-0.2,0.4-0.6,0.6-0.8
		c0.9-0.4,1.6-1.3,1.8-2.3c0-0.3,0.4-0.5,0.7-0.7c1.5-0.9,2.9-2.2,3.9-3.7c0.4-0.4,0.8-0.8,1.3-1c0.6-0.5,1.3-0.9,1.9-1.4
		s1.5-1.2,2.2-1.8c0.3-0.2,0.6-0.5,0.8-0.8c0.7-1.2,1.8-2.1,3.1-2.7c1-0.3,1.8-1,2.4-1.9c0,0,0-0.1,0.1-0.1l3.7-2.8
		c0.6-0.4,1.2-0.8,1.7-1.3c1.4-1.2,3-2.2,4.7-2.9c0.3-0.2,0.6-0.4,0.9-0.7c0.4-0.6,0.9-1,1.6-1.1c0.2,0,0.4-0.1,0.5-0.2
		c0.9-0.9,2.1-1.6,3.4-1.9c0.6-0.3,1-0.7,1.4-1.2c0.5-0.6,1.3-1,2.1-1.1c0.6-0.1,1.1-0.4,1.6-0.8c0.7-0.4,1.3-0.8,1.9-1.2
		c1.1-0.7,2.2-1.4,3.4-2.1c0.6-0.4,1.3-0.8,2-1c1.5-0.3,2.7-1.5,4.3-1.5c0.1,0,0.3,0,0.4-0.1c2.4-1.4,5.4-1.8,7.8-3.4
		c0.4-0.2,0.9-0.3,1.3-0.4c1.2-0.4,2.4-0.8,3.7-1.2c1.8-0.7,3.7-1.2,5.6-1.6c0.5-0.1,0.9-0.2,1.3-0.5c1-0.8,2.3-1.1,3.6-1
		c1.5,0.1,2.9-0.2,4.2-1c0.7-0.4,1.4-0.6,2.2-0.5c1.2,0,2.5-0.2,3.6-0.7c0.8-0.3,1.5-0.4,2.3-0.5c1.5-0.1,3,0.2,4.5-0.5
		c0.8-0.2,1.6-0.3,2.5-0.3c2.4-0.3,4.8-0.6,7.2-0.9c0.5,0,0.9,0,1.4,0c0.3,0,0.7,0.1,0.8,0c0.9-0.6,2-0.6,2.9-0.1
		c0.3,0.1,0.7-0.1,1.1-0.2c0.6-0.1,1.2-0.2,1.8-0.2c0.7,0.2,1.5,0.1,2.2-0.1c0.2-0.1,0.5-0.1,0.7,0c0.9,0.6,1.8,0.3,2.8,0.3
		c3.2,0.1,6.4,0.2,9.6,0.3c0.4,0.1,0.7,0.1,1.1,0.2c0.2,0,0.5,0.2,0.7,0.1c1.2-0.6,2.5-0.2,3.7-0.1c0.9,0.1,1.8,0.3,2.6,0.5
		c0.3,0.1,0.6,0.2,1,0.3c1.6,0.3,3.3,0.5,4.9,0.7c1.7,0,3.2,0.7,4.8,0.9c1,0.1,2.1,0.2,3.1,0.5c0.8,0.2,1.6,0.5,2.4,0.7
		s1.9,0.2,2.8,0.3c0.3,0,0.7,0,1,0.2c1.2,1,2.7,1,4.1,1.4c0.8,0.2,1.5,0.6,2.3,0.8c2,0.6,4.1,1.2,6.1,1.9c1.4,0.5,2.8,1.1,4.2,1.7
		s2.9,1.4,4.4,1.9c1,0.3,2,0.6,3,0.8c0.3,0.1,0.6,0.1,0.8,0.3c1,1.2,2.6,1.4,3.8,2c0.2,0.1,0.4,0.1,0.5,0.2c0.9,1,2.2,1.7,3.5,1.9
		c0.4,0.1,0.7,0.5,1.1,0.6c1.5,0.7,3,1.5,4.4,2.6c0.7,0.4,1.5,0.8,2.4,1c0.9,0.3,1.6,0.8,2.2,1.5c0.3,0.3,0.8,0.6,1.2,0.7
		c1.7,0.5,3.3,1.6,4.3,3.1c0.3,0.3,0.7,0.5,1.1,0.6c0.9,0.2,1.8,0.7,2.5,1.3c1.9,1.5,3.8,2.9,5.8,4.4c0.7,0.5,1.4,1.1,2.1,1.7
		c1.1,0.9,2.2,1.9,3.3,2.9c1.2,1.1,2.4,2.3,3.6,3.5c0.9,0.9,1.9,1.7,2.9,2.5c0.1,0.1,0.4,0.2,0.5,0.3c1.2,1.8,3.3,2.8,4.6,4.6
		c0.2,0.3,0.4,0.7,0.6,1c0.1,0.3,0.2,0.5,0.4,0.7c1.7,1.5,3.4,3.2,4.9,4.9c1,1.2,2.5,2.1,2.9,3.8c1.5,1.3,2,3.5,3.8,4.5
		c0.2,0.1,0.3,0.3,0.5,0.5c1.2,1.9,2.3,3.7,3.4,5.6c1.3,2.3,2.9,4.4,4.2,6.7c0,0,0,0.1,0.1,0.1c1.3,1.1,2.1,2.6,2.5,4.3
		c0.2,1.1,1.3,2,1.9,3.1c0.5,0.9,0.8,1.9,1.3,2.8c0.6,1.2,1.1,2.4,1.6,3.6c0.1,0.2,0.1,0.5,0.3,0.6c1,0.7,1.1,1.8,1.5,2.8
		c0.5,1.3,1.2,2.5,1.7,3.7c0.5,1,0.9,2.1,1.1,3.2c0.3,1.5,0.9,2.9,1.6,4.2c0.3,0.7,0.4,1.4,0.6,2c0.3,1,0.8,1.9,1.2,2.8
		c0.4,0.5,0.6,1.1,0.5,1.7c-0.1,0.4,0,0.8,0.1,1.2c0.6,1.8,1.2,3.5,1.7,5.3c0.3,1,0.3,2,0.5,2.9c0.6,2.1,1.2,4.2,1.8,6.4
		c0.1,0.6,0.2,1.2,0.3,1.8c0.1,0.7,0.3,1.5,0.4,2.2c0.1,0.4,0.1,0.8,0.2,1.3c0,0.4,0,0.8,0.1,1.1c0.6,1.6,0.3,3.2,0.5,4.8
		c0,0.3,0.1,0.7,0.2,1c0.7,1.6,0.9,3.4,0.5,5.2c-0.2,1-0.1,2,0.2,3c0.2,0.6,0.3,1.3,0.5,1.9c0.3,1.1,0.3,2.3,0,3.4
		c-0.3,0.8-0.3,1.6,0.1,2.4c0.1,0.2,0.2,0.4,0.1,0.5c-0.7,1.7,0.5,3.5-0.1,5.3c-0.3,1.4-0.4,2.8-0.4,4.2c0,0,0,0.1,0,0.1
		c1,2.1-0.3,4.1-0.3,6.2c0,0.6,0,1.2-0.1,1.8c-0.2,1.4,0.3,2.9-0.4,4.3c-0.2,0.5-0.3,1.1-0.2,1.6c0.1,0.9,0,1.9-0.3,2.8
		c-0.3,0.9-0.5,1.8-0.5,2.8c0,1.4-0.1,2.8-0.4,4.2c-0.2,0.6-0.4,1.3-0.7,1.9c-0.2,0.8-0.5,1.5-0.7,2.3c-0.2,1.1-0.4,2.2-0.6,3.4
		s-0.4,2.1-0.6,3.1c-0.1,0.5-0.2,0.9-0.5,1.3c-0.6,0.7-0.8,1.7-0.5,2.6c0.3,0.7,0.1,1.6-0.5,2.1c-1.2,1.1-1.4,2.7-1.6,4.2
		c-0.1,0.9-0.4,1.7-0.8,2.5c-0.5,1.1-0.8,2.3-1.1,3.5c-0.1,0.7-0.4,1.4-0.9,2.1c-0.4,0.6-0.7,1.3-1,2.1c-1.2,2.7-2.5,5.4-3.6,8.1
		c-0.6,1.4-1.2,2.8-1.7,4.2c-0.2,0.8-0.6,1.6-1.3,2.2c-0.2,0.1-0.3,0.3-0.3,0.4c-0.8,1.6-1.7,3.3-2.4,5c-0.4,1.1-1,2.1-1.8,3
		c-1.2,1.1-2.1,2.5-2.6,4c-0.1,0.3-0.3,0.5-0.5,0.7l-1.3,1.8c-0.2,0.3-0.4,0.6-0.6,0.9s-0.5,0.3-0.5,0.5c-0.1,1.8-1.7,2.6-2.6,3.7
		c-1.1,1.1-2,2.4-2.8,3.7c-0.2,0.3-0.4,0.5-0.7,0.7c-0.2,0.2-0.6,0.4-0.6,0.7c-0.4,1.7-1.9,2.7-2.9,4c-0.8,1-1.6,2-2.5,2.9
		c-0.6,0.7-1.4,1.2-2,1.8c-0.4,0.4-0.8,1-1.2,1.4S270.8,271.2,270.2,271.8z M208.3,228.9c0.5,0.1,0.9,0,1-0.5c0-0.3,0-0.7-0.2-1
		c-0.5-0.9-1.2-1.7-1.7-2.6c-0.3-0.4-0.3-1,0.1-1.4c1.3,0.5,1.3,2.2,2.6,3c0.2-0.4,0.4-0.7,0.5-1.1c0.4-1.1,0.9-2.1,1.4-3.1
		c0.8-1.3,1.1-2.8,0.8-4.2c-0.1-0.6-0.2-1.2-0.2-1.9c0.1-0.7-0.4-1.3-1.1-1.5c-1.6-0.4-3.2-0.9-4.8-1.3c-0.8-0.2-1.6,0.1-2.1,0.6
		c-0.9,0.8-1.8,1.6-2.7,2.4c-0.8,0.8-1.8,1.3-2.9,1.2c-0.3,0-0.7,0-1,0.1c-2.1,0.3-2.4,0.9-1.6,2.8c0.1,0.1,0.1,0.2,0.2,0.4
		c0.7,1.4,1.3,2.8,1.8,4.2c0.5,1.7,2,2.2,3,3.3l0.3-0.2l-0.9-2.4l0.3-0.1c0.3,0.2,0.6,0.4,0.8,0.7c0.5,0.5,0.9,1.1,1.2,1.7
		c0.6,1.1,1.9,1.9,1.5,3.4c0,0.1,0.2,0.3,0.3,0.5c0.6,0.8,1.1,1.6,1.7,2.3c0.2,0.2,0.4,0.4,0.7,0.6c1-1.2,0.1-2.3-0.2-3.5l1.4,0.1
		l-0.2-2.5L208.3,228.9z M232.2,248.9c-0.4-0.9-0.8-1.8-1.2-2.7c-1.6-3-3.3-5.9-4.9-8.9c-0.7-1-1.2-2.1-1.7-3.2
		c-0.6-1.7-0.9-3.5-1.4-5.2c-0.3-1.1-0.8-2.1-1.3-3.1c-0.7-1.2-1.1-1.3-2-0.2c-1.2,1.4-2.3,2.9-3.4,4.4c-1.7,2.5-3,5.2-5.4,7.2
		c-0.8,0.8-1.4,1.6-2.1,2.5c0.6,0.3,1.1,0.5,1.5,0.8c0.6,0.3,1.1,0.7,1.5,1.2c1.6,2.2,3.1,4.5,4.5,6.8c0.6,1.1,1.5,2.1,2.5,2.9
		c3.9,2.5,6.6,6.1,9,10c1.3,2.2,2.5,4.4,3.8,6.5c0.8,1.3,1.4,2.7,1.7,4.2c0.2,1.1,0.5,2.1,0.7,3.2c0,0.4,0,0.8,0,1.2
		c-0.6-0.5-0.9-0.7-1.2-1c-2.3-2.2-4.7-4.5-7-6.8c-0.4-0.5-0.7-1-0.8-1.6c-0.4-1.4-0.7-2.9-0.9-4.3c-0.2-1.6-1.2-3-2.6-3.8
		c-1.5-0.9-2.9-1.9-4.1-3c-4.5-4.2-8.6-8.8-12.1-13.9c-0.7-1-1.2-2.2-1.4-3.4c-0.1-0.9-0.4-1.8-0.9-2.5c-0.9-1.6-2.3-2.8-4-3.4
		c-2.3-0.8-3.9-2.8-5.7-4.3c-0.1-0.1-0.1-0.1-0.2-0.2c-1.5-1.9-2.7-4-3.7-6.2c-0.2-0.6-0.4-1.3-0.5-1.9c-0.5-2.6-0.9-5.1-1.5-7.7
		c-0.2-1.1-0.7-2.2-1-3.4c-0.3-0.7-0.5-1.5-0.6-2.3c-0.1-2-1.4-3.1-2.8-4c-0.7-0.3-1.6-0.2-2.2,0.2c-0.6,0.3-0.4,1-0.2,1.6
		c0.5,1.9,1.2,3.7,2,5.4c0.5,0.9,0.8,1.9,1.2,2.8s0.4,1.8,0.7,2.5c0.4,1.1,0.5,2.3,0.4,3.5c0.1,2.4-0.2,4.8,0.6,7.2
		c0.8,2.1,1.9,4,2.8,6c1,1.8,2.1,3.5,3.3,5.2c0.2,0.2,0.3,0.5,0.4,0.8c0.6,1.5,1.7,2.9,3.1,3.8c1.5,1.2,3.1,2.2,4.7,3.3
		c0.6,0.4,1.3,0.8,1.9,1.2c0.9,0.6,1.9,1.3,2.7,2c0.2,0.3,0.3,0.6,0.2,1c-0.2,0.3-0.5,0.5-0.9,0.6c-0.5-0.1-1-0.2-1.4-0.5
		c-1.9-0.9-3.7-1.8-5.6-2.7c-0.6-0.3-1.2-0.6-1.8-0.8c-1.1-0.6-2.3-1.1-3.6-1.4c-1.4-0.2-2.6-1-3.3-2.2c-1.8-2.8-3.2-5.7-4.5-8.7
		c-0.5-1.1-1.1-2.2-1.8-3.2c-0.3-0.4-0.7-0.6-1.1-0.8c-1.8-0.5-3.7-0.5-5.5-0.1c-0.8,0.3-1.5,0.6-2.1,1.1c-1.2,1.1-2.2,2.5-2.9,4
		c-0.2,0.5-0.5,0.9-0.8,1.3c-0.3,0.4-1,0.5-1.4,0.2c0,0,0,0,0,0c-0.2-0.3-0.3-0.7-0.2-1.1c0.1-0.5,0.3-1,0.5-1.5
		c0.2-0.6,0.4-1.2,0.7-1.9s0.6-1.4,0.9-2.1s0.6-1.4,1-2.1c0.9-1.9,1.6-3.8,2.6-5.6c1.2-2.1,2.4-4.1,2.5-6.6c0-0.7,0-1.3,0-2
		c-0.2-1.3-0.3-2.7-0.4-4c0.2-2.9-1-5.2-2.6-7.4c-0.3-0.4-0.8-0.7-1.3-0.7c-1-0.1-1.9,0.4-2.3,1.3c-0.7,1.1-0.7,2.4-1,3.5
		c-0.6,1.7-0.9,3.6-0.8,5.4c0,0.4-0.1,0.9-0.2,1.3c-0.1,1-0.2,2-0.4,3c-0.2,1.8-0.2,3.7,0,5.5c0.2,2.1,0.4,4.2,0.5,6.2
		c0.1,0.4,0,0.7-0.2,1.1c-0.7,0.8-2,0.8-2.7,0c0,0,0,0,0,0c-1.6-1.8-2.6-4.1-2.7-6.6c-0.3-2.4-0.3-4.7-0.4-7.1
		c0-0.6,0.1-1.2,0.1-1.8c0-0.6-0.1-1.2-0.1-1.8c-0.1-0.8-0.2-1.5-0.2-2.2c0-0.4,0.1-0.9,0.1-1.3c-0.1-2.3-0.7-4.6-1.7-6.7
		c-0.2-0.7-0.9-1.2-1.6-1c-0.1,0-0.1,0-0.2,0.1c-0.9,0.2-1.7,0.7-2.2,1.5c-0.5,0.8-0.9,1.6-1.3,2.4c-1.3,2.7-2.6,5.3-3.9,8
		c-0.4,0.8-0.7,1.5-1,2.4c-0.6,2.1-1.2,4.2-1.7,6.3c-0.4,1.6-0.7,3.2-1.1,4.9c-0.2,0.5-0.4,1.1-0.5,1.6c-0.1,1.8-0.6,3.6-1.4,5.2
		c-0.8,1.7-1.6,3.4-2.6,5.1c-0.7,1.2-1.5,2.4-2.3,3.6c-1.1,1.6-2.1,3.2-3.3,4.8c-0.4,0.5-0.8,0.9-1.4,1.2c-0.4,0.2-0.8,0.2-1.1,0
		c-0.3-0.3-0.4-0.7-0.4-1.1c0.2-1,0.6-2,0.9-3c0.6-2.1,1.9-4,2.3-6.2c0.2-1.2,0.6-2.4,0.7-3.6c0-1.3,0.3-2.6,0.8-3.8
		c0.2-0.4,0.3-0.8,0.4-1.2c0.6-2.7,0.7-5.4,1.6-8.1c0.1-0.3,0.1-0.6,0.1-0.9c-0.2-1.1,0-2.2,0.6-3.2c0.6-1,1-2,1.4-3.1
		c0.7-2.4,1.7-4.6,2.9-6.8c0.6-1.3,1.1-2.6,1.6-4c0.2-0.4,0.2-0.9,0-1.4c-0.3-0.8-1.2-1.2-2-0.9c-0.2,0.1-0.4,0.2-0.6,0.4
		c-0.7,0.7-1.3,1.5-2.1,2.1c-1.1,1-2.2,1.9-3.3,2.9c-0.5,0.4-1,0.9-1.4,1.4c-1.2,1.6-2.7,3-2.8,5.1c0,0.2-0.2,0.4-0.3,0.6
		c-0.4,1.4-0.8,2.7-1.2,4.1c-0.2,0.7-0.3,1.3-0.3,2c-0.2,1.7-0.4,3.4-0.5,5.1c0,1.6-0.2,3.1-0.5,4.6c-0.7,3.3-2.5,6.3-5.2,8.4
		c-0.1,0-0.2,0.1-0.2,0.2c-1.6,2-3.7,3.2-5.8,4.6c-0.5,0.4-1,0.9-1.3,1.5c-1.2,2.4-2.3,4.9-3.5,7.4c-0.3,0.6-0.7,1.2-1.2,1.7
		c-1.4,1.2-3,2.4-4.5,3.5c-2.8,2.2-2.9,2.2-3.8,5.6c0,0.1-0.1,0.3-0.1,0.4c-0.5,2-1.2,3.9-2,5.8c-3.1,6.2-6.1,12.5-10,18.3
		c-1.8,2.7-3.6,5.3-6.4,7c-0.3,0.2-0.4,0.5-0.8,1l1.8,0.8c0.7,0.2,1.4,0.6,2.1,0.9c2.1,1.4,4.7,1.9,6.6,3.5c0.1,0.1,0.3,0.1,0.4,0.2
		c1.7,0.7,3.3,1.5,4.9,2.2c0.3,0.2,0.7,0.3,1.1,0.3c0.8,0,1.5,0.2,2.2,0.6c1.7,1,3.6,1.7,5.5,2.3c1.1,0.4,2.2,0.7,3.4,0.8
		c0.4,0.1,0.8,0.2,1.2,0.5c1,0.6,2.1,0.9,3.2,0.9c1.5,0.1,2.9,0.4,4.3,0.9c1.7,0.8,3.6,1.3,5.5,1.4c0.6,0,1.2,0.2,1.8,0.3
		c1.9,0.4,3.7,0.8,5.6,1.1c0.6,0.1,1.3-0.2,1.7,0c1.4,0.8,3,0.5,4.4,1c0.6,0.2,1.2,0.3,1.8,0.3c2.4,0.1,4.9-0.1,7.3,0.5
		c0.4,0.1,0.8,0,1.1-0.2c0.8-0.3,1.6-0.3,2.4-0.1c0.5,0.2,1.1,0.3,1.7,0.3c1.7-0.2,3.4-0.3,5.1-0.3c2.7,0.1,5.4-0.1,8-0.6
		c0.3,0,0.7,0,1,0.1c0.8,0.2,1.6,0.5,2.4-0.2c0.2-0.1,0.5-0.1,0.7,0c0.7,0.4,1.3,0,1.9-0.1c0.5-0.2,1.1-0.3,1.7-0.3
		c1.2,0,2.4,0,3.5-0.3c2-0.7,4.3-0.6,6.1-1.8c1.6-0.1,3.1-0.7,4.7-0.9c1.7-0.3,3.4-0.7,5-1.2c0.8-0.3,1.6-0.6,2.4-0.7
		c0.7-0.1,1.5-0.2,2.2-0.5c1.6-0.5,3-1.5,4.7-1.9c2.4-0.5,4.6-2,7.1-2.5c0.2,0,0.4-0.1,0.5-0.3c0.9-1,2.3-1,3.5-1.5
		c0.7-0.3,1.3-0.6,1.9-1.1c0.3-0.3,0.7-0.7,1-0.6c1,0.2,2-0.3,2.6-1.1c0.1-0.1,0.3-0.2,0.5-0.3l4-2c-0.2-0.3-0.4-0.5-0.6-0.7
		c-3.5-3-7.2-5.4-11.8-6.4c-0.8-0.2-1.6-0.3-2.4-0.3c-1.9,0.1-3.8-0.1-5.6-0.6c-4.2-1.1-6.9-5.1-6.4-9.4c0.4-3.5,0.3-6.9-0.1-10.4
		c-0.3-1.7-0.7-3.4-1.1-5c-0.2-0.9-0.7-1.7-1.6-2.1c-1.2-0.7-2.6-1.1-4.1-1.2c-2.7,0-5.4-0.1-8.1-0.3c-2.2-0.3-4.4-0.9-6.4-2
		c-0.3-0.1-0.5-0.3-0.7-0.5c-1.3-1.5-2.7-2.8-3.5-4.7c-0.3-0.5-0.5-0.9-0.9-1.4c-0.3,0.5-0.6,0.9-0.8,1.4c-1.2,2.7-2.4,5.5-3.7,8.2
		c-1.9,3.6-3.9,7.2-5.8,10.8c-1.2,2.3-2.4,4.6-3.7,6.8c-0.8,1.2-1.6,2.4-2.6,3.5c-0.6,0.7-1.3,1.4-2,2c-0.5,0.5-1.1,0.9-1.8,1.1
		c-0.7,0.2-1.4,0.6-1.9,1.1c-0.4,0.4-0.8,0.8-1.3,1.1c-1.7,0.9-2.9,2.4-4.1,3.7c-3.6,3.6-7,7.4-10.2,11.4c-0.3,0.4-0.8,0.7-1.4,0.8
		c0.2-0.5,0.2-0.8,0.4-1.1c1.4-3.5,2.8-7.1,4.4-10.6s2.9-6.8,5.1-9.9c1-1.5,2.5-2.7,4.2-3.2c0.4-0.2,0.7-0.4,1-0.6
		c-0.1-0.1-0.2-0.3-0.3-0.4c-3.6-2.3-7.1-4.8-10.4-7.5c-0.5-0.4-0.9-0.9-1.2-1.4c-0.7-1.9-1.3-3.8-2-5.6c-0.4-1-0.8-2-1.3-3
		c-0.2-0.4-0.6-0.7-1-0.9c-1.3-0.2-2.6-0.2-3.8,0.3c-0.8,0.3-1.4,0.9-1.7,1.6c-1.3,2.2-3.3,3.9-5.6,5c-1.8,0.9-3.3,2.3-4.3,4
		c-3.2,4.6-6.5,9.2-9.7,13.8c-0.4,0.5-0.8,0.9-1.3,1.3c-4.2,3.1-8.4,6.2-12.6,9.3c-0.4,0.2-0.7,0.4-1.1,0.5c0.3-0.6,0.4-1,0.6-1.3
		c1.8-2.6,3.6-5.2,5.2-7.8c0.8-1.3,1.9-2.4,3.3-3.1c3.4-1.8,2.8-1.2,3.4-4.8c0.1-1.3,0.6-2.6,1.5-3.6c0.5-0.6,1-1.3,1.5-1.9
		c2.4-3.4,5.4-6.4,8.8-8.9c2.7-1.8,5.2-4,7.2-6.6c0.7-1,1.8-1.7,3-1.8c1.6-0.1,3.1-0.1,4.7,0c1.5,0.2,3,0.8,4.1,1.8
		c1.4,1.1,2.6,2.4,3.4,4c1.5,2.7,3.3,5.2,5.4,7.5c1.4,1.4,2.5,3,3.5,4.7c0.3,0.6,0.6,1.2,0.9,1.8c0.4,0.7,0.9,1.3,1.3,2
		c0.3-0.2,0.7-0.5,1-0.6c1-0.4,1.6-1.4,1.4-2.5c0-1.1,0.1-2.3,0.2-3.4c0.1-1.1,0.2-2.3,0.2-3.4c-0.1-1,0.1-2.1,0.6-3
		c1.9-3.4,3.7-6.8,5.6-10.1c2.2-4,5.2-7.5,7.9-11.2c0.2-0.3,0.5-0.5,0.9-0.8c1.9-1.3,4.1-1.8,6.4-1.4c1.9,0.2,3.6,1.3,4.5,3
		c1,1.8,2.2,3.5,3.4,5.3c0.7,1.1,1.8,1.9,3.1,2.1c2.8,0.4,5.4,1.5,8.1,2.2c1.9,0.4,3.7,1.2,5.4,2.3c3.1,2.3,5.6,5.4,7.2,8.9
		c1.5,3.1,2.6,6.4,3.3,9.8c0.3,1.4,0.6,2.7,0.9,4c0.1,0.8,0.7,1.4,1.5,1.5c1.4,0.2,2.7,0.5,3.9,1.1c2.5,0.8,4.7,2.3,6.3,4.4
		c1.8,2.2,3.3,4.7,4.5,7.3c0.3,1.1,0.9,2.1,1.6,2.9c0.7-0.5,1.2-1.2,1.9-1.3c1.1-0.3,2.1-0.8,3-1.5c2.2-1.5,4.7-2.6,6.6-4.6
		c0.1-0.1,0.3-0.2,0.5-0.3c1.4-0.7,2.7-1.4,3.9-2.2c1.2-1,2.4-2,3.7-2.8c0.1-0.1,0.1-0.1,0.2-0.2c0.5-1.1,1.5-2,2.7-2.4
		c0.2-0.1,0.4-0.2,0.6-0.4c1.5-1.8,3.7-2.7,5-4.6c0.2-0.2,0.4-0.3,0.6-0.4c2-1.3,3.7-3,5-4.9c-3.2-3.1-6.3-6.1-9.5-9.1
		c-0.7-0.7-1.6-1.3-2.5-1.8c-1.6-0.7-3.2-1.2-4.8-1.7c-0.5-0.2-1-0.2-1.8-0.4c1,1.8,2.4,2.8,3.1,4.4c-0.4-0.1-0.9-0.4-1.2-0.7
		c-1.6-1.5-3.2-3-4.8-4.5c-0.4-0.4-0.9-0.7-1.4-0.9c-2.2-1-4.7-1-6.8-2.2c-0.2-0.1-0.5-0.1-0.7-0.1L232.2,248.9z M64,258.6
		c-0.1-0.7-0.1-1.3-0.2-1.9c-0.2-1.6-0.5-3.2-0.8-4.8c-0.2-0.7,0-1.5,0.3-2.2c1.5-2.5,2.9-5,4.6-7.4c1.3-1.9,2.8-3.7,4.3-5.5
		c1.3-1.4,2.2-3.1,2.5-5c0.3-2.2,0.7-4.4,1.3-6.5c0.3-1.4,0.7-2.7,1.1-4c0.3-0.9,0.8-1.8,1.5-2.5c2.8-2.9,6.8-4.3,10.8-3.9
		c0.4,0.1,0.8,0.1,1.1-0.1c0.3-0.2,0.7-0.1,1,0.1c0.4,0.2,0.8,0.3,1.2,0.4c1.2,0.4,2.3,0.9,3.3,1.5c2.3,1.6,4.3,3.7,5.7,6.1
		c0.8,1.3,1.4,2.7,2,4.1c0.2,0.7,0.9,1,1.6,0.8c0.8-0.1,0.9-0.7,0.8-1.3c-0.1-1.3,0.3-2.6,1.3-3.4c0.4-0.5,0.9-1,1.4-1.4
		c1.9-1.3,3.3-3.4,3.7-5.7c0.5-1.6,1.6-2.9,3-3.6c2.4-1.4,5.4-1,7.4,0.8c0.9,0.9,1.6,1.9,2,3.1c0.2,0.4,0.3,0.8,0.5,1.3
		c0.2-0.2,0.4-0.3,0.4-0.4c0.1-0.2,0.1-0.5,0.1-0.7c0.2-2.5,0.6-4.9,1.2-7.3c0.5-2.4,2.4-4,3.4-6c0.1-0.1,0.2-0.2,0.3-0.3
		c0.6-0.6,1.1-1.3,1.6-1.9c0.3-0.3,0.6-0.6,0.8-1c0.3-0.3,0.6-0.7,0.9-1.1c0.4-0.8,1.1-1.4,1.9-1.6c0.6-0.1,1.1-0.4,1.5-0.8
		c0.8-1,1.4-2,1.9-3.1c0.4-1.4,0.7-2.8,0.9-4.2c0.4-2.2,1.2-2.7,3.4-2.4c0.6,0,1.1,0,1.7,0c1.5-0.1,3-0.4,4.4-1
		c3.1-1,6.1-2.4,8.8-4.3c0.2-0.2,0.5-0.3,0.8-0.4c0.9-0.5,1.8-1,2.6-1.7c1.7-1.8,3.8-2.8,5.8-4.1c0.5-0.2,1.1-0.4,1.6-0.4
		c0.6-0.1,1.2,0.2,1.3,0.8c0,0.1,0,0.1,0,0.2c0.1,0.5,0.1,0.9,0.1,1.4c0,1.2,0.1,2.4,0.3,3.5c0.3,1.3,0.7,2.7,2,3.5
		c1.7,1.2,3.8,1.7,5.8,1.5c0.6-0.1,1.3,0.2,1.6,0.7c0.6,0.8,1.1,1.7,1.5,2.6c0.5,1.5,1.2,2.9,1.8,4.3c0.7,2,1.9,3.7,3.5,5
		c0.5,0.4,1,0.9,1.4,1.4c1,1.3,2.1,2.6,3,4c0.3,0.4,0.6,0.7,0.8,1.1c0.2,0.6,0.5,1.2,0.7,1.9c0.2,0.4,0.3,0.8,0.4,1.2
		c0.4,1.8,0.8,3.5,1.1,5.3c0.1,0.3,0.2,0.5,0.3,0.8c0.8,0.1,1.5,0.2,2.2,0.2c1,0,1.1-0.1,1.3-1.1c0.4-2.4,2.4-4.2,4.8-4.3
		c2.5-0.1,5,0.3,7.5,1c0.8,0.2,1.6,0.7,2.1,1.3c1.1,1.3,2.2,2.7,3.1,4.1c0.7,1,0.8,1.1,2,0.8c2.7-0.7,5.5-0.3,7.9,1.1
		c1,0.5,2,1.1,3,1.8c1,0.6,1.9,1.4,2.7,2.3c1.2,1.4,2.3,2.9,3.2,4.5c2.9,5,5.6,10.1,8.4,15.1c0.3,0.6,0.7,1.1,1.2,1.6
		c1.9,1.5,3.9,2.9,5.9,4.3c3,2,5.8,4.2,8.4,6.6c0.7,0.6,1.5,1.2,2.3,1.7c1,0.7,2.1,1.4,3.3,2c1.5,0.7,2.8,2.2,4.7,1.8l0.7,0.8
		c0.8-0.3,1.4-0.9,1.7-1.7c0.4-1.1,1.1-2,1.9-2.8c1.5-1.1,2.3-2.8,3.4-4.2c0.7-0.9,0.9-2.1,2-2.6c0.2-0.1,0.2-0.4,0.4-0.6
		c0.4-0.5,0.8-1.1,1.1-1.6c0.3-0.4,0.6-0.8,0.8-1.1c0.8-1.4,1.2-2.9,2.5-4c0.3-0.3,0.5-0.6,0.6-1c0.5-1.8,1.5-3.4,2.8-4.7
		c1-1.1,1.2-2.8,2.4-3.8c0.1-0.1,0.1-0.3,0.1-0.4c0.3-0.8,0.6-1.7,1-2.5s1-1.7,1.4-2.6c0.7-1.6,1.2-3.2,1.9-4.8s1.4-2.9,2.1-4.4
		c0.2-0.3,0.4-0.7,0.5-1.1c0.1-2,1-3.6,1.6-5.4c0.7-2.2,1.6-4.3,2.4-6.4c0.1-0.4,0.1-0.7,0.2-1.1c0-0.9,0.1-1.9,0.4-2.8
		c0.4-0.9,0.6-1.8,0.6-2.8c0-0.2,0.2-0.5,0.3-0.6c0.5-0.7,0.8-1.5,0.7-2.4c0-1.3,0.2-2.7,0.6-3.9c0.3-1,0.4-2.1,0.5-3.1
		c0.1-0.8,0.2-1.5,0.4-2.2c0.5-1.4,0.8-2.9,0.8-4.3c0-0.3,0-0.7,0.1-1c0.3-1.4,0.4-2.8,0.2-4.2c0-0.6,0.1-1.2,0.4-1.8
		c0.1-0.4,0.4-0.7,0.4-1.1c-0.1-2.1,0.6-4.2-0.1-6.3c0-0.3,0-0.6,0-0.8c0-0.5,0-0.9,0-1.4c-0.1-0.4-0.1-0.8,0-1.3
		c0.6-1.9,0.1-3.7,0-5.5c-0.1-2-0.3-4-0.4-6c-0.1-1.6,0.1-3.2-0.1-4.8c-0.2-2.6-0.6-5.1-0.9-7.6c0-0.3-0.2-0.5-0.3-0.8
		c-0.4-1.8-0.7-3.6-1-5.4c0-0.1,0-0.2,0-0.3c0-0.5-0.1-0.9-0.2-1.4c-0.2-1.2-0.6-2.4-0.7-3.6c-0.1-0.8,0-1.7-0.7-2.3
		c-0.3-0.3-0.3-0.9-0.4-1.3c-0.2-0.8-0.3-1.7-0.5-2.5c-0.5-1.8-1.1-3.6-1.7-5.4c-0.1-0.3,0-0.6-0.1-0.8c-0.2-0.7-0.3-1.3-0.5-2
		s-0.5-1.2-0.6-1.8c-0.1-0.4-0.2-0.8-0.3-1.2c-0.3-0.8-0.5-1.6-0.9-2.4s-0.7-1.3-1-2c-0.3-0.5-0.5-1.1-0.7-1.7c-0.3-1-0.6-1.9-1-2.8
		c-1.1-1.7-2.3-3.4-2.6-5.4c-0.1-0.4-0.3-0.8-0.6-1.1c-0.2-0.3-0.4-0.7-0.6-1c-0.6-1.5-1.2-2.9-1.9-4.4c-0.2-0.4-0.5-0.8-0.8-1.2
		c-0.5-0.8-1-1.7-1.5-2.6c-0.1-0.4-0.4-0.8-0.6-1.1c-0.6-0.4-1-1.1-1.1-1.8c-0.1-0.3-0.3-0.5-0.5-0.7c-0.2,0.1-0.4,0.2-0.6,0.3
		c-1.9,1.9-3.7,3.7-5.6,5.6c-0.1,0.1-0.2,0.3-0.3,0.5c-0.5,0.9-1,1.7-1.6,2.5c-0.9,1.1-2,2-2.9,3.1c-0.7,0.7-1.3,1.5-1.9,2.3
		c-1.2,1.6-2.3,3.2-3.4,4.7c-0.2,0.3-0.4,0.7-0.7,1.1c-0.8,1.7-1.9,3.3-3.2,4.7c-1,1-2.1,2-3.1,3.1c-0.8,0.9-1.7,1.6-2.7,2.2
		c-1,0.8-2.1,1.4-3.3,1.7c-0.2,0.1-0.3,0.2-0.5,0.3c-1.3,1.1-2.8,2-4.4,2.5c-0.7,0.2-1.3,0.4-1.8,0.8c-1,0.7-2.1,1.1-3.3,1.1
		c-1,0-2,0.3-2.9,0.8c-0.7,0.3-1.5,0.5-2.3,0.7c-0.5,0.1-1,0.1-1.6,0.2c-1.2,0.3-2.4,0.5-3.6,0.6c-1.7-0.1-3.4,0-5.1,0.3
		c-0.5,0-1-0.1-1.5-0.2c-0.5-0.1-1-0.1-1.5-0.1c-2.6,0.1-5.2,0.6-7.7-0.4c-0.1,0-0.2,0-0.3,0c-1.6,0.3-3.3,0.2-4.9-0.3
		c-1-0.3-2.1-0.5-3.2-0.6c-0.8-0.3-1.7-0.4-2.5-0.4c-1.7,0.1-3.4,0-5.1-0.4c-0.3-0.1-0.6,0-0.9,0.1c-0.6,0.3-1.3,0.4-1.9,0.2
		c-1.9-0.5-4-0.2-5.6,1c-1.2,0.7-2.5,1.3-3.9,1.7c-0.8,0.4-1.5,0.9-2,1.7c-0.6,0.8-1.2,1.4-1.9,2.1c-1.1,1-2.1,2-3.2,3
		c-0.7,0.6-0.7,1.7-1.1,2.4c-0.7,1.2-1.1,2.5-1.1,3.8c-0.3,1.8-0.2,3.6-0.4,5.4c0,0.5-0.1,1-0.3,1.5c0,0.4-0.4,0.7-0.8,0.6
		c-0.1,0-0.1,0-0.2-0.1c-1.3-0.3-2.6-0.2-3.8,0.2c-3.4,0.6-6.3,2.3-9.2,4c-1,0.5-2,1.1-2.9,1.7c-1,1-2.2,1.8-3.4,2.5
		c-0.4,0.2-0.7,0.5-0.9,0.9c-0.5,0.7-1.2,1.3-2,1.7c-1.2,0.5-2.3,1.4-3.1,2.4c-0.7,1.1-1.9,1.8-3.2,1.9c-1.1,0.1-2.1,0.3-3.1,0.3
		c-2.5,0.2-4-1-4.4-3.4c-0.1-0.7-0.1-1.4-0.1-2.1c0-0.3,0.1-0.7,0-1c-0.3-0.7-0.3-1.5-0.1-2.2c0.1-0.4,0.1-0.9,0-1.3
		c-0.4-1.6,0.2-3.2-0.4-4.8c-0.1-0.7-0.1-1.3,0-2c0.1-0.5,0.1-0.9,0.1-1.4c-0.2-2.2-0.3-4.4-1.7-6.2c-0.1-0.2-0.2-0.3-0.2-0.5
		c-0.3-1-0.8-1.9-1.5-2.7c-0.6-0.8-1.7-1.3-1.8-2.5c0-0.2-0.4-0.3-0.5-0.4c-0.3-0.3-0.7-0.7-1-1s-0.7-0.9-1.1-1.3
		c-2-1.7-4.3-3.1-6.6-4.2c-0.9-0.5-1.8-0.8-2.8-1.1c-1.3-0.3-2.7-0.5-4.1-0.7c-1-0.1-2-0.2-3-0.4c-0.8-0.2-1.6-0.2-2.3,0
		c-1.2,0.3-2.4,0.5-3.6,0.6c-1.4,0.1-2.8,0-4.2,0.3s-2.5,0.8-3.8,0.3c-0.1,0-0.3,0-0.4,0.1c-2.2,0.1-4.2,1.1-6.4,0.8
		c-0.2,0-0.3,0.2-0.5,0.2c-0.4,0.1-0.7,0.1-1.1,0.2c-2.1,0.2-4.3-0.2-6.3,0.5c-0.2,0-0.4,0-0.6,0l-4.7-0.2c-0.5,0-0.9,0-1.4-0.1
		c-2-0.3-3.9-1.4-6-1.2c0,0-0.1,0-0.1,0c-1.7-0.3-3.4-1-4.9-1.8c-0.4-0.3-0.9-0.4-1.3-0.4c-0.8-0.1-1.6-0.3-2.2-0.8
		c-1-0.5-2-1-3.1-1.5c-0.5-0.3-1.1-0.6-1.6-0.9c-0.3-0.2-0.7-0.5-1-0.8c-1.4-0.9-2.7-1.9-4.1-2.8c-1.1-0.6-2-1.4-2.6-2.5
		c-0.1-0.2-0.3-0.3-0.5-0.4c-0.8-0.5-1.4-1.2-1.8-2c-0.7-1.5-1.6-2.8-2.8-3.9c-0.3-0.3-0.5-0.6-0.6-0.9c-0.5-1-1-2.1-1.6-3.1
		s-1.2-1.9-1.8-2.9c-1.3-2.6-2.4-5.3-4.7-7.2c-0.2-0.2-0.4-0.4-0.5-0.7c-0.9-1.2-1.9-2.3-3-3.4c-1.7-1.3-3.3-2.7-4.8-4.2
		c-0.1-0.1-0.2-0.2-0.3-0.3c-0.3,0-0.8-0.1-0.9,0c-0.7,0.8-1.6,1.4-1.8,2.6c-0.4,1.6-1.7,2.8-1.8,4.6c0,0.1-0.1,0.2-0.2,0.2
		c-0.6,0.5-0.9,1.2-1,2c-0.1,0.4-0.2,0.7-0.4,1c-0.8,1.1-1.4,2.3-1.8,3.5c-0.7,1.4-1.3,2.8-2,4.2c-0.8,1.7-1,3.8-2.5,5.2
		c0,0,0,0.1,0,0.1c-0.3,1.4-1.1,2.7-1.2,4.2c-0.1,0.6-0.4,1.2-0.8,1.7c-0.5,0.6-0.7,1.3-0.7,2.1c-0.1,1.3-0.4,2.5-1,3.7
		c-0.6,1.1-1,2.3-1.4,3.5c-0.5,2-0.9,4-1.4,5.9c-0.2,0.8-0.6,1.5-0.8,2.3c-0.2,0.6-0.3,1.3-0.3,1.9c0.1,0.9,0,1.8-0.4,2.6
		c-0.3,0.6-0.5,1.3-0.6,2c-0.1,1.6-0.1,3.2-0.2,4.8c0,0.3-0.1,0.7-0.2,1c-0.7,1.2-0.9,2.6-0.7,4c0,0.3,0,0.6-0.1,0.8
		c-0.7,2.1-0.3,4.4-0.5,6.5c-0.2,1.4,0,2.9-0.1,4.4c-0.1,1.6-0.6,3.2-0.3,4.8c0,0.2,0,0.5-0.1,0.7c-0.4,1.1-0.5,2.2-0.2,3.4
		c0.1,1.5,1,2.9,0.1,4.4c-0.1,0.2-0.1,0.4,0,0.6c0.6,2.1,0.2,4.2,0.7,6.4c0.6,2.6,0.4,5.4,1,8.1c0,0,0,0.1,0,0.1
		c-0.1,1.2,0.1,2.4,0.6,3.5c0.2,0.5,0.3,1.1,0.3,1.7c0.1,1.7,0.4,3.4,0.9,5c0.7,1.8,1.1,3.8,1,5.7c0,0.3,0.1,0.6,0.2,0.9
		c0.6,1.1,0.9,2.3,0.9,3.5c0.1,0.4,0.1,0.7,0.3,1.1c0.3,0.8,0.6,1.6,0.7,2.4c0.1,1.8,0.8,3.5,1.8,4.9c0.2,0.3,0.3,0.6,0.4,0.9
		c0.2,1.5,0.6,2.9,1.3,4.3c0.9,1.8,1.7,3.7,2.3,5.6c0.1,0.2,0.2,0.4,0.3,0.6c0.5,0.6,0.9,1.3,1.1,2.1c0.3,1.1,0.7,2.2,1.4,3.1
		c0.9,0.8,1.4,1.9,1.6,3.1c0.1,0.3,0.3,0.6,0.4,0.9c0.3,0.6,0.6,1.1,0.8,1.7c0.8,2,1.9,3.9,3.2,5.6c0.7,1.3,1.6,2.5,2.7,3.6
		c0.1,0.1,0.1,0.2,0.2,0.4c0.5,0.7,0.9,1.4,1.3,2.2c1,1.8,2.2,3.5,3.5,5.1c0.3,0.4,0.7,0.8,1,1.2c0.7,1,1.3,1.9,2,2.9
		c0.2,0.4,0.5,0.7,0.8,1c0.9,0.9,1.9,1.8,2.8,2.6c0.1,0.1,0.3,0.3,0.3,0.5c0.7,1.3,1.3,2.7,2.9,3.3c0.2,0.1,0.3,0.2,0.4,0.4
		c0.5,1.2,1.4,2.3,2.5,2.9c0.5,0.5,1,1,1.4,1.6c0.2,0.3,0.4,0.6,0.5,1c0.6-0.9,0.9-1.4,1.2-1.9c0.8-1.3,1.5-2.6,2.3-4
		c0.3-0.6,0.9-1.1,1.6-1.3C59.8,260.2,61.8,259.4,64,258.6z M83.2,29.5c-1,0.5-1.9,1-2.8,1.5c-1.5,1-2.9,2-4.3,3
		c-0.8,0.6-1.7,1.1-2.4,1.7c-2,1.5-4,3.1-5.9,4.7c-1.1,0.7-2.1,1.5-3.1,2.3c-1.3,1.3-2.7,2.4-4,3.6c-2.6,2.3-5,4.8-7.5,7.2
		c-2,2-4.1,4.1-6,6.3s-4.1,4.1-5.4,6.8c-0.2,0.4-0.5,0.7-0.8,1c-0.5,0.6-1,1.3-1.5,1.9c-0.5,0.4-0.5,1.1-0.1,1.6c0,0,0,0,0.1,0.1
		c0.8,0.8,1.5,1.8,2.3,2.6c3.4,3.4,6.4,7.2,8.8,11.3c0.1,0.2,0.3,0.4,0.4,0.6c2.1,2.7,4.3,5.3,6.4,8s4.1,5.4,6.8,7.5
		c0.6,0.5,1.1,1.2,1.8,1.6c1.2,0.8,2.4,1.6,3.6,2.3c2.2,1.3,4.4,2.6,6.7,3.8c2.3,1.1,4.8,1.8,7.4,2.1c3.4,0.6,6.8,0.9,10.2,1
		c1.6,0,3.1,0.2,4.7,0.2c0.4,0,0.9,0,1.3,0c2-0.2,4-0.4,5.9-0.5c2.2-0.1,4.4-0.6,6.6-1.3c1.4-0.5,2.9-0.9,4.4-1
		c4.4-0.2,8.9,0.2,13.2,1.1c1.7,0.3,3.4,1,4.7,2.2c1.9,1.8,3.9,3.6,6,5.3c0.7,0.6,1.5,1.1,2.4,1.5c0.9,0.4,2,0.2,2.6-0.5
		c0.6-0.7,0.7-1.6,0.3-2.4c-0.3-0.6-0.6-1.3-1-1.9c-0.3-0.4-0.5-0.8-0.8-1.2c-0.6-1.4-1.6-2.6-2.8-3.6c-2-1.8-3.7-3.8-5.9-5.4
		c-1.5-1.1-3-2.1-4.7-3c-2.5-1.2-5-2.3-7.6-3.2c-1.3-0.6-2.8-1-4.2-1.2c-2.8-0.4-5.7-0.7-8.5-0.9c-2.1-0.1-4.1-0.4-6.2-0.8
		c-2.6-0.5-5.2-1.1-7.8-1.6c-3.7-0.8-6.2-3.3-8.5-6c-2.2-2.8-3.9-5.9-5.1-9.2c-0.6-1.4-1.4-2.8-1.2-4.5c0-0.3-0.2-0.6-0.2-1
		c-0.1-1.1-0.2-2.3-0.2-3.4c0-0.6,0.4-1,0.9-1.1c0.3,0,0.6,0.1,0.8,0.4c0.5,0.3,0.8,0.8,1,1.4c0.8,3.7,3.1,6.6,5.2,9.5
		c1.2,1.5,2.6,3,4,4.3c0.9,0.9,1.9,1.8,3,2.7c1.5,1.3,3.4,2,5.4,1.8c1.2-0.2,1.6-0.4,1.7-1.7c0-1.6-0.4-3.2-1.1-4.7
		c-1-2-2.2-3.9-3.2-5.9c-1.3-2.4-2.5-4.9-3.7-7.4c-0.3-0.5-0.5-1.1-0.6-1.7c-0.1-0.5,0-1,0.3-1.4c0.3-0.5,1-0.4,1.4-0.1
		c0.6,0.3,1.1,0.7,1.6,1.1c1.1,1.2,2.1,2.5,3,3.8c2.2,3.6,4.2,7.3,6.4,10.9c0.6,1,1.4,1.9,2.2,2.8c2,2,4.7,3,7.2,4.2
		c1.7,0.7,3.4,1.3,5.1,1.8c2.4,0.8,4.8,1.6,7.1,2.6c1.4,0.6,2.8,1.4,4.1,2.2c1.5,0.9,2.9,2,4.3,3c0.6,0.4,1.1,0.9,1.7,1.3
		c1.3,1,2.7,2,3.9,3c1.4,1.2,3.1,2.2,3.9,4c0.3,0.8,0.8,1.6,1.3,2.3c1.5,1.8,2.4,4,2.6,6.4c0.2,1.3,0.5,2.5,0.9,3.8
		c0.1,0.5,0.3,1,0.6,1.4c0.3,0.6,1.1,0.9,1.7,0.5c0.2-0.1,0.4-0.3,0.5-0.5c0.5-0.7,0.8-1.5,0.9-2.4c0.1-3-0.2-6.1-0.9-9
		c-0.5-2.6-1.3-5.2-2-7.7c-0.3-1.2-0.8-2.3-1.2-3.5c-0.8-2.4-1.7-4.7-2.5-7.1c-0.4-1.2-1-2.3-1.5-3.5c-1-2.3-2-4.6-3-6.9
		c-0.5-1.2-1.1-2.4-1.8-3.5c-0.7-1.1-1.5-2.1-2.4-3c-0.7-0.8-1.6-1.5-2.3-2.3c-1.6-1.7-3.1-3.5-4.7-5.2c-2.6-2.7-5.3-5.3-8-8
		c-0.2-0.2-0.5-0.4-0.8-0.6c-1.5-0.6-2.9-1.1-4.4-1.5c-3.8-0.8-7.7-1.3-11.6-1.6c-2.5-0.2-4.9-0.6-7.3-1.3
		c-4.3-1.4-8.1-4.1-10.9-7.6c-1.4-1.7-2.5-3.7-3.3-5.8c-0.6-1.3-1-2.8-1.5-4.1c-0.6-1.7-1.2-3.4-1.8-5.1
		C83.7,30.1,83.5,29.8,83.2,29.5z M228,111.9c2-0.2,4.1-0.4,6.2-0.7c1.7-0.2,3.3-0.6,4.9-1.1c2-0.7,3.8-1.7,5.7-2.6
		c0.2-0.1,0.4-0.1,0.7-0.2c0.7-0.2,1.4-0.5,2-0.8c1.7-1.1,3.4-2.2,5-3.3c1.8-1.2,3.4-2.5,5-4c2.4-2.4,4.5-5.1,6.2-8
		c1.3-2.1,2.8-4,4.1-6.2c0.9-1.6,2.3-2.8,3.3-4.3c1.7-2.3,3.7-4.3,6-6c2.1-1.7,1.9-1.5,0.5-3.9c0,0-0.1-0.1-0.1-0.1
		c-2.2-2.5-3.9-5.4-6.2-7.8c-1.8-1.9-3.3-4.1-5.1-5.9c-2.9-3-5.9-6-9.1-8.8c-3.3-3-6.8-5.8-10.3-8.5c-1.8-1.4-3.7-2.7-5.6-3.9
		c-3.2-2.1-6.5-4.1-9.7-6.2c-1.4-0.9-2.8-1.9-4.2-2.6s-2.5-0.5-3.1,1c-1.2,2.7-2.5,5.3-3.7,8c-0.2,0.4-0.3,0.8-0.5,1.2l-3.5,9
		c-0.2,0.6-0.5,1.2-0.6,1.7c-1.5,4.7-3,9.4-4.4,14.1c-0.3,1-0.5,2.1-0.6,3.1c0,1.1,0.3,1.4,1.4,1.3c1.2-0.1,2.4-0.3,3.6-0.6
		c1.6-0.4,3.2-0.9,4.8-1.2c0.9-0.2,1.8-0.2,2.7-0.1c0.7,0.1,1.3,0.4,1.8,0.8c0.6,0.3,0.8,1.1,0.5,1.7c-0.1,0.1-0.2,0.3-0.3,0.4
		c-0.5,0.5-1.2,1-1.8,1.3c-2.2,1-4.4,1.9-6.6,2.7c-1.9,0.8-3.9,1.5-5.9,2.2c-3.5,1-7,2.3-10.3,3.8c-3.9,1.9-7.4,4.5-10.4,7.7
		c-0.5,0.6-0.9,1.2-1.3,1.8c-1,1.3-2,2.5-3,3.8c-0.5,0.7-0.8,1.5-1.1,2.3c-1.1,2.8-2.1,5.7-3.1,8.6c-1.1,3.4-2.3,6.9-3.3,10.3
		c-0.3,1.4-0.5,2.8-0.6,4.2c0,1,0.7,2,1.7,2.3c0.7,0.3,1.5,0.2,2-0.3c1.3-1,2.4-2.1,3.6-3.3c1.5-1.7,3.3-3.2,5.3-4.4
		c0.5-0.3,1-0.5,1.6-0.6c2.5-0.4,5.1-0.7,7.6-1.1c0.3-0.1,0.7-0.1,1,0c1.4,0.3,2.8,0.6,4.2,0.9c0.9,0.2,1.8,0.4,2.7,0.5
		c0.8,0.1,1.6-0.1,2.3-0.5c1.9-1.2,3.6-2.9,4.8-4.8c1.1-1.8,2.1-3.7,3.2-5.5c1.4-2.2,2.8-4.3,4.4-6.3s3.2-4,5-5.9
		c0.5-0.5,1.1-0.9,1.8-1c1.6-0.3,2.6,0.8,2.2,2.3c-0.1,0.4-0.2,0.7-0.4,1.1c-1.1,1.9-2.3,3.8-3.6,5.6c-2.9,3.6-5,7.8-6.2,12.2
		c-0.2,0.8-0.2,1.7-0.1,2.6c0,0.9,0.7,1.6,1.6,1.6C224.3,111.7,226.2,111.8,228,111.9z M164.6,97.3L164.6,97.3
		c0,0.9,0.1,1.8,0.2,2.7c0.1,1.1,0.3,2.2,0.3,3.3c0,3.5,0.3,6.9,0.6,10.4c0.2,2.2,0.9,4.4,2,6.3c0.2,0.4,0.6,0.6,1,0.5
		c0.8-0.2,1.6-0.5,1.8-1.4c0.3-1.1,0.8-2.2,1-3.4c0.4-1.5,0.6-3.1,0.9-4.6c0.2-1.1,0.6-2.1,0.9-3.1c1.6-5.1,3.2-10.2,4.8-15.2
		c0.6-1.9,1.4-3.8,2.2-5.7c0.3-0.7,0.8-1.3,1.1-2c1.6-3,3.6-5.7,6.1-8c0.2-0.2,0.5-0.4,0.8-0.6c2.5-1.4,4.6-3.4,7.3-4.7
		c1.8-1,3.6-2.2,5.2-3.4c1-0.6,1.7-1.6,1.9-2.8c0.3-1.6,0.7-3.3,1.1-4.9c1.2-4.3,2.5-8.6,4-12.8c1.1-2.9,2.1-5.8,3.2-8.7
		c0.7-1.9,1.6-3.8,2.4-5.6c1.1-2.6,2.3-5.2,3.3-7.9c0.6-1.9-0.3-3.9-2.2-4.5c0,0-0.1,0-0.1,0c-1.7-0.6-3.3-1.4-5-2
		c-1.9-0.8-3.9-1.6-5.8-2.2c-2.5-0.8-5.1-1.4-7.7-2.1c-3.5-0.9-6.9-1.7-10.4-2.5c-0.2-0.1-0.5-0.1-0.7-0.1c-1.6-0.4-3.2,0.4-3.9,1.9
		c-1.7,3.1-3.2,6.3-4.4,9.6c-1.4,3.4-2.5,7-3.8,10.5c-0.7,2-1.4,4-1.9,6c-0.9,3.1-1.7,6.1-2.5,9.2c-0.7,2.6-1.3,5.3-1.9,7.9
		c-0.5,2.4-0.9,4.8-1.3,7.2c-0.4,2.8-0.8,5.7-1.1,8.5c-0.2,1.6-0.3,3.2-0.3,4.8c-0.1,2.8-0.1,5.7-0.1,8.5c0,1.5,0,3,0.1,4.6
		C164.2,93,164.4,95.2,164.6,97.3z M79.9,254.5l0.2,0.2c-0.5,3.1-6.2,11.3-8.7,12.1c0.8-1.2,1.6-2.1,2.3-3.1c0.9-1,1.5-2.2,1.7-3.5
		c-1.3,0.3-2.4,1.1-3.1,2.1c-1,1.3-1.9,2.6-2.8,3.9c-0.2,0.2-0.5,0.5-0.8,0.6l-0.4-1.6c-0.4,0.2-0.7,0.3-1,0.4
		c-0.8,0.5-1.6,1-2.4,1.5c-2.2,1.1-4.3,2.1-6.5,3.2c-1.1,0.5-1.1,1.1-0.3,2c0.2,0.2,0.5,0.4,0.8,0.6c1.9,1.7,3.9,3.3,5.8,5.1
		c2.3,2.2,5.1,3.7,7.7,5.6c0.2,0.2,0.6,0.2,0.8,0.4c0.6,0.4,1.1,0.8,1.7,1.3s0.8,1,1.4,1.2c2.2,0.8,4.3,2.1,6,3.7
		c0.6,0.5,1.2,0.6,1.7-0.1c1-1.1,2.2-2,3.5-2.7c1-0.5,1.7-1.5,1.7-2.6c0.1-2.1,0.8-4.1,2.1-5.8c1.8-2.4,3.5-5,5.3-7.4
		c1.1-1.4,1.9-2.9,2.4-4.5c1.3-4.2,3.3-8.1,5.9-11.7c1.4-1.8,2.7-3.7,4-5.6c0.7-0.9,0.6-1.2-0.2-1.9l-0.2-0.2
		c-4.2-3-8.4-6.1-12.6-9.1c-0.5-0.3-0.8-0.8-1-1.3c-0.3-1.3-0.5-2.7-0.6-4.1c-0.2-1.9-0.2-3.7-0.4-5.6c-0.1-1.3-0.5-2.6-0.8-3.9
		c-0.1-0.7-0.7-1.2-1.4-1.3c-1.3-0.3-2.3,0.3-3.4,0.8c-1.1,0.5-1.9,1.5-2.1,2.7c-0.1,0.6-0.2,1.2-0.3,1.8c-0.2,2.1-0.8,4.2-1.5,6.2
		c-1.6,3.8-2.8,7.7-4.3,11.5c-0.9,2.6-2,5.1-3.4,7.5c-0.3,0.6-0.6,1.1-1,1.8c1.2,0.6,1.5,1.6,1.5,3L79.9,254.5z M151.2,10.1
		L151.2,10.1c-2.2,0.1-4.5-0.1-6.7,0.1c-3.6,0.3-7.2,0.9-10.8,1.3c-1.8,0.2-2.1,0.7-1.8,2.5c0.9,4.3,1.9,8.6,2.9,12.8
		c0.8,3.1,1.6,6.3,2.7,9.3c2.4,6.9,4.9,13.7,7.4,20.5c0.5,1.3,1,2.6,1.5,3.9c1.2,3.2,2.4,6.4,3.5,9.6c0.5,1.4,0.9,2.9,1.4,4.3
		c0.1,0.2,0.2,0.3,0.2,0.5c0.6,1.9,1.1,3.7,1.7,5.6c0.3,1.2,1,2.2,1.9,3c1,0.8,2,0.5,2-0.7c0.3-2.4,0.3-4.8,0.2-7.2
		c-0.1-2.4,0-4.7,0.2-7.1c0-2.7,0.4-5.3,1-7.9c0.4-1.4,0.4-2.8,0.8-4.2c0.9-3.5,1.8-7,2.7-10.5c1.4-4.8,2.8-9.6,4.2-14.4
		c1.2-3.8,2.5-7.5,3.8-11.2c0.8-2.4,1.4-4.7,2.1-7.1c0.4-1.7-0.2-2.4-1.9-2.5c-2-0.1-4.1-0.1-6.1-0.2
		C159.7,10.2,155.4,10.2,151.2,10.1z M139.6,61c-0.4-0.9-0.6-1.8-1-2.6c-1.5-3-3.1-5.9-4.5-8.9c-1.4-3.4-2.5-7-3.4-10.6
		c-2.2-7.9-4.2-15.8-6-23.8c-0.3-1.4-0.7-1.6-2-1.2c-2.6,0.8-5.2,1.5-7.8,2.3c-5,1.6-10,3.3-15,5.1c-2.6,1-5.2,2.1-7.7,3.3
		c-1.3,0.6-1.4,0.9-1.1,2.4c0.9,4.1,2.4,8.1,4.5,11.8c0.6,1.2,1.4,2.4,2.3,3.4c2.6,2.5,5.9,4.1,9.5,4.5c3.3,0.6,6.6,0.9,9.9,1.2
		c4.1,0.2,8,1.6,11.2,4.1c1.1,0.8,2.2,1.7,3.1,2.7c1.3,1.5,2.4,3.2,3.6,4.8c0.7,0.9,1.5,1.8,2.4,2.7c0.3,0.4,0.9,0.4,1.3,0.1
		c0,0,0,0,0,0C139.1,61.8,139.4,61.4,139.6,61z M111.9,245.8c1.7-1.8,3.3-3.6,4.8-5.6c1.6-2.4,3-5,4.4-7.5c0.6-1,1.1-2,1.4-3.1
		c0.3-1.1,0.7-2.3,1.2-3.3c0.7-1.2,0.6-2.7-0.4-3.7c-0.9-1-1.6-2.1-2.5-3.1c-0.7-0.6-1-1.4-0.9-2.2c0.1-0.5-0.1-1-0.4-1.5
		c-0.3-0.4-0.7-0.7-1.2-0.8c-0.6-0.1-0.8,0.5-1,1c-0.3,0.9-0.5,1.7-0.8,2.6c-0.2,0.6-0.4,1.3-0.7,1.9c-1.8,3-3.3,6.2-5.8,8.8
		c-0.6,0.8-1.5,1.4-2.5,1.7c-0.4,0.1-0.8,0.3-1.2,0.6c0.9,1.6,1.9,3.2,3,4.8c0.7,0.9,1.2,1.9,1.3,3.1
		C111,241.3,111.4,243.4,111.9,245.8z"/>
	<path class="st0" d="M232.5,249.3l0.5,1.2c-1.6-0.4-5.3-3.8-6-5.4c0.6-0.2,0.9,0.1,1.2,0.4c0.9,0.8,1.8,1.5,2.7,2.3l1.3,1.1
		L232.5,249.3z"/>
	<path class="st0" d="M152,175c-0.5,0.8-1.1,1.8-1.8,2.8c-1.1,1.6-2.5,2.9-4.3,3.6c-2.7,1.2-5.3,0-6-2.9c-0.4-2-0.4-4.1-0.1-6.1
		c0.3-1.8,0.4-3.7,0.5-5.6c-0.1,0.3-0.2,0.5-0.3,0.8c-0.8,2.8-2.2,5.3-4.2,7.4c-1,1.1-2.4,1.9-3.9,2.2c-3,0.7-5.2-0.8-5.6-3.9
		c0-0.3,0-0.6-0.1-0.9s-0.1-0.4-0.2-0.9c-1.6,1.5-3.3,2.4-5.2,2s-3.1-2-3.6-4.2c-0.6,0.8-1,1.4-1.5,2c-1.3,2-3,3.7-5,5
		c-1,0.6-2.2,1-3.4,1.1c-2,0.1-3.7-1.4-3.9-3.4c-0.2-0.8-0.3-1.7-0.4-2.8c-0.8,0.8-1.6,1.4-2.2,2.1c-1.2,1.3-2.7,2.2-4.3,2.6
		c-3.1,0.9-5.1-0.2-5.8-3.4c-0.2-0.9-0.2-1.8-0.3-2.8c-2.7,1.5-5.3,2.1-8.1-0.2c0.1,0.8,0.3,1.7,0.5,2.5c0.3,0.6,0.2,1.4-0.3,1.8
		c-1.4,1.4-3.4,2.1-5.3,1.8c-0.9-0.2-1.7-0.9-2-1.9c-0.8-1.7-1.2-3.5-1.2-5.4c0-3.5,0.2-6.9,0.7-10.4c0.2-2,0.2-4,0.1-6
		c0-0.6-0.3-1.1-0.7-1.4c-0.7-0.3-1.3,0.2-1.7,0.8c-0.6,0.8-1.1,1.7-1.4,2.6c-0.7,2-1.3,4.1-1.8,6.1c-0.6,3-0.9,6.1-1.4,9.2
		c-0.2,1.6-0.4,3.2-0.7,4.8c-0.7,2.4-2.8,4.1-5.3,4.2c-1,0-1.9-0.4-2.4-1.3c-0.4-0.7-0.8-1.4-1-2.2c-0.6-2.1-0.9-4.2-0.9-6.3
		c-0.2-3.9,0.4-7.8,0.4-11.7c0-2,0.4-4.1,0.6-6.1s0.1-4,0.1-6c0-1,0.1-1.3,1.1-1.3c1.1,0,2.3,0.1,3.4,0.3c2,0.3,3.5,2,3.6,4.1
		c0,1.6,0,3.1-0.2,4.7c0,0.2-0.1,0.5-0.1,0.7c-0.1,1.8-0.2,3.5-0.3,5.3c0,0.5,0,1,0.2,1.5c0.3-0.7,0.5-1.5,0.8-2.2
		c0.8-1.9,1.5-3.9,2.4-5.8c0.5-1,1.1-1.9,1.8-2.7c2-2.4,5.2-3.3,8.2-2.3c1.4,0.5,2.4,1.8,2.6,3.3c0.5,3.3-0.3,6.6,0,10
		c0.1,1.4,0,2.8,0,4.5c2.3-3.4,5.4-4.7,9.3-4.6c0-0.5,0.1-1,0.1-1.5c0-0.7,0.4-1.2,1.1-1.2c3,0,5.5,0.7,6.2,4.2
		c0.1,0.3,0.1,0.7,0.1,1c0,2.3-0.1,4.6-0.2,6.9c0,0.2,0,0.4,0,0.6c0.2,0.4,0.4,0.9,0.7,1.1c0.2,0.1,0.8-0.3,1-0.6
		c0.7-0.8,1.3-1.7,1.9-2.7c0.2-0.5,0.3-1.1,0.3-1.6c0-2,0-4,0-6c0-1.2,0.2-2.5,0.2-3.7s-0.2-1.4-1.4-1.3c-0.8,0.1-1.6,0.2-2.4,0.2
		c-1,0-1.2-0.3-1.2-1c-0.2-0.6,0.2-1.3,0.9-1.5c0.1,0,0.2,0,0.3,0c1-0.2,2.1-0.4,3.1-0.6s1.2-0.3,1.2-1.4c0.1-2.4,0.1-4.7,0.1-7.1
		c0-0.7,0.3-1.1,1-1.2c3.2-0.2,6.7,0.9,6.5,5.4c0,0.9-0.1,1.7-0.1,2.6c-0.1,0.5,0.3,1,0.8,1.1c0.1,0,0.2,0,0.2,0
		c0.9,0,1.7,0,2.6-0.1s1.3,0.1,1.4,0.8c0.2,0.7-0.2,1.5-0.9,1.7c-0.4,0.1-0.8,0.2-1.3,0.2c-0.3,0-0.6,0-0.8,0.1
		c-2.1,0.2-2.2,0.3-2.3,2.4c0,1-0.2,2-0.2,3s0.2,2,0.2,3c0,0.8-0.1,1.5-0.1,2.3s0,1.8,0,2.7s0.1,1.8,0.1,2.7c-0.1,0.8,0.3,1.6,1,2.1
		c1-0.4,1.8-1.1,2.3-2.1c1.1-1.7,2.2-3.5,3.2-5.3c0.3-0.8,0.6-1.6,0.6-2.4c0.2-1.5,0.3-3,0.6-4.5c0-0.3,0.5-0.7,0.7-0.7
		c1.2,0,2.5,0.1,3.7,0.4c1.4,0.5,2.3,2,2,3.5c-0.2,2.2-0.4,4.4-0.6,6.5c0,0.5,0.1,1,0.3,1.5c1.1-0.4,1.9-1.3,2.2-2.3
		c0.9-2.1,1.2-4.3,1-6.6c-0.1-1.1,0.2-1.6,1.3-1.6c1.6-0.2,3.2,0.2,4.5,1c1,0.6,1.5,1.6,1.6,2.7c0,1.8-0.1,3.5-0.2,5.3
		c-0.1,1.5-0.1,3-0.2,4.6c0.8,0.2,1.1-0.4,1.4-0.8c1.3-2,2.2-4.1,2.8-6.4c0.2-0.7,0-1.1-0.7-1.3c-2.3-0.6-3.1-2.1-3.1-4.6
		c0-2.9-0.2-2.6,2.8-3.1c0.5-0.1,0.9-0.1,1.4,0c0.9,0.1,1.7,0.7,2,1.6c0.1,0.4,0.2,0.8,0.3,1.2c0.3,1.1,0.5,1.3,1.6,1.4
		c0.7,0,1.3,0.1,2,0.3c2.4,0.6,3.5,1.8,3.6,4.3c0,1.7-0.2,3.4-0.4,5.1c-0.1,1.9-0.3,3.7-0.4,5.5c0,0.4,0.1,0.7,0.1,1.1
		c0.2,0,0.3,0.1,0.4,0.1c1.8-1.6,3.1-3.3,2.9-5.9c-0.1-2.1,0.2-4.1,1.1-6c1.3-3.2,4-4.5,7.2-4.7c0.9-0.1,1.9,0,2.8,0.3
		c1.3,0.4,2.1,1.6,2.1,2.9c0.3,2.4-1.3,4.6-3.6,5.2c-0.5,0.2-1,0.2-1.5,0.4c-0.8,0.2-1,0.7-0.8,1.5s0.7,1.2,1.5,1
		c0.6-0.1,1.2-0.4,1.7-0.8c2.5-1.9,4.8-4.2,6.6-6.8c0.2-0.3,0.4-0.6,0.6-0.8c0.2-0.5,0.8-0.7,1.3-0.4c0,0,0.1,0.1,0.1,0.1
		c0.5,0.3,0.6,0.9,0.4,1.4c0,0-0.1,0.1-0.1,0.1c-0.8,1.5-1.8,3-2.9,4.4c-1.6,2.1-3.6,3.9-5.9,5.4c-1.8,1.1-3.7,2.1-5.9,1.9
		C154.3,175.7,153.2,175.4,152,175z M91,163.8c-1-0.2-2.1,0-2.9,0.7c-0.4,0.5-0.7,1.1-0.8,1.7c-0.1,0.3,0.1,0.7,0.4,0.8
		c0.2,0.1,0.4,0,0.6-0.1c0.9-0.6,1.7-1.3,2.5-2.1C90.9,164.7,90.9,164.2,91,163.8L91,163.8z M158.3,166.9c1.3,0,2.4-0.8,2.9-1.9
		c0.1-0.3,0.1-0.9-0.1-1c-0.3-0.2-0.8-0.3-1.2-0.1c-0.3,0.1-0.6,0.4-0.8,0.8C158.8,165.2,158.6,165.9,158.3,166.9L158.3,166.9z"/>
	<path class="st0" d="M202,173.4c0.5-0.4,0.9-0.8,1.4-1.1c1.2-1,2.3-2,3.5-2.9c0.4-0.3,0.7-0.8,0.7-1.3c0-0.9,0-1.7,0-2.6
		c0.2-2.8,0.3-5.6,0.5-8.4c0.1-1,0.1-2.1,0.2-3.1c0.1-1.4,0.3-2.7,0.6-4.1c0.3-1.2,1.5-2,2.8-1.7c0,0,0.1,0,0.1,0
		c2,0.5,3.7,1.8,4.7,3.6c1.7,3,2.1,6.5,1.3,9.8c-0.3,1.3-0.8,2.4-1.6,3.5c-0.9,1.2-1.4,2.6-1.3,4.1c0.1,1.7,0,3.3,0,5
		c-0.1,0.7,0.1,1.4,0.6,1.9c0.3-0.1,0.6-0.2,0.9-0.4c2.1-1.5,3.7-3.4,4.9-5.7c1.4-1.1,1.5-2.9,2-4.4c1.3-3.4,4.6-5.5,8.2-5.4
		c0.9,0.1,1.7,0.3,2.5,0.6c1.2,0.4,2,1.7,1.8,2.9c-0.1,1.9-0.8,3.6-2.7,4.5c-0.7,0.3-1.5,0.6-2.3,0.8c-1.2,0.3-1.2,0.3-1,1.5
		c0,0.1,0,0.3,0.1,0.4c0.2,0.8,0.6,1.1,1.4,0.7c1-0.4,2-1,2.8-1.7c2.1-1.8,3.9-3.8,5.5-6c0.5-0.5,0.7-1.3,0.5-2
		c-0.1-0.2,0-0.5-0.1-0.7c-0.6-2.6,0.7-4.3,2.6-5.7c0.7-0.4,1.4-0.8,2.2-1c0.8-0.3,1.3,0.1,1.1,0.9c-0.4,2.2,0.6,4,1.6,5.8
		c0.2,0.5,0.7,0.8,1.3,0.6c0,0,0.1,0,0.1-0.1c2.9-0.8,5.7-0.1,8.2,1.3c0.4,0.2,0.7,0.5,1,0.8c0.3,0.4,0.3,0.9,0,1.3
		c-0.4,0.4-0.8,0.2-1.2,0c-1.7-1-3.7-1.5-5.8-1.3c-0.6,0.1-1.1,0.2-1.7,0.4c0.3,0.6,0.5,1.1,0.8,1.5c1.2,1.8,2.4,3.7,3.6,5.5
		c0.8,1.3,1.2,2.7,1.3,4.2c0.1,1.8-0.8,3.4-2.4,4.3c-3.6,2.3-8.7,0.6-10.3-2.6c-1.4-2.9-1.1-5.6-0.2-8.4c0.5-1.7,0.6-1.6-0.9-3.1
		c-0.8,1.1-1.6,2.2-2.5,3.2c-2.6,2.9-5.3,5.6-9.1,6.9c-1,0.4-2.1,0.5-3.2,0.3c-1.3-0.2-2.5-1-3.2-2.1c-0.2-0.3-0.4-0.6-0.7-1.1
		c-0.3,0.3-0.6,0.5-0.8,0.8c-0.9,1.1-1.8,2.3-2.8,3.4s-2.1,2.2-3.2,3.2c-1.3,1-2.8,1.7-4.4,1.8c-0.9,0.1-1.8-0.5-2.2-1.3
		c-0.9-1.6-1.4-3.5-1.4-5.3c-0.1-1-0.2-2-0.3-3.2c-1.2,1.2-2.5,2.4-3.9,3.4c-1.5,1-3.1,1.8-4.8,2.4c-0.7,0.2-1.5,0.2-2.2,0.1
		c-1.4-0.1-2.5-1-2.9-2.3c-0.5-1.3-0.7-2.7-0.5-4.1c-1,0.4-1.8,0.8-2.6,1.1c-0.5,0.2-1,0.3-1.5,0.3c-3.7,0.2-5.8-2.8-4.2-6.2
		s4.2-4.6,7.6-4.8h1c0,0,0.1-0.1,0.3-0.1c0-0.4,0.1-0.8,0.1-1.3c0.1-0.9,0.3-1.2,1.2-1.2c1,0,2,0.1,3,0.3c2,0.4,3.4,2.3,3.3,4.3
		c0.1,2.3,0,4.7,0,7C201.4,172,201.6,172.8,202,173.4z M245.2,170.7c-0.8,2.5-0.5,4.6,0.8,5.9c0.4,0.4,0.8,0.8,1.4,0.5
		s0.6-0.8,0.5-1.3C247.6,173.8,246.5,172.3,245.2,170.7z M193.3,165.7c-0.9,0-1.7,0.2-2.5,0.7c-0.6,0.3-1,1.1-0.9,1.8
		c0.1,0.9,0.5,1.2,1.2,0.8c0.8-0.4,1.5-1,2.1-1.6C193.7,166.9,193.7,166.2,193.3,165.7L193.3,165.7z M230.5,167
		c1.1,0.2,2.2-0.5,2.6-1.5c0.2-0.5,0.3-0.9-0.1-1.3c-0.4-0.3-1.1-0.3-1.4,0.2c0,0,0,0,0,0C230.8,165,230.4,166,230.5,167z
		 M215.7,157.9l-0.3,3.3h0.3C216,160.2,216,159,215.7,157.9L215.7,157.9z"/>
	<path class="st0" d="M175.7,155.5c-1.4-0.4-2.8-0.6-4.1,0.1c-0.9,0.5-1.3,0.4-2-0.3c-1.2-1.2-1.8-2.7-1.9-4.4c0-2,1.6-3.7,3.6-3.9
		c2.2-0.4,4.5-0.4,6.7-0.2c3.9,0.4,7.9,0.7,11.8,1c1.3,0.1,1.5,0.3,1.7,1.6c0.1,1,0,2.1-0.4,3.1c-0.6,2.2-2.5,3.7-4.8,3.6
		c-1.4-0.1-2.7,1-2.8,2.4c-0.3,1.8-0.5,3.6-0.6,5.4c-0.1,2.6,0,5.2-0.1,7.9c0,2.3,0,4.6,1.2,6.8c0.2,0.5,0.1,1.1-0.4,1.4
		c-1.3,1.2-3,1.9-4.8,1.9c-1.7-0.1-2.5-1.4-2.9-2.8c-0.4-1.4-0.7-2.9-0.8-4.3c-0.2-1.6-0.2-3.1-0.3-4.7c0-1,0.1-2,0.2-3
		c0.2-3.6,0.5-7.2,0.7-10.8C175.8,156,175.7,155.8,175.7,155.5z"/>
	<path class="st0" d="M171.6,299.9c1-1.1,1.8-2.1,2.6-3c0.9-1.2,2.2-2,3.7-2.1c1.2-0.1,1.3-0.2,1.4-1.6c0.1-0.9,0.5-1.7,1.1-2.4
		c2-1.9,4.4-3.4,7-4.3c1.1-0.4,2.2-0.5,3.4-0.3c3.8,0.4,6.2,2.8,8.5,5.5c1.2,1.6,2.3,3.3,3.3,5c0.3,0.6,0.4,1.2,0.5,1.9
		c0.2,1.1,0.3,2.1,0.5,3.4c-0.4-0.1-0.8-0.2-1.1-0.4c-1.7-1.3-3.4-2.6-5.1-3.8c-0.6-0.4-1.1-1.1-1.2-1.9c-0.2-1.1-0.6-2.1-0.8-3.2
		c-0.2-0.8-0.8-1.4-1.7-1.5c-1.5-0.2-3-0.5-4.5-0.7c-0.4,0-0.8,0.2-1.1,0.4c-0.4,0.4-0.8,0.8-1.2,1.2c-1.7,1.6-3.4,3.3-5.2,4.9
		c-0.3,0.3-0.7,0.5-1.1,0.7c-2.7,0.7-5.4,1.4-8.1,2.1C172.2,300,171.9,299.9,171.6,299.9z"/>
	<path class="st0" d="M165.8,273.7l2.3-3.8l0.3,0.1c0,0.3,0,0.6,0,0.9c-1.4,4.4-3.6,8.5-6.5,12.1c-0.3,0.3-0.6,0.5-1,0.7
		c1.1-2.5,2.9-4.6,3.5-7.3c-0.6-0.2-1.2,0.1-1.5,0.5c-0.9,0.9-1.7,1.8-2.4,2.8c-0.7,1-1.3,2.1-1.9,3.2c-0.2,0.4-0.5,0.7-0.9,1.3
		c-0.4-0.9-0.4-2,0.1-2.9c0.8-1.6,1.6-3.1,2.5-4.6s2-3.1,3-4.6c0.2-0.4,0.4-0.9,1-0.6c0.4,0.2,0.8,0.5,1,0.9c0.2,0.5,0.2,1,0.2,1.5
		L165.8,273.7z"/>
	<path class="st0" d="M111.9,291.8c1.2-2.4,2.3-4.6,3.3-6.9c0-0.1-0.1-0.2-0.2-0.4c-0.3,0-0.6,0.1-0.8,0.3c-0.7,0.6-1.4,1.3-2,2
		c-0.9,1.2-1.6,2.6-2.4,3.9c-0.3,0.5-0.7,1-1.2,1.6c-0.4-0.5-0.5-1.2-0.3-1.8c0.3-1,0.7-2,1.2-2.9c1.5-2.6,3.2-5.1,4.8-7.6
		c0.2-0.3,0.7-0.6,0.9-0.5c0.4,0.2,0.8,0.5,1,0.9c0.2,0.5,0.3,1,0.3,1.5c1.4-1.1,1.7-2.8,2.8-3.9
		C119.7,280.6,114.8,289.7,111.9,291.8z"/>
	<path class="st0" d="M144.8,249.2c0.6-1.7,1.8-3.2,2.2-5.1c-0.7-0.1-1.3,0.2-1.6,0.8c-0.6,0.9-1.1,1.8-1.6,2.7
		c-0.4,0.7-0.8,1.4-1.3,2.1c-0.5-0.3-0.7-1-0.4-1.6c0,0,0,0,0,0c0.5-1.2,1-2.4,1.6-3.5s1.5-2.4,2.2-3.7s1.2-1.2,1.9,0
		c0.1,0.2,0.2,0.4,0.3,0.6l1.7-2.8C150.2,241.2,147.1,247.4,144.8,249.2z"/>
	<path class="st0" d="M229.6,258c1-0.3,2,0.1,2.6,0.9c1.1,1.4,2.2,2.9,3.2,4.4c0.4,0.6,0.7,1.3,1,2c-0.8,0.4-1.2-0.1-1.5-0.5
		c-1.4-1.6-2.7-3.3-4.1-4.9C230.4,259.2,230.1,258.7,229.6,258z"/>
	<path class="st0" d="M127.9,294.7c-0.6-0.3-1-1-0.8-1.7c0.1-0.5,0.3-1,0.5-1.5c1-1.5,2-2.9,3.1-4.4c0.2-0.2,0.5-0.4,0.8-0.6
		c0.4,0.5,0.4,1.2,0.1,1.8c-0.4,0.9-0.9,1.7-1.4,2.5c-0.6,1-1.3,2.1-2,3.1C128.2,294.2,128.1,294.4,127.9,294.7z"/>
	<path class="st0" d="M181,278.1c0.1,0.5,0.1,0.9,0,1.4c-0.3,0.8-0.6,1.5-1,2.2c-0.8,1.4-1.8,2.7-2.6,4c-0.1,0.2-0.2,0.4-0.3,0.6
		c-0.6-0.3-0.9-0.9-0.8-1.5c0-0.6,0.2-1.1,0.5-1.6c1.1-1.5,2.2-3,3.3-4.4C180.3,278.5,180.7,278.3,181,278.1z"/>
	<path class="st0" d="M222.8,248.4l6.5,7.9c-0.7,0.3-1-0.1-1.4-0.4c-0.9-0.8-1.9-1.5-2.8-2.3c-1.2-1-2.1-2.2-2.7-3.6
		c-0.4-0.5-0.2-1.3,0.3-1.6C222.7,248.4,222.8,248.4,222.8,248.4z"/>
	<path class="st0" d="M231.3,254.8l-6.9-7.4l0.2-0.3c0.3,0,0.7,0.1,1,0.2c2.4,1.3,4.4,3.2,5.8,5.5
		C231.8,253.4,231.7,254.2,231.3,254.8z"/>
	<path class="st0" d="M121.7,303.6c0.1-1.1,3.8-7.2,4.9-8.1c0,0.2,0.1,0.4,0.1,0.5c-0.6,1.8-1.2,3.7-1.9,5.5c-0.4,0.9-1.2,1.7-2.1,2
		C122.3,303.6,122,303.6,121.7,303.6z"/>
	<path class="st0" d="M173.1,285.5c-1.8,2.6-2.7,5.5-4.2,8.2l-0.4-0.1c-0.1-0.4-0.1-0.7-0.1-1.1c0.3-2.2,1.1-4.2,2.4-6
		C171.2,285.6,172.2,285.2,173.1,285.5z"/>
	<path class="st0" d="M170.8,295c0.1-1,3.6-6.7,4.7-7.8c0.1,0.1,0.2,0.3,0.1,0.4c-0.4,2.2-1.2,4.3-2.3,6.2
		C172.9,294.8,171.9,295.3,170.8,295z"/>
	<path class="st0" d="M251.4,262.1c0.9-0.2,1.8,0.1,2.3,0.8c0.9,0.9,1.7,1.9,2.4,3c0.9,1.3,1.6,2.8,2.5,4.2
		c-0.8-0.2-1.5-0.8-1.9-1.6c-0.8-1.3-1.8-2.4-3.1-3.3c-0.6-0.5-1.1-1-1.6-1.6C251.8,263.2,251.6,262.7,251.4,262.1z"/>
	<path class="st0" d="M119.3,302.1c-0.1-0.3-0.2-0.6-0.2-0.9c0.3-2.3,1.1-4.6,2.5-6.5c0.4-0.7,1.2-1.1,2.1-1.1
		c0.1,1.2-0.9,1.8-1.3,2.7s-0.8,1.9-1.3,2.9C120.7,300.3,120.1,301.3,119.3,302.1z"/>
	<path class="st0" d="M236.8,251.2c2.2,0.8,8.6,7.5,9.3,9.7c-0.3-0.1-0.6-0.2-0.9-0.4c-1.6-1.6-3.1-3.2-4.6-4.8c-1-1.1-2-2.2-3-3.4
		C237.4,251.9,237.2,251.6,236.8,251.2z"/>
	<path class="st0" d="M123.1,278.5c-0.1,0.5-0.2,1-0.3,1.4c-0.8,1.8-1.6,3.5-2.5,5.2c-0.5,0.9-1,1.8-1.5,2.8
		c-0.2,0.4-0.4,0.7-0.8,1.4c-0.1-0.3-0.1-0.6-0.1-1c1-3.5,2.6-6.7,4.6-9.7c0.1-0.1,0.2-0.1,0.3-0.2L123.1,278.5z"/>
	<path class="st0" d="M176.1,256.3c-0.4,0.7-0.9,1.4-1.4,2c-0.9,1.1-1.6,2.3-1.9,3.7c-0.2,0.6-0.4,1.2-0.8,1.7
		c-0.2,0.3-0.7,0.4-1,0.6c-0.2-0.4-0.5-0.7-0.5-1.1c0.1-0.7,0.3-1.4,0.6-2c0.4-0.7,0.8-1.3,1.4-1.8c0.8-0.9,1.6-1.8,2.4-2.6
		c0.3-0.3,0.6-0.5,0.9-0.8L176.1,256.3z"/>
	<path class="st0" d="M121.7,272.8c-0.5-0.7-0.5-1.6-0.1-2.3c0.5-0.9,1-1.7,1.6-2.5c1.1-1.3,2.2-2.5,3.5-3.6c0,0.6-0.3,1.2-0.8,1.7
		c-1.1,1.3-2,2.9-2.4,4.6c-0.3,0.6-0.7,1.2-1.1,1.8C122.3,272.7,122,272.7,121.7,272.8z"/>
	<path class="st0" d="M166.8,280.4c1.2-3.8,2.9-7.4,5.1-10.7c0.1,0.3,0.2,0.7,0.2,1.1c0,0.3-0.1,0.7-0.3,1c-1.4,2.8-2.9,5.7-4.4,8.5
		c-0.1,0.1-0.2,0.3-0.4,0.4L166.8,280.4z"/>
	<path class="st0" d="M159.4,244.9c0.4,1.4-1.2,4.6-2.7,5.9c-0.6-0.3-0.4-0.9-0.4-1.4C156.8,247.7,157.9,246.1,159.4,244.9z"/>
	<path class="st0" d="M232.1,254.8c2.1,1.2,5.4,4.9,5.6,6.3c-0.7,0.1-1-0.4-1.4-0.8c-0.7-0.8-1.4-1.6-2.1-2.4
		c-0.4-0.4-0.7-0.7-1.1-1C232.4,256.5,232,255.7,232.1,254.8z"/>
	<path class="st0" d="M116.2,299.8c0.2-2.5,1.2-4.8,2.7-6.7C119.3,294.8,117.7,298.9,116.2,299.8z"/>
	<path class="st0" d="M165.3,291.6c0-2.5,0.9-4.8,2.6-6.6c0.4,0.4,0.2,0.8,0.1,1.2C167.2,289.5,166.6,290.6,165.3,291.6z"/>
	<path class="st0" d="M155.7,251.9c0,1.9-0.6,3.8-1.8,5.3c-0.4,0.3-0.9,0.5-1.4,0.6C153,255.4,154.6,253.8,155.7,251.9z"/>
	<path class="st0" d="M150.7,256.5c-0.4-2.6,1-5.7,3.1-6l-1.4,3.1l-1.4,3L150.7,256.5z"/>
	<path class="st0" d="M149,247.1c0.7-2.9,1.9-5.7,3.5-8.3c0.1,0.6,0.3,0.9,0.2,1.1c-1,2.3-2.1,4.7-3.2,7
		C149.5,247,149.3,247,149,247.1z"/>
	<path class="st0" d="M155.3,228.6c-0.3,0.6-0.6,1.1-1,1.6c-0.6,0.8-1,1.7-1.2,2.7c-0.1,0.5-0.2,0.9-0.5,1.3c-0.2,0.3-0.6,0.5-1,0.6
		c-0.5-0.1-0.5-0.6-0.4-1.1c0-0.1,0.1-0.3,0.1-0.4c0.9-1.8,2.1-3.5,3.6-4.9L155.3,228.6z"/>
	<path class="st0" d="M176.2,277.5c0.3,0.7,0.2,1.4-0.2,2c-0.8,1.2-1.4,2.6-1.8,4c-0.1,0.6-0.6,0.9-1.5,1
		C173.3,282,174.5,279.6,176.2,277.5z"/>
	<path class="st0" d="M127.5,286.4c-0.4,0.8-0.8,1.7-1.2,2.5s-0.8,1.7-1.1,2.6c-0.2,0.7-0.7,1.2-1.3,1.4c-0.2-1.8,1.9-5.9,3.3-6.6
		L127.5,286.4z"/>
	<path class="st0" d="M238.3,256.4c-2.1-0.7-3.3-2.2-4.5-3.7C235.4,252.3,237.4,254,238.3,256.4z"/>
	<path class="st0" d="M122.2,287c0.4,1.2-0.2,3.2-1.4,4.6c-0.7-0.2-0.6-0.8-0.6-1.2C120.4,289,121.1,287.8,122.2,287z"/>
	<path class="st0" d="M239.4,258.1c2.1,0.8,3,2.8,4.4,4.5C241.7,261.8,240.1,260.2,239.4,258.1z"/>
	<path class="st0" d="M126,280.5c-0.4,1.8-0.8,3.7-2.4,5.1C123,284.3,124.2,282,126,280.5z"/>
	<path class="st0" d="M171.2,278.7c0.4,1.7-0.2,3.4-1.4,4.6C168.9,282,169.5,280.3,171.2,278.7z"/>
	<path class="st0" d="M172.5,277.1c0-2,1.1-3.4,2.3-5c0.3,0.6,0.3,1.3-0.1,1.9C174.2,275,173.8,276.4,172.5,277.1z"/>
	<path class="st0" d="M148.2,255.2c0-1.8,0.6-3.5,1.7-4.9C150.4,251.6,149.5,254.2,148.2,255.2z"/>
	<path class="st0" d="M155.9,244.5c0.3,0.5,0.3,1.2-0.1,1.7c-0.4,0.9-0.7,1.8-1,2.6c-0.1,0.6-0.6,1-1.2,0.9c0,0,0,0-0.1,0
		C153.9,247.8,154.7,246,155.9,244.5z"/>
	<path class="st0" d="M151.5,249.2c-0.9-1.2-0.6-2.5,0.9-3.8C152.7,246.9,152.1,247.9,151.5,249.2z"/>
	<path class="st0" d="M154.9,240.6c-0.1,1.4-0.6,2.8-1.5,3.8c-0.2-0.2-0.4-0.4-0.4-0.5C153.2,242.6,153.9,241.4,154.9,240.6z"/>
	<path class="st0" d="M145.4,91.4c0,0.8,0,1.6,0,2.3c-0.2,1.8-1.1,2.6-2.9,2.4c-2.6-0.3-5.1-1-7.5-2.1c-1.9-0.9-3.6-2.1-5.1-3.5
		c-0.7-0.6-1.3-1.3-1.9-2.1c-1.9-2.8-3.1-6-3.5-9.4c-0.3-2.2-0.4-4.4-0.6-6.7c0-0.3,0-0.7,0-1c0.1-0.9,0.3-1.1,1.2-1.1
		c1.4-0.1,2.8,0.1,4.2,0.4c2.2,0.5,4.4,1.4,6.3,2.6c4.4,2.6,7.6,6.8,8.9,11.7C145.2,87,145.5,89.2,145.4,91.4z M142.4,90.1l0.2-0.1
		c0.1-0.7,0.1-1.5,0-2.2c-0.5-2-1.1-3.9-2-5.8c-2.6-4.9-7.3-8.2-12.7-9.2c-1.1-0.2-1.4,0.1-1.3,1.2c0.2,1.7,0.3,3.4,0.5,5.1
		c0.4,2.9,1.5,5.6,3.2,8c1.9,2.4,4.5,4.2,7.4,5.2c0.8,0.3,1.5,0.5,2.3,0.7c0.4,0,0.8,0,1.2,0c-0.4-0.6-0.7-1-1-1.4l-5.9-7.7
		c-0.6-0.7-0.6-1.3-0.1-1.8c0.5-0.5,1.3-0.4,1.8,0.1c0.5,0.4,1,0.9,1.4,1.5c0.9,1.2,1.8,2.4,2.7,3.6C141,88.3,141.7,89.2,142.4,90.1
		z"/>
	<path class="st0" d="M84.8,107.9c-3.4,0.1-6.8-1.5-9.9-4c-2.9-2.4-5.4-5.1-7.4-8.2c-0.7-1.1-0.7-1.2,0.5-2c2.7-1.8,5.7-2.9,8.9-3.3
		c3.1-0.3,6.2,0,9.2,0.9c1.5,0.5,3,1.2,4.3,2.2c2.7,1.8,5,4.2,6.7,6.9c0.3,0.4,0.5,0.8,0.7,1.3c0.7,1.6,0.2,2.6-1.2,3.4
		C93.1,107.1,89.4,107.9,84.8,107.9z M94.2,101c-5.1-8.6-16.5-10.3-23.6-5.7c0.2,0.4,0.5,0.8,0.8,1.2c0.9,1.1,1.9,2.1,2.8,3.2
		c1.3,1.7,3,3.1,5,4c1.3,0.7,2.7,1.3,4.1,1.6c2.8,0.5,5.7,0.2,8.4-0.8c0.5-0.2,1.2-0.1,1.7-0.8c-0.6-0.2-1-0.4-1.4-0.5
		c-2.6-0.8-5.2-1.5-7.8-2.3c-0.5-0.1-1-0.4-1.4-0.7c-0.3-0.3-0.4-0.8-0.4-1.2c0-0.5,0.6-0.8,1.1-0.7c0.5,0,0.9,0.1,1.4,0.2
		c2,0.6,3.9,1.2,5.9,1.7C91.7,100.4,92.8,100.6,94.2,101L94.2,101z"/>
	<path class="st0" d="M84.8,55.4c-0.2,2.9-0.6,5.5-2.2,7.9c-0.5,1-1.7,1.5-2.8,0.9c-0.1,0-0.1-0.1-0.2-0.1c-4-2.3-7-5.4-7.9-10.1
		c-0.5-2.8-0.3-5.6,0.5-8.3c0.4-1.3,0.8-2.5,1.3-3.8s0.9-1.5,2.2-0.8c3.5,1.7,6.3,4.6,7.8,8.2C84.3,51.3,84.7,53.3,84.8,55.4z
		 M78.7,60.7l0.4-0.2c-0.1-0.5-0.3-1-0.4-1.5c-0.4-1.4-0.9-2.8-1.3-4.2c-0.1-0.4-0.2-0.8-0.3-1.3c-0.1-0.5,0.2-1.1,0.8-1.2
		c0,0,0,0,0,0c0.5-0.2,1.1,0.1,1.3,0.6c0.4,1.1,0.7,2.3,1.1,3.4c0.4,1.3,0.8,2.6,1.3,4c3-6.8-1.3-14.8-6.1-16.5
		c-0.1,0.3-0.3,0.6-0.4,0.9c-0.7,1.9-1.1,4-1.2,6C73.7,55,75.5,58.2,78.7,60.7L78.7,60.7z"/>
	<path class="st0" d="M107.6,69.6c0-0.6,0-1.1,0-1.7c0.1-1,0.3-1.3,1.3-1.2c1.6,0.1,3.1,0.4,4.6,0.9c5.3,1.9,8.9,6.9,9,12.6
		c0,0.7,0,1.4,0,2.1c0,1-0.8,1.9-1.8,1.9c-0.1,0-0.1,0-0.2,0c-3.5-0.4-6.8-1.5-9.2-4.2C108.6,77,107.8,73.5,107.6,69.6z M110.2,69.3
		c-1.5,4.6,3.4,12,7.9,11.8c-0.7-0.8-1.2-1.5-1.8-2.2s-1.3-1.6-1.8-2.4c-0.4-0.4-0.4-1,0-1.4c0,0,0.1-0.1,0.1-0.1
		c0.5-0.3,1.2-0.3,1.6,0.2c0.2,0.2,0.3,0.3,0.5,0.5c0.9,1.1,1.7,2.1,2.6,3.2c0.2,0.2,0.5,0.4,0.8,0.6
		C120.3,74.8,115.2,69.4,110.2,69.3z"/>
	<path class="st0" d="M109.3,57.8c1-0.6,2.1-0.9,3.2-1c5.5-0.8,10.8,2.5,12.5,7.8c0.6,1.9,0,3.2-2,3.5c-4.7,0.8-8.6-0.3-11.4-4.6
		C110.5,61.7,109.7,59.8,109.3,57.8z M112.3,59.3c1.1,4,4.4,7,8.5,6.5c-0.7-0.4-1.3-0.8-1.9-1.2c-0.6-0.4-1.2-0.8-1.8-1.2
		c-0.5-0.3-0.6-0.9-0.2-1.4c0,0,0,0,0,0c0.3-0.5,0.9-0.6,1.4-0.4c0,0,0,0,0,0c0.6,0.2,1.1,0.6,1.6,0.9l1.9,1
		C120.5,60.2,115.8,58.2,112.3,59.3z"/>
	<path class="st0" d="M70.3,88.8c-0.9-1.1-1.4-2.5-1.5-3.9c-0.4-3.3,0.6-6.7,2.8-9.3c1.3-1.5,3-2.5,4.9-3.1c1.7-0.5,2.7,0.1,3,1.8
		c0.6,2.4,0.5,4.9-0.4,7.3c-0.6,1.5-1.6,2.9-2.8,3.8c-1.5,1.4-3.3,2.4-5.2,3.2L70.3,88.8z M75,76.3c-2.9,1.3-4.7,6-3.8,8.8
		c0.2,0.6,0.5,0.7,1.1,0.4c1.8-0.9,3.4-2.3,4.4-4.1c0.7-1.4,0.9-3,0.6-4.6c-0.4,0.8-0.7,1.4-1.1,2.1s-0.6,1.2-1,1.8
		C75,81.1,74.5,81.3,74,81c-0.5-0.2-0.8-0.8-0.6-1.3c0,0,0,0,0,0c0.2-0.4,0.4-0.9,0.6-1.3C74.4,77.7,74.7,77,75,76.3z"/>
	<path class="st0" d="M96.5,56.4c-0.3,5.5-3.6,10-9,11.3c-1.4,0.3-2.2-0.2-2.5-1.6c-0.4-2.1-0.3-4.3,0.3-6.3c0.6-2,1.8-3.7,3.5-4.9
		c1.6-1.2,3.4-2.1,5.3-2.7c1.2-0.4,1.6-0.2,1.9,1S96.4,55.5,96.5,56.4z M89.2,64.5c3.6-1.4,5.4-6.1,5-8.8c-0.1-0.8-0.5-1.1-1.3-0.7
		c-1.8,0.7-3.3,1.9-4.4,3.5c-0.9,1.2-1.3,2.8-1.1,4.3c0.3-0.3,0.6-0.7,0.8-1.1c0.4-0.6,0.7-1.2,1.1-1.8c0.4-0.6,1.2-0.8,1.8-0.4
		c0.6,0.5,0.4,1,0.2,1.5c-0.2,0.3-0.3,0.6-0.5,0.8L89.2,64.5z"/>
	<path class="st0" d="M101.6,96.1c5.6-0.1,10.4,4,11.2,9.5c0,0.2,0,0.4,0.1,0.6c0.3,2.3-0.5,3.2-2.8,3.1c-4.3-0.2-8.2-2.5-9.8-6.8
		c-0.5-1.6-1-3.3-1.3-4.9c-0.2-1.2,0-1.4,1.2-1.4C100.8,96.1,101.3,96.1,101.6,96.1z M108.2,106.3c-0.4-0.4-0.8-0.8-1.2-1.2
		s-1-1-1.5-1.6c-0.3-0.4-0.4-0.9-0.1-1.3c0.3-0.5,0.9-0.6,1.4-0.3c0,0,0,0,0,0c0.4,0.3,0.8,0.6,1.2,1c0.6,0.6,1.2,1.2,1.9,1.7
		c-0.5-3.7-5-6.8-8.3-6.3C101.8,102.1,104.5,106.2,108.2,106.3z"/>
	<path class="st0" d="M74.4,70.8c-4.7,0.3-7.9-2.1-10.2-6c-0.6-1.2-1.1-2.4-1.4-3.6c-0.3-0.9-0.2-1.2,0.7-1.5
		c5.3-1.9,11.2,0.5,13.7,5.5c0.4,0.9,0.8,1.8,1,2.8c0.3,1.7-0.4,2.5-2.1,2.8C75.6,70.8,75,70.7,74.4,70.8z M65.6,61.7
		c1,4.5,5.1,7.1,8.3,6.8c-0.2-0.2-0.4-0.3-0.6-0.5c-1-0.6-1.9-1.2-2.9-1.8c-0.5-0.3-0.9-0.8-0.6-1.4c0.3-0.6,1-0.8,1.6-0.5
		c0.6,0.3,1.1,0.6,1.6,0.9c0.6,0.4,1.3,0.8,2,1C73.9,62.9,68.6,60.4,65.6,61.7z"/>
	<path class="st0" d="M46.6,70.3c0.3-1.6,0.7-3.2,1.1-4.8c0.2-0.5,0.4-1,0.7-1.4c2.1-3.1,5.2-4.6,8.7-5.5c0.5-0.2,1,0,1.2,0.5
		c0,0.1,0.1,0.2,0.1,0.3c1,3.5,0.3,7.4-2,10.3c-1.6,2-3.7,3.4-6.2,4.1c-2.2,0.7-3.4-0.2-3.5-2.5c0-0.3,0-0.6,0-0.8L46.6,70.3z
		 M49.1,69l0.3,0.2c0.5-0.7,0.9-1.3,1.3-2c0.3-0.4,0.6-0.9,1-1.2c0.4-0.5,1.1-0.5,1.5-0.2c0.4,0.4,0.5,1,0.1,1.4c0,0,0,0,0,0
		c-0.5,0.9-1.2,1.8-1.7,2.6c-0.2,0.3-0.3,0.6-0.4,0.9c3.3-1.4,5.4-4.8,5.2-8.4c-0.1-1-0.4-1.2-1.3-0.8c-1.8,0.7-3.4,1.8-4.6,3.3
		C49.8,66,49.2,67.5,49.1,69z"/>
	<path class="st0" d="M59,80.7c-2.1-0.2-4.1-0.8-5.9-1.8c-0.8-0.5-0.9-0.6-0.5-1.5c1.5-3.6,4.8-6.2,8.7-6.7c2.3-0.4,4.7,0,6.8,1.1
		c1.5,0.7,2,1.8,1.1,3.2C67.1,78.5,64.2,80.8,59,80.7z M65.5,73.2c-4.4-1.1-9.3,0.9-10.1,4.1c3,1.8,8.5,1.6,10.2-1.7
		c-0.7,0.2-1.3,0.4-1.8,0.6c-0.7,0.2-1.4,0.4-2.1,0.5c-0.5,0.1-1-0.3-1.1-0.8c-0.2-0.5,0.1-1.1,0.6-1.3c0,0,0,0,0,0
		c0.3-0.1,0.5-0.2,0.8-0.3L65.5,73.2z"/>
	<path class="st0" d="M89.2,69.5c3.2,0,5.7,1.3,7,4.4c0.4,1,0.8,1.9,1.1,2.9c0.3,1.2,0.2,1.4-1,1.6c-4.5,0.7-8.7-2.4-9.4-6.8
		c0-0.1,0-0.2,0-0.3c-0.2-1.3,0.1-1.7,1.5-1.8C88.7,69.5,89,69.5,89.2,69.5z M90.4,71.4c0.7,0.6,1.4,1.2,2,1.8
		c0.2,0.3,0.2,0.7,0.1,1c-0.3,0.2-0.7,0.3-1,0.2c-0.3,0-0.5-0.3-0.8-0.6l-1.3-1c0.8,2.6,3.3,4.2,6,3.8
		C95.3,74.2,93.4,71.9,90.4,71.4z"/>
	<path class="st0" d="M63.5,91c-4.1,0-7.5-3-8.1-7c-0.2-0.9,0.3-1.8,1.2-2c0.2-0.1,0.4-0.1,0.6,0c2-0.2,3.9,0.4,5.5,1.7
		c2,1.6,2.7,3.7,3.2,6c0.2,0.8-0.1,1.1-0.9,1.3c-0.1,0-0.3,0.1-0.4,0.1L63.5,91z M57.8,85.2c0.9,2.8,4,4.6,5.9,3.7
		c-0.1-2.7-2.2-4.8-4.8-5.1l1.2,1.1c0.2,0.2,0.4,0.3,0.6,0.4c0.3,0.3,0.7,0.8,0.3,1.2s-0.8,0.4-1.3,0.1s-0.6-0.4-0.9-0.7L57.8,85.2z
		"/>
	<path class="st0" d="M106.3,63c0,0.6,0,1.1-0.1,1.7c-0.1,0.9-0.9,1.6-1.8,1.5c0,0-0.1,0-0.1,0c-0.2,0-0.4-0.1-0.6-0.1
		c-2.9-0.9-5-3.4-5.5-6.5c-0.1-1.1-0.1-2.2,0-3.3c0-1.2,0.5-1.5,1.7-1.2c3.7,0.9,6.5,3.8,6.4,7.6C106.3,62.8,106.3,62.9,106.3,63
		L106.3,63z M100.1,57c-0.9,2.4,0.4,5.6,2.7,6.2c-0.4-0.7-0.7-1.2-1-1.8c-0.2-0.4-0.3-0.9,0.2-1.1c0.4-0.1,0.8,0,1.1,0.2
		c0.3,0.2,0.5,0.5,0.7,0.9c0.3,0.4,0.5,0.8,1,1.5C104.3,59.7,102.7,57.6,100.1,57z"/>
	<path class="st0" d="M63,48.7c4.1,0,7.5,3,8.1,7c0.2,1.7-0.4,2.5-2.1,2.4c-2.9,0-5.5-1.7-6.8-4.3c-0.5-1.2-0.9-2.4-1.2-3.7
		c-0.3-1.1,0-1.4,1.1-1.5C62.5,48.7,62.8,48.7,63,48.7z M63,50.7c0.2,2.8,2.3,5,5,5.5c-0.4-0.3-0.6-0.5-0.8-0.7
		c-0.5-0.4-1-0.9-1.4-1.4c-0.1-0.3-0.1-0.6,0-0.9c0.2-0.2,0.6-0.3,0.9-0.2c0.4,0.2,0.7,0.4,1,0.7c0.4,0.3,0.7,0.5,1.2,0.9
		C68.3,51.9,65.4,50.1,63,50.7L63,50.7z"/>
	<path class="st0" d="M120.6,99.5c2-0.2,4,0.6,5.4,2c0.4,0.4,0.7,0.9,0.9,1.4c0.3,0.6,0.1,1.4-0.5,1.8c-2.2,1.5-4.4,2.4-7.1,1.5
		c-1.7-0.6-3.3-1.6-4.6-3c-0.7-0.8-0.7-1.2,0.2-1.8C116.6,100,118.6,99.4,120.6,99.5z M116.7,102.5c2.3,2.4,5.1,3.1,6.8,1.7
		l-1.9-0.3c-0.6-0.1-1.2-0.2-1.2-1c0-0.5,0.6-0.8,1.4-0.7c0.4,0,0.7,0.2,1.1,0.2c0.3,0,0.7-0.1,1-0.1
		C121.8,100.5,118.7,100.6,116.7,102.5z"/>
	<path class="st0" d="M252.3,91.9c-0.2,1.6-0.6,3.1-1.2,4.5c-1.8,4.2-5.1,7.6-9.3,9.6c-2.1,1.1-4.4,1.8-6.8,1.9
		c-2.4,0.1-4.9,0.1-7.3-0.9c-1.8-0.6-2.8-2.6-2.2-4.5c0.1-0.1,0.1-0.3,0.2-0.4c0.8-2.1,2-4,3.4-5.7c3-3.3,6.5-5.6,11.2-5.9
		c2.5-0.1,5,0,7.5,0.3c1.3,0.2,2.5,0.4,3.8,0.7C251.9,91.6,252.1,91.8,252.3,91.9z M228.7,102l0.2,0.2c0.5-0.2,0.9-0.4,1.4-0.6
		c2.1-1,4.2-2.1,6.3-3.1c0.3-0.2,0.7-0.3,1.1-0.4c0.5-0.2,1.1,0,1.4,0.5c0.3,0.5,0.3,1.1-0.1,1.4c-0.4,0.4-0.8,0.6-1.3,0.9
		c-2.4,1.2-4.8,2.3-7.2,3.5c-0.2,0.1-0.4,0.3-0.6,0.4c7.2,2.7,17.8-3,19.4-11.1c-0.8-0.2-1.6-0.3-2.5-0.4c-2.5-0.2-4.9-0.2-7.4,0
		c-3.6,0.4-6.1,2.6-8.4,5.2C229.9,99.5,229.2,100.7,228.7,102z"/>
	<path class="st0" d="M203.3,95.3c-0.1-2.6,0.5-5.1,1.8-7.4c1.3-2.2,2.8-4.3,4.7-6.1c1.1-1,1.3-1,2.3,0c2.2,2.4,3.6,5.3,4.1,8.5
		c0.5,2.6,0.2,5.4-0.8,7.8c-1.1,2.8-2.9,5.2-5.2,7.1c-0.9,0.8-2.4,0.8-3.2-0.2c-0.1-0.1-0.2-0.2-0.3-0.4c-2.1-2.5-3.3-5.7-3.4-8.9
		V95.3z M210.3,101.1c1.2-1,2.2-2.3,2.7-3.8c1.7-4.3,0.9-9.2-2-12.7c-5.2,4.4-6.9,11.4-3.5,16.2c0.1-0.3,0.2-0.7,0.3-1
		c0.1-1.2,0.2-2.4,0.4-3.5c0.1-0.8,0.2-1.6,0.4-2.4c0.1-0.6,0.7-1,1.3-0.9c0.6,0.1,1.1,0.5,1.1,1.2c0,0.1,0,0.3,0,0.4
		c-0.1,1.1-0.2,2.2-0.3,3.3S210.4,100,210.3,101.1L210.3,101.1z"/>
	<path class="st0" d="M186.9,106.8c-0.8-0.1-1.6-0.2-2.4-0.3c-1.1-0.3-1.8-1.4-1.6-2.5c0.2-2.6,1-5.2,2.3-7.4
		c2.4-4.1,6.2-6.1,10.9-6.7c1.6-0.2,3.2-0.4,4.8-0.5c1.2-0.1,1.5,0.1,1.5,1.4c0,3.5-1.1,6.9-3.2,9.7c-1.4,1.9-3.2,3.5-5.3,4.6
		C191.8,106.1,189.4,106.8,186.9,106.8z M187.7,103.8c4.9,0.8,12-5.6,12-11.6c-6.4-0.4-12.4,2.6-13.6,9.3c0.3-0.1,0.5-0.3,0.8-0.5
		c1.1-1,2.2-1.9,3.4-2.9c0.5-0.4,1-0.7,1.6-1c0.5-0.3,1.1-0.1,1.4,0.3c0.4,0.4,0.4,1,0,1.4c0,0,0,0,0,0c-0.5,0.5-1,1-1.5,1.5
		C190.4,101.5,189.1,102.7,187.7,103.8L187.7,103.8z"/>
	<path class="st0" d="M249.6,65.9c4.7-0.2,8.3,1.9,11.2,5.4c1.2,1.6,2.4,3.2,3.4,4.9c0.7,1,0.6,1.4-0.6,2c-4.8,2.4-9.7,2.8-14.5,0.3
		c-3.4-1.6-6.1-4.5-7.5-8.1c-0.7-1.9-0.2-2.9,1.7-3.4c1.4-0.4,2.8-0.8,4.3-1.1C248.3,65.8,249,65.8,249.6,65.9z M245.3,71.4
		l-0.2,0.2c0.5,0.7,1,1.4,1.6,2c0.6,0.6,1.3,1.1,2,1.6c3.3,2.4,7.6,3,11.5,1.6c0.8-0.3,1-0.7,0.5-1.4s-0.9-1.1-1.3-1.7
		c-2.2-2.9-5-5-8.7-5.3c-1.4-0.2-2.8,0-4.1,0.6c1.1,0.6,2.2,1.1,3.4,1.5c0.9,0.4,1.8,0.7,2.6,1.2c0.6,0.3,0.9,1,0.7,1.6
		c0,0,0,0,0,0.1c-0.3,0.6-1,0.8-1.6,0.6c-0.4-0.1-0.8-0.3-1.2-0.5L245.3,71.4z"/>
	<path class="st0" d="M252,53.7c0,1.2-0.4,2.4-1,3.4c-0.7,1.5-1.6,2.9-2.7,4.2c-2.2,2.5-5.2,4.2-8.4,4.9c-1.9,0.3-3.8,0.3-5.7,0
		c-1.2-0.2-2.4-0.6-3.5-1.1c-1-0.4-1.6-1.5-1.2-2.6c0,0,0,0,0,0c0.1-0.4,0.2-0.7,0.3-1.1c1.8-4.2,5.3-7.5,9.7-8.8
		c1.7-0.5,3.4-0.6,5.1-0.4c2.3,0.3,4.5,0.8,6.7,1.2C251.6,53.5,251.8,53.6,252,53.7z M233.1,60.6l0.2,0.3c0.6-0.2,1.1-0.5,1.7-0.7
		c1.2-0.5,2.4-1.1,3.6-1.6c0.4-0.2,0.8-0.3,1.2-0.4c0.6-0.1,1.2,0.2,1.3,0.8c0.2,0.5,0,1.1-0.5,1.3c0,0,0,0,0,0
		c-0.9,0.5-1.8,0.9-2.7,1.3l-3.8,1.8c4.9,2.1,14.2-3.1,14.4-8c-0.4-0.2-0.9-0.3-1.3-0.4c-1.5-0.2-3-0.3-4.5-0.3
		C238.3,54.8,235.4,57.1,233.1,60.6z"/>
	<path class="st0" d="M230,55.5c0.2,1.8-0.5,3.5-1.1,5.1c-0.1,0.1-0.1,0.3-0.2,0.4c-1.5,2.5-3,2.5-4.7,0.7c-1.5-1.6-3-3.2-3.4-5.5
		c-0.5-2.1-0.4-4.3,0.4-6.3c0.6-1.4,1.2-2.7,1.8-4c0.4-0.9,0.7-1,1.6-0.5c0.9,0.5,1.7,1.1,2.4,1.8C228.9,49.3,230.1,52.4,230,55.5z
		 M224.7,58.9c0.1-1,0.1-2,0-3c-0.1-0.5-0.1-0.9-0.1-1.4c0-0.5,0.4-0.9,0.9-0.9c0.5-0.1,1.1,0.3,1.1,0.8c0,0,0,0,0,0
		c0.1,0.5,0.1,1.1,0.1,1.7s-0.1,1.1,0.5,1.6c1.1-3.5-0.1-7.3-3.1-9.5C222.1,50.8,221.7,57,224.7,58.9z"/>
	<path class="st0" d="M230.8,67c2.3,0,4.6,0.8,6.4,2.2c0.9,0.7,1.6,1.6,2.2,2.6c1.3,2.1,2.1,4.5,2.4,7c0.1,0.8-0.1,1.1-0.9,1.3
		c-1.8,0.3-3.6,0.2-5.3-0.5c-4.6-1.5-7.1-4.8-7.8-9.6c-0.3-2,0.4-2.9,2.5-2.9L230.8,67z M232.2,69.7c0.4,0.3,0.8,0.7,1.1,1
		c0.6,0.6,1.3,1.2,1.9,1.8c0.4,0.4,0.4,1,0,1.4c-0.3,0.4-1,0.5-1.4,0.2c0,0,0,0,0,0c-0.3-0.2-0.6-0.5-0.9-0.7l-2.3-1.8
		c0.6,3.6,5.3,6.9,8.4,6.1C239.2,74.8,236.4,69.8,232.2,69.7L232.2,69.7z"/>
	<path class="st0" d="M215.3,82.6c0.2-5.4,2.5-8.8,6.5-11.1c0.5-0.2,1-0.4,1.5-0.5c1.3-0.4,2.8,0.3,3.2,1.7c0,0.2,0.1,0.3,0.1,0.5
		c1,4.4-0.8,9-4.7,11.4c-1.3,0.8-2.7,1.4-4.1,2c-1.1,0.5-1.5,0.3-1.8-0.8S215.4,83.3,215.3,82.6z M218,83.9c4.5-1.2,7.1-5.8,6.3-8.3
		c-0.2,0.4-0.4,0.7-0.6,1c-0.5,0.8-0.9,1.6-1.4,2.3c-0.3,0.5-0.9,0.7-1.4,0.4c0,0,0,0,0,0c-0.5-0.2-0.7-0.8-0.5-1.3
		c0.1-0.3,0.3-0.7,0.5-1c0.4-0.8,0.9-1.6,1.4-2.6C218.9,75.6,216.8,80.4,218,83.9z"/>
	<path class="st0" d="M238.8,43.5c0.3,2.6-0.8,5.1-2.6,7.3c-0.6,0.7-1.2,1.3-2,1.8c-0.6,0.6-1.6,0.5-2.2-0.1c0,0-0.1-0.1-0.1-0.1
		c-1-1.1-1.8-2.5-2.2-3.9c-1.3-3.6-0.4-6.9,1.8-9.9c0.7-1,1.6-2,2.5-2.9c1-0.9,1.2-0.8,2.1,0.1c1.6,1.7,2.5,3.8,2.7,6.1
		C238.9,42.3,238.9,42.9,238.8,43.5z M232.5,48.5c0.2-0.8,0.4-1.4,0.5-2s0.3-1.4,0.5-2.1c0.1-0.6,0.6-1,1.2-0.9c0,0,0,0,0.1,0
		c0.6,0.1,1,0.7,0.9,1.3c0,0,0,0,0,0c-0.1,0.5-0.2,1-0.3,1.5c-0.1,0.6-0.3,1.2-0.4,1.8c2.4-3,2.4-7.2,0.1-10.2
		C232.2,39.8,230.1,45.4,232.5,48.5L232.5,48.5z"/>
	<path class="st0" d="M251.3,83.2c2.3,0.1,4.4,0.9,6.2,2.4c0.4,0.3,0.6,0.8,0.3,1.2c-0.1,0.1-0.1,0.2-0.2,0.2
		c-0.7,0.9-1.6,1.6-2.6,2.2c-2.8,1.6-6.3,1.4-8.8-0.6c-1.4-1-1.4-2.2-0.1-3.2C247.5,84.1,249.3,83.3,251.3,83.2z M248.7,87.8
		c2.3,1.3,5.2,0.8,6.9-1.2c-1.7-2-5.4-2.3-7.1-0.6h0.6c0.7,0,1.4,0,2.1,0.1c0.3,0.1,0.5,0.4,0.6,0.7c0,0.2-0.2,0.5-0.5,0.6
		c-0.4,0.1-0.7,0.2-1.1,0.2L248.7,87.8z"/>
	<path class="st0" d="M237.1,89.7c-0.9-0.1-1.8-0.3-2.6-0.6c-0.8-0.1-1.4-0.9-1.3-1.7c0-0.2,0.1-0.4,0.3-0.6
		c2.2-4.7,6.2-5.8,10.8-4.6c0.9,0.2,1,0.7,0.7,1.6C243.8,87.3,240.2,89.9,237.1,89.7z M242.8,83.9c-2.7-0.9-5.8-0.1-6.6,2
		c0.4-0.1,0.8-0.2,1.1-0.3c0.4-0.2,0.8-0.4,1.2-0.5c0.4-0.1,0.7,0.1,1,0.3c0.1,0.3,0,0.7-0.3,0.9c-0.5,0.3-0.9,0.6-1.4,0.9
		c-0.3,0.2-0.7,0.4-1.2,0.6C239.3,88.3,242.4,86.2,242.8,83.9z"/>
	<path class="st0" d="M255.4,65.9c-1.6-0.1-3.1-0.6-4.4-1.6c-1.3-0.9-1.4-2-0.3-3.1c2.3-2.2,5-3.1,8.1-2c1,0.4,2.1,0.9,3,1.5
		c0.9,0.6,1,1,0.3,1.9C260.6,64.7,258,65.9,255.4,65.9z M260.3,61.9c-2.3-1.8-5.8-1.9-7-0.2c0.6,0,1.2-0.1,1.8-0.1s1.3-0.1,1.5,0.7
		c0.1,0.5-0.5,0.9-1.4,1c-0.3,0-0.6,0-0.9,0s-0.6,0.1-1,0.2C255.8,64.7,258.8,64,260.3,61.9L260.3,61.9z"/>
	<path class="st0" d="M204.2,79.8c0.6,0,1.1,0,1.7,0c0.9,0.1,1.1,0.3,1,1.2c-0.3,1.8-1.2,3.5-2.5,4.8c-1.2,1.2-2.8,2-4.5,2.2
		c-1,0.1-2,0-2.9-0.3c-0.9-0.2-1.4-1-1.3-1.8c0-0.1,0.1-0.3,0.1-0.4c0.9-2.9,3.3-5.6,7-5.7L204.2,79.8L204.2,79.8z M198.3,84.6
		l1-0.6c0.3-0.2,0.6-0.4,1-0.6s0.9-0.4,1.3,0.1s-0.1,1-0.5,1.3s-0.7,0.5-1.1,0.7l-1,0.7c2.4,0.4,5.1-1.9,5.6-4.4
		C202.6,80.6,199.3,82,198.3,84.6z"/>
	<path class="st0" d="M241.8,51.2c-0.5-0.1-1-0.1-1.4-0.2c-0.9,0-1.6-0.7-1.6-1.5c0-0.2,0-0.4,0.1-0.6c0.6-2.9,2.9-5.6,5.9-6
		c1.3-0.1,2.6-0.2,3.8-0.2c0.8,0,1.1,0.4,1,1.2c-0.2,0.9-0.4,1.8-0.8,2.7C247.7,49.1,244.3,51.3,241.8,51.2z M242.1,49.2
		c3.1-0.2,5.4-2.3,5.5-4.8c-2.4-0.7-5.7,0.8-6.3,3.2l0.9-0.5c0.4-0.2,0.8-0.5,1.2-0.8s0.9-0.3,1.1,0.2c0.1,0.3,0,0.7-0.2,1
		c-0.2,0.3-0.5,0.5-0.9,0.7C243,48.6,242.6,48.9,242.1,49.2L242.1,49.2z"/>
	<path class="st0" d="M208.2,33.6c-0.1,1.1-0.3,2.3-0.6,3.4c-0.5,2.2-1.3,4.4-2.4,6.4c-1.6,2.5-3.7,4.7-6.1,6.5
		c-1.3,0.9-2.7,1.6-4.2,2.1c-0.8,0.3-1.6,0.6-2.4,0.8c-2.1,0.6-3.9-0.4-4-2.5c-0.2-2.8-0.2-5.6,0-8.4c0.3-3,1.4-5.9,3.3-8.2
		c0.6-0.7,1.3-1.4,2-2c2-2.1,4.4-3.6,7.1-4.6c1.4-0.5,2.8-1.2,4.2-1.7s1.6-0.4,2.1,1c0.4,1.2,0.6,2.4,0.8,3.6
		C208.1,31,208.1,32.1,208.2,33.6z M190.8,49c0.2-0.2,0.3-0.3,0.5-0.5c1.3-2.2,2.5-4.5,3.8-6.7c0.4-0.8,0.9-1.6,1.4-2.3
		c0.4-0.7,1.3-1,2-0.6c0.6,0.3,0.7,0.9,0.3,1.8c-0.2,0.3-0.3,0.7-0.5,1c-1.4,2.4-2.8,4.9-4.2,7.3c-0.1,0.2-0.1,0.4-0.2,0.7
		c3.7-1.1,6-3.6,8.3-6.2c0.7-0.8,1.3-1.8,1.7-2.8c1.5-3.5,2-7.4,1.5-11.1c-0.1-1-0.5-1.4-1.4-0.9c-2.5,1.2-5.1,2.1-7.2,3.9
		c-2,1.6-3.6,3.6-4.7,5.8c-0.4,0.8-0.7,1.6-0.9,2.4C190.8,43.4,190.6,46.2,190.8,49z"/>
	<path class="st0" d="M165.6,78.7c0.3-3.9,1.1-7.4,3.7-10.4c0.6-0.7,1.1-1.6,1.7-2.3c1.5-1.6,3-3,4.5-4.5c0.1-0.1,0.2-0.2,0.3-0.3
		c1.6-1.2,2.5-1.1,3.6,0.7c1.4,2.2,2.4,4.7,2.9,7.3c0.6,2.6,0.7,5.2,0.2,7.8c-0.3,1.8-0.8,3.5-1.4,5.2c-1.1,2.2-2.6,4.3-4.3,6.1
		c-1.1,1.4-2.6,2.5-4.3,3.2c-1.6,0.6-2.5,0.3-3.5-1.2c-1.7-2.7-2.7-5.8-3.1-9C165.8,80.4,165.7,79.5,165.6,78.7z M173.1,87.9
		c0.4-0.1,0.6-0.1,0.7-0.2c1.4-1.5,2.8-3,4-4.7c1.9-2.8,2.4-6.2,2.5-9.5c0-2.2-0.5-4.5-1.3-6.5c-0.3-1.2-1-2.4-1.9-3.2
		c-1.4,1.3-2.8,2.5-4,3.8c-0.8,0.8-1.2,1.8-1.9,2.6c-1.3,1.6-2.1,3.5-2.6,5.5c-0.4,1.7-0.4,3.5-0.1,5.2c0.3,1.7,0.7,3.3,1.1,5
		c0.2,0.5,0.4,0.9,0.6,1.3c0.8-2.4,1.4-4.8,1.9-7.1c0.2-1,0.4-2,0.7-2.9c0.2-0.6,0.8-1,1.4-0.9c0,0,0,0,0,0c0.6,0.2,1,0.8,0.9,1.4
		c0,0.3-0.1,0.6-0.1,0.8c-0.5,2.1-1,4.2-1.5,6.4C173.5,85.8,173.3,86.7,173.1,87.9z"/>
	<path class="st0" d="M181.8,17.9c3.4,1.5,6,4.3,7.3,7.8c1.5,3.9,1.2,8.3-0.9,12c-0.2,0.5-0.5,0.9-0.9,1.3c-0.6,0.8-1.8,1-2.6,0.4
		c0,0,0,0,0,0c-1.8-1.1-3.3-2.6-4.4-4.4c-1.1-1.7-1.7-3.6-1.9-5.6c-0.1-3.1,0.6-6.1,2-8.8C180.8,19.6,181.3,18.8,181.8,17.9z
		 M184.2,36c-0.1-0.5-0.1-0.7-0.1-1c-0.3-1.6-0.6-3.3-0.9-4.9c-0.1-0.9,0.3-1.4,1-1.5s1.1,0.4,1.3,1.2c0.3,1.4,0.5,2.8,0.8,4.2
		c0.1,0.4,0.2,0.8,0.4,1.3c2.6-4,0.6-11.9-3.8-14.1c-0.3,0.5-0.5,1-0.8,1.5c-0.4,0.9-0.6,1.9-0.9,2.9c-0.6,2.1-0.6,4.3,0.2,6.3
		C181.9,33.2,182.5,34.8,184.2,36z"/>
	<path class="st0" d="M201.1,56.1c0,3.8-1.4,7.4-4,10.2c-2.2,2.5-5.1,3.6-8.2,4.2c-2.1,0.4-3.2-0.6-3.3-2.8c-0.1-2.4,0.4-4.8,1.5-7
		c1.9-3.7,5.2-5.5,9-6.7c1.1-0.3,2.3-0.5,3.5-0.7c0.5-0.2,0.9,0.1,1.1,0.5c0,0.1,0,0.1,0,0.2C200.9,54.8,201,55.5,201.1,56.1z
		 M198.5,56.1c-5.1-0.3-11.3,5.7-10.3,10l1.6-1.9c0.6-0.8,1.3-1.5,1.9-2.3s1.3-0.8,1.8-0.5s0.5,1.1,0,1.9c-0.2,0.3-0.5,0.6-0.7,0.9
		l-3,3.6C195.8,66.9,199.5,59.9,198.5,56.1z"/>
	<path class="st0" d="M187.2,52.8c0.1,1.8-0.3,3.5-1,5.1c-0.2,0.5-0.4,1-0.7,1.4c-0.6,1-1.9,1.3-2.9,0.8c-4.9-2.4-8.3-8-7.3-13.1
		c0.4-2.2,1-4.3,1.6-6.5c0.3-1.1,0.6-1.2,1.7-0.7c4.4,1.8,7.6,5.8,8.5,10.5C187.1,51.1,187.2,51.9,187.2,52.8z M180.8,56l0.3-0.1
		c-0.2-1-0.4-2-0.6-3c-0.1-0.7-0.2-1.5-0.2-2.3c-0.1-0.5,0.3-0.9,0.8-1c0,0,0,0,0,0c0.5-0.1,1.1,0.2,1.2,0.7c0,0,0,0,0,0
		c0.1,0.3,0.2,0.7,0.3,1c0.2,1.2,0.4,2.3,0.7,3.5c0.2,0.8,0.4,1.5,0.6,2.5c1.6-3.2,1.5-6.9-0.2-10c-1.4-2.7-3.3-4.4-4.9-4.6
		C176.4,47.5,177,52.8,180.8,56z"/>
	<path class="st0" d="M168.8,57.2c-0.1-2.8,1.4-4.7,2.9-6.7c0.3-0.4,0.8-0.4,1.1-0.2c0,0,0,0,0,0c0.3,0.2,0.5,0.4,0.8,0.6
		c2,2.4,3.2,7,0.6,10.6c-1.4,1.8-3.1,1.8-4.3-0.2C169.2,60.2,168.8,58.7,168.8,57.2z M173,60.2c1.7-2.4,1.3-6-0.5-7.5
		c-1.8,1.5-2.9,5.1-1,7.2c0-0.8,0-1.5,0-2.2s0.4-1.2,0.9-1.2s0.8,0.5,0.7,1.3c0,0.2-0.1,0.4-0.1,0.6C172.9,58.9,172.9,59.4,173,60.2
		L173,60.2z"/>
	<path class="st0" d="M197.4,23.1c-0.1,2.6-1.5,4.9-3.7,6.2c-1.3,0.8-2.2,0.6-2.9-0.8c-0.8-1.7-1-3.7-0.5-5.6c0.6-2.5,2.5-4,4.4-5.4
		c0.6-0.5,1.1-0.2,1.4,0.4C197.2,19.2,197.4,20.8,197.4,23.1z M195.1,19.5c-2.6,1.5-4,4.5-3,6.5c0.1-0.4,0.2-0.7,0.4-1
		s0.2-0.6,0.3-1c0.2-0.5,0.5-0.9,1.1-0.7s0.6,0.6,0.5,1s-0.2,0.9-0.3,1.4s-0.1,0.7-0.2,1.2C195.8,25.1,196.4,22,195.1,19.5z"/>
	<path class="st0" d="M90.8,263.8c0,0.4,0,0.8-0.1,1.2c-0.2,0.5-0.4,0.9-0.8,1.4c-1.1,1.4-2.3,2.8-3.4,4.2c-0.4,0-0.7-0.4-0.7-0.9
		c0-0.1,0-0.1,0-0.2c0.1-0.6,0.3-1.1,0.6-1.6c1.1-1.3,2.3-2.6,3.5-3.8C90.1,263.9,90.4,263.9,90.8,263.8z"/>
	<path class="st0" d="M83.5,255.1c0,0.4,0.1,0.7-0.1,0.9c-1.8,2.8-3.6,5.7-5.5,8.5c0,0.1-0.2,0.1-0.6,0.2c1-2.8,2.5-5.3,4.2-7.7
		C82.1,256.4,82.4,255.5,83.5,255.1z"/>
	<path class="st0" d="M83,269.4c-2,2.3-2.9,5-4.7,7.2c-0.5-1.3,0.1-3.5,1.5-5.5C80.5,270.2,81.2,269.2,83,269.4z"/>
	<path class="st0" d="M88.6,242.9c-0.3,0.8-0.8,1.5-1.5,2.1c-0.9,0.9-1.5,2-2,3.2c-0.2,0.5-0.5,1-0.9,1.4c-0.3,0.2-0.6,0.3-1,0.3
		c-0.3-0.2-0.4-0.6-0.3-0.9c0.4-1,0.9-1.9,1.5-2.7c1.2-1.1,2.4-2.2,3.7-3.3C88.2,243,88.4,243,88.6,242.9z"/>
	<path class="st0" d="M80,277.9c1.4-2.4,3.3-4.5,4.8-6.8l0.3,0.1c0,0.2,0.1,0.4,0,0.5c-0.7,1.6-1.3,3.1-2.1,4.7
		c-0.4,0.6-0.9,1.1-1.4,1.5C81.2,278.4,80.5,278.4,80,277.9C80.1,277.9,80,277.9,80,277.9z"/>
	<path class="st0" d="M78.3,268.7c0.1,1.5-1.7,5.1-2.9,5.7C75.1,272.8,76.9,269.2,78.3,268.7z"/>
	<path class="st0" d="M82.5,268.5c0.7-2.2,2.1-4.2,4-5.6c0,0.2,0,0.5-0.1,0.7c-0.4,0.6-0.8,1.2-1.2,1.8c-0.4,0.7-0.8,1.4-1.2,2.1
		C83.9,268.2,83.2,268.6,82.5,268.5z"/>
	<path class="st0" d="M82,262.9c0,1.7-0.7,3.3-1.9,4.5C79.4,266,80.1,264.1,82,262.9z"/>
	<path class="st0" d="M86,257.4c-0.2,1.8-1.3,3.4-2.8,4.4C82.9,260.8,84.4,258.5,86,257.4z"/>
	<path class="st0" d="M150.3,33.9c0,2.5-0.6,4.9-1.8,7.1c-0.3,0.9-1.2,1.3-2,1.1c-0.1,0-0.1,0-0.2-0.1c-0.6-0.2-1.1-0.4-1.6-0.7
		c-2.6-1.7-4.7-4.3-5.8-7.2c-1.2-3.5-1.2-7.4,0.1-10.9c0.4-0.9,0.9-1.7,1.5-2.4c0.2-0.4,0.7-0.6,1.1-0.4c0.1,0,0.2,0.1,0.2,0.1
		c1.3,1,2.6,2,3.8,3c1.1,0.9,2,1.9,2.7,3.1C149.7,28.8,150.4,31.3,150.3,33.9z M147.2,37.5c2.5-4.9-0.6-11.5-5.5-14
		c-3.1,3.1-1,12.8,3.3,14.8c-0.1-0.3-0.1-0.6-0.2-0.9c-0.5-1.7-1-3.4-1.4-5.1c-0.2-0.8,0.1-1.3,0.6-1.5s1.1,0.1,1.4,0.9
		c0.4,0.9,0.6,1.9,0.9,2.8S146.8,36.4,147.2,37.5z"/>
	<path class="st0" d="M164.9,29.1c-0.1,3.3-1.3,6.5-3.4,9.1c-1.2,1.4-2.6,2.6-4.1,3.4c-1.4,0.8-2.6,0.6-3.4-0.9
		c-0.4-0.7-0.8-1.5-1-2.4c-0.6-2.1-0.9-4.4-0.6-6.6c0.3-2.2,1.2-4.2,2.7-5.9c1.7-1.8,3.4-3.4,5.3-5c1.2-1,1.7-0.8,2.4,0.6
		c0.9,1.7,1.5,3.4,1.8,5.2C164.7,27.5,164.8,28.4,164.9,29.1z M160.9,23.4c-0.2,0.1-0.4,0.2-0.6,0.3c-1.2,1.1-2.3,2.2-3.4,3.4
		c-1.3,1.4-2.1,3.2-2.2,5.1c0,1.6,0.2,3.1,0.4,4.7c0,0.2,0.2,0.3,0.5,0.6c0.5-1.6,0.9-3,1.3-4.4c0.2-0.5,0.4-1.1,0.6-1.6
		c0.3-0.5,0.7-1,1.4-0.7c0.6,0.2,0.9,0.8,0.7,1.4c0,0,0,0,0,0c0,0.2-0.1,0.5-0.2,0.7c-0.4,1.2-0.7,2.4-1.1,3.5
		c-0.2,0.6-0.3,1.2-0.5,1.9C162.2,35.5,164.1,28.5,160.9,23.4L160.9,23.4z"/>
	<path class="st0" d="M157.9,55c-0.2,1.2-0.6,2.3-1,3.4c-0.8,1.7-1.8,3.2-2.9,4.7c-1,1.1-2.6,1.1-3.6,0.2c-0.1-0.1-0.2-0.2-0.3-0.3
		c-1.7-2-3-4.3-3.8-6.8c-0.6-2.5-0.4-5.1,0.6-7.5c0.9-2.3,2.1-4.5,3.7-6.4c0.6-0.8,1-0.8,1.8-0.2c2.7,2.2,4.6,5.3,5.2,8.8
		C157.8,52.1,157.8,53.4,157.9,55z M153.3,59.8c4.2-3.9,1.9-13.1-1.6-14.8c-0.1,0-0.2,0.1-0.2,0.1c-1.4,1.6-2.3,3.6-2.8,5.7
		c-0.6,1.8-0.5,3.7,0.2,5.5c0.4,1,0.9,2,1.4,3c0.1,0.2,0.4,0.3,0.9,0.8c-0.1-1.2-0.1-2.2-0.1-3.1c0-1.1-0.1-2.2-0.1-3.3
		c0-0.6,0.5-1.1,1.1-1.1c0.6-0.1,1,0.3,1.1,1.1c0.1,0.4,0.1,0.8,0.1,1.1c0,1.1,0,2.3,0,3.4C153.1,58.6,153.2,59.1,153.3,59.8
		L153.3,59.8z"/>
	<path class="st0" d="M154.3,21.1c0.1,2-0.5,3.9-1.9,5.4c-0.5,0.8-1.5,1-2.2,0.5c-0.2-0.1-0.4-0.3-0.5-0.5c-2.3-2.6-3-5.4-1.5-8.6
		c0.5-1,1-1.9,1.6-2.8c0.6-0.9,1-1,1.8-0.2c1.6,1.4,2.5,3.3,2.7,5.3C154.3,20.5,154.3,20.8,154.3,21.1z M150.8,16.7
		c-2,2.5-2.4,5.3-0.9,6.7c0.1-0.7,0.1-1.4,0.2-2s0.4-1,0.9-0.8c0.3,0.2,0.6,0.5,0.6,0.9c0.1,0.8,0.1,1.7,0.1,2.5
		C153.3,21.7,152.9,18.5,150.8,16.7L150.8,16.7z"/>
	<path class="st0" d="M108.7,25.9c0.1-1.4,0.2-2.9,0.4-4.4c0.1-1,0.3-1,1.2-0.9c4.9,0.2,8.9,2.4,12.3,5.8c1.1,1.1,2.1,2.3,3,3.5
		c1.9,2.6,2.4,5.7,2.9,8.9c0.3,2.5,0.1,5-0.4,7.5c-0.1,1.1-1.1,1.9-2.2,1.8c0,0-0.1,0-0.1,0c-0.8-0.1-1.5-0.2-2.2-0.5
		c-1.6-0.5-3.1-1.2-4.6-1.9c-2.2-1.2-4.1-2.7-5.8-4.5c-1.4-1.6-2.5-3.5-3.2-5.5c-0.5-1.3-0.8-2.6-0.9-4
		C108.9,29.7,108.8,27.8,108.7,25.9z M123.2,44.5l0.2-0.3c-1.2-1.8-2.4-3.6-3.6-5.5c-0.7-1-1.3-2-1.9-3c-0.5-0.6-0.4-1.4,0.2-1.9
		c0,0,0.1-0.1,0.1-0.1c0.6-0.3,1.2-0.1,1.8,0.7c0.1,0.1,0.2,0.2,0.2,0.4l4.8,7.3c0.2,0.3,0.4,0.5,0.7,0.8c0.3-0.9,0.4-1.9,0.4-2.9
		c-0.1-1.2-0.3-2.4-0.6-3.7c-0.3-1.7-0.9-3.2-1.8-4.6c-0.8-1-1.7-2-2.5-3.1c-2.1-2.6-5.1-3.9-8.1-5.1c-1.2-0.5-1.7-0.1-1.7,1.2
		c0,1.8-0.4,3.7,0.1,5.5c0.4,1.5,0.4,3,1,4.4c0.5,1.5,1.3,3,2.3,4.2c1.3,1.5,2.8,2.8,4.5,3.9C120.5,43.7,121.8,44.2,123.2,44.5z"/>
	<path class="st0" d="M110.6,41.2c-0.1,0.7-0.2,1.3-0.4,1.9c-0.2,0.8-1,1.3-1.8,1.2c-3.9-0.5-7.4-1.9-9.9-5.1
		c-1.7-2.3-2.7-5.1-2.9-7.9c-0.1-1.1-0.2-2.2-0.2-3.3s0.3-1.4,1.3-1.3c2.2,0,4.4,0.6,6.4,1.7c2.3,1.2,4.2,3.1,5.5,5.3
		C109.8,36,110.5,38.6,110.6,41.2z M108.1,39.9c-0.3-6.8-6.4-11-10.1-10.6c-0.6,5.2,2.9,11.1,8.2,11.9l-2.1-2.7
		c-0.5-0.7-1.1-1.3-1.6-2c-0.4-0.4-0.4-1.1,0-1.5c0,0,0,0,0,0c0.5-0.4,1-0.4,1.7,0.2c0.4,0.4,0.7,0.8,1,1.2L108.1,39.9z"/>
	<path class="st0" d="M208.2,229c-1.3-0.8-2.3-2.1-2.8-3.6C206.8,226.2,207.8,227.4,208.2,229L208.2,229z"/>
	<path class="st0" d="M206.9,230.2c-1.4-0.1-1.8-0.5-2-1.9C205.9,228.6,206.2,228.9,206.9,230.2z"/>
	<path class="st0" d="M204.4,227.2c-1-0.5-1.8-1.5-1.9-2.6C203.6,225.1,204.3,226.1,204.4,227.2z"/>
	<path class="st0" d="M68.9,54.6c-0.5-0.4-0.9-0.7-1.2-0.9c-0.3-0.3-0.6-0.5-1-0.7c-0.3-0.1-0.6,0-0.9,0.2c-0.1,0.3-0.1,0.6,0,0.9
		c0.4,0.5,0.9,1,1.4,1.4c0.2,0.2,0.5,0.4,0.8,0.7c-2.7-0.5-4.8-2.7-5-5.5"/>
</g>
</svg>
