<?xml version="1.0" encoding="utf-8"?>
<!-- Generator: Adobe Illustrator 23.1.1, SVG Export Plug-In . SVG Version: 6.00 Build 0)  -->
<svg version="1.1" id="Layer_1" xmlns="http://www.w3.org/2000/svg" xmlns:xlink="http://www.w3.org/1999/xlink" x="0px" y="0px"
	 viewBox="0 0 201.2 39.8" style="enable-background:new 0 0 201.2 39.8;" xml:space="preserve">
<style type="text/css">
	.st0{fill:#4D4051;}
</style>
<title>logo-dark</title>
<g>
	<path class="st0" d="M112.7,20.2c-0.6-0.4-1.1-0.1-1.5,0.4c-0.2,0.3-0.4,0.5-0.6,0.8c-1.9,2.6-4.1,4.9-6.7,6.8
		c-0.5,0.4-1.1,0.6-1.7,0.8c-0.8,0.2-1.2-0.1-1.5-0.9s0-1.2,0.8-1.5c0.5-0.1,1-0.2,1.5-0.4c2.3-0.6,3.8-2.8,3.6-5.2
		c0.1-1.3-0.8-2.5-2.1-2.9c-0.9-0.3-1.9-0.4-2.8-0.3c-3.2,0.2-5.9,1.5-7.2,4.7c-0.8,1.9-1.2,3.9-1.1,6c0.2,2.5-1.2,4.3-2.9,5.9
		c0,0-0.2,0-0.4-0.1c-0.1-0.3-0.1-0.7-0.1-1c0.1-1.9,0.3-3.7,0.4-5.5c0.1-1.7,0.4-3.4,0.4-5.1c0-2.5-1.1-3.7-3.6-4.3
		c-0.7-0.1-1.3-0.2-2-0.3c-1.2-0.1-1.4-0.2-1.7-1.4c-0.1-0.4-0.2-0.8-0.3-1.2c-0.3-0.9-1.1-1.5-2-1.6c-0.5-0.1-1-0.1-1.4,0
		c-3,0.5-2.8,0.1-2.8,3.1c0,2.5,0.8,4.1,3.1,4.6c0.7,0.2,0.9,0.6,0.7,1.3c-0.6,2.3-1.5,4.4-2.8,6.4c-0.3,0.5-0.6,1-1.4,0.8
		c0.1-1.6,0.2-3.1,0.2-4.6c0.1-1.8,0.2-3.5,0.2-5.3c0-1.1-0.6-2.2-1.6-2.7c-1.3-0.9-2.9-1.2-4.5-1.1c-1.1,0-1.4,0.5-1.3,1.6
		c0.2,2.2-0.1,4.5-1,6.6c-0.3,1.1-1.2,1.9-2.2,2.3c-0.1-0.5-0.2-1-0.3-1.5c0.2-2.2,0.4-4.4,0.6-6.5c0.3-1.5-0.5-3-2-3.5
		c-1.2-0.3-2.4-0.4-3.7-0.3c-0.2,0-0.7,0.4-0.7,0.7c-0.2,1.5-0.3,3-0.6,4.5c-0.1,0.8-0.3,1.7-0.6,2.5c-1,1.8-2,3.5-3.2,5.3
		c-0.5,0.9-1.3,1.6-2.3,2c-0.7-0.5-1.1-1.3-1-2.1c0-0.9-0.1-1.8-0.1-2.7s0-1.8,0-2.7s0.1-1.5,0.1-2.3c0-1-0.2-2-0.2-3s0.2-2,0.2-3
		c0.1-2.1,0.2-2.2,2.3-2.4c0.3,0,0.6,0,0.8-0.1c0.4,0,0.8-0.1,1.3-0.2c0.7-0.2,1.1-1,0.9-1.7c-0.1-0.7-0.5-0.8-1.4-0.8
		S55.2,9,54.3,9c-0.5,0-1-0.3-1-0.8c0-0.1,0-0.1,0-0.2c0-0.9,0.1-1.7,0.1-2.6c0.2-4.5-3.3-5.6-6.5-5.4c-0.7,0-1,0.4-1,1.2
		c0,2.4,0,4.7-0.1,7.1c0,1.1-0.1,1.2-1.2,1.4s-2,0.4-3.1,0.6c-0.7,0-1.2,0.6-1.2,1.3c0,0.1,0,0.2,0,0.2c0.1,0.8,0.3,1,1.2,1
		c0.8,0,1.6,0,2.4-0.1c1.2-0.1,1.5,0.1,1.5,1.3s-0.2,2.5-0.2,3.7c0,2,0,4,0,6c0,0.6-0.1,1.1-0.3,1.6c-0.6,1-1.2,1.9-1.9,2.7
		c-0.2,0.3-0.8,0.7-1,0.6c-0.3-0.3-0.6-0.7-0.7-1.1c0-0.2,0-0.4,0-0.6c0-2.3,0.1-4.6,0.2-6.8c0-0.3,0-0.7-0.1-1
		c-0.7-3.4-3.2-4.2-6.2-4.2c-0.7,0-1.1,0.5-1.1,1.3c0,0.5-0.1,1-0.1,1.5c-3.9-0.1-7,1.2-9.3,4.6c0-1.7,0.1-3.1,0-4.5
		c-0.2-3.3,0.6-6.6,0-10c-0.1-1.5-1.1-2.8-2.5-3.3c-3-1-6.3-0.1-8.3,2.3c-0.7,0.8-1.3,1.8-1.8,2.7c-0.9,1.9-1.6,3.8-2.4,5.8
		c-0.3,0.7-0.6,1.5-0.9,2.2c-0.2-0.5-0.2-1-0.2-1.5c0.1-1.8,0.2-3.5,0.3-5.3c0-0.2,0.1-0.5,0.1-0.7C9.2,8.6,9.3,7,9.2,5.4
		c-0.1-2-1.5-3.7-3.5-4.1C4.6,1.2,3.4,1.1,2.3,1.1c-1,0-1.1,0.3-1.1,1.3c0,2,0,4-0.1,6s-0.6,4.1-0.6,6.1c0,3.9-0.6,7.8-0.4,11.7
		c0.1,2.1,0.4,4.3,1,6.3c0.2,0.8,0.6,1.5,1,2.2C2.5,35.5,3.5,36,4.5,36c2.5-0.1,4.7-1.8,5.3-4.2c0.3-1.6,0.5-3.2,0.7-4.8
		c0.4-3.1,0.8-6.1,1.4-9.2c0.5-2.1,1-4.1,1.8-6.2c0.4-1,0.9-1.9,1.4-2.7c0.4-0.5,1-1.1,1.7-0.8c0.4,0.4,0.7,0.9,0.7,1.4
		c0.1,2,0,4-0.1,6c-0.4,3.4-0.6,6.9-0.6,10.4c0,1.9,0.4,3.7,1.2,5.4c0.3,0.9,1.1,1.6,2,1.8c2,0.3,4-0.3,5.3-1.8
		c0.5-0.5,0.6-1.2,0.3-1.8c-0.2-0.8-0.4-1.6-0.5-2.4c2.8,2.3,5.4,1.7,8.1,0.2c0.1,1,0.1,1.9,0.3,2.8c0.6,3.2,2.7,4.4,5.8,3.4
		c1.7-0.4,3.2-1.3,4.3-2.6c0.6-0.7,1.3-1.3,2.2-2.1c0.2,1.1,0.3,2,0.5,2.8c0.2,2,1.9,3.5,3.9,3.4c1.2,0,2.4-0.4,3.4-1
		c2-1.3,3.7-3,5-5c0.4-0.7,0.9-1.3,1.5-2c0.5,2.2,1.5,3.8,3.6,4.2s3.7-0.5,5.2-2c0.1,0.5,0.1,0.7,0.2,0.9s0,0.6,0.1,0.9
		c0.4,3,2.6,4.6,5.6,3.9c1.5-0.3,2.9-1.1,3.9-2.2c2-2.1,3.4-4.6,4.2-7.4c0.1-0.3,0.2-0.5,0.3-0.8c-0.1,1.8-0.2,3.7-0.4,5.5
		c-0.3,2-0.3,4.1,0.1,6.1c0.7,2.9,3.3,4,6,2.9c1.7-0.8,3.2-2.1,4.3-3.7c0.7-1,1.3-2,1.8-2.8c1.2,0.4,2.4,0.6,3.6,0.8
		c2.2,0.2,4-0.9,5.9-1.9c2.2-1.5,4.2-3.3,5.8-5.3c1.1-1.4,2-2.9,2.9-4.4c0.4-0.4,0.3-1.1-0.1-1.4C112.7,20.3,112.7,20.2,112.7,20.2z
		 M101.9,22.1c0.2-0.3,0.5-0.6,0.8-0.8c0.4-0.1,0.8-0.1,1.2,0.1c0.2,0.1,0.2,0.7,0.1,1c-0.5,1.2-1.6,2-2.9,2
		C101.3,23.5,101.5,22.7,101.9,22.1z M33.4,22.4c-0.8,0.8-1.6,1.4-2.5,2.1c-0.3,0.2-0.7,0.2-0.9-0.1c-0.1-0.2-0.2-0.4-0.1-0.6
		c0.1-0.6,0.4-1.2,0.8-1.7c0.8-0.7,1.9-1,2.9-0.7C33.6,21.8,33.7,22.2,33.4,22.4z"/>
	<path class="st0" d="M201,21.7c-0.3-0.3-0.6-0.6-1-0.8c-2.6-1.4-5.3-2.1-8.2-1.3c-0.5,0.2-1.1,0-1.3-0.4c0,0,0-0.1-0.1-0.1
		c-0.9-1.8-2-3.6-1.6-5.8c0.1-0.8-0.4-1.1-1.1-0.9c-0.8,0.3-1.5,0.6-2.2,1.1c-1.9,1.4-3.2,3.1-2.6,5.7c0.1,0.2,0,0.5,0.1,0.7
		c0.1,0.7-0.1,1.4-0.5,2c-1.6,2.2-3.5,4.2-5.5,6c-0.8,0.7-1.8,1.2-2.8,1.7c-0.8,0.4-1.1,0.1-1.4-0.7c0-0.1-0.1-0.3-0.1-0.4
		c-0.2-1.2-0.2-1.2,1-1.5c0.8-0.2,1.6-0.4,2.3-0.7c1.9-0.9,2.6-2.6,2.7-4.5c0.2-1.3-0.6-2.5-1.8-3c-0.8-0.4-1.6-0.6-2.5-0.6
		c-3.6-0.1-6.9,2-8.2,5.4c-0.5,1.5-0.6,3.2-2,4.4c-1.1,2.3-2.8,4.2-4.9,5.7c-0.3,0.2-0.6,0.3-0.9,0.4c-0.5-0.5-0.7-1.2-0.6-1.9
		c0-1.7,0.1-3.3,0-5c-0.1-1.5,0.4-2.9,1.3-4.1c0.7-1,1.3-2.2,1.6-3.5c0.8-3.3,0.4-6.8-1.3-9.8c-1-1.8-2.7-3.1-4.7-3.6
		c-1.2-0.4-2.5,0.3-2.9,1.5c0,0,0,0.1,0,0.1c-0.3,1.3-0.5,2.7-0.6,4.1c-0.1,1-0.1,2.1-0.2,3.1c-0.2,2.8-0.4,5.6-0.5,8.4
		c0,0.9,0,1.7,0,2.6c0,0.5-0.2,1-0.7,1.3c-1.2,0.9-2.4,1.9-3.5,2.9c-0.4,0.4-0.9,0.7-1.4,1.1c-0.5-0.6-0.7-1.4-0.6-2.2
		c0-2.3,0.1-4.7,0-7c0.1-2.1-1.3-3.9-3.3-4.3c-1-0.2-2-0.3-2.9-0.3c-0.9,0-1.1,0.3-1.2,1.2c-0.1,0.5-0.1,0.9-0.1,1.3
		c-0.2,0.1-0.2,0.1-0.3,0.1l-1,0c-3.4,0.2-6.1,1.6-7.6,4.8s0.6,6.4,4.2,6.2c0.5,0,1-0.1,1.5-0.3c0.8-0.3,1.6-0.7,2.6-1.1
		c-0.2,1.4-0.1,2.8,0.5,4.1c0.4,1.3,1.5,2.3,2.9,2.3c0.8,0.1,1.5,0.1,2.3-0.1c1.7-0.7,3.3-1.5,4.8-2.4c1.4-1.1,2.7-2.2,3.9-3.5
		c0.1,1.2,0.2,2.2,0.3,3.2c0.1,1.9,0.6,3.7,1.4,5.3c0.4,0.9,1.2,1.4,2.2,1.3c1.6-0.1,3.2-0.7,4.4-1.8c1.1-1,2.2-2.1,3.2-3.2
		s1.8-2.3,2.8-3.4c0.2-0.3,0.5-0.5,0.8-0.8c0.3,0.5,0.5,0.8,0.7,1.1c0.7,1.2,1.9,2,3.2,2.1c1.1,0.2,2.2,0.1,3.2-0.3
		c3.8-1.3,6.6-4,9.1-6.9c0.9-1,1.7-2.2,2.5-3.2c1.5,1.4,1.5,1.4,0.9,3.1c-0.9,2.8-1.2,5.6,0.2,8.4c1.6,3.2,6.7,4.9,10.3,2.6
		c1.6-0.8,2.5-2.5,2.4-4.3c-0.1-1.5-0.5-2.9-1.3-4.2c-1.2-1.8-2.4-3.7-3.6-5.5c-0.3-0.4-0.5-0.9-0.8-1.5c0.5-0.2,1.1-0.3,1.7-0.4
		c2-0.1,4,0.4,5.8,1.4c0.4,0.2,0.8,0.4,1.1,0C201.3,22.7,201.3,22.1,201,21.7z M174.2,21.9c0.3-0.4,1-0.5,1.4-0.2c0,0,0,0,0,0
		c0.5,0.4,0.4,0.8,0.2,1.3c-0.4,1-1.5,1.7-2.6,1.5C173.1,23.6,173.5,22.6,174.2,21.9L174.2,21.9z M158.4,15.5c0.3,1.1,0.3,2.2,0,3.3
		h-0.3C158.2,17.7,158.3,16.6,158.4,15.5L158.4,15.5z M136,25c-0.6,0.6-1.4,1.2-2.1,1.6c-0.7,0.4-1.1,0.1-1.2-0.8
		c-0.1-0.7,0.3-1.4,0.9-1.8c0.7-0.4,1.6-0.7,2.5-0.7C136.5,23.8,136.5,24.5,136,25z M190.1,34.7c-0.6,0.2-1-0.2-1.4-0.5
		c-1.3-1.3-1.7-3.4-0.8-5.9c1.3,1.6,2.5,3.1,2.7,5.1C190.7,33.8,190.7,34.4,190.1,34.7L190.1,34.7z"/>
	<path class="st0" d="M126.2,16.1c0.1-1.4,1.4-2.5,2.8-2.4c2.3,0,4.2-1.5,4.8-3.7c0.3-1,0.5-2,0.4-3c-0.1-1.3-0.3-1.5-1.7-1.6
		c-3.9-0.3-7.9-0.5-11.8-1c-2.2-0.2-4.5-0.2-6.7,0.2c-2,0.2-3.6,1.9-3.6,3.9c0,1.6,0.7,3.2,1.8,4.4c0.7,0.8,1.1,0.8,2,0.3
		c1.4-0.8,2.7-0.5,4.2-0.1c0,0.3,0,0.5,0,0.8c-0.2,3.6-0.5,7.2-0.7,10.8c-0.1,1-0.2,2-0.2,3c0,1.6,0.1,3.1,0.2,4.7
		c0.1,1.5,0.4,2.9,0.8,4.3c0.4,1.3,1.2,2.7,2.9,2.8c1.8,0,3.5-0.6,4.8-1.9c0.5-0.3,0.7-0.9,0.4-1.4c-1.2-2.1-1.2-4.4-1.2-6.8
		c0-2.6,0-5.2,0-7.9C125.6,19.7,125.9,17.9,126.2,16.1z"/>
</g>
</svg>
