<svg version="1.1" id="Layer_1" xmlns="http://www.w3.org/2000/svg" x="0" y="0" viewBox="0 0 315.6 320" xml:space="preserve"><style>.st0{fill:#fff}</style><path class="st0" d="M270.2 271.8l.2 1c-.1.1-.1.2-.2.2-1.1 0-2 .6-2.5 1.5-1.8 2.2-4 4.2-6.3 5.9l-.9.9c-.4.4-.8.8-1.3 1.1-1.3.6-2.4 1.5-3.3 2.6-.3.3-.6.6-1 .8-1.5.8-2.7 2.1-4.1 3-2.1 1.4-3.6 3.6-6.1 4.4-1 1-2.2 1.8-3.6 2.3-.6.2-1 .9-1.6 1.4-.4.3-.8.5-1.2.7-.7.3-1.4.6-2 1-.4.2-.8.4-1.2.7-.5.3-1 .6-1.5 1-.5.6-1.3 1-2.1 1.1-.5 0-1 .2-1.4.5-1.3 1.1-2.8 1.8-4.4 2.3-1.3.4-2.6 1-3.7 1.8-.7.5-1.4.8-2.2 1-1.2.3-2.2.8-3.2 1.5-.6.5-1.3.8-2.1.9-1.6.2-3.2.8-4.6 1.7-.2.2-.5.3-.8.3-1.9.4-3.7.9-5.4 1.6-1.5.5-3.2.4-4.5 1.4-1.1-.1-2.3.2-3.2.9-.3.1-.7.2-1 .1-.7.1-1.4.2-2.1.4-1.3.5-2.8.3-3.9 1.2-.1.1-.3.1-.4.1-2.3-.1-4.6.3-6.7 1.1-.3.1-.7.1-1 .1-.3-.1-.7-.1-1 0-2.1.9-4.3.3-6.5.9-.9.2-1.8.2-2.7.2-1.9.2-3.9.3-5.8.2-1.6-.1-3.2.1-4.8.1-.7 0-1.3 0-2 .2-.9.2-1.8.5-2.6-.2-.1-.1-.2-.1-.3-.1H150c-.6.1-1.2 0-1.8-.1-1.2-.4-2.5-.5-3.8-.2-1.6.1-3.1 0-4.6-.4-1.9-.3-3.8-.5-5.6-.8-.7-.1-1.3-.2-1.9-.3-1.5-.5-3-.8-4.6-.8-.5 0-.9-.1-1.4-.3-.7-.1-1.3-.2-1.9-.4-.9-.4-1.8-.8-2.8-1-.9.1-1.9-.1-2.8-.5-.2-.1-.3-.2-.5-.2-2.2-.5-4.4-1-6.7-1.5-.6-.1-1.2-.3-1.8-.5-.8-.3-1.7-.7-2.4-1.1-1.4-.8-3-.6-4.4-1.2-.4-.1-.8-.3-1.2-.5-.8-.6-1.6-1-2.6-1.1-1.5-.5-3-1.2-4.4-2.1-.5-.3-1-.5-1.6-.6-.7-.2-1.4-.3-1.8-1l-.3-.3-3.6-1.5c-.6-.2-1.1-.6-1.6-.9-1.9-.8-3.7-1.8-5.4-2.8-.6-.2-1.3-.3-2-.3l.1-.8c-2.2-1.4-4.2-2.7-6.3-4-.6-.4-1.1-.9-1.7-1.3-.4-.3-.8-.6-1.2-.8-.7-.1-1.3-.6-1.7-1.1l-.1-.1c-1.6-.3-2.3-1.8-3.7-2.3-.3-.1-.5-.2-.7-.5-.6-1.1-1.8-1.5-2.7-2.2s-1.5-1.3-2.3-1.9c-2.2-1.4-4.1-3.2-5.7-5.3-.3-.4-.7-.8-1.2-1-1.3-.9-2.5-1.9-3.4-3.2-.3-.3-.7-.5-.9-.8-1.1-1-1.9-2.3-3.2-3.1-.6-1.6-2.4-2.3-3.3-3.6-.2-.2-.6-.4-.6-.6-.1-1.2-1-1.6-1.7-2.3-.3-.3-.6-.7-.8-1.1-.4-.7-.9-1.3-1.5-1.8-1.1-1-2-2.2-2.7-3.5-.5-1.1-1.3-2-2.2-2.7-.8-.6-1.5-1.5-1.9-2.4-.5-1.1-1.1-2.1-1.8-3-.7-1-1.4-2-2-3-.9-1.4-1.7-2.8-2.6-4.3-.2-.4-.5-.7-.7-1.1-.4-.7-.7-1.4-1.1-2.1-.1-.4-.3-.8-.5-1.2-1.1-1.7-2-3.5-2.7-5.3-.5-1.1-1.1-2.1-1.9-3-.5-.6-.8-1.3-.8-2 0-.3-.1-.7-.2-.9-1.5-1.6-1.6-3.8-2.8-5.6-.8-1.1-.9-2.7-1.3-4-.1-.4-.3-.8-.4-1.2-.4-1-.7-2-1-3-.1-.8-.4-1.7-.9-2.3-.6-.8-.9-1.8-.9-2.8-.2-1.3-.6-2.6-1.1-3.8-.3-1-.7-2.1-1-3.1-.2-.6-.3-1.3-.5-1.9-.1-.4-.2-.7-.2-1.1.2-1.6-.1-3.2-1-4.6-.2-.4-.3-.8-.3-1.2-.1-1-.2-2.1-.3-3.1-.1-.5-.3-1-.5-1.4-.1-.2-.3-.4-.3-.6.2-1-.3-1.9-.5-2.9-.1-.3-.1-.7 0-1 .5-1.8 0-3.4-.5-5.2-.2-1.2-.4-2.4-.4-3.7 0-.3.1-.6 0-.9-.8-2.4-.1-4.9-.6-7.4-.1-.9 0-1.8.3-2.7.2-.8.2-1.6-.1-2.4-.2-.6-.3-1.2-.2-1.8 0-1.2.2-2.5.3-3.7.1-.2.1-.5 0-.7-.6-1.5-.1-3 .4-4.4.1-.3.1-.7.2-1l.3-5.7c.2-2.3.4-4.5.6-6.8.1-1.2.5-2.3.7-3.5.1-.6.1-1.3.2-2 0-.5.1-.9.2-1.4 0-.4.1-.7.2-1.1.1-.5.2-.9.4-1.3.7-1 1.1-2.3.9-3.5-.1-.2-.1-.4 0-.6 1-1.4.7-3.2 1.3-4.7.1-.4.2-.7.3-1.1.1-1.5.6-3 1.3-4.3.1-.3.2-.5.2-.8.2-2.3 1.4-4.3 2.3-6.4.6-1.1 1-2.4 1.2-3.6.2-1.3.2-2.7 1.5-3.6.2-.2.3-.7.4-1 .2-1.2.7-2.4 1.4-3.4.3-.4.5-.8.5-1.3 0-.9.4-1.8 1.1-2.4.4-.4.7-1 .9-1.6.1-.8.5-1.5 1.1-2.1.5-.4.8-1 .8-1.6 0-.5.2-1 .5-1.4 1.3-1.1 1.6-2.8 2.5-4.1.7-1.1 1-2.4 2.2-3 .3-.2.5-.5.5-.8.5-1.9 1.9-3.2 2.9-4.7 1.4-2 2.5-4 3.8-6 .6-1 1.3-2 2-2.9.9-1.1 1.8-2.1 2.8-3.1.3-.3.5-.7.8-1l2.9-3.7.4-.4c.5-1.1 1.3-2 2.4-2.5.4-.3.8-.7 1.1-1.1.2-.2.4-.6.6-.8.9-.4 1.6-1.3 1.8-2.3 0-.3.4-.5.7-.7 1.5-.9 2.9-2.2 3.9-3.7.4-.4.8-.8 1.3-1 .6-.5 1.3-.9 1.9-1.4s1.5-1.2 2.2-1.8c.3-.2.6-.5.8-.8.7-1.2 1.8-2.1 3.1-2.7 1-.3 1.8-1 2.4-1.9 0 0 0-.1.1-.1l3.7-2.8c.6-.4 1.2-.8 1.7-1.3 1.4-1.2 3-2.2 4.7-2.9.3-.2.6-.4.9-.7.4-.6.9-1 1.6-1.1.2 0 .4-.1.5-.2.9-.9 2.1-1.6 3.4-1.9.6-.3 1-.7 1.4-1.2.5-.6 1.3-1 2.1-1.1.6-.1 1.1-.4 1.6-.8.7-.4 1.3-.8 1.9-1.2 1.1-.7 2.2-1.4 3.4-2.1.6-.4 1.3-.8 2-1 1.5-.3 2.7-1.5 4.3-1.5.1 0 .3 0 .4-.1 2.4-1.4 5.4-1.8 7.8-3.4.4-.2.9-.3 1.3-.4 1.2-.4 2.4-.8 3.7-1.2 1.8-.7 3.7-1.2 5.6-1.6.5-.1.9-.2 1.3-.5 1-.8 2.3-1.1 3.6-1 1.5.1 2.9-.2 4.2-1 .7-.4 1.4-.6 2.2-.5 1.2 0 2.5-.2 3.6-.7.8-.3 1.5-.4 2.3-.5 1.5-.1 3 .2 4.5-.5.8-.2 1.6-.3 2.5-.3l7.2-.9h1.4c.3 0 .7.1.8 0 .9-.6 2-.6 2.9-.1.3.1.7-.1 1.1-.2.6-.1 1.2-.2 1.8-.2.7.2 1.5.1 2.2-.1.2-.1.5-.1.7 0 .9.6 1.8.3 2.8.3l9.6.3c.4.1.7.1 1.1.2.2 0 .5.2.7.1 1.2-.6 2.5-.2 3.7-.1.9.1 1.8.3 2.6.5.3.1.6.2 1 .3 1.6.3 3.3.5 4.9.7 1.7 0 3.2.7 4.8.9 1 .1 2.1.2 3.1.5.8.2 1.6.5 2.4.7s1.9.2 2.8.3c.3 0 .7 0 1 .2 1.2 1 2.7 1 4.1 1.4.8.2 1.5.6 2.3.8 2 .6 4.1 1.2 6.1 1.9 1.4.5 2.8 1.1 4.2 1.7s2.9 1.4 4.4 1.9c1 .3 2 .6 3 .8.3.1.6.1.8.3 1 1.2 2.6 1.4 3.8 2 .2.1.4.1.5.2.9 1 2.2 1.7 3.5 1.9.4.1.7.5 1.1.6 1.5.7 3 1.5 4.4 2.6.7.4 1.5.8 2.4 1 .9.3 1.6.8 2.2 1.5.3.3.8.6 1.2.7 1.7.5 3.3 1.6 4.3 3.1.3.3.7.5 1.1.6.9.2 1.8.7 2.5 1.3 1.9 1.5 3.8 2.9 5.8 4.4.7.5 1.4 1.1 2.1 1.7 1.1.9 2.2 1.9 3.3 2.9 1.2 1.1 2.4 2.3 3.6 3.5.9.9 1.9 1.7 2.9 2.5.1.1.4.2.5.3 1.2 1.8 3.3 2.8 4.6 4.6.2.3.4.7.6 1 .1.3.2.5.4.7 1.7 1.5 3.4 3.2 4.9 4.9 1 1.2 2.5 2.1 2.9 3.8 1.5 1.3 2 3.5 3.8 4.5.2.1.3.3.5.5 1.2 1.9 2.3 3.7 3.4 5.6 1.3 2.3 2.9 4.4 4.2 6.7 0 0 0 .1.1.1 1.3 1.1 2.1 2.6 2.5 4.3.2 1.1 1.3 2 1.9 3.1.5.9.8 1.9 1.3 2.8.6 1.2 1.1 2.4 1.6 3.6.1.2.1.5.3.6 1 .7 1.1 1.8 1.5 2.8.5 1.3 1.2 2.5 1.7 3.7.5 1 .9 2.1 1.1 3.2.3 1.5.9 2.9 1.6 4.2.3.7.4 1.4.6 2 .3 1 .8 1.9 1.2 2.8.4.5.6 1.1.5 1.7-.1.4 0 .8.1 1.2.6 1.8 1.2 3.5 1.7 5.3.3 1 .3 2 .5 2.9.6 2.1 1.2 4.2 1.8 6.4l.3 1.8c.1.7.3 1.5.4 2.2.1.4.1.8.2 1.3 0 .4 0 .8.1 1.1.6 1.6.3 3.2.5 4.8 0 .3.1.7.2 1 .7 1.6.9 3.4.5 5.2-.2 1-.1 2 .2 3 .2.6.3 1.3.5 1.9.3 1.1.3 2.3 0 3.4-.3.8-.3 1.6.1 2.4.1.2.2.4.1.5-.7 1.7.5 3.5-.1 5.3-.3 1.4-.4 2.8-.4 4.2v.1c1 2.1-.3 4.1-.3 6.2 0 .6 0 1.2-.1 1.8-.2 1.4.3 2.9-.4 4.3-.2.5-.3 1.1-.2 1.6.1.9 0 1.9-.3 2.8-.3.9-.5 1.8-.5 2.8 0 1.4-.1 2.8-.4 4.2-.2.6-.4 1.3-.7 1.9-.2.8-.5 1.5-.7 2.3-.2 1.1-.4 2.2-.6 3.4s-.4 2.1-.6 3.1c-.1.5-.2.9-.5 1.3-.6.7-.8 1.7-.5 2.6.3.7.1 1.6-.5 2.1-1.2 1.1-1.4 2.7-1.6 4.2-.1.9-.4 1.7-.8 2.5-.5 1.1-.8 2.3-1.1 3.5-.1.7-.4 1.4-.9 2.1-.4.6-.7 1.3-1 2.1-1.2 2.7-2.5 5.4-3.6 8.1-.6 1.4-1.2 2.8-1.7 4.2-.2.8-.6 1.6-1.3 2.2-.2.1-.3.3-.3.4-.8 1.6-1.7 3.3-2.4 5-.4 1.1-1 2.1-1.8 3-1.2 1.1-2.1 2.5-2.6 4-.1.3-.3.5-.5.7l-1.3 1.8-.6.9c-.2.3-.5.3-.5.5-.1 1.8-1.7 2.6-2.6 3.7-1.1 1.1-2 2.4-2.8 3.7-.2.3-.4.5-.7.7-.2.2-.6.4-.6.7-.4 1.7-1.9 2.7-2.9 4-.8 1-1.6 2-2.5 2.9-.6.7-1.4 1.2-2 1.8-.4.4-.8 1-1.2 1.4s-1 .3-1.6.9zm-61.9-42.9c.5.1.9 0 1-.5 0-.3 0-.7-.2-1-.5-.9-1.2-1.7-1.7-2.6-.3-.4-.3-1 .1-1.4 1.3.5 1.3 2.2 2.6 3 .2-.4.4-.7.5-1.1.4-1.1.9-2.1 1.4-3.1.8-1.3 1.1-2.8.8-4.2-.1-.6-.2-1.2-.2-1.9.1-.7-.4-1.3-1.1-1.5-1.6-.4-3.2-.9-4.8-1.3-.8-.2-1.6.1-2.1.6l-2.7 2.4c-.8.8-1.8 1.3-2.9 1.2-.3 0-.7 0-1 .1-2.1.3-2.4.9-1.6 2.8.1.1.1.2.2.4.7 1.4 1.3 2.8 1.8 4.2.5 1.7 2 2.2 3 3.3l.3-.2-.9-2.4.3-.1c.3.2.6.4.8.7.5.5.9 1.1 1.2 1.7.6 1.1 1.9 1.9 1.5 3.4 0 .1.2.3.3.5.6.8 1.1 1.6 1.7 2.3.2.2.4.4.7.6 1-1.2.1-2.3-.2-3.5l1.4.1-.2-2.5zm23.9 20l-1.2-2.7c-1.6-3-3.3-5.9-4.9-8.9-.7-1-1.2-2.1-1.7-3.2-.6-1.7-.9-3.5-1.4-5.2-.3-1.1-.8-2.1-1.3-3.1-.7-1.2-1.1-1.3-2-.2-1.2 1.4-2.3 2.9-3.4 4.4-1.7 2.5-3 5.2-5.4 7.2-.8.8-1.4 1.6-2.1 2.5.6.3 1.1.5 1.5.8.6.3 1.1.7 1.5 1.2 1.6 2.2 3.1 4.5 4.5 6.8.6 1.1 1.5 2.1 2.5 2.9 3.9 2.5 6.6 6.1 9 10 1.3 2.2 2.5 4.4 3.8 6.5.8 1.3 1.4 2.7 1.7 4.2.2 1.1.5 2.1.7 3.2v1.2c-.6-.5-.9-.7-1.2-1-2.3-2.2-4.7-4.5-7-6.8-.4-.5-.7-1-.8-1.6-.4-1.4-.7-2.9-.9-4.3-.2-1.6-1.2-3-2.6-3.8-1.5-.9-2.9-1.9-4.1-3-4.5-4.2-8.6-8.8-12.1-13.9-.7-1-1.2-2.2-1.4-3.4-.1-.9-.4-1.8-.9-2.5-.9-1.6-2.3-2.8-4-3.4-2.3-.8-3.9-2.8-5.7-4.3l-.2-.2c-1.5-1.9-2.7-4-3.7-6.2-.2-.6-.4-1.3-.5-1.9-.5-2.6-.9-5.1-1.5-7.7-.2-1.1-.7-2.2-1-3.4-.3-.7-.5-1.5-.6-2.3-.1-2-1.4-3.1-2.8-4-.7-.3-1.6-.2-2.2.2-.6.3-.4 1-.2 1.6.5 1.9 1.2 3.7 2 5.4.5.9.8 1.9 1.2 2.8s.4 1.8.7 2.5c.4 1.1.5 2.3.4 3.5.1 2.4-.2 4.8.6 7.2.8 2.1 1.9 4 2.8 6 1 1.8 2.1 3.5 3.3 5.2.2.2.3.5.4.8.6 1.5 1.7 2.9 3.1 3.8 1.5 1.2 3.1 2.2 4.7 3.3.6.4 1.3.8 1.9 1.2.9.6 1.9 1.3 2.7 2 .2.3.3.6.2 1-.2.3-.5.5-.9.6-.5-.1-1-.2-1.4-.5-1.9-.9-3.7-1.8-5.6-2.7-.6-.3-1.2-.6-1.8-.8-1.1-.6-2.3-1.1-3.6-1.4-1.4-.2-2.6-1-3.3-2.2-1.8-2.8-3.2-5.7-4.5-8.7-.5-1.1-1.1-2.2-1.8-3.2-.3-.4-.7-.6-1.1-.8-1.8-.5-3.7-.5-5.5-.1-.8.3-1.5.6-2.1 1.1-1.2 1.1-2.2 2.5-2.9 4-.2.5-.5.9-.8 1.3-.3.4-1 .5-1.4.2-.2-.3-.3-.7-.2-1.1.1-.5.3-1 .5-1.5.2-.6.4-1.2.7-1.9l.9-2.1c.3-.7.6-1.4 1-2.1.9-1.9 1.6-3.8 2.6-5.6 1.2-2.1 2.4-4.1 2.5-6.6v-2c-.2-1.3-.3-2.7-.4-4 .2-2.9-1-5.2-2.6-7.4-.3-.4-.8-.7-1.3-.7-1-.1-1.9.4-2.3 1.3-.7 1.1-.7 2.4-1 3.5-.6 1.7-.9 3.6-.8 5.4 0 .4-.1.9-.2 1.3-.1 1-.2 2-.4 3-.2 1.8-.2 3.7 0 5.5.2 2.1.4 4.2.5 6.2.1.4 0 .7-.2 1.1-.7.8-2 .8-2.7 0-1.6-1.8-2.6-4.1-2.7-6.6-.3-2.4-.3-4.7-.4-7.1 0-.6.1-1.2.1-1.8s-.1-1.2-.1-1.8c-.1-.8-.2-1.5-.2-2.2 0-.4.1-.9.1-1.3-.1-2.3-.7-4.6-1.7-6.7-.2-.7-.9-1.2-1.6-1-.1 0-.1 0-.2.1-.9.2-1.7.7-2.2 1.5s-.9 1.6-1.3 2.4c-1.3 2.7-2.6 5.3-3.9 8-.4.8-.7 1.5-1 2.4-.6 2.1-1.2 4.2-1.7 6.3-.4 1.6-.7 3.2-1.1 4.9-.2.5-.4 1.1-.5 1.6-.1 1.8-.6 3.6-1.4 5.2-.8 1.7-1.6 3.4-2.6 5.1-.7 1.2-1.5 2.4-2.3 3.6-1.1 1.6-2.1 3.2-3.3 4.8-.4.5-.8.9-1.4 1.2-.4.2-.8.2-1.1 0-.3-.3-.4-.7-.4-1.1.2-1 .6-2 .9-3 .6-2.1 1.9-4 2.3-6.2.2-1.2.6-2.4.7-3.6 0-1.3.3-2.6.8-3.8.2-.4.3-.8.4-1.2.6-2.7.7-5.4 1.6-8.1.1-.3.1-.6.1-.9-.2-1.1 0-2.2.6-3.2s1-2 1.4-3.1c.7-2.4 1.7-4.6 2.9-6.8.6-1.3 1.1-2.6 1.6-4 .2-.4.2-.9 0-1.4-.3-.8-1.2-1.2-2-.9-.2.1-.4.2-.6.4-.7.7-1.3 1.5-2.1 2.1-1.1 1-2.2 1.9-3.3 2.9-.5.4-1 .9-1.4 1.4-1.2 1.6-2.7 3-2.8 5.1 0 .2-.2.4-.3.6-.4 1.4-.8 2.7-1.2 4.1-.2.7-.3 1.3-.3 2-.2 1.7-.4 3.4-.5 5.1 0 1.6-.2 3.1-.5 4.6-.7 3.3-2.5 6.3-5.2 8.4-.1 0-.2.1-.2.2-1.6 2-3.7 3.2-5.8 4.6-.5.4-1 .9-1.3 1.5-1.2 2.4-2.3 4.9-3.5 7.4-.3.6-.7 1.2-1.2 1.7-1.4 1.2-3 2.4-4.5 3.5-2.8 2.2-2.9 2.2-3.8 5.6 0 .1-.1.3-.1.4-.5 2-1.2 3.9-2 5.8-3.1 6.2-6.1 12.5-10 18.3-1.8 2.7-3.6 5.3-6.4 7-.3.2-.4.5-.8 1l1.8.8c.7.2 1.4.6 2.1.9 2.1 1.4 4.7 1.9 6.6 3.5.1.1.3.1.4.2 1.7.7 3.3 1.5 4.9 2.2.3.2.7.3 1.1.3.8 0 1.5.2 2.2.6 1.7 1 3.6 1.7 5.5 2.3 1.1.4 2.2.7 3.4.8.4.1.8.2 1.2.5 1 .6 2.1.9 3.2.9 1.5.1 2.9.4 4.3.9 1.7.8 3.6 1.3 5.5 1.4.6 0 1.2.2 1.8.3 1.9.4 3.7.8 5.6 1.1.6.1 1.3-.2 1.7 0 1.4.8 3 .5 4.4 1 .6.2 1.2.3 1.8.3 2.4.1 4.9-.1 7.3.5.4.1.8 0 1.1-.2.8-.3 1.6-.3 2.4-.1.5.2 1.1.3 1.7.3 1.7-.2 3.4-.3 5.1-.3 2.7.1 5.4-.1 8-.6.3 0 .7 0 1 .1.8.2 1.6.5 2.4-.2.2-.1.5-.1.7 0 .7.4 1.3 0 1.9-.1.5-.2 1.1-.3 1.7-.3 1.2 0 2.4 0 3.5-.3 2-.7 4.3-.6 6.1-1.8 1.6-.1 3.1-.7 4.7-.9 1.7-.3 3.4-.7 5-1.2.8-.3 1.6-.6 2.4-.7.7-.1 1.5-.2 2.2-.5 1.6-.5 3-1.5 4.7-1.9 2.4-.5 4.6-2 7.1-2.5.2 0 .4-.1.5-.3.9-1 2.3-1 3.5-1.5.7-.3 1.3-.6 1.9-1.1.3-.3.7-.7 1-.6 1 .2 2-.3 2.6-1.1.1-.1.3-.2.5-.3l4-2c-.2-.3-.4-.5-.6-.7-3.5-3-7.2-5.4-11.8-6.4-.8-.2-1.6-.3-2.4-.3-1.9.1-3.8-.1-5.6-.6-4.2-1.1-6.9-5.1-6.4-9.4.4-3.5.3-6.9-.1-10.4-.3-1.7-.7-3.4-1.1-5-.2-.9-.7-1.7-1.6-2.1-1.2-.7-2.6-1.1-4.1-1.2-2.7 0-5.4-.1-8.1-.3-2.2-.3-4.4-.9-6.4-2-.3-.1-.5-.3-.7-.5-1.3-1.5-2.7-2.8-3.5-4.7-.3-.5-.5-.9-.9-1.4-.3.5-.6.9-.8 1.4-1.2 2.7-2.4 5.5-3.7 8.2-1.9 3.6-3.9 7.2-5.8 10.8-1.2 2.3-2.4 4.6-3.7 6.8-.8 1.2-1.6 2.4-2.6 3.5-.6.7-1.3 1.4-2 2-.5.5-1.1.9-1.8 1.1s-1.4.6-1.9 1.1c-.4.4-.8.8-1.3 1.1-1.7.9-2.9 2.4-4.1 3.7-3.6 3.6-7 7.4-10.2 11.4-.3.4-.8.7-1.4.8.2-.5.2-.8.4-1.1 1.4-3.5 2.8-7.1 4.4-10.6s2.9-6.8 5.1-9.9c1-1.5 2.5-2.7 4.2-3.2.4-.2.7-.4 1-.6-.1-.1-.2-.3-.3-.4-3.6-2.3-7.1-4.8-10.4-7.5-.5-.4-.9-.9-1.2-1.4-.7-1.9-1.3-3.8-2-5.6-.4-1-.8-2-1.3-3-.2-.4-.6-.7-1-.9-1.3-.2-2.6-.2-3.8.3-.8.3-1.4.9-1.7 1.6-1.3 2.2-3.3 3.9-5.6 5-1.8.9-3.3 2.3-4.3 4-3.2 4.6-6.5 9.2-9.7 13.8-.4.5-.8.9-1.3 1.3l-12.6 9.3c-.4.2-.7.4-1.1.5.3-.6.4-1 .6-1.3 1.8-2.6 3.6-5.2 5.2-7.8.8-1.3 1.9-2.4 3.3-3.1 3.4-1.8 2.8-1.2 3.4-4.8.1-1.3.6-2.6 1.5-3.6.5-.6 1-1.3 1.5-1.9 2.4-3.4 5.4-6.4 8.8-8.9 2.7-1.8 5.2-4 7.2-6.6.7-1 1.8-1.7 3-1.8 1.6-.1 3.1-.1 4.7 0 1.5.2 3 .8 4.1 1.8 1.4 1.1 2.6 2.4 3.4 4 1.5 2.7 3.3 5.2 5.4 7.5 1.4 1.4 2.5 3 3.5 4.7l.9 1.8c.4.7.9 1.3 1.3 2 .3-.2.7-.5 1-.6 1-.4 1.6-1.4 1.4-2.5 0-1.1.1-2.3.2-3.4s.2-2.3.2-3.4c-.1-1 .1-2.1.6-3 1.9-3.4 3.7-6.8 5.6-10.1 2.2-4 5.2-7.5 7.9-11.2.2-.3.5-.5.9-.8 1.9-1.3 4.1-1.8 6.4-1.4 1.9.2 3.6 1.3 4.5 3 1 1.8 2.2 3.5 3.4 5.3.7 1.1 1.8 1.9 3.1 2.1 2.8.4 5.4 1.5 8.1 2.2 1.9.4 3.7 1.2 5.4 2.3 3.1 2.3 5.6 5.4 7.2 8.9 1.5 3.1 2.6 6.4 3.3 9.8.3 1.4.6 2.7.9 4 .1.8.7 1.4 1.5 1.5 1.4.2 2.7.5 3.9 1.1 2.5.8 4.7 2.3 6.3 4.4 1.8 2.2 3.3 4.7 4.5 7.3.3 1.1.9 2.1 1.6 2.9.7-.5 1.2-1.2 1.9-1.3 1.1-.3 2.1-.8 3-1.5 2.2-1.5 4.7-2.6 6.6-4.6.1-.1.3-.2.5-.3 1.4-.7 2.7-1.4 3.9-2.2 1.2-1 2.4-2 3.7-2.8l.2-.2c.5-1.1 1.5-2 2.7-2.4.2-.1.4-.2.6-.4 1.5-1.8 3.7-2.7 5-4.6.2-.2.4-.3.6-.4 2-1.3 3.7-3 5-4.9-3.2-3.1-6.3-6.1-9.5-9.1-.7-.7-1.6-1.3-2.5-1.8-1.6-.7-3.2-1.2-4.8-1.7-.5-.2-1-.2-1.8-.4 1 1.8 2.4 2.8 3.1 4.4-.4-.1-.9-.4-1.2-.7l-4.8-4.5c-.4-.4-.9-.7-1.4-.9-2.2-1-4.7-1-6.8-2.2-.2-.1-.5-.1-.7-.1l-.6-1.2zM64 258.6c-.1-.7-.1-1.3-.2-1.9-.2-1.6-.5-3.2-.8-4.8-.2-.7 0-1.5.3-2.2 1.5-2.5 2.9-5 4.6-7.4 1.3-1.9 2.8-3.7 4.3-5.5 1.3-1.4 2.2-3.1 2.5-5 .3-2.2.7-4.4 1.3-6.5.3-1.4.7-2.7 1.1-4 .3-.9.8-1.8 1.5-2.5 2.8-2.9 6.8-4.3 10.8-3.9.4.1.8.1 1.1-.1.3-.2.7-.1 1 .1.4.2.8.3 1.2.4 1.2.4 2.3.9 3.3 1.5 2.3 1.6 4.3 3.7 5.7 6.1.8 1.3 1.4 2.7 2 4.1.2.7.9 1 1.6.8.8-.1.9-.7.8-1.3-.1-1.3.3-2.6 1.3-3.4.4-.5.9-1 1.4-1.4 1.9-1.3 3.3-3.4 3.7-5.7.5-1.6 1.6-2.9 3-3.6 2.4-1.4 5.4-1 7.4.8.9.9 1.6 1.9 2 3.1.2.4.3.8.5 1.3.2-.2.4-.3.4-.4.1-.2.1-.5.1-.7.2-2.5.6-4.9 1.2-7.3.5-2.4 2.4-4 3.4-6l.3-.3c.6-.6 1.1-1.3 1.6-1.9.3-.3.6-.6.8-1 .3-.3.6-.7.9-1.1.4-.8 1.1-1.4 1.9-1.6.6-.1 1.1-.4 1.5-.8.8-1 1.4-2 1.9-3.1.4-1.4.7-2.8.9-4.2.4-2.2 1.2-2.7 3.4-2.4h1.7c1.5-.1 3-.4 4.4-1 3.1-1 6.1-2.4 8.8-4.3.2-.2.5-.3.8-.4.9-.5 1.8-1 2.6-1.7 1.7-1.8 3.8-2.8 5.8-4.1.5-.2 1.1-.4 1.6-.4.6-.1 1.2.2 1.3.8v.2c.1.5.1.9.1 1.4 0 1.2.1 2.4.3 3.5.3 1.3.7 2.7 2 3.5 1.7 1.2 3.8 1.7 5.8 1.5.6-.1 1.3.2 1.6.7.6.8 1.1 1.7 1.5 2.6.5 1.5 1.2 2.9 1.8 4.3.7 2 1.9 3.7 3.5 5 .5.4 1 .9 1.4 1.4 1 1.3 2.1 2.6 3 4 .3.4.6.7.8 1.1.2.6.5 1.2.7 1.9.2.4.3.8.4 1.2.4 1.8.8 3.5 1.1 5.3.1.3.2.5.3.8.8.1 1.5.2 2.2.2 1 0 1.1-.1 1.3-1.1.4-2.4 2.4-4.2 4.8-4.3 2.5-.1 5 .3 7.5 1 .8.2 1.6.7 2.1 1.3 1.1 1.3 2.2 2.7 3.1 4.1.7 1 .8 1.1 2 .8 2.7-.7 5.5-.3 7.9 1.1 1 .5 2 1.1 3 1.8 1 .6 1.9 1.4 2.7 2.3 1.2 1.4 2.3 2.9 3.2 4.5 2.9 5 5.6 10.1 8.4 15.1.3.6.7 1.1 1.2 1.6 1.9 1.5 3.9 2.9 5.9 4.3 3 2 5.8 4.2 8.4 6.6.7.6 1.5 1.2 2.3 1.7 1 .7 2.1 1.4 3.3 2 1.5.7 2.8 2.2 4.7 1.8l.7.8c.8-.3 1.4-.9 1.7-1.7.4-1.1 1.1-2 1.9-2.8 1.5-1.1 2.3-2.8 3.4-4.2.7-.9.9-2.1 2-2.6.2-.1.2-.4.4-.6.4-.5.8-1.1 1.1-1.6.3-.4.6-.8.8-1.1.8-1.4 1.2-2.9 2.5-4 .3-.3.5-.6.6-1 .5-1.8 1.5-3.4 2.8-4.7 1-1.1 1.2-2.8 2.4-3.8.1-.1.1-.3.1-.4.3-.8.6-1.7 1-2.5s1-1.7 1.4-2.6c.7-1.6 1.2-3.2 1.9-4.8s1.4-2.9 2.1-4.4c.2-.3.4-.7.5-1.1.1-2 1-3.6 1.6-5.4.7-2.2 1.6-4.3 2.4-6.4.1-.4.1-.7.2-1.1 0-.9.1-1.9.4-2.8.4-.9.6-1.8.6-2.8 0-.2.2-.5.3-.6.5-.7.8-1.5.7-2.4 0-1.3.2-2.7.6-3.9.3-1 .4-2.1.5-3.1.1-.8.2-1.5.4-2.2.5-1.4.8-2.9.8-4.3 0-.3 0-.7.1-1 .3-1.4.4-2.8.2-4.2 0-.6.1-1.2.4-1.8.1-.4.4-.7.4-1.1-.1-2.1.6-4.2-.1-6.3v-2.2c-.1-.4-.1-.8 0-1.3.6-1.9.1-3.7 0-5.5-.1-2-.3-4-.4-6-.1-1.6.1-3.2-.1-4.8-.2-2.6-.6-5.1-.9-7.6 0-.3-.2-.5-.3-.8-.4-1.8-.7-3.6-1-5.4v-.3c0-.5-.1-.9-.2-1.4-.2-1.2-.6-2.4-.7-3.6-.1-.8 0-1.7-.7-2.3-.3-.3-.3-.9-.4-1.3-.2-.8-.3-1.7-.5-2.5-.5-1.8-1.1-3.6-1.7-5.4-.1-.3 0-.6-.1-.8-.2-.7-.3-1.3-.5-2s-.5-1.2-.6-1.8l-.3-1.2c-.3-.8-.5-1.6-.9-2.4s-.7-1.3-1-2c-.3-.5-.5-1.1-.7-1.7-.3-1-.6-1.9-1-2.8-1.1-1.7-2.3-3.4-2.6-5.4-.1-.4-.3-.8-.6-1.1-.2-.3-.4-.7-.6-1-.6-1.5-1.2-2.9-1.9-4.4-.2-.4-.5-.8-.8-1.2-.5-.8-1-1.7-1.5-2.6-.1-.4-.4-.8-.6-1.1-.6-.4-1-1.1-1.1-1.8-.1-.3-.3-.5-.5-.7l-.6.3-5.6 5.6c-.1.1-.2.3-.3.5-.5.9-1 1.7-1.6 2.5-.9 1.1-2 2-2.9 3.1-.7.7-1.3 1.5-1.9 2.3-1.2 1.6-2.3 3.2-3.4 4.7-.2.3-.4.7-.7 1.1-.8 1.7-1.9 3.3-3.2 4.7-1 1-2.1 2-3.1 3.1-.8.9-1.7 1.6-2.7 2.2-1 .8-2.1 1.4-3.3 1.7-.2.1-.3.2-.5.3-1.3 1.1-2.8 2-4.4 2.5-.7.2-1.3.4-1.8.8-1 .7-2.1 1.1-3.3 1.1-1 0-2 .3-2.9.8-.7.3-1.5.5-2.3.7-.5.1-1 .1-1.6.2-1.2.3-2.4.5-3.6.6-1.7-.1-3.4 0-5.1.3-.5 0-1-.1-1.5-.2s-1-.1-1.5-.1c-2.6.1-5.2.6-7.7-.4h-.3c-1.6.3-3.3.2-4.9-.3-1-.3-2.1-.5-3.2-.6-.8-.3-1.7-.4-2.5-.4-1.7.1-3.4 0-5.1-.4-.3-.1-.6 0-.9.1-.6.3-1.3.4-1.9.2-1.9-.5-4-.2-5.6 1-1.2.7-2.5 1.3-3.9 1.7-.8.4-1.5.9-2 1.7-.6.8-1.2 1.4-1.9 2.1-1.1 1-2.1 2-3.2 3-.7.6-.7 1.7-1.1 2.4-.7 1.2-1.1 2.5-1.1 3.8-.3 1.8-.2 3.6-.4 5.4 0 .5-.1 1-.3 1.5 0 .4-.4.7-.8.6-.1 0-.1 0-.2-.1-1.3-.3-2.6-.2-3.8.2-3.4.6-6.3 2.3-9.2 4-1 .5-2 1.1-2.9 1.7-1 1-2.2 1.8-3.4 2.5-.4.2-.7.5-.9.9-.5.7-1.2 1.3-2 1.7-1.2.5-2.3 1.4-3.1 2.4-.7 1.1-1.9 1.8-3.2 1.9-1.1.1-2.1.3-3.1.3-2.5.2-4-1-4.4-3.4-.1-.7-.1-1.4-.1-2.1 0-.3.1-.7 0-1-.3-.7-.3-1.5-.1-2.2.1-.4.1-.9 0-1.3-.4-1.6.2-3.2-.4-4.8-.1-.7-.1-1.3 0-2 .1-.5.1-.9.1-1.4-.2-2.2-.3-4.4-1.7-6.2-.1-.2-.2-.3-.2-.5-.3-1-.8-1.9-1.5-2.7-.6-.8-1.7-1.3-1.8-2.5 0-.2-.4-.3-.5-.4l-1-1c-.3-.3-.7-.9-1.1-1.3-2-1.7-4.3-3.1-6.6-4.2-.9-.5-1.8-.8-2.8-1.1-1.3-.3-2.7-.5-4.1-.7-1-.1-2-.2-3-.4-.8-.2-1.6-.2-2.3 0-1.2.3-2.4.5-3.6.6-1.4.1-2.8 0-4.2.3s-2.5.8-3.8.3c-.1 0-.3 0-.4.1-2.2.1-4.2 1.1-6.4.8-.2 0-.3.2-.5.2-.4.1-.7.1-1.1.2-2.1.2-4.3-.2-6.3.5h-.6l-4.7-.2c-.5 0-.9 0-1.4-.1-2-.3-3.9-1.4-6-1.2h-.1c-1.7-.3-3.4-1-4.9-1.8-.4-.3-.9-.4-1.3-.4-.8-.1-1.6-.3-2.2-.8-1-.5-2-1-3.1-1.5-.5-.3-1.1-.6-1.6-.9-.3-.2-.7-.5-1-.8-1.4-.9-2.7-1.9-4.1-2.8-1.1-.6-2-1.4-2.6-2.5-.1-.2-.3-.3-.5-.4-.8-.5-1.4-1.2-1.8-2-.7-1.5-1.6-2.8-2.8-3.9-.3-.3-.5-.6-.6-.9-.5-1-1-2.1-1.6-3.1s-1.2-1.9-1.8-2.9c-1.3-2.6-2.4-5.3-4.7-7.2-.2-.2-.4-.4-.5-.7-.9-1.2-1.9-2.3-3-3.4a48.1 48.1 0 01-4.8-4.2l-.3-.3c-.3 0-.8-.1-.9 0-.7.8-1.6 1.4-1.8 2.6-.4 1.6-1.7 2.8-1.8 4.6 0 .1-.1.2-.2.2-.6.5-.9 1.2-1 2-.1.4-.2.7-.4 1-.8 1.1-1.4 2.3-1.8 3.5-.7 1.4-1.3 2.8-2 4.2-.8 1.7-1 3.8-2.5 5.2v.1c-.3 1.4-1.1 2.7-1.2 4.2-.1.6-.4 1.2-.8 1.7-.5.6-.7 1.3-.7 2.1-.1 1.3-.4 2.5-1 3.7-.6 1.1-1 2.3-1.4 3.5-.5 2-.9 4-1.4 5.9-.2.8-.6 1.5-.8 2.3-.2.6-.3 1.3-.3 1.9.1.9 0 1.8-.4 2.6-.3.6-.5 1.3-.6 2-.1 1.6-.1 3.2-.2 4.8 0 .3-.1.7-.2 1-.7 1.2-.9 2.6-.7 4 0 .3 0 .6-.1.8-.7 2.1-.3 4.4-.5 6.5-.2 1.4 0 2.9-.1 4.4-.1 1.6-.6 3.2-.3 4.8 0 .2 0 .5-.1.7-.4 1.1-.5 2.2-.2 3.4.1 1.5 1 2.9.1 4.4-.1.2-.1.4 0 .6.6 2.1.2 4.2.7 6.4.6 2.6.4 5.4 1 8.1v.1c-.1 1.2.1 2.4.6 3.5.2.5.3 1.1.3 1.7.1 1.7.4 3.4.9 5 .7 1.8 1.1 3.8 1 5.7 0 .3.1.6.2.9.6 1.1.9 2.3.9 3.5.1.4.1.7.3 1.1.3.8.6 1.6.7 2.4.1 1.8.8 3.5 1.8 4.9.2.3.3.6.4.9.2 1.5.6 2.9 1.3 4.3.9 1.8 1.7 3.7 2.3 5.6l.3.6c.5.6.9 1.3 1.1 2.1.3 1.1.7 2.2 1.4 3.1.9.8 1.4 1.9 1.6 3.1.1.3.3.6.4.9.3.6.6 1.1.8 1.7.8 2 1.9 3.9 3.2 5.6.7 1.3 1.6 2.5 2.7 3.6.1.1.1.2.2.4.5.7.9 1.4 1.3 2.2 1 1.8 2.2 3.5 3.5 5.1.3.4.7.8 1 1.2.7 1 1.3 1.9 2 2.9.2.4.5.7.8 1 .9.9 1.9 1.8 2.8 2.6.1.1.3.3.3.5.7 1.3 1.3 2.7 2.9 3.3.2.1.3.2.4.4.5 1.2 1.4 2.3 2.5 2.9.5.5 1 1 1.4 1.6.2.3.4.6.5 1 .6-.9.9-1.4 1.2-1.9.8-1.3 1.5-2.6 2.3-4 .3-.6.9-1.1 1.6-1.3 1.1-.7 3.1-1.5 5.3-2.3zM83.2 29.5c-1 .5-1.9 1-2.8 1.5-1.5 1-2.9 2-4.3 3-.8.6-1.7 1.1-2.4 1.7-2 1.5-4 3.1-5.9 4.7-1.1.7-2.1 1.5-3.1 2.3-1.3 1.3-2.7 2.4-4 3.6-2.6 2.3-5 4.8-7.5 7.2-2 2-4.1 4.1-6 6.3s-4.1 4.1-5.4 6.8c-.2.4-.5.7-.8 1-.5.6-1 1.3-1.5 1.9-.5.4-.5 1.1-.1 1.6l.1.1c.8.8 1.5 1.8 2.3 2.6 3.4 3.4 6.4 7.2 8.8 11.3.1.2.3.4.4.6 2.1 2.7 4.3 5.3 6.4 8s4.1 5.4 6.8 7.5c.6.5 1.1 1.2 1.8 1.6 1.2.8 2.4 1.6 3.6 2.3 2.2 1.3 4.4 2.6 6.7 3.8 2.3 1.1 4.8 1.8 7.4 2.1 3.4.6 6.8.9 10.2 1 1.6 0 3.1.2 4.7.2h1.3c2-.2 4-.4 5.9-.5 2.2-.1 4.4-.6 6.6-1.3 1.4-.5 2.9-.9 4.4-1 4.4-.2 8.9.2 13.2 1.1 1.7.3 3.4 1 4.7 2.2 1.9 1.8 3.9 3.6 6 5.3.7.6 1.5 1.1 2.4 1.5s2 .2 2.6-.5.7-1.6.3-2.4c-.3-.6-.6-1.3-1-1.9-.3-.4-.5-.8-.8-1.2-.6-1.4-1.6-2.6-2.8-3.6-2-1.8-3.7-3.8-5.9-5.4-1.5-1.1-3-2.1-4.7-3-2.5-1.2-5-2.3-7.6-3.2-1.3-.6-2.8-1-4.2-1.2-2.8-.4-5.7-.7-8.5-.9-2.1-.1-4.1-.4-6.2-.8-2.6-.5-5.2-1.1-7.8-1.6-3.7-.8-6.2-3.3-8.5-6-2.2-2.8-3.9-5.9-5.1-9.2-.6-1.4-1.4-2.8-1.2-4.5 0-.3-.2-.6-.2-1-.1-1.1-.2-2.3-.2-3.4 0-.6.4-1 .9-1.1.3 0 .6.1.8.4.5.3.8.8 1 1.4.8 3.7 3.1 6.6 5.2 9.5 1.2 1.5 2.6 3 4 4.3.9.9 1.9 1.8 3 2.7 1.5 1.3 3.4 2 5.4 1.8 1.2-.2 1.6-.4 1.7-1.7 0-1.6-.4-3.2-1.1-4.7-1-2-2.2-3.9-3.2-5.9-1.3-2.4-2.5-4.9-3.7-7.4-.3-.5-.5-1.1-.6-1.7-.1-.5 0-1 .3-1.4.3-.5 1-.4 1.4-.1.6.3 1.1.7 1.6 1.1 1.1 1.2 2.1 2.5 3 3.8 2.2 3.6 4.2 7.3 6.4 10.9.6 1 1.4 1.9 2.2 2.8 2 2 4.7 3 7.2 4.2 1.7.7 3.4 1.3 5.1 1.8 2.4.8 4.8 1.6 7.1 2.6 1.4.6 2.8 1.4 4.1 2.2 1.5.9 2.9 2 4.3 3 .6.4 1.1.9 1.7 1.3 1.3 1 2.7 2 3.9 3 1.4 1.2 3.1 2.2 3.9 4 .3.8.8 1.6 1.3 2.3 1.5 1.8 2.4 4 2.6 6.4.2 1.3.5 2.5.9 3.8.1.5.3 1 .6 1.4.3.6 1.1.9 1.7.5.2-.1.4-.3.5-.5.5-.7.8-1.5.9-2.4.1-3-.2-6.1-.9-9-.5-2.6-1.3-5.2-2-7.7-.3-1.2-.8-2.3-1.2-3.5-.8-2.4-1.7-4.7-2.5-7.1-.4-1.2-1-2.3-1.5-3.5l-3-6.9c-.5-1.2-1.1-2.4-1.8-3.5s-1.5-2.1-2.4-3c-.7-.8-1.6-1.5-2.3-2.3-1.6-1.7-3.1-3.5-4.7-5.2-2.6-2.7-5.3-5.3-8-8-.2-.2-.5-.4-.8-.6-1.5-.6-2.9-1.1-4.4-1.5-3.8-.8-7.7-1.3-11.6-1.6-2.5-.2-4.9-.6-7.3-1.3-4.3-1.4-8.1-4.1-10.9-7.6-1.4-1.7-2.5-3.7-3.3-5.8-.6-1.3-1-2.8-1.5-4.1l-1.8-5.1c.2-.6 0-.9-.3-1.2zM228 111.9c2-.2 4.1-.4 6.2-.7 1.7-.2 3.3-.6 4.9-1.1 2-.7 3.8-1.7 5.7-2.6.2-.1.4-.1.7-.2.7-.2 1.4-.5 2-.8 1.7-1.1 3.4-2.2 5-3.3 1.8-1.2 3.4-2.5 5-4 2.4-2.4 4.5-5.1 6.2-8 1.3-2.1 2.8-4 4.1-6.2.9-1.6 2.3-2.8 3.3-4.3 1.7-2.3 3.7-4.3 6-6 2.1-1.7 1.9-1.5.5-3.9l-.1-.1c-2.2-2.5-3.9-5.4-6.2-7.8-1.8-1.9-3.3-4.1-5.1-5.9-2.9-3-5.9-6-9.1-8.8-3.3-3-6.8-5.8-10.3-8.5-1.8-1.4-3.7-2.7-5.6-3.9-3.2-2.1-6.5-4.1-9.7-6.2-1.4-.9-2.8-1.9-4.2-2.6s-2.5-.5-3.1 1c-1.2 2.7-2.5 5.3-3.7 8-.2.4-.3.8-.5 1.2l-3.5 9c-.2.6-.5 1.2-.6 1.7-1.5 4.7-3 9.4-4.4 14.1-.3 1-.5 2.1-.6 3.1 0 1.1.3 1.4 1.4 1.3 1.2-.1 2.4-.3 3.6-.6 1.6-.4 3.2-.9 4.8-1.2.9-.2 1.8-.2 2.7-.1.7.1 1.3.4 1.8.8.6.3.8 1.1.5 1.7-.1.1-.2.3-.3.4-.5.5-1.2 1-1.8 1.3-2.2 1-4.4 1.9-6.6 2.7-1.9.8-3.9 1.5-5.9 2.2-3.5 1-7 2.3-10.3 3.8-3.9 1.9-7.4 4.5-10.4 7.7-.5.6-.9 1.2-1.3 1.8-1 1.3-2 2.5-3 3.8-.5.7-.8 1.5-1.1 2.3-1.1 2.8-2.1 5.7-3.1 8.6-1.1 3.4-2.3 6.9-3.3 10.3-.3 1.4-.5 2.8-.6 4.2 0 1 .7 2 1.7 2.3.7.3 1.5.2 2-.3 1.3-1 2.4-2.1 3.6-3.3 1.5-1.7 3.3-3.2 5.3-4.4.5-.3 1-.5 1.6-.6 2.5-.4 5.1-.7 7.6-1.1.3-.1.7-.1 1 0l4.2.9c.9.2 1.8.4 2.7.5.8.1 1.6-.1 2.3-.5 1.9-1.2 3.6-2.9 4.8-4.8 1.1-1.8 2.1-3.7 3.2-5.5 1.4-2.2 2.8-4.3 4.4-6.3s3.2-4 5-5.9c.5-.5 1.1-.9 1.8-1 1.6-.3 2.6.8 2.2 2.3-.1.4-.2.7-.4 1.1-1.1 1.9-2.3 3.8-3.6 5.6-2.9 3.6-5 7.8-6.2 12.2-.2.8-.2 1.7-.1 2.6 0 .9.7 1.6 1.6 1.6 1.6.2 3.5.3 5.3.4zm-63.4-14.6c0 .9.1 1.8.2 2.7.1 1.1.3 2.2.3 3.3 0 3.5.3 6.9.6 10.4.2 2.2.9 4.4 2 6.3.2.4.6.6 1 .5.8-.2 1.6-.5 1.8-1.4.3-1.1.8-2.2 1-3.4.4-1.5.6-3.1.9-4.6.2-1.1.6-2.1.9-3.1 1.6-5.1 3.2-10.2 4.8-15.2.6-1.9 1.4-3.8 2.2-5.7.3-.7.8-1.3 1.1-2 1.6-3 3.6-5.7 6.1-8 .2-.2.5-.4.8-.6 2.5-1.4 4.6-3.4 7.3-4.7 1.8-1 3.6-2.2 5.2-3.4 1-.6 1.7-1.6 1.9-2.8.3-1.6.7-3.3 1.1-4.9 1.2-4.3 2.5-8.6 4-12.8 1.1-2.9 2.1-5.8 3.2-8.7.7-1.9 1.6-3.8 2.4-5.6 1.1-2.6 2.3-5.2 3.3-7.9.6-1.9-.3-3.9-2.2-4.5h-.1c-1.7-.6-3.3-1.4-5-2-1.9-.8-3.9-1.6-5.8-2.2-2.5-.8-5.1-1.4-7.7-2.1-3.5-.9-6.9-1.7-10.4-2.5-.2-.1-.5-.1-.7-.1-1.6-.4-3.2.4-3.9 1.9-1.7 3.1-3.2 6.3-4.4 9.6-1.4 3.4-2.5 7-3.8 10.5-.7 2-1.4 4-1.9 6-.9 3.1-1.7 6.1-2.5 9.2-.7 2.6-1.3 5.3-1.9 7.9-.5 2.4-.9 4.8-1.3 7.2-.4 2.8-.8 5.7-1.1 8.5-.2 1.6-.3 3.2-.3 4.8-.1 2.8-.1 5.7-.1 8.5 0 1.5 0 3 .1 4.6.5 2 .7 4.2.9 6.3zM79.9 254.5l.2.2c-.5 3.1-6.2 11.3-8.7 12.1.8-1.2 1.6-2.1 2.3-3.1.9-1 1.5-2.2 1.7-3.5-1.3.3-2.4 1.1-3.1 2.1-1 1.3-1.9 2.6-2.8 3.9-.2.2-.5.5-.8.6l-.4-1.6c-.4.2-.7.3-1 .4l-2.4 1.5c-2.2 1.1-4.3 2.1-6.5 3.2-1.1.5-1.1 1.1-.3 2 .2.2.5.4.8.6 1.9 1.7 3.9 3.3 5.8 5.1 2.3 2.2 5.1 3.7 7.7 5.6.2.2.6.2.8.4.6.4 1.1.8 1.7 1.3s.8 1 1.4 1.2c2.2.8 4.3 2.1 6 3.7.6.5 1.2.6 1.7-.1 1-1.1 2.2-2 3.5-2.7 1-.5 1.7-1.5 1.7-2.6.1-2.1.8-4.1 2.1-5.8 1.8-2.4 3.5-5 5.3-7.4 1.1-1.4 1.9-2.9 2.4-4.5 1.3-4.2 3.3-8.1 5.9-11.7 1.4-1.8 2.7-3.7 4-5.6.7-.9.6-1.2-.2-1.9l-.2-.2c-4.2-3-8.4-6.1-12.6-9.1-.5-.3-.8-.8-1-1.3-.3-1.3-.5-2.7-.6-4.1-.2-1.9-.2-3.7-.4-5.6-.1-1.3-.5-2.6-.8-3.9-.1-.7-.7-1.2-1.4-1.3-1.3-.3-2.3.3-3.4.8s-1.9 1.5-2.1 2.7l-.3 1.8c-.2 2.1-.8 4.2-1.5 6.2-1.6 3.8-2.8 7.7-4.3 11.5-.9 2.6-2 5.1-3.4 7.5-.3.6-.6 1.1-1 1.8 1.2.6 1.5 1.6 1.5 3l2.7-3.2zm71.3-244.4c-2.2.1-4.5-.1-6.7.1-3.6.3-7.2.9-10.8 1.3-1.8.2-2.1.7-1.8 2.5.9 4.3 1.9 8.6 2.9 12.8.8 3.1 1.6 6.3 2.7 9.3 2.4 6.9 4.9 13.7 7.4 20.5l1.5 3.9c1.2 3.2 2.4 6.4 3.5 9.6.5 1.4.9 2.9 1.4 4.3.1.2.2.3.2.5.6 1.9 1.1 3.7 1.7 5.6.3 1.2 1 2.2 1.9 3 1 .8 2 .5 2-.7.3-2.4.3-4.8.2-7.2-.1-2.4 0-4.7.2-7.1 0-2.7.4-5.3 1-7.9.4-1.4.4-2.8.8-4.2l2.7-10.5 4.2-14.4c1.2-3.8 2.5-7.5 3.8-11.2.8-2.4 1.4-4.7 2.1-7.1.4-1.7-.2-2.4-1.9-2.5-2-.1-4.1-.1-6.1-.2-4.4-.3-8.7-.3-12.9-.4zM139.6 61c-.4-.9-.6-1.8-1-2.6-1.5-3-3.1-5.9-4.5-8.9-1.4-3.4-2.5-7-3.4-10.6-2.2-7.9-4.2-15.8-6-23.8-.3-1.4-.7-1.6-2-1.2-2.6.8-5.2 1.5-7.8 2.3-5 1.6-10 3.3-15 5.1-2.6 1-5.2 2.1-7.7 3.3-1.3.6-1.4.9-1.1 2.4.9 4.1 2.4 8.1 4.5 11.8.6 1.2 1.4 2.4 2.3 3.4 2.6 2.5 5.9 4.1 9.5 4.5 3.3.6 6.6.9 9.9 1.2 4.1.2 8 1.6 11.2 4.1 1.1.8 2.2 1.7 3.1 2.7 1.3 1.5 2.4 3.2 3.6 4.8.7.9 1.5 1.8 2.4 2.7.3.4.9.4 1.3.1.2-.5.5-.9.7-1.3zm-27.7 184.8c1.7-1.8 3.3-3.6 4.8-5.6 1.6-2.4 3-5 4.4-7.5.6-1 1.1-2 1.4-3.1s.7-2.3 1.2-3.3c.7-1.2.6-2.7-.4-3.7-.9-1-1.6-2.1-2.5-3.1-.7-.6-1-1.4-.9-2.2.1-.5-.1-1-.4-1.5-.3-.4-.7-.7-1.2-.8-.6-.1-.8.5-1 1-.3.9-.5 1.7-.8 2.6-.2.6-.4 1.3-.7 1.9-1.8 3-3.3 6.2-5.8 8.8-.6.8-1.5 1.4-2.5 1.7-.4.1-.8.3-1.2.6.9 1.6 1.9 3.2 3 4.8.7.9 1.2 1.9 1.3 3.1.4 1.8.8 3.9 1.3 6.3z"/><path class="st0" d="M232.5 249.3l.5 1.2c-1.6-.4-5.3-3.8-6-5.4.6-.2.9.1 1.2.4.9.8 1.8 1.5 2.7 2.3l1.3 1.1.3.4zM152 175c-.5.8-1.1 1.8-1.8 2.8-1.1 1.6-2.5 2.9-4.3 3.6-2.7 1.2-5.3 0-6-2.9-.4-2-.4-4.1-.1-6.1.3-1.8.4-3.7.5-5.6-.1.3-.2.5-.3.8-.8 2.8-2.2 5.3-4.2 7.4-1 1.1-2.4 1.9-3.9 2.2-3 .7-5.2-.8-5.6-3.9 0-.3 0-.6-.1-.9s-.1-.4-.2-.9c-1.6 1.5-3.3 2.4-5.2 2s-3.1-2-3.6-4.2c-.6.8-1 1.4-1.5 2-1.3 2-3 3.7-5 5-1 .6-2.2 1-3.4 1.1-2 .1-3.7-1.4-3.9-3.4-.2-.8-.3-1.7-.4-2.8-.8.8-1.6 1.4-2.2 2.1-1.2 1.3-2.7 2.2-4.3 2.6-3.1.9-5.1-.2-5.8-3.4-.2-.9-.2-1.8-.3-2.8-2.7 1.5-5.3 2.1-8.1-.2.1.8.3 1.7.5 2.5.3.6.2 1.4-.3 1.8-1.4 1.4-3.4 2.1-5.3 1.8-.9-.2-1.7-.9-2-1.9-.8-1.7-1.2-3.5-1.2-5.4 0-3.5.2-6.9.7-10.4.2-2 .2-4 .1-6 0-.6-.3-1.1-.7-1.4-.7-.3-1.3.2-1.7.8-.6.8-1.1 1.7-1.4 2.6-.7 2-1.3 4.1-1.8 6.1-.6 3-.9 6.1-1.4 9.2-.2 1.6-.4 3.2-.7 4.8-.7 2.4-2.8 4.1-5.3 4.2-1 0-1.9-.4-2.4-1.3-.4-.7-.8-1.4-1-2.2-.6-2.1-.9-4.2-.9-6.3-.2-3.9.4-7.8.4-11.7 0-2 .4-4.1.6-6.1s.1-4 .1-6c0-1 .1-1.3 1.1-1.3 1.1 0 2.3.1 3.4.3 2 .3 3.5 2 3.6 4.1 0 1.6 0 3.1-.2 4.7 0 .2-.1.5-.1.7-.1 1.8-.2 3.5-.3 5.3 0 .5 0 1 .2 1.5.3-.7.5-1.5.8-2.2.8-1.9 1.5-3.9 2.4-5.8.5-1 1.1-1.9 1.8-2.7 2-2.4 5.2-3.3 8.2-2.3 1.4.5 2.4 1.8 2.6 3.3.5 3.3-.3 6.6 0 10 .1 1.4 0 2.8 0 4.5 2.3-3.4 5.4-4.7 9.3-4.6 0-.5.1-1 .1-1.5 0-.7.4-1.2 1.1-1.2 3 0 5.5.7 6.2 4.2.1.3.1.7.1 1 0 2.3-.1 4.6-.2 6.9v.6c.2.4.4.9.7 1.1.2.1.8-.3 1-.6.7-.8 1.3-1.7 1.9-2.7.2-.5.3-1.1.3-1.6v-6c0-1.2.2-2.5.2-3.7s-.2-1.4-1.4-1.3c-.8.1-1.6.2-2.4.2-1 0-1.2-.3-1.2-1-.2-.6.2-1.3.9-1.5h.3c1-.2 2.1-.4 3.1-.6s1.2-.3 1.2-1.4c.1-2.4.1-4.7.1-7.1 0-.7.3-1.1 1-1.2 3.2-.2 6.7.9 6.5 5.4 0 .9-.1 1.7-.1 2.6-.1.5.3 1 .8 1.1h.2c.9 0 1.7 0 2.6-.1s1.3.1 1.4.8c.2.7-.2 1.5-.9 1.7-.4.1-.8.2-1.3.2-.3 0-.6 0-.8.1-2.1.2-2.2.3-2.3 2.4 0 1-.2 2-.2 3s.2 2 .2 3c0 .8-.1 1.5-.1 2.3v2.7c0 .9.1 1.8.1 2.7-.1.8.3 1.6 1 2.1 1-.4 1.8-1.1 2.3-2.1 1.1-1.7 2.2-3.5 3.2-5.3.3-.8.6-1.6.6-2.4.2-1.5.3-3 .6-4.5 0-.3.5-.7.7-.7 1.2 0 2.5.1 3.7.4 1.4.5 2.3 2 2 3.5-.2 2.2-.4 4.4-.6 6.5 0 .5.1 1 .3 1.5 1.1-.4 1.9-1.3 2.2-2.3.9-2.1 1.2-4.3 1-6.6-.1-1.1.2-1.6 1.3-1.6 1.6-.2 3.2.2 4.5 1 1 .6 1.5 1.6 1.6 2.7 0 1.8-.1 3.5-.2 5.3-.1 1.5-.1 3-.2 4.6.8.2 1.1-.4 1.4-.8 1.3-2 2.2-4.1 2.8-6.4.2-.7 0-1.1-.7-1.3-2.3-.6-3.1-2.1-3.1-4.6 0-2.9-.2-2.6 2.8-3.1.5-.1.9-.1 1.4 0 .9.1 1.7.7 2 1.6l.3 1.2c.3 1.1.5 1.3 1.6 1.4.7 0 1.3.1 2 .3 2.4.6 3.5 1.8 3.6 4.3 0 1.7-.2 3.4-.4 5.1-.1 1.9-.3 3.7-.4 5.5 0 .4.1.7.1 1.1.2 0 .3.1.4.1 1.8-1.6 3.1-3.3 2.9-5.9-.1-2.1.2-4.1 1.1-6 1.3-3.2 4-4.5 7.2-4.7.9-.1 1.9 0 2.8.3 1.3.4 2.1 1.6 2.1 2.9.3 2.4-1.3 4.6-3.6 5.2-.5.2-1 .2-1.5.4-.8.2-1 .7-.8 1.5s.7 1.2 1.5 1c.6-.1 1.2-.4 1.7-.8 2.5-1.9 4.8-4.2 6.6-6.8.2-.3.4-.6.6-.8.2-.5.8-.7 1.3-.4l.1.1c.5.3.6.9.4 1.4l-.1.1c-.8 1.5-1.8 3-2.9 4.4-1.6 2.1-3.6 3.9-5.9 5.4-1.8 1.1-3.7 2.1-5.9 1.9-1.6-.6-2.7-.9-3.9-1.3zm-61-11.2c-1-.2-2.1 0-2.9.7-.4.5-.7 1.1-.8 1.7-.1.3.1.7.4.8.2.1.4 0 .6-.1.9-.6 1.7-1.3 2.5-2.1.1-.1.1-.6.2-1zm67.3 3.1c1.3 0 2.4-.8 2.9-1.9.1-.3.1-.9-.1-1-.3-.2-.8-.3-1.2-.1-.3.1-.6.4-.8.8-.3.5-.5 1.2-.8 2.2zm43.7 6.5c.5-.4.9-.8 1.4-1.1 1.2-1 2.3-2 3.5-2.9.4-.3.7-.8.7-1.3v-2.6c.2-2.8.3-5.6.5-8.4.1-1 .1-2.1.2-3.1.1-1.4.3-2.7.6-4.1.3-1.2 1.5-2 2.8-1.7h.1c2 .5 3.7 1.8 4.7 3.6 1.7 3 2.1 6.5 1.3 9.8-.3 1.3-.8 2.4-1.6 3.5-.9 1.2-1.4 2.6-1.3 4.1.1 1.7 0 3.3 0 5-.1.7.1 1.4.6 1.9.3-.1.6-.2.9-.4 2.1-1.5 3.7-3.4 4.9-5.7 1.4-1.1 1.5-2.9 2-4.4 1.3-3.4 4.6-5.5 8.2-5.4.9.1 1.7.3 2.5.6 1.2.4 2 1.7 1.8 2.9-.1 1.9-.8 3.6-2.7 4.5-.7.3-1.5.6-2.3.8-1.2.3-1.2.3-1 1.5 0 .1 0 .3.1.4.2.8.6 1.1 1.4.7 1-.4 2-1 2.8-1.7 2.1-1.8 3.9-3.8 5.5-6 .5-.5.7-1.3.5-2-.1-.2 0-.5-.1-.7-.6-2.6.7-4.3 2.6-5.7.7-.4 1.4-.8 2.2-1 .8-.3 1.3.1 1.1.9-.4 2.2.6 4 1.6 5.8.2.5.7.8 1.3.6 0 0 .1 0 .1-.1 2.9-.8 5.7-.1 8.2 1.3.4.2.7.5 1 .8.3.4.3.9 0 1.3-.4.4-.8.2-1.2 0-1.7-1-3.7-1.5-5.8-1.3-.6.1-1.1.2-1.7.4.3.6.5 1.1.8 1.5 1.2 1.8 2.4 3.7 3.6 5.5.8 1.3 1.2 2.7 1.3 4.2.1 1.8-.8 3.4-2.4 4.3-3.6 2.3-8.7.6-10.3-2.6-1.4-2.9-1.1-5.6-.2-8.4.5-1.7.6-1.6-.9-3.1-.8 1.1-1.6 2.2-2.5 3.2-2.6 2.9-5.3 5.6-9.1 6.9-1 .4-2.1.5-3.2.3-1.3-.2-2.5-1-3.2-2.1-.2-.3-.4-.6-.7-1.1-.3.3-.6.5-.8.8-.9 1.1-1.8 2.3-2.8 3.4s-2.1 2.2-3.2 3.2c-1.3 1-2.8 1.7-4.4 1.8-.9.1-1.8-.5-2.2-1.3-.9-1.6-1.4-3.5-1.4-5.3-.1-1-.2-2-.3-3.2-1.2 1.2-2.5 2.4-3.9 3.4-1.5 1-3.1 1.8-4.8 2.4-.7.2-1.5.2-2.2.1-1.4-.1-2.5-1-2.9-2.3-.5-1.3-.7-2.7-.5-4.1-1 .4-1.8.8-2.6 1.1-.5.2-1 .3-1.5.3-3.7.2-5.8-2.8-4.2-6.2s4.2-4.6 7.6-4.8h1s.1-.1.3-.1c0-.4.1-.8.1-1.3.1-.9.3-1.2 1.2-1.2 1 0 2 .1 3 .3 2 .4 3.4 2.3 3.3 4.3.1 2.3 0 4.7 0 7 0 .9.2 1.7.6 2.3zm43.2-2.7c-.8 2.5-.5 4.6.8 5.9.4.4.8.8 1.4.5s.6-.8.5-1.3c-.3-2-1.4-3.5-2.7-5.1zm-51.9-5c-.9 0-1.7.2-2.5.7-.6.3-1 1.1-.9 1.8.1.9.5 1.2 1.2.8.8-.4 1.5-1 2.1-1.6.5-.5.5-1.2.1-1.7zm37.2 1.3c1.1.2 2.2-.5 2.6-1.5.2-.5.3-.9-.1-1.3-.4-.3-1.1-.3-1.4.2-.8.6-1.2 1.6-1.1 2.6zm-14.8-9.1l-.3 3.3h.3c.3-1 .3-2.2 0-3.3z"/><path class="st0" d="M175.7 155.5c-1.4-.4-2.8-.6-4.1.1-.9.5-1.3.4-2-.3-1.2-1.2-1.8-2.7-1.9-4.4 0-2 1.6-3.7 3.6-3.9 2.2-.4 4.5-.4 6.7-.2 3.9.4 7.9.7 11.8 1 1.3.1 1.5.3 1.7 1.6.1 1 0 2.1-.4 3.1-.6 2.2-2.5 3.7-4.8 3.6-1.4-.1-2.7 1-2.8 2.4-.3 1.8-.5 3.6-.6 5.4-.1 2.6 0 5.2-.1 7.9 0 2.3 0 4.6 1.2 6.8.2.5.1 1.1-.4 1.4-1.3 1.2-3 1.9-4.8 1.9-1.7-.1-2.5-1.4-2.9-2.8-.4-1.4-.7-2.9-.8-4.3-.2-1.6-.2-3.1-.3-4.7 0-1 .1-2 .2-3 .2-3.6.5-7.2.7-10.8.1-.3 0-.5 0-.8zm-4.1 144.4c1-1.1 1.8-2.1 2.6-3 .9-1.2 2.2-2 3.7-2.1 1.2-.1 1.3-.2 1.4-1.6.1-.9.5-1.7 1.1-2.4 2-1.9 4.4-3.4 7-4.3 1.1-.4 2.2-.5 3.4-.3 3.8.4 6.2 2.8 8.5 5.5 1.2 1.6 2.3 3.3 3.3 5 .3.6.4 1.2.5 1.9.2 1.1.3 2.1.5 3.4-.4-.1-.8-.2-1.1-.4-1.7-1.3-3.4-2.6-5.1-3.8-.6-.4-1.1-1.1-1.2-1.9-.2-1.1-.6-2.1-.8-3.2-.2-.8-.8-1.4-1.7-1.5-1.5-.2-3-.5-4.5-.7-.4 0-.8.2-1.1.4l-1.2 1.2c-1.7 1.6-3.4 3.3-5.2 4.9-.3.3-.7.5-1.1.7l-8.1 2.1c-.3.2-.6.1-.9.1zm-5.8-26.2l2.3-3.8.3.1v.9c-1.4 4.4-3.6 8.5-6.5 12.1-.3.3-.6.5-1 .7 1.1-2.5 2.9-4.6 3.5-7.3-.6-.2-1.2.1-1.5.5-.9.9-1.7 1.8-2.4 2.8s-1.3 2.1-1.9 3.2c-.2.4-.5.7-.9 1.3-.4-.9-.4-2 .1-2.9.8-1.6 1.6-3.1 2.5-4.6s2-3.1 3-4.6c.2-.4.4-.9 1-.6.4.2.8.5 1 .9.2.5.2 1 .2 1.5l.3-.2zm-53.9 18.1c1.2-2.4 2.3-4.6 3.3-6.9 0-.1-.1-.2-.2-.4-.3 0-.6.1-.8.3-.7.6-1.4 1.3-2 2-.9 1.2-1.6 2.6-2.4 3.9-.3.5-.7 1-1.2 1.6-.4-.5-.5-1.2-.3-1.8.3-1 .7-2 1.2-2.9 1.5-2.6 3.2-5.1 4.8-7.6.2-.3.7-.6.9-.5.4.2.8.5 1 .9.2.5.3 1 .3 1.5 1.4-1.1 1.7-2.8 2.8-3.9.4 2.6-4.5 11.7-7.4 13.8zm32.9-42.6c.6-1.7 1.8-3.2 2.2-5.1-.7-.1-1.3.2-1.6.8-.6.9-1.1 1.8-1.6 2.7-.4.7-.8 1.4-1.3 2.1-.5-.3-.7-1-.4-1.6.5-1.2 1-2.4 1.6-3.5s1.5-2.4 2.2-3.7 1.2-1.2 1.9 0l.3.6 1.7-2.8c.4 2.5-2.7 8.7-5 10.5zm84.8 8.8c1-.3 2 .1 2.6.9 1.1 1.4 2.2 2.9 3.2 4.4.4.6.7 1.3 1 2-.8.4-1.2-.1-1.5-.5-1.4-1.6-2.7-3.3-4.1-4.9-.4-.7-.7-1.2-1.2-1.9zm-101.7 36.7c-.6-.3-1-1-.8-1.7.1-.5.3-1 .5-1.5 1-1.5 2-2.9 3.1-4.4.2-.2.5-.4.8-.6.4.5.4 1.2.1 1.8-.4.9-.9 1.7-1.4 2.5-.6 1-1.3 2.1-2 3.1 0 .3-.1.5-.3.8zm53.1-16.6c.1.5.1.9 0 1.4-.3.8-.6 1.5-1 2.2-.8 1.4-1.8 2.7-2.6 4l-.3.6c-.6-.3-.9-.9-.8-1.5 0-.6.2-1.1.5-1.6 1.1-1.5 2.2-3 3.3-4.4.2-.3.6-.5.9-.7zm41.8-29.7l6.5 7.9c-.7.3-1-.1-1.4-.4-.9-.8-1.9-1.5-2.8-2.3-1.2-1-2.1-2.2-2.7-3.6-.4-.5-.2-1.3.4-1.6-.1 0 0 0 0 0zm8.5 6.4l-6.9-7.4.2-.3c.3 0 .7.1 1 .2 2.4 1.3 4.4 3.2 5.8 5.5.4.6.3 1.4-.1 2zm-109.6 48.8c.1-1.1 3.8-7.2 4.9-8.1 0 .2.1.4.1.5-.6 1.8-1.2 3.7-1.9 5.5-.4.9-1.2 1.7-2.1 2-.4.1-.7.1-1 .1zm51.4-18.1c-1.8 2.6-2.7 5.5-4.2 8.2l-.4-.1c-.1-.4-.1-.7-.1-1.1.3-2.2 1.1-4.2 2.4-6 .4-.9 1.4-1.3 2.3-1zm-2.3 9.5c.1-1 3.6-6.7 4.7-7.8.1.1.2.3.1.4-.4 2.2-1.2 4.3-2.3 6.2-.4 1-1.4 1.5-2.5 1.2zm80.6-32.9c.9-.2 1.8.1 2.3.8.9.9 1.7 1.9 2.4 3 .9 1.3 1.6 2.8 2.5 4.2-.8-.2-1.5-.8-1.9-1.6-.8-1.3-1.8-2.4-3.1-3.3-.6-.5-1.1-1-1.6-1.6-.2-.4-.4-.9-.6-1.5zm-132.1 40c-.1-.3-.2-.6-.2-.9.3-2.3 1.1-4.6 2.5-6.5.4-.7 1.2-1.1 2.1-1.1.1 1.2-.9 1.8-1.3 2.7s-.8 1.9-1.3 2.9c-.4 1.1-1 2.1-1.8 2.9zm117.5-50.9c2.2.8 8.6 7.5 9.3 9.7-.3-.1-.6-.2-.9-.4-1.6-1.6-3.1-3.2-4.6-4.8-1-1.1-2-2.2-3-3.4-.2-.4-.4-.7-.8-1.1zm-113.7 27.3c-.1.5-.2 1-.3 1.4-.8 1.8-1.6 3.5-2.5 5.2-.5.9-1 1.8-1.5 2.8-.2.4-.4.7-.8 1.4-.1-.3-.1-.6-.1-1 1-3.5 2.6-6.7 4.6-9.7.1-.1.2-.1.3-.2l.3.1zm53-22.2c-.4.7-.9 1.4-1.4 2-.9 1.1-1.6 2.3-1.9 3.7-.2.6-.4 1.2-.8 1.7-.2.3-.7.4-1 .6-.2-.4-.5-.7-.5-1.1.1-.7.3-1.4.6-2 .4-.7.8-1.3 1.4-1.8.8-.9 1.6-1.8 2.4-2.6.3-.3.6-.5.9-.8l.3.3zm-54.4 16.5c-.5-.7-.5-1.6-.1-2.3.5-.9 1-1.7 1.6-2.5 1.1-1.3 2.2-2.5 3.5-3.6 0 .6-.3 1.2-.8 1.7-1.1 1.3-2 2.9-2.4 4.6-.3.6-.7 1.2-1.1 1.8-.1.2-.4.2-.7.3zm45.1 7.6c1.2-3.8 2.9-7.4 5.1-10.7.1.3.2.7.2 1.1 0 .3-.1.7-.3 1-1.4 2.8-2.9 5.7-4.4 8.5-.1.1-.2.3-.4.4l-.2-.3zm-7.4-35.5c.4 1.4-1.2 4.6-2.7 5.9-.6-.3-.4-.9-.4-1.4.5-1.7 1.6-3.3 3.1-4.5zm72.7 9.9c2.1 1.2 5.4 4.9 5.6 6.3-.7.1-1-.4-1.4-.8l-2.1-2.4c-.4-.4-.7-.7-1.1-1-.7-.4-1.1-1.2-1-2.1zm-115.9 45c.2-2.5 1.2-4.8 2.7-6.7.4 1.7-1.2 5.8-2.7 6.7zm49.1-8.2c0-2.5.9-4.8 2.6-6.6.4.4.2.8.1 1.2-.8 3.3-1.4 4.4-2.7 5.4zm-9.6-39.7c0 1.9-.6 3.8-1.8 5.3-.4.3-.9.5-1.4.6.5-2.4 2.1-4 3.2-5.9zm-5 4.6c-.4-2.6 1-5.7 3.1-6l-1.4 3.1-1.4 3-.3-.1zm-1.7-9.4c.7-2.9 1.9-5.7 3.5-8.3.1.6.3.9.2 1.1-1 2.3-2.1 4.7-3.2 7 0 .1-.2.1-.5.2zm6.3-18.5c-.3.6-.6 1.1-1 1.6-.6.8-1 1.7-1.2 2.7-.1.5-.2.9-.5 1.3-.2.3-.6.5-1 .6-.5-.1-.5-.6-.4-1.1 0-.1.1-.3.1-.4.9-1.8 2.1-3.5 3.6-4.9l.4.2zm20.9 48.9c.3.7.2 1.4-.2 2-.8 1.2-1.4 2.6-1.8 4-.1.6-.6.9-1.5 1 .6-2.5 1.8-4.9 3.5-7zm-48.7 8.9c-.4.8-.8 1.7-1.2 2.5s-.8 1.7-1.1 2.6c-.2.7-.7 1.2-1.3 1.4-.2-1.8 1.9-5.9 3.3-6.6l.3.1zm110.8-30c-2.1-.7-3.3-2.2-4.5-3.7 1.6-.4 3.6 1.3 4.5 3.7zM122.2 287c.4 1.2-.2 3.2-1.4 4.6-.7-.2-.6-.8-.6-1.2.2-1.4.9-2.6 2-3.4zm117.2-28.9c2.1.8 3 2.8 4.4 4.5-2.1-.8-3.7-2.4-4.4-4.5zM126 280.5c-.4 1.8-.8 3.7-2.4 5.1-.6-1.3.6-3.6 2.4-5.1zm45.2-1.8c.4 1.7-.2 3.4-1.4 4.6-.9-1.3-.3-3 1.4-4.6zm1.3-1.6c0-2 1.1-3.4 2.3-5 .3.6.3 1.3-.1 1.9-.5 1-.9 2.4-2.2 3.1zm-24.3-21.9c0-1.8.6-3.5 1.7-4.9.5 1.3-.4 3.9-1.7 4.9zm7.7-10.7c.3.5.3 1.2-.1 1.7-.4.9-.7 1.8-1 2.6-.1.6-.6 1-1.2.9h-.1c.4-1.9 1.2-3.7 2.4-5.2zm-4.4 4.7c-.9-1.2-.6-2.5.9-3.8.3 1.5-.3 2.5-.9 3.8zm3.4-8.6c-.1 1.4-.6 2.8-1.5 3.8-.2-.2-.4-.4-.4-.5.2-1.3.9-2.5 1.9-3.3zm-9.5-149.2v2.3c-.2 1.8-1.1 2.6-2.9 2.4-2.6-.3-5.1-1-7.5-2.1-1.9-.9-3.6-2.1-5.1-3.5-.7-.6-1.3-1.3-1.9-2.1-1.9-2.8-3.1-6-3.5-9.4-.3-2.2-.4-4.4-.6-6.7v-1c.1-.9.3-1.1 1.2-1.1 1.4-.1 2.8.1 4.2.4 2.2.5 4.4 1.4 6.3 2.6 4.4 2.6 7.6 6.8 8.9 11.7.7 2.1 1 4.3.9 6.5zm-3-1.3l.2-.1c.1-.7.1-1.5 0-2.2-.5-2-1.1-3.9-2-5.8-2.6-4.9-7.3-8.2-12.7-9.2-1.1-.2-1.4.1-1.3 1.2.2 1.7.3 3.4.5 5.1.4 2.9 1.5 5.6 3.2 8 1.9 2.4 4.5 4.2 7.4 5.2.8.3 1.5.5 2.3.7h1.2c-.4-.6-.7-1-1-1.4l-5.9-7.7c-.6-.7-.6-1.3-.1-1.8s1.3-.4 1.8.1c.5.4 1 .9 1.4 1.5l2.7 3.6c.9 1 1.6 1.9 2.3 2.8zm-57.6 17.8c-3.4.1-6.8-1.5-9.9-4-2.9-2.4-5.4-5.1-7.4-8.2-.7-1.1-.7-1.2.5-2 2.7-1.8 5.7-2.9 8.9-3.3 3.1-.3 6.2 0 9.2.9 1.5.5 3 1.2 4.3 2.2 2.7 1.8 5 4.2 6.7 6.9.3.4.5.8.7 1.3.7 1.6.2 2.6-1.2 3.4-3.5 2-7.2 2.8-11.8 2.8zm9.4-6.9c-5.1-8.6-16.5-10.3-23.6-5.7.2.4.5.8.8 1.2.9 1.1 1.9 2.1 2.8 3.2 1.3 1.7 3 3.1 5 4 1.3.7 2.7 1.3 4.1 1.6 2.8.5 5.7.2 8.4-.8.5-.2 1.2-.1 1.7-.8-.6-.2-1-.4-1.4-.5-2.6-.8-5.2-1.5-7.8-2.3-.5-.1-1-.4-1.4-.7-.3-.3-.4-.8-.4-1.2 0-.5.6-.8 1.1-.7.5 0 .9.1 1.4.2 2 .6 3.9 1.2 5.9 1.7.9.2 2 .4 3.4.8zm-9.4-45.6c-.2 2.9-.6 5.5-2.2 7.9-.5 1-1.7 1.5-2.8.9-.1 0-.1-.1-.2-.1-4-2.3-7-5.4-7.9-10.1-.5-2.8-.3-5.6.5-8.3.4-1.3.8-2.5 1.3-3.8s.9-1.5 2.2-.8c3.5 1.7 6.3 4.6 7.8 8.2.8 2 1.2 4 1.3 6.1zm-6.1 5.3l.4-.2c-.1-.5-.3-1-.4-1.5-.4-1.4-.9-2.8-1.3-4.2-.1-.4-.2-.8-.3-1.3-.1-.5.2-1.1.8-1.2.5-.2 1.1.1 1.3.6.4 1.1.7 2.3 1.1 3.4.4 1.3.8 2.6 1.3 4 3-6.8-1.3-14.8-6.1-16.5-.1.3-.3.6-.4.9-.7 1.9-1.1 4-1.2 6-.2 4.3 1.6 7.5 4.8 10zm28.9 8.9v-1.7c.1-1 .3-1.3 1.3-1.2 1.6.1 3.1.4 4.6.9 5.3 1.9 8.9 6.9 9 12.6v2.1c0 1-.8 1.9-1.8 1.9h-.2c-3.5-.4-6.8-1.5-9.2-4.2-2.7-3-3.5-6.5-3.7-10.4zm2.6-.3c-1.5 4.6 3.4 12 7.9 11.8-.7-.8-1.2-1.5-1.8-2.2s-1.3-1.6-1.8-2.4c-.4-.4-.4-1 0-1.4l.1-.1c.5-.3 1.2-.3 1.6.2l.5.5c.9 1.1 1.7 2.1 2.6 3.2.2.2.5.4.8.6.2-4.7-4.9-10.1-9.9-10.2zm-.9-11.5c1-.6 2.1-.9 3.2-1 5.5-.8 10.8 2.5 12.5 7.8.6 1.9 0 3.2-2 3.5-4.7.8-8.6-.3-11.4-4.6-1.1-1.8-1.9-3.7-2.3-5.7zm3 1.5c1.1 4 4.4 7 8.5 6.5-.7-.4-1.3-.8-1.9-1.2l-1.8-1.2c-.5-.3-.6-.9-.2-1.4.3-.5.9-.6 1.4-.4.6.2 1.1.6 1.6.9l1.9 1c-1.3-3.3-6-5.3-9.5-4.2zm-42 29.5c-.9-1.1-1.4-2.5-1.5-3.9-.4-3.3.6-6.7 2.8-9.3 1.3-1.5 3-2.5 4.9-3.1 1.7-.5 2.7.1 3 1.8.6 2.4.5 4.9-.4 7.3-.6 1.5-1.6 2.9-2.8 3.8-1.5 1.4-3.3 2.4-5.2 3.2l-.8.2zM75 76.3c-2.9 1.3-4.7 6-3.8 8.8.2.6.5.7 1.1.4 1.8-.9 3.4-2.3 4.4-4.1.7-1.4.9-3 .6-4.6-.4.8-.7 1.4-1.1 2.1s-.6 1.2-1 1.8c-.2.4-.7.6-1.2.3-.5-.2-.8-.8-.6-1.3.2-.4.4-.9.6-1.3.4-.7.7-1.4 1-2.1zm21.5-19.9c-.3 5.5-3.6 10-9 11.3-1.4.3-2.2-.2-2.5-1.6-.4-2.1-.3-4.3.3-6.3s1.8-3.7 3.5-4.9c1.6-1.2 3.4-2.1 5.3-2.7 1.2-.4 1.6-.2 1.9 1s.4 2.3.5 3.2zm-7.3 8.1c3.6-1.4 5.4-6.1 5-8.8-.1-.8-.5-1.1-1.3-.7-1.8.7-3.3 1.9-4.4 3.5-.9 1.2-1.3 2.8-1.1 4.3.3-.3.6-.7.8-1.1.4-.6.7-1.2 1.1-1.8s1.2-.8 1.8-.4c.6.5.4 1 .2 1.5-.2.3-.3.6-.5.8l-1.6 2.7zm12.4 31.6c5.6-.1 10.4 4 11.2 9.5 0 .2 0 .4.1.6.3 2.3-.5 3.2-2.8 3.1-4.3-.2-8.2-2.5-9.8-6.8-.5-1.6-1-3.3-1.3-4.9-.2-1.2 0-1.4 1.2-1.4.6-.1 1.1-.1 1.4-.1zm6.6 10.2l-1.2-1.2c-.4-.4-1-1-1.5-1.6-.3-.4-.4-.9-.1-1.3.3-.5.9-.6 1.4-.3.4.3.8.6 1.2 1 .6.6 1.2 1.2 1.9 1.7-.5-3.7-5-6.8-8.3-6.3.2 3.8 2.9 7.9 6.6 8zM74.4 70.8c-4.7.3-7.9-2.1-10.2-6-.6-1.2-1.1-2.4-1.4-3.6-.3-.9-.2-1.2.7-1.5 5.3-1.9 11.2.5 13.7 5.5.4.9.8 1.8 1 2.8.3 1.7-.4 2.5-2.1 2.8-.5 0-1.1-.1-1.7 0zm-8.8-9.1c1 4.5 5.1 7.1 8.3 6.8-.2-.2-.4-.3-.6-.5-1-.6-1.9-1.2-2.9-1.8-.5-.3-.9-.8-.6-1.4s1-.8 1.6-.5c.6.3 1.1.6 1.6.9.6.4 1.3.8 2 1-1.1-3.3-6.4-5.8-9.4-4.5zm-19 8.6c.3-1.6.7-3.2 1.1-4.8.2-.5.4-1 .7-1.4 2.1-3.1 5.2-4.6 8.7-5.5.5-.2 1 0 1.2.5 0 .1.1.2.1.3 1 3.5.3 7.4-2 10.3-1.6 2-3.7 3.4-6.2 4.1-2.2.7-3.4-.2-3.5-2.5v-.8l-.1-.2zm2.5-1.3l.3.2c.5-.7.9-1.3 1.3-2 .3-.4.6-.9 1-1.2.4-.5 1.1-.5 1.5-.2.4.4.5 1 .1 1.4-.5.9-1.2 1.8-1.7 2.6-.2.3-.3.6-.4.9 3.3-1.4 5.4-4.8 5.2-8.4-.1-1-.4-1.2-1.3-.8-1.8.7-3.4 1.8-4.6 3.3-.7 1.2-1.3 2.7-1.4 4.2zM59 80.7c-2.1-.2-4.1-.8-5.9-1.8-.8-.5-.9-.6-.5-1.5 1.5-3.6 4.8-6.2 8.7-6.7 2.3-.4 4.7 0 6.8 1.1 1.5.7 2 1.8 1.1 3.2-2.1 3.5-5 5.8-10.2 5.7zm6.5-7.5c-4.4-1.1-9.3.9-10.1 4.1 3 1.8 8.5 1.6 10.2-1.7-.7.2-1.3.4-1.8.6-.7.2-1.4.4-2.1.5-.5.1-1-.3-1.1-.8-.2-.5.1-1.1.6-1.3.3-.1.5-.2.8-.3l3.5-1.1zm23.7-3.7c3.2 0 5.7 1.3 7 4.4.4 1 .8 1.9 1.1 2.9.3 1.2.2 1.4-1 1.6-4.5.7-8.7-2.4-9.4-6.8v-.3c-.2-1.3.1-1.7 1.5-1.8h.8zm1.2 1.9c.7.6 1.4 1.2 2 1.8.2.3.2.7.1 1-.3.2-.7.3-1 .2-.3 0-.5-.3-.8-.6l-1.3-1c.8 2.6 3.3 4.2 6 3.8-.1-2.4-2-4.7-5-5.2zM63.5 91c-4.1 0-7.5-3-8.1-7-.2-.9.3-1.8 1.2-2 .2-.1.4-.1.6 0 2-.2 3.9.4 5.5 1.7 2 1.6 2.7 3.7 3.2 6 .2.8-.1 1.1-.9 1.3-.1 0-.3.1-.4.1l-1.1-.1zm-5.7-5.8c.9 2.8 4 4.6 5.9 3.7-.1-2.7-2.2-4.8-4.8-5.1l1.2 1.1c.2.2.4.3.6.4.3.3.7.8.3 1.2s-.8.4-1.3.1-.6-.4-.9-.7l-1-.7zM106.3 63c0 .6 0 1.1-.1 1.7-.1.9-.9 1.6-1.8 1.5h-.1c-.2 0-.4-.1-.6-.1-2.9-.9-5-3.4-5.5-6.5-.1-1.1-.1-2.2 0-3.3 0-1.2.5-1.5 1.7-1.2 3.7.9 6.5 3.8 6.4 7.6v.3zm-6.2-6c-.9 2.4.4 5.6 2.7 6.2-.4-.7-.7-1.2-1-1.8-.2-.4-.3-.9.2-1.1.4-.1.8 0 1.1.2.3.2.5.5.7.9.3.4.5.8 1 1.5-.5-3.2-2.1-5.3-4.7-5.9zM63 48.7c4.1 0 7.5 3 8.1 7 .2 1.7-.4 2.5-2.1 2.4-2.9 0-5.5-1.7-6.8-4.3-.5-1.2-.9-2.4-1.2-3.7-.3-1.1 0-1.4 1.1-1.5.4.1.7.1.9.1zm0 2c.2 2.8 2.3 5 5 5.5-.4-.3-.6-.5-.8-.7-.5-.4-1-.9-1.4-1.4-.1-.3-.1-.6 0-.9.2-.2.6-.3.9-.2.4.2.7.4 1 .7.4.3.7.5 1.2.9-.6-2.7-3.5-4.5-5.9-3.9zm57.6 48.8c2-.2 4 .6 5.4 2 .4.4.7.9.9 1.4.3.6.1 1.4-.5 1.8-2.2 1.5-4.4 2.4-7.1 1.5-1.7-.6-3.3-1.6-4.6-3-.7-.8-.7-1.2.2-1.8 1.7-1.4 3.7-2 5.7-1.9zm-3.9 3c2.3 2.4 5.1 3.1 6.8 1.7l-1.9-.3c-.6-.1-1.2-.2-1.2-1 0-.5.6-.8 1.4-.7.4 0 .7.2 1.1.2.3 0 .7-.1 1-.1-2.1-1.8-5.2-1.7-7.2.2zm135.6-10.6c-.2 1.6-.6 3.1-1.2 4.5-1.8 4.2-5.1 7.6-9.3 9.6-2.1 1.1-4.4 1.8-6.8 1.9-2.4.1-4.9.1-7.3-.9-1.8-.6-2.8-2.6-2.2-4.5.1-.1.1-.3.2-.4.8-2.1 2-4 3.4-5.7 3-3.3 6.5-5.6 11.2-5.9 2.5-.1 5 0 7.5.3 1.3.2 2.5.4 3.8.7.3.1.5.3.7.4zM228.7 102l.2.2c.5-.2.9-.4 1.4-.6 2.1-1 4.2-2.1 6.3-3.1.3-.2.7-.3 1.1-.4.5-.2 1.1 0 1.4.5.3.5.3 1.1-.1 1.4-.4.4-.8.6-1.3.9-2.4 1.2-4.8 2.3-7.2 3.5-.2.1-.4.3-.6.4 7.2 2.7 17.8-3 19.4-11.1-.8-.2-1.6-.3-2.5-.4-2.5-.2-4.9-.2-7.4 0-3.6.4-6.1 2.6-8.4 5.2-1.1 1-1.8 2.2-2.3 3.5zm-25.4-6.7c-.1-2.6.5-5.1 1.8-7.4 1.3-2.2 2.8-4.3 4.7-6.1 1.1-1 1.3-1 2.3 0 2.2 2.4 3.6 5.3 4.1 8.5.5 2.6.2 5.4-.8 7.8-1.1 2.8-2.9 5.2-5.2 7.1-.9.8-2.4.8-3.2-.2-.1-.1-.2-.2-.3-.4-2.1-2.5-3.3-5.7-3.4-8.9v-.4zm7 5.8c1.2-1 2.2-2.3 2.7-3.8 1.7-4.3.9-9.2-2-12.7-5.2 4.4-6.9 11.4-3.5 16.2.1-.3.2-.7.3-1 .1-1.2.2-2.4.4-3.5.1-.8.2-1.6.4-2.4.1-.6.7-1 1.3-.9s1.1.5 1.1 1.2v.4l-.3 3.3c-.1 1.1-.3 2.1-.4 3.2zm-23.4 5.7l-2.4-.3c-1.1-.3-1.8-1.4-1.6-2.5.2-2.6 1-5.2 2.3-7.4 2.4-4.1 6.2-6.1 10.9-6.7 1.6-.2 3.2-.4 4.8-.5 1.2-.1 1.5.1 1.5 1.4 0 3.5-1.1 6.9-3.2 9.7-1.4 1.9-3.2 3.5-5.3 4.6-2.1 1-4.5 1.7-7 1.7zm.8-3c4.9.8 12-5.6 12-11.6-6.4-.4-12.4 2.6-13.6 9.3.3-.1.5-.3.8-.5 1.1-1 2.2-1.9 3.4-2.9.5-.4 1-.7 1.6-1 .5-.3 1.1-.1 1.4.3.4.4.4 1 0 1.4l-1.5 1.5c-1.4 1.2-2.7 2.4-4.1 3.5zm61.9-37.9c4.7-.2 8.3 1.9 11.2 5.4 1.2 1.6 2.4 3.2 3.4 4.9.7 1 .6 1.4-.6 2-4.8 2.4-9.7 2.8-14.5.3-3.4-1.6-6.1-4.5-7.5-8.1-.7-1.9-.2-2.9 1.7-3.4 1.4-.4 2.8-.8 4.3-1.1.7-.1 1.4-.1 2 0zm-4.3 5.5l-.2.2c.5.7 1 1.4 1.6 2s1.3 1.1 2 1.6c3.3 2.4 7.6 3 11.5 1.6.8-.3 1-.7.5-1.4s-.9-1.1-1.3-1.7c-2.2-2.9-5-5-8.7-5.3-1.4-.2-2.8 0-4.1.6 1.1.6 2.2 1.1 3.4 1.5.9.4 1.8.7 2.6 1.2.6.3.9 1 .7 1.6v.1c-.3.6-1 .8-1.6.6-.4-.1-.8-.3-1.2-.5l-5.2-2.1zm6.7-17.7c0 1.2-.4 2.4-1 3.4-.7 1.5-1.6 2.9-2.7 4.2-2.2 2.5-5.2 4.2-8.4 4.9-1.9.3-3.8.3-5.7 0-1.2-.2-2.4-.6-3.5-1.1-1-.4-1.6-1.5-1.2-2.6.1-.4.2-.7.3-1.1 1.8-4.2 5.3-7.5 9.7-8.8 1.7-.5 3.4-.6 5.1-.4 2.3.3 4.5.8 6.7 1.2.3.1.5.2.7.3zm-18.9 6.9l.2.3c.6-.2 1.1-.5 1.7-.7 1.2-.5 2.4-1.1 3.6-1.6.4-.2.8-.3 1.2-.4.6-.1 1.2.2 1.3.8.2.5 0 1.1-.5 1.3-.9.5-1.8.9-2.7 1.3l-3.8 1.8c4.9 2.1 14.2-3.1 14.4-8-.4-.2-.9-.3-1.3-.4-1.5-.2-3-.3-4.5-.3-4.4.1-7.3 2.4-9.6 5.9zm-3.1-5.1c.2 1.8-.5 3.5-1.1 5.1-.1.1-.1.3-.2.4-1.5 2.5-3 2.5-4.7.7-1.5-1.6-3-3.2-3.4-5.5-.5-2.1-.4-4.3.4-6.3.6-1.4 1.2-2.7 1.8-4 .4-.9.7-1 1.6-.5.9.5 1.7 1.1 2.4 1.8 2.1 2.1 3.3 5.2 3.2 8.3zm-5.3 3.4c.1-1 .1-2 0-3-.1-.5-.1-.9-.1-1.4s.4-.9.9-.9c.5-.1 1.1.3 1.1.8.1.5.1 1.1.1 1.7s-.1 1.1.5 1.6c1.1-3.5-.1-7.3-3.1-9.5-2 2.6-2.4 8.8.6 10.7zm6.1 8.1c2.3 0 4.6.8 6.4 2.2.9.7 1.6 1.6 2.2 2.6 1.3 2.1 2.1 4.5 2.4 7 .1.8-.1 1.1-.9 1.3-1.8.3-3.6.2-5.3-.5-4.6-1.5-7.1-4.8-7.8-9.6-.3-2 .4-2.9 2.5-2.9l.5-.1zm1.4 2.7c.4.3.8.7 1.1 1 .6.6 1.3 1.2 1.9 1.8.4.4.4 1 0 1.4-.3.4-1 .5-1.4.2-.3-.2-.6-.5-.9-.7l-2.3-1.8c.6 3.6 5.3 6.9 8.4 6.1.2-2.9-2.6-7.9-6.8-8zm-16.9 12.9c.2-5.4 2.5-8.8 6.5-11.1.5-.2 1-.4 1.5-.5 1.3-.4 2.8.3 3.2 1.7 0 .2.1.3.1.5 1 4.4-.8 9-4.7 11.4-1.3.8-2.7 1.4-4.1 2-1.1.5-1.5.3-1.8-.8s-.6-2.5-.7-3.2zm2.7 1.3c4.5-1.2 7.1-5.8 6.3-8.3-.2.4-.4.7-.6 1-.5.8-.9 1.6-1.4 2.3-.3.5-.9.7-1.4.4-.5-.2-.7-.8-.5-1.3.1-.3.3-.7.5-1 .4-.8.9-1.6 1.4-2.6-3.4 1.2-5.5 6-4.3 9.5zm20.8-40.4c.3 2.6-.8 5.1-2.6 7.3-.6.7-1.2 1.3-2 1.8-.6.6-1.6.5-2.2-.1l-.1-.1c-1-1.1-1.8-2.5-2.2-3.9-1.3-3.6-.4-6.9 1.8-9.9.7-1 1.6-2 2.5-2.9 1-.9 1.2-.8 2.1.1 1.6 1.7 2.5 3.8 2.7 6.1.1.4.1 1 0 1.6zm-6.3 5c.2-.8.4-1.4.5-2s.3-1.4.5-2.1c.1-.6.6-1 1.2-.9h.1c.6.1 1 .7.9 1.3l-.3 1.5c-.1.6-.3 1.2-.4 1.8 2.4-3 2.4-7.2.1-10.2-2.9 1.9-5 7.5-2.6 10.6zm18.8 34.7c2.3.1 4.4.9 6.2 2.4.4.3.6.8.3 1.2-.1.1-.1.2-.2.2-.7.9-1.6 1.6-2.6 2.2-2.8 1.6-6.3 1.4-8.8-.6-1.4-1-1.4-2.2-.1-3.2 1.4-1.3 3.2-2.1 5.2-2.2zm-2.6 4.6c2.3 1.3 5.2.8 6.9-1.2-1.7-2-5.4-2.3-7.1-.6h.6c.7 0 1.4 0 2.1.1.3.1.5.4.6.7 0 .2-.2.5-.5.6-.4.1-.7.2-1.1.2l-1.5.2zm-11.6 1.9c-.9-.1-1.8-.3-2.6-.6-.8-.1-1.4-.9-1.3-1.7 0-.2.1-.4.3-.6 2.2-4.7 6.2-5.8 10.8-4.6.9.2 1 .7.7 1.6-1.2 3.5-4.8 6.1-7.9 5.9zm5.7-5.8c-2.7-.9-5.8-.1-6.6 2 .4-.1.8-.2 1.1-.3.4-.2.8-.4 1.2-.5s.7.1 1 .3c.1.3 0 .7-.3.9-.5.3-.9.6-1.4.9-.3.2-.7.4-1.2.6 2.7.5 5.8-1.6 6.2-3.9zm12.6-18c-1.6-.1-3.1-.6-4.4-1.6-1.3-.9-1.4-2-.3-3.1 2.3-2.2 5-3.1 8.1-2 1 .4 2.1.9 3 1.5s1 1 .3 1.9c-1.5 2.1-4.1 3.3-6.7 3.3zm4.9-4c-2.3-1.8-5.8-1.9-7-.2.6 0 1.2-.1 1.8-.1s1.3-.1 1.5.7c.1.5-.5.9-1.4 1h-.9c-.3 0-.6.1-1 .2 2.5 1.2 5.5.5 7-1.6zm-56.1 17.9h1.7c.9.1 1.1.3 1 1.2-.3 1.8-1.2 3.5-2.5 4.8-1.2 1.2-2.8 2-4.5 2.2-1 .1-2 0-2.9-.3-.9-.2-1.4-1-1.3-1.8 0-.1.1-.3.1-.4.9-2.9 3.3-5.6 7-5.7h1.4zm-5.9 4.8l1-.6c.3-.2.6-.4 1-.6s.9-.4 1.3.1-.1 1-.5 1.3-.7.5-1.1.7l-1 .7c2.4.4 5.1-1.9 5.6-4.4-2-1.2-5.3.2-6.3 2.8zm43.5-33.4c-.5-.1-1-.1-1.4-.2-.9 0-1.6-.7-1.6-1.5 0-.2 0-.4.1-.6.6-2.9 2.9-5.6 5.9-6 1.3-.1 2.6-.2 3.8-.2.8 0 1.1.4 1 1.2-.2.9-.4 1.8-.8 2.7-1.1 2.5-4.5 4.7-7 4.6zm.3-2c3.1-.2 5.4-2.3 5.5-4.8-2.4-.7-5.7.8-6.3 3.2l.9-.5c.4-.2.8-.5 1.2-.8s.9-.3 1.1.2c.1.3 0 .7-.2 1s-.5.5-.9.7c-.4.4-.8.7-1.3 1zm-33.9-15.6c-.1 1.1-.3 2.3-.6 3.4-.5 2.2-1.3 4.4-2.4 6.4-1.6 2.5-3.7 4.7-6.1 6.5-1.3.9-2.7 1.6-4.2 2.1-.8.3-1.6.6-2.4.8-2.1.6-3.9-.4-4-2.5-.2-2.8-.2-5.6 0-8.4.3-3 1.4-5.9 3.3-8.2.6-.7 1.3-1.4 2-2 2-2.1 4.4-3.6 7.1-4.6 1.4-.5 2.8-1.2 4.2-1.7s1.6-.4 2.1 1c.4 1.2.6 2.4.8 3.6.1 1 .1 2.1.2 3.6zM190.8 49l.5-.5c1.3-2.2 2.5-4.5 3.8-6.7.4-.8.9-1.6 1.4-2.3.4-.7 1.3-1 2-.6.6.3.7.9.3 1.8-.2.3-.3.7-.5 1-1.4 2.4-2.8 4.9-4.2 7.3-.1.2-.1.4-.2.7 3.7-1.1 6-3.6 8.3-6.2.7-.8 1.3-1.8 1.7-2.8 1.5-3.5 2-7.4 1.5-11.1-.1-1-.5-1.4-1.4-.9-2.5 1.2-5.1 2.1-7.2 3.9-2 1.6-3.6 3.6-4.7 5.8-.4.8-.7 1.6-.9 2.4-.4 2.6-.6 5.4-.4 8.2zm-25.2 29.7c.3-3.9 1.1-7.4 3.7-10.4.6-.7 1.1-1.6 1.7-2.3 1.5-1.6 3-3 4.5-4.5l.3-.3c1.6-1.2 2.5-1.1 3.6.7 1.4 2.2 2.4 4.7 2.9 7.3.6 2.6.7 5.2.2 7.8-.3 1.8-.8 3.5-1.4 5.2-1.1 2.2-2.6 4.3-4.3 6.1-1.1 1.4-2.6 2.5-4.3 3.2-1.6.6-2.5.3-3.5-1.2-1.7-2.7-2.7-5.8-3.1-9-.1-.9-.2-1.8-.3-2.6zm7.5 9.2c.4-.1.6-.1.7-.2 1.4-1.5 2.8-3 4-4.7 1.9-2.8 2.4-6.2 2.5-9.5 0-2.2-.5-4.5-1.3-6.5-.3-1.2-1-2.4-1.9-3.2-1.4 1.3-2.8 2.5-4 3.8-.8.8-1.2 1.8-1.9 2.6-1.3 1.6-2.1 3.5-2.6 5.5-.4 1.7-.4 3.5-.1 5.2.3 1.7.7 3.3 1.1 5 .2.5.4.9.6 1.3.8-2.4 1.4-4.8 1.9-7.1.2-1 .4-2 .7-2.9.2-.6.8-1 1.4-.9.6.2 1 .8.9 1.4 0 .3-.1.6-.1.8-.5 2.1-1 4.2-1.5 6.4 0 .9-.2 1.8-.4 3zm8.7-70c3.4 1.5 6 4.3 7.3 7.8 1.5 3.9 1.2 8.3-.9 12-.2.5-.5.9-.9 1.3-.6.8-1.8 1-2.6.4-1.8-1.1-3.3-2.6-4.4-4.4-1.1-1.7-1.7-3.6-1.9-5.6-.1-3.1.6-6.1 2-8.8.4-1 .9-1.8 1.4-2.7zm2.4 18.1c-.1-.5-.1-.7-.1-1-.3-1.6-.6-3.3-.9-4.9-.1-.9.3-1.4 1-1.5s1.1.4 1.3 1.2c.3 1.4.5 2.8.8 4.2.1.4.2.8.4 1.3 2.6-4 .6-11.9-3.8-14.1-.3.5-.5 1-.8 1.5-.4.9-.6 1.9-.9 2.9-.6 2.1-.6 4.3.2 6.3.5 1.3 1.1 2.9 2.8 4.1zm16.9 20.1c0 3.8-1.4 7.4-4 10.2-2.2 2.5-5.1 3.6-8.2 4.2-2.1.4-3.2-.6-3.3-2.8-.1-2.4.4-4.8 1.5-7 1.9-3.7 5.2-5.5 9-6.7 1.1-.3 2.3-.5 3.5-.7.5-.2.9.1 1.1.5v.2c.2.8.3 1.5.4 2.1zm-2.6 0c-5.1-.3-11.3 5.7-10.3 10l1.6-1.9c.6-.8 1.3-1.5 1.9-2.3s1.3-.8 1.8-.5.5 1.1 0 1.9c-.2.3-.5.6-.7.9l-3 3.6c6-.9 9.7-7.9 8.7-11.7zm-11.3-3.3c.1 1.8-.3 3.5-1 5.1-.2.5-.4 1-.7 1.4-.6 1-1.9 1.3-2.9.8-4.9-2.4-8.3-8-7.3-13.1.4-2.2 1-4.3 1.6-6.5.3-1.1.6-1.2 1.7-.7 4.4 1.8 7.6 5.8 8.5 10.5 0 .8.1 1.6.1 2.5zm-6.4 3.2l.3-.1-.6-3c-.1-.7-.2-1.5-.2-2.3-.1-.5.3-.9.8-1 .5-.1 1.1.2 1.2.7.1.3.2.7.3 1 .2 1.2.4 2.3.7 3.5.2.8.4 1.5.6 2.5 1.6-3.2 1.5-6.9-.2-10-1.4-2.7-3.3-4.4-4.9-4.6-2.4 4.8-1.8 10.1 2 13.3zm-12 1.2c-.1-2.8 1.4-4.7 2.9-6.7.3-.4.8-.4 1.1-.2.3.2.5.4.8.6 2 2.4 3.2 7 .6 10.6-1.4 1.8-3.1 1.8-4.3-.2-.7-1.1-1.1-2.6-1.1-4.1zm4.2 3c1.7-2.4 1.3-6-.5-7.5-1.8 1.5-2.9 5.1-1 7.2v-2.2c0-.7.4-1.2.9-1.2s.8.5.7 1.3c0 .2-.1.4-.1.6-.1.5-.1 1 0 1.8zm24.4-37.1a7.5 7.5 0 01-3.7 6.2c-1.3.8-2.2.6-2.9-.8-.8-1.7-1-3.7-.5-5.6.6-2.5 2.5-4 4.4-5.4.6-.5 1.1-.2 1.4.4 1.1 1.3 1.3 2.9 1.3 5.2zm-2.3-3.6c-2.6 1.5-4 4.5-3 6.5.1-.4.2-.7.4-1s.2-.6.3-1c.2-.5.5-.9 1.1-.7s.6.6.5 1-.2.9-.3 1.4-.1.7-.2 1.2c1.9-1.8 2.5-4.9 1.2-7.4zM90.8 263.8c0 .4 0 .8-.1 1.2-.2.5-.4.9-.8 1.4-1.1 1.4-2.3 2.8-3.4 4.2-.4 0-.7-.4-.7-.9v-.2c.1-.6.3-1.1.6-1.6 1.1-1.3 2.3-2.6 3.5-3.8.2-.2.5-.2.9-.3zm-7.3-8.7c0 .4.1.7-.1.9-1.8 2.8-3.6 5.7-5.5 8.5 0 .1-.2.1-.6.2 1-2.8 2.5-5.3 4.2-7.7.6-.6.9-1.5 2-1.9zm-.5 14.3c-2 2.3-2.9 5-4.7 7.2-.5-1.3.1-3.5 1.5-5.5.7-.9 1.4-1.9 3.2-1.7zm5.6-26.5c-.3.8-.8 1.5-1.5 2.1-.9.9-1.5 2-2 3.2-.2.5-.5 1-.9 1.4-.3.2-.6.3-1 .3-.3-.2-.4-.6-.3-.9.4-1 .9-1.9 1.5-2.7 1.2-1.1 2.4-2.2 3.7-3.3.1 0 .3 0 .5-.1zm-8.6 35c1.4-2.4 3.3-4.5 4.8-6.8l.3.1c0 .2.1.4 0 .5-.7 1.6-1.3 3.1-2.1 4.7-.4.6-.9 1.1-1.4 1.5-.4.5-1.1.5-1.6 0 .1 0 0 0 0 0zm-1.7-9.2c.1 1.5-1.7 5.1-2.9 5.7-.3-1.6 1.5-5.2 2.9-5.7zm4.2-.2c.7-2.2 2.1-4.2 4-5.6 0 .2 0 .5-.1.7l-1.2 1.8-1.2 2.1c-.1.7-.8 1.1-1.5 1zm-.5-5.6c0 1.7-.7 3.3-1.9 4.5-.7-1.4 0-3.3 1.9-4.5zm4-5.5c-.2 1.8-1.3 3.4-2.8 4.4-.3-1 1.2-3.3 2.8-4.4zm64.3-223.5c0 2.5-.6 4.9-1.8 7.1-.3.9-1.2 1.3-2 1.1-.1 0-.1 0-.2-.1-.6-.2-1.1-.4-1.6-.7-2.6-1.7-4.7-4.3-5.8-7.2-1.2-3.5-1.2-7.4.1-10.9.4-.9.9-1.7 1.5-2.4.2-.4.7-.6 1.1-.4.1 0 .2.1.2.1 1.3 1 2.6 2 3.8 3 1.1.9 2 1.9 2.7 3.1 1.4 2.2 2.1 4.7 2 7.3zm-3.1 3.6c2.5-4.9-.6-11.5-5.5-14-3.1 3.1-1 12.8 3.3 14.8-.1-.3-.1-.6-.2-.9-.5-1.7-1-3.4-1.4-5.1-.2-.8.1-1.3.6-1.5s1.1.1 1.4.9c.4.9.6 1.9.9 2.8s.5 1.9.9 3zm17.7-8.4c-.1 3.3-1.3 6.5-3.4 9.1-1.2 1.4-2.6 2.6-4.1 3.4-1.4.8-2.6.6-3.4-.9-.4-.7-.8-1.5-1-2.4-.6-2.1-.9-4.4-.6-6.6.3-2.2 1.2-4.2 2.7-5.9 1.7-1.8 3.4-3.4 5.3-5 1.2-1 1.7-.8 2.4.6.9 1.7 1.5 3.4 1.8 5.2.1.9.2 1.8.3 2.5zm-4-5.7l-.6.3c-1.2 1.1-2.3 2.2-3.4 3.4-1.3 1.4-2.1 3.2-2.2 5.1 0 1.6.2 3.1.4 4.7 0 .2.2.3.5.6.5-1.6.9-3 1.3-4.4.2-.5.4-1.1.6-1.6.3-.5.7-1 1.4-.7.6.2.9.8.7 1.4 0 .2-.1.5-.2.7-.4 1.2-.7 2.4-1.1 3.5-.2.6-.3 1.2-.5 1.9 4.4-2.8 6.3-9.8 3.1-14.9zm-3 31.6c-.2 1.2-.6 2.3-1 3.4-.8 1.7-1.8 3.2-2.9 4.7-1 1.1-2.6 1.1-3.6.2l-.3-.3c-1.7-2-3-4.3-3.8-6.8-.6-2.5-.4-5.1.6-7.5.9-2.3 2.1-4.5 3.7-6.4.6-.8 1-.8 1.8-.2 2.7 2.2 4.6 5.3 5.2 8.8.2 1.2.2 2.5.3 4.1zm-4.6 4.8c4.2-3.9 1.9-13.1-1.6-14.8-.1 0-.2.1-.2.1-1.4 1.6-2.3 3.6-2.8 5.7-.6 1.8-.5 3.7.2 5.5.4 1 .9 2 1.4 3 .1.2.4.3.9.8-.1-1.2-.1-2.2-.1-3.1 0-1.1-.1-2.2-.1-3.3 0-.6.5-1.1 1.1-1.1.6-.1 1 .3 1.1 1.1.1.4.1.8.1 1.1v3.4c-.2.4-.1.9 0 1.6zm1-38.7c.1 2-.5 3.9-1.9 5.4-.5.8-1.5 1-2.2.5-.2-.1-.4-.3-.5-.5-2.3-2.6-3-5.4-1.5-8.6.5-1 1-1.9 1.6-2.8.6-.9 1-1 1.8-.2 1.6 1.4 2.5 3.3 2.7 5.3v.9zm-3.5-4.4c-2 2.5-2.4 5.3-.9 6.7.1-.7.1-1.4.2-2s.4-1 .9-.8c.3.2.6.5.6.9.1.8.1 1.7.1 2.5 1.6-2.3 1.2-5.5-.9-7.3zm-42.1 9.2c.1-1.4.2-2.9.4-4.4.1-1 .3-1 1.2-.9 4.9.2 8.9 2.4 12.3 5.8 1.1 1.1 2.1 2.3 3 3.5 1.9 2.6 2.4 5.7 2.9 8.9.3 2.5.1 5-.4 7.5-.1 1.1-1.1 1.9-2.2 1.8h-.1c-.8-.1-1.5-.2-2.2-.5-1.6-.5-3.1-1.2-4.6-1.9-2.2-1.2-4.1-2.7-5.8-4.5-1.4-1.6-2.5-3.5-3.2-5.5-.5-1.3-.8-2.6-.9-4-.2-2-.3-3.9-.4-5.8zm14.5 18.6l.2-.3c-1.2-1.8-2.4-3.6-3.6-5.5-.7-1-1.3-2-1.9-3-.5-.6-.4-1.4.2-1.9l.1-.1c.6-.3 1.2-.1 1.8.7.1.1.2.2.2.4l4.8 7.3c.2.3.4.5.7.8.3-.9.4-1.9.4-2.9-.1-1.2-.3-2.4-.6-3.7-.3-1.7-.9-3.2-1.8-4.6-.8-1-1.7-2-2.5-3.1-2.1-2.6-5.1-3.9-8.1-5.1-1.2-.5-1.7-.1-1.7 1.2 0 1.8-.4 3.7.1 5.5.4 1.5.4 3 1 4.4.5 1.5 1.3 3 2.3 4.2 1.3 1.5 2.8 2.8 4.5 3.9 1.2 1 2.5 1.5 3.9 1.8zm-12.6-3.3c-.1.7-.2 1.3-.4 1.9-.2.8-1 1.3-1.8 1.2-3.9-.5-7.4-1.9-9.9-5.1-1.7-2.3-2.7-5.1-2.9-7.9-.1-1.1-.2-2.2-.2-3.3s.3-1.4 1.3-1.3c2.2 0 4.4.6 6.4 1.7 2.3 1.2 4.2 3.1 5.5 5.3 1.2 2.3 1.9 4.9 2 7.5zm-2.5-1.3c-.3-6.8-6.4-11-10.1-10.6-.6 5.2 2.9 11.1 8.2 11.9l-2.1-2.7c-.5-.7-1.1-1.3-1.6-2-.4-.4-.4-1.1 0-1.5.5-.4 1-.4 1.7.2.4.4.7.8 1 1.2l2.9 3.5zM208.2 229c-1.3-.8-2.3-2.1-2.8-3.6 1.4.8 2.4 2 2.8 3.6zm-1.3 1.2c-1.4-.1-1.8-.5-2-1.9 1 .3 1.3.6 2 1.9zm-2.5-3c-1-.5-1.8-1.5-1.9-2.6 1.1.5 1.8 1.5 1.9 2.6z"/><path class="st0" d="M68.9 54.6c-.5-.4-.9-.7-1.2-.9-.3-.3-.6-.5-1-.7-.3-.1-.6 0-.9.2-.1.3-.1.6 0 .9.4.5.9 1 1.4 1.4.2.2.5.4.8.7-2.7-.5-4.8-2.7-5-5.5"/></svg>