<svg xmlns="http://www.w3.org/2000/svg" width="201.25" height="39.85"><path d="M112.65 20.2c-.6-.4-1.08-.14-1.48.36-.21.26-.38.54-.58.81a32.34 32.34 0 01-6.65 6.82 4.79 4.79 0 01-1.67.76c-.78.22-1.25-.14-1.47-.94s0-1.25.83-1.49c.5-.15 1-.23 1.52-.39a4.86 4.86 0 003.58-5.2 2.9 2.9 0 00-2.07-2.93 7.77 7.77 0 00-2.8-.32c-3.25.24-5.9 1.55-7.23 4.72a12.82 12.82 0 00-1.07 6c.19 2.54-1.15 4.3-2.91 5.86 0 0-.17 0-.36-.06a4.51 4.51 0 01-.13-1c.11-1.85.27-3.69.41-5.54.14-1.7.41-3.41.39-5.11 0-2.5-1.13-3.72-3.57-4.27a14.35 14.35 0 00-2-.26c-1.19-.12-1.36-.25-1.65-1.38-.1-.42-.18-.84-.32-1.25a2.26 2.26 0 00-2-1.62 4.9 4.9 0 00-1.43 0c-3 .51-2.77.13-2.81 3.07 0 2.51.83 4.08 3.1 4.65.7.18.89.6.71 1.29a21.2 21.2 0 01-2.79 6.37c-.31.46-.61 1-1.38.81.07-1.57.15-3.08.21-4.59.07-1.76.17-3.52.17-5.27a3.2 3.2 0 00-1.55-2.73 7 7 0 00-4.5-1.06c-1.06.05-1.4.5-1.27 1.6a13.5 13.5 0 01-1 6.56 3.7 3.7 0 01-2.21 2.34 6.94 6.94 0 01-.27-1.54c.17-2.17.37-4.35.6-6.52a3 3 0 00-2-3.47 15.27 15.27 0 00-3.65-.34c-.24 0-.66.43-.71.7-.24 1.5-.35 3-.59 4.53a8 8 0 01-.63 2.45c-1 1.8-2 3.55-3.16 5.26A4.87 4.87 0 0154 29.86a2.34 2.34 0 01-1-2.13c0-.9-.1-1.8-.12-2.7s0-1.8 0-2.69.09-1.53.07-2.28c0-1-.22-2-.22-3s.2-2 .24-3c.08-2.08.15-2.18 2.29-2.37.28 0 .57 0 .85-.05a7.39 7.39 0 001.26-.24 1.45 1.45 0 00.93-1.71c-.14-.66-.48-.82-1.42-.76s-1.71.08-2.56.1a.93.93 0 01-1-1.06c0-.86.06-1.71.1-2.57.17-4.48-3.35-5.6-6.55-5.4-.65 0-.95.45-1 1.17 0 2.37 0 4.74-.12 7.11 0 1.12-.09 1.17-1.19 1.4s-2.05.37-3.08.57a1.22 1.22 0 00-1.14 1.51c.06.75.3 1 1.25 1a21.67 21.67 0 002.41-.11c1.2-.11 1.48.08 1.45 1.29s-.21 2.46-.23 3.69v6a3.51 3.51 0 01-.33 1.65A22.14 22.14 0 0143 28c-.24.3-.84.68-1 .58a2.55 2.55 0 01-.7-1.1 1.2 1.2 0 010-.57c0-2.28.12-4.56.17-6.84a4.67 4.67 0 00-.07-1c-.72-3.45-3.19-4.21-6.19-4.17-.72 0-1.07.52-1.09 1.26 0 .49-.08 1-.13 1.52-3.88-.06-7 1.2-9.26 4.65 0-1.73.07-3.11 0-4.48-.21-3.33.56-6.63 0-10a3.76 3.76 0 00-2.55-3.28 7.49 7.49 0 00-8.26 2.33 14 14 0 00-1.79 2.74c-.88 1.89-1.62 3.85-2.4 5.79-.3.73-.57 1.48-.85 2.23a4.14 4.14 0 01-.18-1.54c.1-1.76.21-3.51.31-5.27 0-.23.07-.47.08-.71a40.89 40.89 0 00.14-4.69 4.26 4.26 0 00-3.55-4.07 26 26 0 00-3.41-.27c-1 0-1.14.28-1.13 1.33 0 2 0 4-.14 6s-.59 4.07-.56 6.1c0 3.9-.62 7.76-.39 11.67A27.5 27.5 0 001 32.52a9.38 9.38 0 001 2.16A2.77 2.77 0 004.46 36a5.79 5.79 0 005.33-4.22c.3-1.58.51-3.18.74-4.78.45-3.06.78-6.13 1.36-9.16a48 48 0 011.77-6.16A11.55 11.55 0 0115.11 9c.37-.54 1-1.07 1.68-.75a1.88 1.88 0 01.69 1.43 46 46 0 01-.13 6 83.69 83.69 0 00-.65 10.37 12.69 12.69 0 001.16 5.41 2.73 2.73 0 002 1.84 6 6 0 005.34-1.78 1.53 1.53 0 00.3-1.82 14.84 14.84 0 01-.5-2.45c2.81 2.28 5.43 1.67 8.1.19.1 1 .12 1.93.29 2.8.64 3.19 2.66 4.38 5.76 3.44a9 9 0 004.34-2.62c.62-.69 1.32-1.3 2.17-2.13.18 1.14.3 2 .45 2.81A3.74 3.74 0 0050 35.12a6.89 6.89 0 003.37-1 17.3 17.3 0 005.05-5c.43-.66.9-1.28 1.45-2 .51 2.18 1.52 3.78 3.62 4.2s3.68-.52 5.24-2c.09.48.14.69.17.91s0 .58.06.86c.43 3 2.64 4.56 5.61 3.87a7.48 7.48 0 003.9-2.24 18 18 0 004.16-7.39 6.32 6.32 0 01.34-.81 53.47 53.47 0 01-.44 5.48 17.85 17.85 0 00.12 6.1c.69 2.86 3.27 4 6 2.88a10 10 0 004.28-3.66c.67-1 1.28-2 1.82-2.79a28 28 0 003.57.84c2.2.2 4-.87 5.86-1.93a24.5 24.5 0 005.82-5.35 35.46 35.46 0 002.9-4.39 1 1 0 00-.25-1.5zm-10.79 1.85a1.54 1.54 0 01.8-.75 1.5 1.5 0 011.16.15c.19.14.21.73.09 1a3.11 3.11 0 01-2.91 1.97c.34-.97.54-1.69.86-2.37zm-68.42.37a18.25 18.25 0 01-2.5 2.06.64.64 0 01-1-.7 3.16 3.16 0 01.82-1.72 3.37 3.37 0 012.93-.73c-.08.42-.04.89-.25 1.09zM201 21.73a3 3 0 00-1-.79c-2.6-1.36-5.31-2.09-8.25-1.27a1 1 0 01-1.4-.59c-.9-1.83-2-3.59-1.56-5.8.15-.79-.38-1.15-1.15-.86a9.15 9.15 0 00-2.18 1.05c-1.92 1.39-3.23 3.11-2.63 5.69.06.23 0 .47.09.71a2.38 2.38 0 01-.52 2 35.94 35.94 0 01-5.53 6 11.38 11.38 0 01-2.8 1.66c-.75.35-1.14.08-1.38-.71 0-.13-.06-.28-.09-.42-.24-1.19-.17-1.24 1-1.52a13 13 0 002.29-.74c1.94-.86 2.6-2.58 2.74-4.5a2.79 2.79 0 00-1.83-2.95 7 7 0 00-2.46-.63 8.37 8.37 0 00-8.16 5.36c-.54 1.51-.65 3.24-2 4.38a15.64 15.64 0 01-4.89 5.67 3.76 3.76 0 01-.86.39 2.36 2.36 0 01-.6-1.91c0-1.67.07-3.34 0-5a6.2 6.2 0 011.28-4.11 9.52 9.52 0 001.55-3.47 13.38 13.38 0 00-1.31-9.8 7.35 7.35 0 00-4.72-3.62 2.29 2.29 0 00-2.91 1.61 30.52 30.52 0 00-.64 4.07c-.12 1-.12 2.08-.19 3.12-.17 2.8-.35 5.6-.51 8.4v2.57a1.47 1.47 0 01-.69 1.29c-1.22.9-2.37 1.9-3.54 2.87-.43.35-.85.72-1.36 1.15a2.9 2.9 0 01-.64-2.21c0-2.34.06-4.67 0-7a4.18 4.18 0 00-3.27-4.33 10.35 10.35 0 00-2.95-.31c-.9 0-1.1.29-1.22 1.24-.05.46-.11.92-.15 1.27-.19.11-.23.15-.28.15l-1 .05c-3.45.17-6.15 1.58-7.64 4.82s.57 6.41 4.24 6.19a5.76 5.76 0 001.54-.3c.83-.29 1.64-.66 2.62-1.06a7.36 7.36 0 00.47 4.09 3.19 3.19 0 002.93 2.34 5 5 0 002.26-.09 28.54 28.54 0 004.81-2.43 37.4 37.4 0 003.86-3.45c.11 1.17.23 2.19.28 3.22a11.77 11.77 0 001.45 5.32 2.15 2.15 0 002.17 1.33 7.69 7.69 0 004.44-1.76c1.11-1 2.21-2.09 3.22-3.21s1.84-2.29 2.77-3.43c.22-.27.49-.49.8-.8.31.46.53.76.72 1.09a4.25 4.25 0 003.2 2.14 6.53 6.53 0 003.22-.31c3.8-1.3 6.56-4 9.1-6.91.89-1 1.66-2.16 2.49-3.25 1.53 1.44 1.46 1.43.94 3.08-.88 2.82-1.22 5.58.2 8.45 1.58 3.21 6.67 4.9 10.3 2.64a4.5 4.5 0 002.4-4.26 8.58 8.58 0 00-1.29-4.19q-1.78-2.75-3.56-5.51c-.27-.42-.47-.88-.81-1.52a16.26 16.26 0 011.66-.39 10.38 10.38 0 015.76 1.35c.4.2.79.42 1.15 0a1 1 0 00.02-1.35zm-26.82.17a1 1 0 011.41-.17c.47.36.35.84.16 1.3a2.41 2.41 0 01-2.59 1.52 3.31 3.31 0 011.04-2.65zm-15.77-6.41a5.88 5.88 0 010 3.33h-.31c.11-1.13.22-2.23.33-3.33zM136 25a10.42 10.42 0 01-2.13 1.6c-.72.4-1.12.07-1.17-.8a1.75 1.75 0 01.9-1.8 4.89 4.89 0 012.46-.7A1.24 1.24 0 01136 25zm54.08 9.7c-.58.23-1-.15-1.36-.53-1.29-1.28-1.66-3.42-.82-5.87 1.33 1.64 2.47 3.11 2.72 5.06.08.47.08 1.05-.53 1.3z"/><path d="M126.21 16.13a2.71 2.71 0 012.79-2.44 4.87 4.87 0 004.78-3.69 7 7 0 00.37-3c-.12-1.32-.32-1.49-1.66-1.59-3.93-.29-7.86-.53-11.78-1a25.23 25.23 0 00-6.67.17 4 4 0 00-3.6 3.93 6.33 6.33 0 001.84 4.37c.74.76 1.08.83 2 .32 1.38-.76 2.73-.48 4.16-.14v.76l-.7 10.8c-.06 1-.22 2-.2 3 0 1.56.08 3.13.25 4.69a20.91 20.91 0 00.78 4.33c.45 1.34 1.24 2.65 2.92 2.78a6.84 6.84 0 004.8-1.86 1.09 1.09 0 00.41-1.4c-1.18-2.13-1.22-4.44-1.19-6.79v-7.85a42.23 42.23 0 01.7-5.39z"/></svg>