<svg xmlns="http://www.w3.org/2000/svg" viewBox="0 0 85.4 10"><path d="M84.4 0c-3.9 0-5.9 2.3-7.7 4.3C75 6.3 73.5 8 70.5 8S66 6.3 64.3 4.3c-1.7-2-3.7-4.3-7.7-4.3-3.9 0-5.9 2.3-7.7 4.3-1.7 2-3.2 3.7-6.2 3.7s-4.5-1.7-6.2-3.7c-1.8-2-3.8-4.3-7.7-4.3s-5.9 2.3-7.7 4.3c-1.7 2-3.2 3.7-6.2 3.7s-4.5-1.7-6.2-3.7C6.9 2.3 4.9 0 1 0 .4 0 0 .4 0 1s.4 1 1 1c3 0 4.5 1.7 6.2 3.7C9 7.7 11 10 14.9 10s5.9-2.3 7.7-4.3c1.7-2 3.2-3.7 6.2-3.7s4.5 1.7 6.2 3.7c1.8 2 3.8 4.3 7.7 4.3s5.9-2.3 7.7-4.3c1.7-2 3.2-3.7 6.2-3.7s4.5 1.7 6.2 3.7c1.8 2 3.8 4.3 7.7 4.3 3.9 0 5.9-2.3 7.7-4.3 1.7-2 3.2-3.7 6.2-3.7.6 0 1-.4 1-1s-.4-1-1-1z"/></svg>