<svg xmlns="http://www.w3.org/2000/svg" width="315.65" height="320" viewBox="0 0 315.65 320">
  <title>logotype-dark</title>
  <g>
    <path d="M272.4,271.77l.19,1c-.08.09-.15.22-.2.21a2.85,2.85,0,0,0-2.52,1.53,33.69,33.69,0,0,1-6.3,5.93c-.33.27-.56.65-.88.93a4.24,4.24,0,0,1-1.3,1.08,8.28,8.28,0,0,0-3.31,2.59,4,4,0,0,1-1,.82c-1.52.8-2.69,2.1-4.11,3-2.12,1.35-3.61,3.57-6.12,4.36a9,9,0,0,1-3.61,2.29c-.61.21-1,.93-1.58,1.37a6.37,6.37,0,0,1-1.18.71c-.67.33-1.37.62-2,1a11.45,11.45,0,0,0-1.24.68,6,6,0,0,0-1.49,1,2.87,2.87,0,0,1-2.08,1.06,2.54,2.54,0,0,0-1.42.5,11.83,11.83,0,0,1-4.39,2.28,12.88,12.88,0,0,0-3.7,1.77,6.38,6.38,0,0,1-2.17,1,8.19,8.19,0,0,0-3.16,1.52,4.3,4.3,0,0,1-2.05.88,10.85,10.85,0,0,0-4.62,1.66,1.73,1.73,0,0,1-.78.32,26.55,26.55,0,0,0-5.43,1.64c-1.49.51-3.18.38-4.51,1.42a4.8,4.8,0,0,0-3.22.87,3.36,3.36,0,0,1-1,.15,11,11,0,0,0-2.09.4c-1.28.49-2.76.3-3.91,1.21a.63.63,0,0,1-.41.06,16.54,16.54,0,0,0-6.68,1.07,4,4,0,0,1-1,.11,3.24,3.24,0,0,0-1,0c-2.07.86-4.34.29-6.46.91a11.84,11.84,0,0,1-2.68.2,45.32,45.32,0,0,1-5.81.2c-1.64-.14-3.22.11-4.83.09a7.27,7.27,0,0,0-2,.18c-.9.24-1.75.5-2.55-.21a.43.43,0,0,0-.27-.08h-5.39a5.53,5.53,0,0,1-1.83-.09,6.77,6.77,0,0,0-3.8-.25,13.21,13.21,0,0,1-4.65-.4c-1.87-.29-3.75-.55-5.62-.82a13.65,13.65,0,0,1-1.93-.33,12.49,12.49,0,0,0-4.61-.78,5.85,5.85,0,0,1-1.39-.26c-.65-.13-1.31-.21-1.94-.4a14.33,14.33,0,0,0-2.78-1,6.14,6.14,0,0,1-2.75-.45,1.78,1.78,0,0,0-.53-.23c-2.21-.51-4.44-1-6.65-1.51a10.46,10.46,0,0,1-1.75-.55,19.41,19.41,0,0,1-2.44-1.15c-1.36-.8-3-.59-4.36-1.2a5.63,5.63,0,0,1-1.18-.49,6.1,6.1,0,0,0-2.58-1.13A17.33,17.33,0,0,1,97,306.33a6.55,6.55,0,0,0-1.58-.64c-.72-.16-1.39-.31-1.75-1.05a.68.68,0,0,0-.32-.28c-1.21-.5-2.44-1-3.64-1.5-.56-.24-1.06-.64-1.62-.86a44.89,44.89,0,0,1-5.41-2.84,6,6,0,0,0-2-.29l.11-.82c-2.16-1.38-4.25-2.69-6.31-4-.59-.38-1.13-.85-1.7-1.27a5.61,5.61,0,0,0-1.18-.78,2.88,2.88,0,0,1-1.74-1.14s-.07-.09-.1-.09c-1.55-.27-2.3-1.8-3.7-2.32a1.29,1.29,0,0,1-.7-.46c-.61-1.11-1.78-1.53-2.7-2.25s-1.48-1.34-2.31-1.89a24.44,24.44,0,0,1-5.73-5.29,3.74,3.74,0,0,0-1.18-1A13.29,13.29,0,0,1,50,274.35c-.28-.3-.65-.54-.94-.83-1.06-1-1.89-2.34-3.23-3.1-.64-1.62-2.38-2.26-3.3-3.65-.16-.23-.56-.39-.57-.61-.08-1.16-1-1.63-1.69-2.34a5.89,5.89,0,0,1-.84-1.14,7.33,7.33,0,0,0-1.52-1.82,13,13,0,0,1-2.74-3.54,7.59,7.59,0,0,0-2.22-2.71,5.51,5.51,0,0,1-1.87-2.43,17.53,17.53,0,0,0-1.83-3c-.67-1-1.4-2-2.05-3-.88-1.4-1.71-2.84-2.57-4.26-.22-.37-.51-.69-.71-1.06-.39-.7-.74-1.42-1.09-2.14a7.78,7.78,0,0,0-.51-1.18,29.1,29.1,0,0,1-2.67-5.32,16,16,0,0,0-1.87-3A3.05,3.05,0,0,1,17,227.2a1.55,1.55,0,0,0-.24-.95c-1.47-1.58-1.56-3.83-2.82-5.56-.78-1.08-.87-2.67-1.28-4-.12-.4-.27-.79-.4-1.19a20.12,20.12,0,0,1-1-3,5,5,0,0,0-.93-2.34,5,5,0,0,1-.93-2.76,20.5,20.5,0,0,0-1.08-3.81c-.32-1-.67-2.07-1-3.11-.19-.64-.34-1.28-.49-1.93a2.85,2.85,0,0,1-.16-1.11,7,7,0,0,0-1-4.62,3.35,3.35,0,0,1-.33-1.21c-.13-1-.16-2.07-.31-3.1a7.24,7.24,0,0,0-.5-1.44c-.09-.22-.32-.45-.28-.64.22-1-.3-1.94-.48-2.91a2.17,2.17,0,0,1,0-1c.5-1.8,0-3.45-.51-5.16a21,21,0,0,1-.41-3.66c0-.28.13-.59.05-.85-.75-2.41-.08-4.92-.56-7.37a7.26,7.26,0,0,1,.29-2.67,3.75,3.75,0,0,0-.12-2.36,4.37,4.37,0,0,1-.23-1.81c.05-1.23.19-2.46.29-3.69a1.54,1.54,0,0,0,0-.71c-.65-1.54-.1-3,.38-4.41a3.94,3.94,0,0,0,.16-1c.11-1.89.17-3.79.32-5.68.17-2.27.37-4.53.64-6.79.14-1.18.49-2.32.69-3.49.11-.65.12-1.31.17-2,0-.47.09-.93.15-1.39a10.23,10.23,0,0,1,.16-1.11,4.37,4.37,0,0,1,.37-1.32,5.26,5.26,0,0,0,.94-3.5.87.87,0,0,1,0-.56c1-1.43.66-3.21,1.31-4.73a5,5,0,0,0,.31-1.09,11,11,0,0,1,1.29-4.35,1.73,1.73,0,0,0,.22-.82c.17-2.34,1.37-4.32,2.29-6.4a13,13,0,0,0,1.17-3.64c.17-1.28.25-2.68,1.51-3.57.25-.18.31-.67.42-1a9.77,9.77,0,0,1,1.4-3.41,2,2,0,0,0,.45-1.31A3.3,3.3,0,0,1,18,90.24a4.22,4.22,0,0,0,.9-1.55A3.57,3.57,0,0,1,20,86.63,1.82,1.82,0,0,0,20.76,85a2,2,0,0,1,.52-1.41c1.26-1.13,1.64-2.75,2.47-4.12.66-1.09.95-2.39,2.21-3a1.38,1.38,0,0,0,.53-.82c.48-1.88,1.87-3.16,2.92-4.67,1.35-2,2.55-4,3.83-6a32.56,32.56,0,0,1,2-2.91C36.1,61,37.08,60,38,59c.29-.31.53-.67.79-1l2.89-3.65a2.11,2.11,0,0,0,.36-.44,4.71,4.71,0,0,1,2.44-2.47,4.68,4.68,0,0,0,1.11-1.07c.23-.24.38-.59.64-.75A3.15,3.15,0,0,0,48,47.29c0-.26.39-.52.66-.7a12.49,12.49,0,0,0,3.88-3.71,5,5,0,0,1,1.3-1.05c.64-.47,1.3-.92,1.92-1.41s1.46-1.18,2.18-1.78a2.92,2.92,0,0,0,.76-.81,6.44,6.44,0,0,1,3.07-2.67,4.63,4.63,0,0,0,2.41-1.92.44.44,0,0,1,.08-.11l3.69-2.81c.57-.43,1.16-.82,1.72-1.26a20.21,20.21,0,0,1,4.69-2.94,2.35,2.35,0,0,0,.87-.73,2.32,2.32,0,0,1,1.61-1.07.83.83,0,0,0,.51-.23,7.29,7.29,0,0,1,3.43-1.93A4.27,4.27,0,0,0,82.2,21a3.35,3.35,0,0,1,2.09-1.08,4.46,4.46,0,0,0,1.62-.77c.65-.38,1.26-.82,1.9-1.22,1.12-.7,2.24-1.41,3.38-2.06a7.29,7.29,0,0,1,2-1c1.5-.31,2.67-1.54,4.29-1.48a.74.74,0,0,0,.41-.11c2.45-1.44,5.39-1.78,7.76-3.43A4.85,4.85,0,0,1,107,9.46c1.22-.4,2.43-.83,3.66-1.17a37.16,37.16,0,0,1,5.58-1.63,2.76,2.76,0,0,0,1.31-.5,5.3,5.3,0,0,1,3.64-1,6.7,6.7,0,0,0,4.19-1,4,4,0,0,1,2.16-.55,9.74,9.74,0,0,0,3.61-.7,8.38,8.38,0,0,1,2.34-.46c1.51-.12,3,.16,4.51-.48a10,10,0,0,1,2.49-.33c2.4-.3,4.79-.61,7.2-.9a11.2,11.2,0,0,1,1.42,0c.29,0,.66.14.84,0a2.8,2.8,0,0,1,2.95-.11c.3.12.72-.13,1.09-.19a8.16,8.16,0,0,1,1.82-.22,4,4,0,0,0,2.23-.11.83.83,0,0,1,.69,0c.87.63,1.83.31,2.76.33q4.78.12,9.55.27a7.34,7.34,0,0,1,1.11.24c.23,0,.51.22.68.14C174.06.5,175.29.84,176.5,1a26.76,26.76,0,0,1,2.64.52c.32.07.62.24,1,.29a42.85,42.85,0,0,0,4.91.65c1.68.05,3.2.71,4.82.9,1,.12,2.07.24,3.08.45.83.16,1.61.52,2.44.68s1.88.23,2.82.35c.32,0,.74,0,1,.17,1.19,1,2.71,1,4.1,1.44.77.22,1.51.56,2.28.8,2,.64,4.09,1.22,6.1,1.91,1.43.49,2.82,1.12,4.22,1.71s2.93,1.35,4.44,1.91a27.72,27.72,0,0,0,3,.79c.27.07.64.09.79.27,1,1.25,2.55,1.37,3.84,2,.17.08.4.11.51.24A6.65,6.65,0,0,0,232,18c.39.1.7.48,1.08.65a20.79,20.79,0,0,1,4.35,2.58,10.07,10.07,0,0,0,2.35,1,4.71,4.71,0,0,1,2.18,1.54,2.69,2.69,0,0,0,1.21.7,8.41,8.41,0,0,1,4.31,3.13,1.74,1.74,0,0,0,1.08.56,5.28,5.28,0,0,1,2.47,1.3c1.86,1.52,3.84,2.9,5.76,4.35.72.54,1.43,1.1,2.12,1.68,1.11.94,2.24,1.87,3.31,2.86,1.22,1.12,2.36,2.33,3.58,3.45.94.86,1.94,1.65,2.92,2.46.15.12.38.17.47.32,1.24,1.82,3.3,2.81,4.59,4.58a8.64,8.64,0,0,1,.57,1,3.49,3.49,0,0,0,.4.74,66.62,66.62,0,0,1,4.9,4.9c1,1.22,2.49,2.11,2.91,3.79,1.46,1.35,2,3.47,3.84,4.53a1.55,1.55,0,0,1,.45.53c1.16,1.86,2.33,3.69,3.44,5.57,1.32,2.27,2.9,4.38,4.19,6.67a.42.42,0,0,0,.07.13,8.56,8.56,0,0,1,2.55,4.28c.24,1.11,1.29,2,1.85,3.1.47.91.8,1.88,1.34,2.78a31.23,31.23,0,0,1,1.61,3.58c.09.22.14.51.3.63,1,.73,1.1,1.84,1.5,2.85.49,1.28,1.19,2.48,1.74,3.74a12.72,12.72,0,0,1,1.15,3.19,16.93,16.93,0,0,0,1.57,4.25c.27.65.35,1.37.6,2a18.74,18.74,0,0,0,1.25,2.82,2,2,0,0,1,.45,1.69,2.23,2.23,0,0,0,.13,1.21c.56,1.76,1.2,3.5,1.72,5.28.28,1,.28,2,.54,2.92.57,2.14,1.25,4.25,1.84,6.38a18.21,18.21,0,0,1,.32,1.82c.13.74.27,1.48.4,2.22.07.42.13.84.16,1.27a4.68,4.68,0,0,0,.07,1.13c.57,1.56.3,3.19.53,4.78a3.06,3.06,0,0,0,.22,1,8.22,8.22,0,0,1,.5,5.17,6.72,6.72,0,0,0,.16,3c.19.64.33,1.29.52,1.93a5.54,5.54,0,0,1,0,3.37,3.19,3.19,0,0,0,.08,2.37c.08.17.2.4.15.54-.66,1.74.51,3.48-.1,5.3a17.62,17.62,0,0,0-.35,4.21.66.66,0,0,0,0,.14c1,2.11-.34,4.13-.27,6.2a8.42,8.42,0,0,1-.06,1.81c-.25,1.42.31,2.91-.43,4.3a3.15,3.15,0,0,0-.18,1.65,6.88,6.88,0,0,1-.26,2.81,7.13,7.13,0,0,0-.47,2.79,20.49,20.49,0,0,1-.37,4.23,9.71,9.71,0,0,1-.68,1.86c-.25.75-.51,1.51-.69,2.29-.25,1.11-.43,2.24-.63,3.36s-.35,2.05-.57,3.07a3.13,3.13,0,0,1-.48,1.32,2.73,2.73,0,0,0-.5,2.55,2,2,0,0,1-.49,2.12c-1.24,1.15-1.37,2.68-1.58,4.17a7.86,7.86,0,0,1-.84,2.53,17.58,17.58,0,0,0-1.07,3.53,5.48,5.48,0,0,1-.87,2.07,10.75,10.75,0,0,0-1,2.06c-1.21,2.69-2.45,5.36-3.64,8.06-.61,1.37-1.18,2.76-1.72,4.17a3.94,3.94,0,0,1-1.26,2.18,1.1,1.1,0,0,0-.34.45c-.83,1.65-1.69,3.28-2.44,5a10.05,10.05,0,0,1-1.83,3,10.22,10.22,0,0,0-2.61,4,2.81,2.81,0,0,1-.47.69L290.31,250c-.21.31-.41.63-.64.93s-.46.34-.46.52c-.08,1.81-1.69,2.58-2.65,3.74a22.48,22.48,0,0,0-2.77,3.74,3.75,3.75,0,0,1-.69.69c-.23.23-.58.44-.65.71-.43,1.74-1.89,2.69-2.93,3.95-.82,1-1.59,2-2.45,2.94-.61.66-1.37,1.17-2,1.8-.44.42-.77.95-1.18,1.39S273,271.21,272.4,271.77Zm-61.93-42.83c.49.13.91,0,1-.51a1.65,1.65,0,0,0-.2-1c-.54-.87-1.2-1.69-1.73-2.57a1,1,0,0,1,.07-1.36c1.34.5,1.34,2.22,2.57,3,.21-.41.38-.73.53-1.07a20.41,20.41,0,0,1,1.42-3.11,5.77,5.77,0,0,0,.76-4.23,14.32,14.32,0,0,1-.19-1.85,1.39,1.39,0,0,0-1.06-1.49c-1.59-.45-3.18-.94-4.79-1.34a2.23,2.23,0,0,0-2.1.64c-.88.79-1.8,1.55-2.67,2.36a3.87,3.87,0,0,1-2.93,1.25,4.75,4.75,0,0,0-1,.1c-2.08.32-2.38.86-1.58,2.81.05.13.13.25.19.38a30.16,30.16,0,0,1,1.77,4.2c.47,1.73,2,2.22,3,3.29l.31-.19-.89-2.45.28-.15a6,6,0,0,1,.8.7,10.48,10.48,0,0,1,1.25,1.74c.57,1.11,1.94,1.88,1.52,3.44,0,.13.16.33.27.49.56.77,1.1,1.55,1.68,2.31a4.4,4.4,0,0,0,.67.62c1-1.25.13-2.29-.24-3.49l1.43.11-.25-2.48Zm23.92,20c-.41-.9-.76-1.83-1.23-2.7-1.61-3-3.26-5.91-4.89-8.87a23.17,23.17,0,0,1-1.74-3.25c-.59-1.7-.87-3.5-1.39-5.22a16.11,16.11,0,0,0-1.31-3.15c-.67-1.21-1.13-1.27-2-.22a44.81,44.81,0,0,0-3.38,4.41c-1.66,2.49-3,5.17-5.35,7.17a17.92,17.92,0,0,0-2.05,2.5c.62.34,1.09.54,1.51.83a5.59,5.59,0,0,1,1.52,1.22c1.56,2.22,3.09,4.46,4.5,6.78a8.41,8.41,0,0,0,2.5,2.86c3.88,2.54,6.6,6.12,9,10,1.31,2.16,2.48,4.4,3.8,6.55a12.4,12.4,0,0,1,1.68,4.21c.21,1.07.49,2.13.71,3.2a7.07,7.07,0,0,1,0,1.17c-.55-.45-.88-.7-1.17-1-2.33-2.25-4.67-4.48-7-6.77a3.82,3.82,0,0,1-.81-1.62,29.23,29.23,0,0,1-.95-4.32,5,5,0,0,0-2.64-3.8,25.23,25.23,0,0,1-4.14-3,81.79,81.79,0,0,1-12.07-13.86,9.23,9.23,0,0,1-1.45-3.36,6.48,6.48,0,0,0-.85-2.53,8,8,0,0,0-4-3.44c-2.29-.76-3.89-2.78-5.74-4.31a1.24,1.24,0,0,1-.18-.22,30.37,30.37,0,0,1-3.73-6.21,9.56,9.56,0,0,1-.53-1.9c-.5-2.56-.94-5.12-1.49-7.67-.25-1.14-.7-2.23-1-3.35a10.3,10.3,0,0,1-.6-2.32c-.11-2-1.35-3.09-2.82-4a2.06,2.06,0,0,0-2.17.24c-.62.34-.36,1-.18,1.55a40.83,40.83,0,0,0,2,5.45c.48.93.82,1.88,1.22,2.83s.37,1.8.72,2.53a8,8,0,0,1,.4,3.47c.07,2.39-.21,4.75.65,7.16.76,2.12,1.89,4,2.82,6a46.2,46.2,0,0,0,3.28,5.16,3,3,0,0,1,.36.77,8.53,8.53,0,0,0,3.11,3.78c1.5,1.17,3.11,2.2,4.68,3.27.62.43,1.27.81,1.88,1.24.93.65,1.86,1.3,2.72,2a1.08,1.08,0,0,1,.25,1,1.1,1.1,0,0,1-.87.57,4.08,4.08,0,0,1-1.43-.5c-1.87-.9-3.72-1.82-5.59-2.73-.6-.29-1.21-.55-1.82-.81a16.94,16.94,0,0,0-3.56-1.39,4.82,4.82,0,0,1-3.34-2.17,52.78,52.78,0,0,1-4.46-8.73,26.85,26.85,0,0,0-1.8-3.23,2.7,2.7,0,0,0-1.13-.81,11.25,11.25,0,0,0-5.47-.11,7.37,7.37,0,0,0-2.11,1.13,12.93,12.93,0,0,0-2.93,4,5.42,5.42,0,0,1-.84,1.31,1,1,0,0,1-1.41.17,1.43,1.43,0,0,1-.23-1.12,7.36,7.36,0,0,1,.52-1.47c.23-.62.45-1.25.69-1.86s.57-1.4.87-2.1.63-1.38,1-2.07c.85-1.85,1.55-3.79,2.58-5.55,1.2-2.07,2.38-4.11,2.52-6.56a16.36,16.36,0,0,0,0-2,31.65,31.65,0,0,1-.36-4c.16-2.86-1-5.17-2.61-7.37a1.64,1.64,0,0,0-1.3-.7,2.16,2.16,0,0,0-2.28,1.3c-.68,1.11-.67,2.36-1,3.53a14.14,14.14,0,0,0-.84,5.43,5.56,5.56,0,0,1-.18,1.27c-.12,1-.2,2-.36,3a22.82,22.82,0,0,0,0,5.54c.19,2.08.38,4.16.54,6.24a1.58,1.58,0,0,1-.18,1.05,1.92,1.92,0,0,1-2.75,0,10.87,10.87,0,0,1-2.73-6.59c-.28-2.35-.27-4.73-.35-7.1,0-.61.15-1.23.15-1.84a18.15,18.15,0,0,0-.15-1.81c-.07-.75-.17-1.5-.21-2.24,0-.42.12-.85.12-1.28a18.69,18.69,0,0,0-1.72-6.72,1.35,1.35,0,0,0-1.82-.92,3.46,3.46,0,0,0-2.2,1.47,24.87,24.87,0,0,0-1.27,2.39q-2,4-3.9,8a14.78,14.78,0,0,0-1,2.36c-.61,2.1-1.16,4.22-1.67,6.34-.39,1.61-.69,3.23-1.06,4.85a9.73,9.73,0,0,0-.52,1.61A13.69,13.69,0,0,1,147,232.2c-.8,1.71-1.64,3.42-2.55,5.08-.68,1.25-1.49,2.42-2.28,3.61-1.07,1.62-2.15,3.24-3.29,4.81a4.16,4.16,0,0,1-1.39,1.17,1.29,1.29,0,0,1-1.15,0,1.39,1.39,0,0,1-.36-1.14c.21-1,.56-2,.86-3,.63-2.13,1.93-4,2.31-6.23.2-1.22.6-2.41.7-3.63a11.16,11.16,0,0,1,.78-3.75,5.77,5.77,0,0,0,.35-1.23c.56-2.68.71-5.45,1.58-8.07a1.76,1.76,0,0,0,.07-.85,5,5,0,0,1,.56-3.17,20.16,20.16,0,0,0,1.42-3.11,34,34,0,0,1,2.94-6.78,29.08,29.08,0,0,0,1.56-4,2.17,2.17,0,0,0,0-1.38,1.57,1.57,0,0,0-2.58-.55c-.74.67-1.34,1.48-2.07,2.15-1.08,1-2.22,1.91-3.33,2.87a11.7,11.7,0,0,0-1.44,1.37c-1.23,1.55-2.71,3-2.8,5.13,0,.22-.24.42-.31.64-.41,1.36-.84,2.71-1.21,4.08a14.44,14.44,0,0,0-.32,2c-.18,1.7-.43,3.39-.5,5.1a23,23,0,0,1-.52,4.65,13.87,13.87,0,0,1-5.21,8.38.79.79,0,0,0-.22.19c-1.56,2-3.73,3.19-5.75,4.6a4.18,4.18,0,0,0-1.27,1.47c-1.2,2.43-2.3,4.91-3.49,7.35a5.32,5.32,0,0,1-1.24,1.69c-1.45,1.23-3,2.38-4.48,3.53-2.85,2.17-2.86,2.16-3.81,5.57,0,.14-.06.28-.11.42a47.18,47.18,0,0,1-2,5.8c-3.06,6.24-6.07,12.49-10,18.28-1.81,2.68-3.55,5.29-6.37,7-.28.17-.45.53-.8,1l1.85.81a13.18,13.18,0,0,1,2.06.92c2.09,1.4,4.69,1.85,6.61,3.55.1.09.27.1.4.16,1.65.73,3.29,1.47,4.94,2.18a2.19,2.19,0,0,0,1.09.28,3.56,3.56,0,0,1,2.16.58,25.76,25.76,0,0,0,5.5,2.26,16.22,16.22,0,0,0,3.4.82,2.36,2.36,0,0,1,1.16.51,6.09,6.09,0,0,0,3.23.89,13.36,13.36,0,0,1,4.28.92,13.1,13.1,0,0,0,5.47,1.35,8.73,8.73,0,0,1,1.8.32c1.85.38,3.7.79,5.56,1.13.55.1,1.26-.21,1.68,0,1.38.82,3,.53,4.39,1a6.18,6.18,0,0,0,1.82.28c2.45.14,4.91-.1,7.33.51a1.8,1.8,0,0,0,1.1-.19,3.45,3.45,0,0,1,2.37-.08,4.29,4.29,0,0,0,1.67.26,35.93,35.93,0,0,1,5.08-.34,34.06,34.06,0,0,0,8-.65,2.21,2.21,0,0,1,1,.09c.84.18,1.65.5,2.44-.19a.72.72,0,0,1,.67,0c.69.38,1.28,0,1.91-.15a8.68,8.68,0,0,1,1.67-.34,14.36,14.36,0,0,0,3.51-.29c2-.74,4.28-.56,6.11-1.84,1.61-.08,3.13-.7,4.69-.93a29.91,29.91,0,0,0,5-1.21,9.65,9.65,0,0,1,2.45-.72,10.08,10.08,0,0,0,2.19-.49c1.63-.48,3-1.55,4.72-1.88,2.45-.46,4.62-2,7.11-2.46a1.08,1.08,0,0,0,.51-.26c.95-.95,2.32-1,3.46-1.53a6.47,6.47,0,0,0,1.91-1.13c.29-.29.73-.66,1-.62a2.68,2.68,0,0,0,2.6-1.13,1.67,1.67,0,0,1,.49-.29l4-2a6.59,6.59,0,0,0-.64-.73c-3.46-3-7.23-5.42-11.77-6.41a9.22,9.22,0,0,0-2.39-.26,16.54,16.54,0,0,1-5.64-.58,8.73,8.73,0,0,1-6.4-9.38,41.05,41.05,0,0,0-.14-10.39c-.27-1.68-.68-3.35-1.1-5a3,3,0,0,0-1.56-2.12,8.74,8.74,0,0,0-4.05-1.17c-2.71,0-5.42-.1-8.13-.29a17.82,17.82,0,0,1-6.36-2,2,2,0,0,1-.69-.5c-1.27-1.47-2.74-2.79-3.5-4.66a11.2,11.2,0,0,0-.86-1.36,14.34,14.34,0,0,0-.81,1.43c-1.25,2.72-2.37,5.5-3.73,8.17-1.85,3.65-3.87,7.2-5.81,10.8-1.22,2.27-2.36,4.57-3.66,6.79a30.63,30.63,0,0,1-2.6,3.54,15.82,15.82,0,0,1-2,2,5,5,0,0,1-1.77,1.13,4.38,4.38,0,0,0-1.92,1.15,6.08,6.08,0,0,1-1.31,1.08c-1.71.87-2.86,2.38-4.12,3.69a130.42,130.42,0,0,0-10.18,11.35,2.32,2.32,0,0,1-1.36.84c.16-.47.25-.78.37-1.08,1.44-3.53,2.79-7.09,4.36-10.56s2.9-6.83,5.08-9.88a7.57,7.57,0,0,1,4.24-3.17,4.63,4.63,0,0,0,1-.6,2.62,2.62,0,0,0-.31-.38,108.19,108.19,0,0,1-10.38-7.55,4.07,4.07,0,0,1-1.16-1.4c-.72-1.86-1.3-3.77-2-5.64a25.65,25.65,0,0,0-1.28-3,1.83,1.83,0,0,0-1-.9,7.24,7.24,0,0,0-3.8.28,3.06,3.06,0,0,0-1.72,1.61,13,13,0,0,1-5.59,5,10.68,10.68,0,0,0-4.35,4q-4.83,6.9-9.69,13.77a6.46,6.46,0,0,1-1.33,1.28q-6.3,4.68-12.63,9.33a7.68,7.68,0,0,1-1.14.55c.31-.64.43-1,.62-1.28,1.75-2.6,3.58-5.16,5.24-7.82a8.48,8.48,0,0,1,3.29-3.06c3.42-1.81,2.77-1.23,3.44-4.8a7.29,7.29,0,0,1,1.46-3.64c.53-.61,1-1.27,1.48-1.93a39.91,39.91,0,0,1,8.76-8.93,32,32,0,0,0,7.24-6.59,4,4,0,0,1,3-1.76,29.5,29.5,0,0,1,4.7,0,8,8,0,0,1,4.14,1.77,12.38,12.38,0,0,1,3.38,4,42.57,42.57,0,0,0,5.4,7.51,21,21,0,0,1,3.49,4.66,15,15,0,0,0,.94,1.77c.41.67.87,1.3,1.34,2a7.8,7.8,0,0,1,1-.64,2.33,2.33,0,0,0,1.44-2.51c0-1.14.13-2.28.2-3.41a21.77,21.77,0,0,0,.17-3.41,5.18,5.18,0,0,1,.63-3c1.85-3.38,3.72-6.75,5.57-10.13,2.21-4,5.16-7.53,7.88-11.19a3.42,3.42,0,0,1,.85-.75,8.67,8.67,0,0,1,6.36-1.44,5.7,5.7,0,0,1,4.53,3c1,1.82,2.21,3.54,3.37,5.28a4.4,4.4,0,0,0,3.14,2.05c2.8.36,5.39,1.47,8.1,2.17a14.77,14.77,0,0,1,5.35,2.27,23.76,23.76,0,0,1,7.19,8.91A42.57,42.57,0,0,1,212.8,271c.27,1.35.64,2.68.91,4a1.6,1.6,0,0,0,1.51,1.46,13.88,13.88,0,0,1,3.94,1.09,12.78,12.78,0,0,1,6.31,4.42,34.51,34.51,0,0,1,4.46,7.28,7.13,7.13,0,0,0,1.62,2.92c.68-.49,1.24-1.17,1.91-1.31a8.87,8.87,0,0,0,3-1.46c2.25-1.47,4.72-2.62,6.58-4.64a2,2,0,0,1,.46-.34,42,42,0,0,0,3.94-2.22,35.65,35.65,0,0,1,3.67-2.81.81.81,0,0,0,.17-.23,4.61,4.61,0,0,1,2.73-2.37,1.21,1.21,0,0,0,.57-.41c1.46-1.76,3.68-2.69,5-4.62a1.76,1.76,0,0,1,.58-.4,18.87,18.87,0,0,0,5.05-4.91c-3.2-3.08-6.33-6.13-9.51-9.13a9.53,9.53,0,0,0-2.53-1.81c-1.56-.7-3.21-1.19-4.83-1.74-.51-.17-1-.24-1.83-.41,1,1.75,2.41,2.78,3.08,4.37a3.07,3.07,0,0,1-1.21-.66c-1.61-1.49-3.18-3-4.79-4.49a5.71,5.71,0,0,0-1.39-.95c-2.17-1-4.7-1-6.8-2.25a2,2,0,0,0-.7-.13ZM66.19,258.6c-.08-.74-.12-1.3-.21-1.85-.24-1.6-.47-3.2-.75-4.79a3,3,0,0,1,.35-2.19c1.52-2.48,2.93-5,4.55-7.42,1.3-1.93,2.82-3.71,4.27-5.53a9.88,9.88,0,0,0,2.48-5,43.62,43.62,0,0,1,1.26-6.48,40.48,40.48,0,0,1,1.11-4,6.93,6.93,0,0,1,1.53-2.51,13.38,13.38,0,0,1,10.76-3.94,2,2,0,0,0,1.11-.08.87.87,0,0,1,1,.09,12.38,12.38,0,0,0,1.22.39,20.73,20.73,0,0,1,3.35,1.53,18.19,18.19,0,0,1,5.7,6.1c.77,1.3,1.36,2.71,2,4.06a1.28,1.28,0,0,0,1.6.82c.78-.12.89-.7.81-1.28a4,4,0,0,1,1.32-3.45,9.43,9.43,0,0,1,1.39-1.43,9,9,0,0,0,3.73-5.68,6.08,6.08,0,0,1,3-3.63,6.38,6.38,0,0,1,7.43.82,8,8,0,0,1,2,3.1c.16.43.34.84.54,1.34.23-.2.37-.27.42-.38a2.24,2.24,0,0,0,.15-.69,40.06,40.06,0,0,1,1.21-7.29c.51-2.42,2.35-4,3.42-6,.07-.12.24-.17.33-.28.55-.64,1.09-1.29,1.64-1.94.27-.32.55-.64.81-1a5.55,5.55,0,0,0,.86-1.1,3.1,3.1,0,0,1,1.89-1.62,3.34,3.34,0,0,0,1.47-.81,12.93,12.93,0,0,0,1.89-3.14,27.46,27.46,0,0,0,.89-4.16c.44-2.2,1.17-2.71,3.38-2.41a15.88,15.88,0,0,0,1.69,0,14.22,14.22,0,0,0,4.4-1,29.79,29.79,0,0,0,8.77-4.33c.23-.17.51-.26.75-.41a12.6,12.6,0,0,0,2.59-1.7c1.68-1.77,3.81-2.83,5.83-4.07a4.27,4.27,0,0,1,1.65-.41,1.08,1.08,0,0,1,1.35,1,11,11,0,0,1,.1,1.42,21.88,21.88,0,0,0,.33,3.54c.32,1.31.71,2.73,2,3.5a8.56,8.56,0,0,0,5.81,1.52,1.53,1.53,0,0,1,1.61.7,11.73,11.73,0,0,1,1.5,2.57c.52,1.49,1.23,2.88,1.81,4.33a11.24,11.24,0,0,0,3.47,5,9,9,0,0,1,1.4,1.42c1,1.3,2.06,2.62,3,4A6.43,6.43,0,0,1,195,205c.25.61.46,1.24.69,1.85a9.18,9.18,0,0,1,.45,1.2c.4,1.75.75,3.52,1.14,5.27a5,5,0,0,0,.28.79c.76.07,1.47.18,2.18.2,1,0,1.12-.14,1.27-1.12a5.07,5.07,0,0,1,4.75-4.28,24.46,24.46,0,0,1,7.47,1,4.76,4.76,0,0,1,2.13,1.33,47.29,47.29,0,0,1,3.13,4.07c.72,1,.76,1.08,2,.78a10.48,10.48,0,0,1,7.86,1.12,30.12,30.12,0,0,1,3,1.75,13.75,13.75,0,0,1,2.68,2.29,30.94,30.94,0,0,1,3.22,4.52c2.85,5,5.58,10.07,8.38,15.1a4.88,4.88,0,0,0,1.18,1.57c1.92,1.49,3.9,2.9,5.87,4.31a71.09,71.09,0,0,1,8.4,6.6,16.68,16.68,0,0,0,2.26,1.73,27.71,27.71,0,0,0,3.28,2c1.55.74,2.83,2.19,4.66,1.83l.7.8a3.47,3.47,0,0,0,1.74-1.7,7.6,7.6,0,0,1,1.93-2.76c1.49-1.15,2.31-2.77,3.35-4.21.66-.9.91-2.08,2-2.65.18-.09.25-.39.39-.58.37-.54.76-1.08,1.14-1.62.28-.38.58-.75.82-1.15.78-1.35,1.24-2.89,2.46-4a2.09,2.09,0,0,0,.56-1,11.18,11.18,0,0,1,2.82-4.72c1-1.12,1.21-2.77,2.43-3.76.09-.08.09-.27.14-.4.31-.84.57-1.71.95-2.52s1-1.7,1.41-2.6c.68-1.57,1.22-3.2,1.9-4.77s1.38-2.9,2.08-4.35a3.48,3.48,0,0,0,.53-1.15c.08-2,1.05-3.62,1.6-5.42.67-2.17,1.59-4.26,2.38-6.4a5.92,5.92,0,0,0,.16-1.13,9.43,9.43,0,0,1,.4-2.8,5.51,5.51,0,0,0,.57-2.77,1.12,1.12,0,0,1,.33-.62,3.2,3.2,0,0,0,.68-2.41,11.88,11.88,0,0,1,.63-3.92c.26-1,.36-2.05.52-3.07.13-.75.19-1.51.39-2.23a12.5,12.5,0,0,0,.77-4.33,5.54,5.54,0,0,1,.1-1,12.82,12.82,0,0,0,.23-4.24,4.39,4.39,0,0,1,.37-1.79c.09-.36.38-.72.36-1.07-.1-2.11.57-4.24-.12-6.34a2.66,2.66,0,0,1,0-.84c0-.46,0-.92,0-1.37a4.86,4.86,0,0,1,0-1.26c.56-1.85.09-3.68,0-5.52-.09-2-.32-4-.41-6-.08-1.6.06-3.2-.07-4.79-.21-2.55-.57-5.1-.88-7.64,0-.28-.22-.53-.27-.81-.36-1.8-.69-3.6-1-5.4,0-.09,0-.19,0-.28-.05-.46-.08-.93-.17-1.39-.24-1.21-.59-2.4-.72-3.62-.08-.84.05-1.65-.73-2.31-.3-.26-.33-.86-.44-1.32-.19-.83-.29-1.69-.53-2.5-.52-1.82-1.12-3.61-1.66-5.42-.08-.27,0-.58-.06-.85-.16-.68-.34-1.35-.54-2s-.45-1.22-.64-1.84c-.13-.4-.16-.84-.29-1.24-.27-.81-.55-1.61-.88-2.39s-.7-1.34-1-2a16.22,16.22,0,0,1-.68-1.67A16,16,0,0,0,296,101c-1.06-1.74-2.26-3.37-2.6-5.45a3.41,3.41,0,0,0-.62-1.11,10.92,10.92,0,0,1-.59-1c-.65-1.46-1.25-2.93-1.91-4.38a10.11,10.11,0,0,0-.79-1.18c-.51-.85-1-1.71-1.5-2.57a3.85,3.85,0,0,0-.63-1.09,3,3,0,0,1-1.12-1.76,3,3,0,0,0-.46-.72,2.23,2.23,0,0,0-.56.28c-1.87,1.86-3.74,3.74-5.61,5.61a3.22,3.22,0,0,0-.34.46,24.6,24.6,0,0,1-1.64,2.47c-.92,1.09-2,2-2.94,3.1A29.87,29.87,0,0,0,272.8,96c-1.16,1.56-2.28,3.15-3.4,4.73-.25.35-.44.73-.66,1.1a20,20,0,0,1-3.18,4.71c-1.05,1-2.14,2-3.11,3.14a13.83,13.83,0,0,1-2.72,2.22,9.58,9.58,0,0,1-3.33,1.74,1.5,1.5,0,0,0-.47.3,12.34,12.34,0,0,1-4.41,2.51,5,5,0,0,0-1.8.85,5.41,5.41,0,0,1-3.34,1.07,6.11,6.11,0,0,0-2.85.77,9.63,9.63,0,0,1-2.29.68c-.5.11-1,.09-1.55.18a23.35,23.35,0,0,1-3.64.64,24.23,24.23,0,0,0-5.1.29,5.6,5.6,0,0,1-1.54-.19,9.86,9.86,0,0,0-1.53-.12c-2.57.08-5.17.56-7.68-.44a.53.53,0,0,0-.28,0,9.33,9.33,0,0,1-4.88-.35,17.83,17.83,0,0,0-3.21-.59,8.62,8.62,0,0,0-2.51-.39,17.42,17.42,0,0,1-5.1-.36,1.56,1.56,0,0,0-.94.07,2.49,2.49,0,0,1-1.94.2,6.6,6.6,0,0,0-5.58,1,24.32,24.32,0,0,1-3.85,1.71,4.82,4.82,0,0,0-2,1.66,14.49,14.49,0,0,1-1.93,2.07q-1.58,1.53-3.21,3c-.73.65-.66,1.68-1.15,2.38a8.49,8.49,0,0,0-1.11,3.84c-.27,1.78-.23,3.6-.36,5.4a8,8,0,0,1-.28,1.54.71.71,0,0,1-1,.56,7.48,7.48,0,0,0-3.79.16c-3.4.6-6.33,2.29-9.24,4a25.77,25.77,0,0,0-2.94,1.69,18.72,18.72,0,0,1-3.37,2.54,2.51,2.51,0,0,0-.89.91,6,6,0,0,1-2,1.72,7.77,7.77,0,0,0-3.1,2.43,4.1,4.1,0,0,1-3.23,1.85c-1.05.08-2.08.26-3.12.34-2.47.19-4-1-4.35-3.39a15.12,15.12,0,0,1-.06-2.13c0-.33.11-.71,0-1a3.66,3.66,0,0,1-.12-2.24,3.19,3.19,0,0,0,0-1.27c-.36-1.59.22-3.25-.45-4.84a5.08,5.08,0,0,1,0-2,8.64,8.64,0,0,0,.14-1.42c-.22-2.17-.31-4.38-1.68-6.25a1.63,1.63,0,0,1-.21-.53,7.73,7.73,0,0,0-1.5-2.72c-.62-.81-1.68-1.31-1.83-2.48,0-.17-.36-.28-.53-.45-.33-.32-.66-.65-1-1s-.73-.88-1.15-1.26a32.41,32.41,0,0,0-6.62-4.18,12.74,12.74,0,0,0-2.78-1.09c-1.32-.33-2.69-.49-4.05-.7a20.66,20.66,0,0,1-3-.39,4.26,4.26,0,0,0-2.35,0,26.06,26.06,0,0,1-3.62.61c-1.4.14-2.84,0-4.24.26s-2.51.85-3.85.26c-.11,0-.28,0-.42.06-2.15.11-4.19,1.13-6.41.84-.16,0-.34.16-.53.19a8.43,8.43,0,0,1-1.12.18c-2.11.19-4.27-.22-6.35.5a1.74,1.74,0,0,1-.56,0l-4.7-.22c-.47,0-.95,0-1.42-.1-2-.32-3.91-1.37-6-1.15a.25.25,0,0,1-.14,0,17,17,0,0,1-4.94-1.81,2.53,2.53,0,0,0-1.33-.4,4.52,4.52,0,0,1-2.25-.79c-1-.53-2-1-3.06-1.47a16.35,16.35,0,0,1-1.56-.92c-.35-.24-.66-.53-1-.77-1.36-.94-2.7-1.92-4.11-2.78a6.29,6.29,0,0,1-2.64-2.52,1.32,1.32,0,0,0-.55-.42,4.3,4.3,0,0,1-1.81-2,12,12,0,0,0-2.83-3.9,3.08,3.08,0,0,1-.64-.93c-.55-1-1-2.11-1.61-3.14s-1.24-1.87-1.75-2.86c-1.33-2.57-2.42-5.27-4.7-7.21a5,5,0,0,1-.54-.66,38.84,38.84,0,0,0-3-3.39,47.81,47.81,0,0,1-4.78-4.21c-.09-.11-.21-.25-.33-.26-.31,0-.78-.12-.9,0-.65.84-1.58,1.44-1.85,2.63-.36,1.59-1.67,2.84-1.81,4.55,0,.08-.09.17-.16.22a3.05,3.05,0,0,0-1,2,2.4,2.4,0,0,1-.41,1,14.56,14.56,0,0,0-1.83,3.52c-.68,1.38-1.33,2.77-2,4.15-.82,1.73-1,3.8-2.53,5.19,0,0,0,.08-.05.13-.29,1.43-1.1,2.69-1.25,4.17a3.3,3.3,0,0,1-.77,1.66,2.89,2.89,0,0,0-.66,2.11,8.94,8.94,0,0,1-1,3.67,29.11,29.11,0,0,0-1.43,3.54c-.55,2-.91,4-1.41,5.95-.19.78-.57,1.51-.77,2.29a5.75,5.75,0,0,0-.26,1.92,5.08,5.08,0,0,1-.38,2.64,6.18,6.18,0,0,0-.64,2c-.14,1.6-.12,3.22-.18,4.82a2.57,2.57,0,0,1-.19,1,6.35,6.35,0,0,0-.69,4,1.76,1.76,0,0,1-.13.83c-.67,2.13-.26,4.35-.53,6.51-.17,1.44,0,2.91-.13,4.36-.13,1.6-.57,3.18-.27,4.81a1.19,1.19,0,0,1-.13.69,6.51,6.51,0,0,0-.25,3.36c.1,1.47,1,2.93.1,4.44a.81.81,0,0,0,0,.55c.62,2.07.25,4.23.74,6.36.62,2.62.41,5.4,1,8.07a.76.76,0,0,1,0,.15,7.87,7.87,0,0,0,.59,3.48,5.8,5.8,0,0,1,.28,1.68,22.26,22.26,0,0,0,.86,5,14.22,14.22,0,0,1,1,5.71,1.7,1.7,0,0,0,.24.93A7,7,0,0,1,17,202.82a6.06,6.06,0,0,0,.26,1.1,13.08,13.08,0,0,1,.73,2.44,9.09,9.09,0,0,0,1.83,4.86,2.25,2.25,0,0,1,.36.92,12.52,12.52,0,0,0,1.29,4.28,43.72,43.72,0,0,1,2.31,5.65,1.77,1.77,0,0,0,.34.62,4.71,4.71,0,0,1,1.07,2.14,9,9,0,0,0,1.35,3.1A5.76,5.76,0,0,1,28.19,231a3.62,3.62,0,0,0,.44.88c.26.55.58,1.09.79,1.67a25.1,25.1,0,0,0,3.22,5.62,19.41,19.41,0,0,0,2.68,3.64c.1.09.13.25.2.37.45.72.9,1.44,1.34,2.17a39.82,39.82,0,0,0,3.49,5.15c.33.41.67.8,1,1.23.68,1,1.33,1.94,2,2.91a6.78,6.78,0,0,0,.75,1c.91.9,1.86,1.75,2.78,2.63a1.5,1.5,0,0,1,.33.46c.7,1.34,1.33,2.72,2.88,3.34a.7.7,0,0,1,.37.42A6,6,0,0,0,53,265.43,8.61,8.61,0,0,1,54.39,267a6,6,0,0,1,.52.95c.57-.87.91-1.37,1.22-1.89.76-1.31,1.53-2.63,2.26-4a2.53,2.53,0,0,1,1.6-1.27C62,260.17,64,259.39,66.19,258.6ZM85.37,29.49c-1,.54-1.92,1-2.79,1.55-1.47,1-2.89,2-4.32,3-.82.57-1.66,1.11-2.45,1.72-2,1.54-4,3.12-5.94,4.66a30.72,30.72,0,0,0-3.06,2.32c-1.28,1.28-2.68,2.4-4,3.59-2.6,2.3-5,4.76-7.5,7.2-2.05,2-4.12,4.1-6,6.28s-4.08,4.13-5.37,6.8a6.07,6.07,0,0,1-.77,1c-.5.63-1,1.27-1.5,1.9a1.13,1.13,0,0,0,0,1.65c.77.85,1.48,1.75,2.27,2.57A58.87,58.87,0,0,1,52.77,85a6.13,6.13,0,0,0,.42.58c2.14,2.67,4.29,5.34,6.42,8s4.06,5.41,6.8,7.47c.64.48,1.14,1.16,1.79,1.62,1.16.83,2.36,1.6,3.59,2.31,2.22,1.29,4.42,2.62,6.71,3.75a24.47,24.47,0,0,0,7.39,2.1,77.11,77.11,0,0,0,10.17,1c1.57,0,3.13.15,4.7.21a10.9,10.9,0,0,0,1.28,0c2-.17,4-.4,5.95-.49a24.87,24.87,0,0,0,6.55-1.29,16.67,16.67,0,0,1,4.44-1,51.25,51.25,0,0,1,13.18,1.11,9.68,9.68,0,0,1,4.74,2.15q2.92,2.7,6,5.28a10.17,10.17,0,0,0,2.38,1.5,2.22,2.22,0,0,0,2.63-.54,2.08,2.08,0,0,0,.31-2.4,14.78,14.78,0,0,0-1-1.88,11,11,0,0,1-.76-1.2,9.66,9.66,0,0,0-2.78-3.58c-2-1.75-3.68-3.8-5.86-5.4a36.56,36.56,0,0,0-4.67-3,72.77,72.77,0,0,0-7.59-3.25,16.31,16.31,0,0,0-4.23-1.2A82.85,82.85,0,0,0,112.8,96a35,35,0,0,1-6.16-.85c-2.62-.49-5.21-1.11-7.82-1.64-3.69-.76-6.22-3.3-8.46-6a34.88,34.88,0,0,1-5.09-9.2c-.59-1.41-1.37-2.84-1.23-4.49,0-.31-.22-.64-.25-1a25.84,25.84,0,0,1-.19-3.4,1,1,0,0,1,1.76-.7,2.69,2.69,0,0,1,1,1.36c.84,3.69,3.09,6.6,5.25,9.53a41.06,41.06,0,0,0,4,4.29,34,34,0,0,0,3,2.65,7.1,7.1,0,0,0,5.38,1.84c1.25-.16,1.63-.42,1.66-1.66a9.46,9.46,0,0,0-1.14-4.66c-1-2-2.19-3.89-3.22-5.88-1.27-2.44-2.47-4.92-3.69-7.39a6.3,6.3,0,0,1-.64-1.74,2.23,2.23,0,0,1,.31-1.43c.34-.5,1-.4,1.44-.13a6.24,6.24,0,0,1,1.61,1.14,31.07,31.07,0,0,1,3,3.83c2.2,3.61,4.25,7.31,6.43,10.92a15.88,15.88,0,0,0,2.23,2.75c2,2,4.73,3,7.21,4.25a41.62,41.62,0,0,0,5.11,1.77c2.37.83,4.76,1.63,7.09,2.59A30.53,30.53,0,0,1,135.5,95c1.48.92,2.89,2,4.32,3,.58.41,1.11.89,1.67,1.32,1.31,1,2.66,2,3.94,3,1.45,1.2,3.12,2.19,3.93,4a9.49,9.49,0,0,0,1.34,2.34,12.7,12.7,0,0,1,2.65,6.36c.23,1.26.52,2.51.85,3.75a4.56,4.56,0,0,0,.64,1.42,1.27,1.27,0,0,0,2.24,0,5.76,5.76,0,0,0,.89-2.37,33.38,33.38,0,0,0-.88-9c-.48-2.61-1.28-5.16-2-7.72-.33-1.18-.81-2.32-1.22-3.49-.84-2.36-1.66-4.74-2.54-7.09-.45-1.2-1-2.35-1.52-3.52-1-2.32-2-4.64-3-6.94A25.26,25.26,0,0,0,145,76.58a24.28,24.28,0,0,0-2.39-3c-.72-.81-1.55-1.54-2.29-2.34-1.58-1.71-3.09-3.49-4.71-5.16-2.61-2.69-5.29-5.32-7.95-8a2.48,2.48,0,0,0-.8-.58A42.34,42.34,0,0,0,122.41,56a81.89,81.89,0,0,0-11.57-1.58,35.64,35.64,0,0,1-7.27-1.34,23.59,23.59,0,0,1-10.9-7.64,22.4,22.4,0,0,1-3.33-5.78c-.59-1.33-1-2.75-1.47-4.13-.59-1.7-1.16-3.41-1.78-5.1A4.61,4.61,0,0,0,85.37,29.49Zm144.85,82.39c2-.23,4.12-.41,6.18-.74a26.55,26.55,0,0,0,4.86-1.1c2-.71,3.8-1.71,5.7-2.58.21-.09.45-.12.67-.21a11.7,11.7,0,0,0,2-.81c1.69-1.07,3.36-2.15,5-3.34a43.68,43.68,0,0,0,5-4,47.7,47.7,0,0,0,6.25-8c1.33-2.07,2.83-4,4.09-6.15.93-1.58,2.29-2.8,3.33-4.26a32.48,32.48,0,0,1,6-6c2.09-1.73,1.86-1.54.49-3.92a.43.43,0,0,0-.09-.1c-2.23-2.47-3.88-5.39-6.2-7.79-1.8-1.88-3.28-4.06-5.08-5.93-2.94-3-5.94-6-9.09-8.83-3.32-3-6.82-5.75-10.3-8.52-1.78-1.42-3.69-2.69-5.59-3.94-3.22-2.11-6.48-4.15-9.73-6.22-1.41-.89-2.77-1.86-4.24-2.63s-2.47-.46-3.12,1c-1.19,2.69-2.48,5.33-3.72,8-.18.39-.32.8-.47,1.2l-3.49,9c-.22.58-.47,1.15-.65,1.74-1.49,4.7-3,9.41-4.43,14.14A12.21,12.21,0,0,0,213,65c0,1.07.28,1.4,1.38,1.33a22.58,22.58,0,0,0,3.64-.57c1.62-.37,3.2-.92,4.83-1.25a8.1,8.1,0,0,1,2.69-.06,4.12,4.12,0,0,1,1.79.82,1.26,1.26,0,0,1,.15,2.09,6.09,6.09,0,0,1-1.84,1.3c-2.17,1-4.37,1.86-6.58,2.72-1.94.76-3.88,1.54-5.87,2.16a73,73,0,0,0-10.28,3.85,35.72,35.72,0,0,0-10.4,7.65,20.52,20.52,0,0,0-1.33,1.84c-1,1.28-2,2.51-3,3.83A10,10,0,0,0,187.08,93c-1.06,2.85-2.1,5.71-3.07,8.59-1.15,3.43-2.28,6.86-3.28,10.33a19.84,19.84,0,0,0-.55,4.23,2.49,2.49,0,0,0,1.66,2.3,1.7,1.7,0,0,0,2-.31,36.88,36.88,0,0,0,3.55-3.29,23.07,23.07,0,0,1,5.32-4.44,4.4,4.4,0,0,1,1.6-.58c2.53-.4,5.08-.74,7.62-1.09a2.74,2.74,0,0,1,1,0c1.4.27,2.79.57,4.18.86a15.53,15.53,0,0,0,2.66.49,4.1,4.1,0,0,0,2.29-.51,16,16,0,0,0,4.78-4.83c1.09-1.84,2.08-3.74,3.24-5.54,1.38-2.15,2.82-4.28,4.38-6.31s3.24-4,5-5.88a3.61,3.61,0,0,1,1.84-1c1.59-.35,2.57.78,2.17,2.34a3.8,3.8,0,0,1-.39,1.07,58.69,58.69,0,0,1-3.64,5.62,33.23,33.23,0,0,0-6.22,12.25,7.51,7.51,0,0,0-.08,2.55,1.58,1.58,0,0,0,1.55,1.58C226.48,111.65,228.33,111.75,230.22,111.88Zm-63.4-14.54h-.07c.07.9.15,1.79.23,2.69.09,1.09.29,2.18.28,3.27,0,3.47.29,6.93.61,10.38a16.43,16.43,0,0,0,2,6.34.84.84,0,0,0,1,.51c.81-.19,1.57-.46,1.84-1.38.34-1.13.76-2.25,1-3.4.37-1.53.58-3.08.93-4.61.25-1.06.61-2.1.94-3.14,1.59-5.08,3.16-10.16,4.81-15.23.63-1.93,1.41-3.82,2.19-5.71.29-.7.78-1.31,1.12-2a28.78,28.78,0,0,1,6.12-8,3.87,3.87,0,0,1,.78-.62c2.53-1.4,4.65-3.43,7.3-4.69a54.15,54.15,0,0,0,5.25-3.42A4,4,0,0,0,205,65.56c.34-1.63.66-3.26,1.1-4.86,1.17-4.31,2.46-8.58,4-12.78,1.07-2.89,2.11-5.8,3.23-8.68.74-1.9,1.58-3.77,2.38-5.64,1.12-2.62,2.34-5.2,3.33-7.87a3.55,3.55,0,0,0-2.29-4.56c-1.68-.65-3.33-1.39-5-2.05-1.93-.77-3.86-1.59-5.84-2.21-2.54-.8-5.12-1.45-7.7-2.1-3.46-.87-6.92-1.68-10.39-2.51-.23-.06-.47-.07-.7-.11a3.35,3.35,0,0,0-3.86,1.91,63.32,63.32,0,0,0-4.35,9.61c-1.36,3.44-2.54,7-3.76,10.45-.69,2-1.37,4-1.95,6-.88,3.06-1.71,6.14-2.5,9.22-.67,2.63-1.29,5.26-1.85,7.91-.49,2.37-.93,4.76-1.28,7.16-.42,2.82-.77,5.65-1.08,8.48-.17,1.6-.28,3.22-.32,4.83-.07,2.84-.1,5.69-.1,8.53,0,1.51,0,3,.13,4.55C166.37,93,166.61,95.16,166.82,97.34ZM82.13,254.53l.25.19c-.46,3.1-6.25,11.32-8.71,12.09.84-1.16,1.59-2.13,2.26-3.14a7.72,7.72,0,0,0,1.73-3.52,5.59,5.59,0,0,0-3.14,2.15c-1,1.3-1.88,2.63-2.84,3.93a4.37,4.37,0,0,1-.81.65l-.36-1.64c-.37.17-.68.27-1,.42-.82.48-1.61,1-2.45,1.46-2.16,1.1-4.35,2.13-6.5,3.24-1.07.55-1.13,1.15-.32,2a9.2,9.2,0,0,0,.77.63c1.93,1.7,3.91,3.33,5.76,5.11,2.33,2.22,5.14,3.74,7.71,5.6.23.17.55.2.78.36.57.4,1.13.82,1.66,1.26s.84,1,1.37,1.19a17.73,17.73,0,0,1,6,3.71c.62.55,1.25.59,1.73-.06a10.51,10.51,0,0,1,3.49-2.66,2.9,2.9,0,0,0,1.7-2.58,9.9,9.9,0,0,1,2.11-5.79c1.85-2.41,3.49-5,5.32-7.41a15.06,15.06,0,0,0,2.41-4.5A38.31,38.31,0,0,1,107,255.56c1.4-1.8,2.69-3.69,4-5.55.65-.91.6-1.19-.23-1.91l-.23-.17q-6.28-4.55-12.55-9.12a2.49,2.49,0,0,1-1-1.34,31.15,31.15,0,0,1-.62-4.08c-.17-1.85-.16-3.71-.36-5.55-.14-1.31-.5-2.6-.76-3.91a1.64,1.64,0,0,0-1.36-1.28c-1.28-.34-2.34.27-3.41.75a3.53,3.53,0,0,0-2.09,2.71c-.12.61-.18,1.22-.28,1.84a25.88,25.88,0,0,1-1.51,6.2c-1.57,3.78-2.85,7.67-4.32,11.49a40.08,40.08,0,0,1-3.39,7.53c-.35.55-.64,1.14-1,1.8,1.2.58,1.47,1.59,1.51,3Zm71.21-244.4v.08c-2.24,0-4.49-.16-6.71,0-3.59.31-7.17.85-10.75,1.3-1.76.23-2.15.74-1.77,2.47C135,18.29,136,22.56,137,26.81c.77,3.14,1.61,6.27,2.67,9.32,2.38,6.88,4.91,13.7,7.39,20.54.46,1.3,1,2.57,1.47,3.86,1.19,3.2,2.39,6.4,3.54,9.61.51,1.43.93,2.89,1.39,4.34.06.18.16.35.21.53.55,1.86,1.07,3.73,1.66,5.58a6.21,6.21,0,0,0,1.85,3c1,.8,2,.49,2-.74a48.62,48.62,0,0,0,.22-7.23,54.22,54.22,0,0,1,.22-7.11,35.8,35.8,0,0,1,1-7.9c.36-1.37.42-2.82.76-4.2.86-3.51,1.75-7,2.74-10.48,1.36-4.8,2.76-9.59,4.25-14.35,1.18-3.77,2.54-7.48,3.75-11.23q1.14-3.53,2.07-7.11c.43-1.68-.17-2.41-1.92-2.49-2-.09-4.06-.09-6.1-.24C161.91,10.21,157.62,10.24,153.34,10.13ZM141.76,61c-.35-.94-.6-1.81-1-2.61-1.48-3-3.12-5.89-4.49-8.91a73.35,73.35,0,0,1-3.39-10.59q-3.27-11.82-6-23.78c-.31-1.37-.67-1.59-2-1.22-2.61.75-5.23,1.46-7.8,2.29-5,1.64-10,3.28-15,5.05-2.64.95-5.18,2.14-7.74,3.3-1.35.61-1.44.94-1.12,2.35A39.48,39.48,0,0,0,97.7,38.66,16.56,16.56,0,0,0,100,42.05a17.41,17.41,0,0,0,9.51,4.55c3.27.57,6.59.89,9.9,1.18a21,21,0,0,1,11.23,4.06,18.26,18.26,0,0,1,3.1,2.71c1.29,1.5,2.36,3.21,3.58,4.78A28.26,28.26,0,0,0,139.71,62a.92.92,0,0,0,1.3.12A5.08,5.08,0,0,0,141.76,61ZM114.1,245.79a68.19,68.19,0,0,0,4.77-5.6c1.63-2.37,3-5,4.37-7.48a15.09,15.09,0,0,0,1.45-3.07,22.34,22.34,0,0,1,1.15-3.34,3.16,3.16,0,0,0-.36-3.73c-.86-1-1.6-2.13-2.49-3.11a2.64,2.64,0,0,1-.93-2.25,2.22,2.22,0,0,0-.38-1.47,2,2,0,0,0-1.23-.81c-.6-.09-.85.53-1,1-.29.85-.49,1.74-.76,2.6a9.66,9.66,0,0,1-.71,1.86c-1.82,3-3.35,6.18-5.83,8.76a4.57,4.57,0,0,1-2.54,1.68,5.6,5.6,0,0,0-1.16.58,42.5,42.5,0,0,0,3,4.75,6,6,0,0,1,1.34,3.05C113.18,241.33,113.63,243.41,114.1,245.79Z" transform="translate(-2.18)"/>
    <path d="M234.71,249.27l.46,1.23c-1.61-.42-5.32-3.84-6-5.44.55-.21.92.15,1.25.42.93.75,1.81,1.54,2.71,2.32l1.27,1.14Z" transform="translate(-2.18)"/>
    <path d="M154.18,175c-.54.84-1.15,1.84-1.82,2.8a10.06,10.06,0,0,1-4.28,3.65c-2.71,1.17-5.29,0-6-2.88a18.11,18.11,0,0,1-.13-6.1,50.64,50.64,0,0,0,.47-5.55,8.09,8.09,0,0,0-.33.81,18,18,0,0,1-4.16,7.39,7.5,7.5,0,0,1-3.9,2.25c-3,.69-5.19-.84-5.61-3.88,0-.28,0-.57-.07-.85s-.07-.44-.16-.92c-1.57,1.48-3.26,2.38-5.25,2s-3.1-2-3.61-4.2c-.55.77-1,1.39-1.46,2a17.14,17.14,0,0,1-5,5,6.89,6.89,0,0,1-3.37,1.05,3.73,3.73,0,0,1-3.91-3.37c-.15-.84-.27-1.67-.45-2.81-.85.83-1.56,1.44-2.17,2.13a9,9,0,0,1-4.34,2.61c-3.1.94-5.13-.24-5.76-3.44-.17-.87-.19-1.77-.3-2.8-2.67,1.48-5.28,2.1-8.1-.19a15.82,15.82,0,0,0,.53,2.46,1.55,1.55,0,0,1-.31,1.83,6,6,0,0,1-5.34,1.78,2.76,2.76,0,0,1-2-1.85,12.8,12.8,0,0,1-1.16-5.4,85.84,85.84,0,0,1,.65-10.38,46,46,0,0,0,.14-6,1.87,1.87,0,0,0-.69-1.42c-.65-.32-1.31.2-1.68.75a10.79,10.79,0,0,0-1.45,2.61,45.86,45.86,0,0,0-1.77,6.15c-.59,3-.91,6.11-1.36,9.16-.23,1.6-.44,3.2-.74,4.79a5.79,5.79,0,0,1-5.33,4.21,2.77,2.77,0,0,1-2.43-1.26,9.24,9.24,0,0,1-1-2.17,27.5,27.5,0,0,1-.93-6.33c-.24-3.91.44-7.77.38-11.67,0-2,.44-4.06.57-6.1s.14-4,.13-6c0-1,.11-1.34,1.14-1.33a27.5,27.5,0,0,1,3.4.27,4.27,4.27,0,0,1,3.57,4.08,41.15,41.15,0,0,1-.15,4.7c0,.23-.06.47-.07.71-.11,1.75-.22,3.5-.31,5.26a3.94,3.94,0,0,0,.18,1.54c.28-.74.54-1.49.84-2.23.79-1.94,1.53-3.89,2.41-5.79a14.46,14.46,0,0,1,1.78-2.74A7.52,7.52,0,0,1,81.64,147a3.78,3.78,0,0,1,2.55,3.29c.5,3.33-.26,6.64,0,10,.09,1.37,0,2.75,0,4.48,2.28-3.44,5.37-4.71,9.26-4.65,0-.53.12-1,.13-1.52,0-.74.37-1.25,1.09-1.25,3,0,5.46.71,6.19,4.16a4.09,4.09,0,0,1,.06,1c0,2.28-.11,4.57-.16,6.85a1.29,1.29,0,0,0,0,.56c.2.4.37.9.71,1.1.18.1.78-.28,1-.58a19.81,19.81,0,0,0,1.86-2.69,3.62,3.62,0,0,0,.33-1.64c0-2,0-4,0-6,0-1.24.21-2.47.24-3.7s-.25-1.4-1.45-1.29a21.67,21.67,0,0,1-2.41.16c-1,0-1.19-.26-1.25-1a1.21,1.21,0,0,1,1.14-1.5c1-.21,2.06-.37,3.08-.58s1.16-.28,1.19-1.4c.07-2.37.12-4.74.12-7.11,0-.72.31-1.13,1-1.17,3.2-.22,6.72.89,6.51,5.4,0,.86-.08,1.71-.1,2.57a.92.92,0,0,0,1,1.06c.86,0,1.72,0,2.57-.09s1.28.09,1.42.76a1.45,1.45,0,0,1-.93,1.7,7.58,7.58,0,0,1-1.26.24c-.28,0-.57,0-.85.06-2.14.18-2.21.28-2.3,2.37,0,1-.23,2-.23,3s.18,2,.21,3c0,.76-.05,1.52-.07,2.28s0,1.79,0,2.69.07,1.81.11,2.71a2.34,2.34,0,0,0,1,2.12,4.85,4.85,0,0,0,2.31-2.06c1.13-1.7,2.19-3.46,3.15-5.26a7.7,7.7,0,0,0,.64-2.45c.23-1.5.35-3,.59-4.52,0-.28.47-.71.7-.71a15.36,15.36,0,0,1,3.66.35,3,3,0,0,1,2,3.46c-.23,2.17-.44,4.35-.6,6.53a6.87,6.87,0,0,0,.27,1.53,3.73,3.73,0,0,0,2.21-2.34,13.36,13.36,0,0,0,1-6.55c-.12-1.1.22-1.55,1.28-1.6a7,7,0,0,1,4.5,1,3.2,3.2,0,0,1,1.55,2.73c0,1.76-.1,3.51-.17,5.27-.06,1.51-.14,3-.21,4.59.77.16,1.06-.35,1.37-.8a21.12,21.12,0,0,0,2.79-6.38c.19-.68,0-1.11-.71-1.29-2.26-.57-3.14-2.14-3.1-4.65,0-2.93-.2-2.56,2.82-3.07a4.83,4.83,0,0,1,1.42,0,2.27,2.27,0,0,1,2,1.63c.13.4.21.83.32,1.24.28,1.14.46,1.27,1.64,1.38a16.5,16.5,0,0,1,2,.26c2.43.55,3.53,1.77,3.56,4.27,0,1.7-.25,3.41-.38,5.11-.15,1.85-.3,3.7-.42,5.54a5.8,5.8,0,0,0,.13,1.05c.2,0,.33.1.37.07,1.76-1.57,3.09-3.33,2.9-5.87a13,13,0,0,1,1.08-6c1.33-3.16,4-4.47,7.23-4.71a7.38,7.38,0,0,1,2.8.32,2.87,2.87,0,0,1,2.06,2.93,4.84,4.84,0,0,1-3.58,5.2c-.49.17-1,.25-1.52.39-.82.24-1,.66-.82,1.49s.69,1.16,1.47,1a5.06,5.06,0,0,0,1.67-.76,32.82,32.82,0,0,0,6.65-6.82c.19-.27.37-.56.58-.82a1,1,0,0,1,1.48-.36,1,1,0,0,1,.28,1.5,32.68,32.68,0,0,1-2.9,4.39,24.26,24.26,0,0,1-5.87,5.38c-1.82,1.07-3.67,2.13-5.87,1.93A25.89,25.89,0,0,1,154.18,175Zm-61-11.22a3.36,3.36,0,0,0-2.92.72,3.12,3.12,0,0,0-.82,1.72.64.64,0,0,0,1,.7,18,18,0,0,0,2.49-2.06C93.1,164.66,93.05,164.2,93.14,163.78Zm67.29,3.08a3.11,3.11,0,0,0,2.93-1.94c.12-.3.1-.88-.1-1a1.45,1.45,0,0,0-1.16-.14,1.48,1.48,0,0,0-.79.75C161,165.17,160.78,165.89,160.43,166.86Z" transform="translate(-2.18)"/>
    <path d="M204.21,173.4c.51-.43.93-.8,1.36-1.15,1.17-1,2.31-2,3.53-2.87a1.45,1.45,0,0,0,.7-1.29c0-.86,0-1.72,0-2.57.16-2.8.34-5.6.51-8.39.06-1,.07-2.09.19-3.13a29.22,29.22,0,0,1,.64-4.07,2.27,2.27,0,0,1,2.9-1.61,7.4,7.4,0,0,1,4.73,3.62,13.33,13.33,0,0,1,1.3,9.8,9.57,9.57,0,0,1-1.55,3.48,6.15,6.15,0,0,0-1.27,4.1c.09,1.66,0,3.33,0,5a2.36,2.36,0,0,0,.6,1.91,4,4,0,0,0,.86-.39,15.53,15.53,0,0,0,4.89-5.66c1.36-1.14,1.47-2.88,2-4.39a8.35,8.35,0,0,1,8.16-5.36,7,7,0,0,1,2.46.63,2.8,2.8,0,0,1,1.83,2.95c-.14,1.92-.8,3.65-2.74,4.5a13.05,13.05,0,0,1-2.29.75c-1.18.27-1.24.32-1,1.51,0,.14,0,.29.08.42.25.79.64,1.06,1.38.71a11.14,11.14,0,0,0,2.81-1.66,35.4,35.4,0,0,0,5.52-6,2.36,2.36,0,0,0,.53-2c-.06-.23,0-.48-.09-.71-.61-2.58.71-4.3,2.62-5.69a9,9,0,0,1,2.19-1c.77-.3,1.3.07,1.15.85-.42,2.21.65,4,1.56,5.81a1,1,0,0,0,1.4.58c2.94-.82,5.65-.09,8.25,1.27a3,3,0,0,1,1,.79,1,1,0,0,1,0,1.32c-.36.42-.76.2-1.16,0a10.32,10.32,0,0,0-5.75-1.34,11.89,11.89,0,0,0-1.66.39c.34.63.54,1.09.81,1.52q1.76,2.76,3.56,5.5a8.68,8.68,0,0,1,1.29,4.19,4.52,4.52,0,0,1-2.4,4.26c-3.63,2.26-8.72.57-10.31-2.64-1.41-2.86-1.07-5.62-.19-8.44.52-1.66.58-1.64-.94-3.08-.83,1.09-1.6,2.22-2.49,3.25-2.55,2.93-5.3,5.6-9.1,6.9a6.7,6.7,0,0,1-3.23.32,4.24,4.24,0,0,1-3.19-2.15c-.19-.32-.42-.62-.72-1.09a8.58,8.58,0,0,0-.8.81c-.93,1.13-1.79,2.33-2.77,3.42s-2.12,2.17-3.22,3.21a7.69,7.69,0,0,1-4.44,1.76,2.15,2.15,0,0,1-2.18-1.33,11.63,11.63,0,0,1-1.44-5.32c-.06-1-.18-2-.28-3.22a36.44,36.44,0,0,1-3.88,3.41,27.81,27.81,0,0,1-4.81,2.43,4.84,4.84,0,0,1-2.25.09A3.18,3.18,0,0,1,196,176a7.31,7.31,0,0,1-.47-4.1c-1,.4-1.79.78-2.63,1.07a5.69,5.69,0,0,1-1.53.3c-3.67.21-5.78-2.84-4.24-6.2s4.18-4.65,7.64-4.82l1,0s.08-.05.28-.15c0-.36.09-.82.15-1.28.12-.95.32-1.24,1.22-1.24a10.77,10.77,0,0,1,3,.32,4.16,4.16,0,0,1,3.26,4.32c.06,2.33,0,4.67,0,7A2.82,2.82,0,0,0,204.21,173.4Zm43.14-2.7c-.83,2.46-.47,4.6.83,5.88.38.37.78.76,1.36.52s.6-.82.54-1.34C249.82,173.81,248.69,172.34,247.35,170.7Zm-51.84-5a4.8,4.8,0,0,0-2.46.7,1.75,1.75,0,0,0-.9,1.78c.06.87.46,1.2,1.18.8a10.6,10.6,0,0,0,2.13-1.6A1.23,1.23,0,0,0,195.51,165.72ZM232.63,167a2.39,2.39,0,0,0,2.58-1.52c.19-.46.31-.93-.15-1.29a1,1,0,0,0-1.41.16A3.33,3.33,0,0,0,232.63,167Zm-14.75-9.06-.34,3.3.31,0A6,6,0,0,0,217.88,157.93Z" transform="translate(-2.18)"/>
    <path d="M177.89,155.5c-1.43-.35-2.78-.63-4.15.13-.93.51-1.27.44-2-.32a6.38,6.38,0,0,1-1.85-4.37,4,4,0,0,1,3.6-3.92,24.48,24.48,0,0,1,6.68-.17c3.91.42,7.85.66,11.78,1,1.34.1,1.54.27,1.66,1.6a7,7,0,0,1-.37,3.08,4.86,4.86,0,0,1-4.75,3.65,2.72,2.72,0,0,0-2.83,2.44,44.33,44.33,0,0,0-.6,5.37c-.11,2.62,0,5.24-.05,7.86,0,2.34,0,4.65,1.19,6.79a1.08,1.08,0,0,1-.42,1.39,6.8,6.8,0,0,1-4.8,1.86c-1.68-.13-2.46-1.44-2.91-2.78a20.79,20.79,0,0,1-.78-4.33c-.17-1.55-.24-3.13-.26-4.69,0-1,.14-2,.21-3,.24-3.6.47-7.21.7-10.81A7,7,0,0,0,177.89,155.5Z" transform="translate(-2.18)"/>
    <path d="M173.81,299.85c1-1.13,1.81-2.08,2.63-3a5.26,5.26,0,0,1,3.72-2.09c1.24-.1,1.26-.24,1.37-1.57a3.6,3.6,0,0,1,1.14-2.36,19.31,19.31,0,0,1,7-4.26,7.22,7.22,0,0,1,3.37-.3c3.81.36,6.24,2.81,8.47,5.5a44,44,0,0,1,3.34,5,5.32,5.32,0,0,1,.49,1.9c.18,1.06.31,2.13.5,3.42a4.68,4.68,0,0,1-1.13-.39c-1.73-1.26-3.42-2.58-5.15-3.83a3,3,0,0,1-1.22-1.85c-.24-1.07-.57-2.11-.82-3.17a1.85,1.85,0,0,0-1.68-1.51c-1.5-.22-3-.49-4.51-.66a1.79,1.79,0,0,0-1.11.42,13.82,13.82,0,0,0-1.21,1.21c-1.72,1.64-3.43,3.27-5.17,4.88a2.63,2.63,0,0,1-1.08.66c-2.71.73-5.43,1.42-8.15,2.11A3.13,3.13,0,0,1,173.81,299.85Z" transform="translate(-2.18)"/>
    <path d="M167.94,273.71l2.34-3.83.31.08a3.16,3.16,0,0,1,0,.87,34.9,34.9,0,0,1-6.53,12.07,2.61,2.61,0,0,1-1,.68c1.06-2.49,2.87-4.58,3.54-7.32a1.4,1.4,0,0,0-1.51.54,27.73,27.73,0,0,0-2.38,2.82c-.71,1-1.27,2.12-1.91,3.17-.24.38-.53.73-.94,1.29a3.19,3.19,0,0,1,.1-2.94c.77-1.57,1.59-3.13,2.5-4.63s2-3.09,3-4.64c.24-.35.45-.87,1-.63a2.13,2.13,0,0,1,1,.93,5.23,5.23,0,0,1,.24,1.5Z" transform="translate(-2.18)"/>
    <path d="M114.05,291.83c1.16-2.38,2.26-4.63,3.35-6.88,0-.06-.06-.17-.15-.38a2.19,2.19,0,0,0-.84.27,11.78,11.78,0,0,0-2,2c-.88,1.23-1.59,2.58-2.4,3.87-.33.53-.72,1-1.16,1.64a1.69,1.69,0,0,1-.28-1.79,15.21,15.21,0,0,1,1.17-2.89c1.53-2.57,3.15-5.09,4.77-7.6.17-.26.66-.58.86-.5a2.07,2.07,0,0,1,1,.88,5.2,5.2,0,0,1,.27,1.53c1.36-1.12,1.7-2.76,2.82-3.9C121.89,280.64,117,289.73,114.05,291.83Z" transform="translate(-2.18)"/>
    <path d="M147,249.23c.57-1.73,1.77-3.19,2.18-5.11a1.54,1.54,0,0,0-1.59.83c-.59.87-1.07,1.79-1.6,2.69-.41.68-.82,1.35-1.26,2.09a1.15,1.15,0,0,1-.39-1.62c.49-1.19,1-2.36,1.61-3.49s1.46-2.45,2.21-3.66,1.17-1.17,1.9,0a5.13,5.13,0,0,1,.29.58l1.7-2.75C152.33,241.17,149.3,247.45,147,249.23Z" transform="translate(-2.18)"/>
    <path d="M231.76,258a2.46,2.46,0,0,1,2.65.89c1.12,1.4,2.16,2.87,3.18,4.35a19,19,0,0,1,1,2c-.84.38-1.19-.11-1.5-.47-1.38-1.62-2.74-3.27-4.09-4.92C232.6,259.25,232.24,258.66,231.76,258Z" transform="translate(-2.18)"/>
    <path d="M130.12,294.68a1.43,1.43,0,0,1-.76-1.69,4.53,4.53,0,0,1,.51-1.46c1-1.49,2-2.94,3.11-4.38a3.38,3.38,0,0,1,.82-.58,1.47,1.47,0,0,1,.06,1.77c-.41.85-.86,1.69-1.35,2.49-.64,1.05-1.34,2.07-2,3.11C130.36,294.17,130.25,294.43,130.12,294.68Z" transform="translate(-2.18)"/>
    <path d="M183.15,278.08a5.23,5.23,0,0,1,0,1.37,12.3,12.3,0,0,1-1,2.19c-.84,1.38-1.77,2.7-2.65,4.05a4.89,4.89,0,0,0-.3.61,1.34,1.34,0,0,1-.75-1.52,4.09,4.09,0,0,1,.49-1.62c1.05-1.52,2.19-3,3.31-4.44A5.9,5.9,0,0,1,183.15,278.08Z" transform="translate(-2.18)"/>
    <path d="M225,248.36l6.47,7.91c-.72.33-1-.07-1.38-.35-.93-.75-1.85-1.49-2.76-2.26a9.66,9.66,0,0,1-2.74-3.59A1.17,1.17,0,0,1,225,248.36Z" transform="translate(-2.18)"/>
    <path d="M233.48,254.76l-6.95-7.36.17-.31a3.56,3.56,0,0,1,1,.24,15.78,15.78,0,0,1,5.79,5.51A1.55,1.55,0,0,1,233.48,254.76Z" transform="translate(-2.18)"/>
    <path d="M123.83,303.62c.11-1.07,3.78-7.18,4.87-8.14,0,.22.12.4.07.54-.62,1.83-1.21,3.67-1.91,5.47a3.63,3.63,0,0,1-2.1,2A3.83,3.83,0,0,1,123.83,303.62Z" transform="translate(-2.18)"/>
    <path d="M175.25,285.49c-1.81,2.62-2.74,5.55-4.23,8.18l-.43-.09a4,4,0,0,1-.13-1.13,13.13,13.13,0,0,1,2.43-6A2,2,0,0,1,175.25,285.49Z" transform="translate(-2.18)"/>
    <path d="M173,295c.14-1,3.57-6.69,4.73-7.82.06.14.16.26.14.37a17.66,17.66,0,0,1-2.33,6.24A2.1,2.1,0,0,1,173,295Z" transform="translate(-2.18)"/>
    <path d="M253.59,262.12a2.25,2.25,0,0,1,2.3.81,25.48,25.48,0,0,1,2.38,3c.89,1.34,1.65,2.76,2.53,4.25a3.23,3.23,0,0,1-1.94-1.57,11.58,11.58,0,0,0-3.07-3.32,8.77,8.77,0,0,1-1.57-1.65A6.7,6.7,0,0,1,253.59,262.12Z" transform="translate(-2.18)"/>
    <path d="M121.52,302.15a4,4,0,0,1-.19-.88,14.19,14.19,0,0,1,2.46-6.48,2.22,2.22,0,0,1,2.08-1.08c.07,1.16-.93,1.8-1.31,2.72s-.82,1.93-1.3,2.86A9,9,0,0,1,121.52,302.15Z" transform="translate(-2.18)"/>
    <path d="M239,251.17c2.18.84,8.58,7.52,9.29,9.66a3.06,3.06,0,0,1-.9-.41c-1.56-1.6-3.11-3.21-4.63-4.84-1-1.11-2-2.25-3-3.39C239.53,251.93,239.36,251.63,239,251.17Z" transform="translate(-2.18)"/>
    <path d="M125.27,278.54a7.47,7.47,0,0,1-.35,1.43c-.8,1.76-1.64,3.51-2.5,5.25-.46.94-1,1.84-1.49,2.75-.2.35-.43.69-.83,1.35a4.07,4.07,0,0,1-.08-.95,35.81,35.81,0,0,1,4.6-9.72c.06-.1.21-.15.33-.22Z" transform="translate(-2.18)"/>
    <path d="M178.28,256.29a20.91,20.91,0,0,1-1.35,2A9.6,9.6,0,0,0,175,262a5.59,5.59,0,0,1-.75,1.67c-.21.3-.68.4-1,.59-.17-.35-.53-.73-.48-1.06a5.66,5.66,0,0,1,.61-2,10.78,10.78,0,0,1,1.36-1.82c.78-.9,1.58-1.78,2.38-2.65.28-.29.61-.52.91-.78Z" transform="translate(-2.18)"/>
    <path d="M123.92,272.78a2.08,2.08,0,0,1-.09-2.29,14.16,14.16,0,0,1,1.63-2.48,36.36,36.36,0,0,1,3.47-3.56,2.61,2.61,0,0,1-.76,1.69,11.88,11.88,0,0,0-2.41,4.63,6.58,6.58,0,0,1-1.12,1.75C124.53,272.67,124.22,272.68,123.92,272.78Z" transform="translate(-2.18)"/>
    <path d="M169,280.43a41.16,41.16,0,0,1,5.1-10.7,4.5,4.5,0,0,1,.22,1.07,2.85,2.85,0,0,1-.3.95q-2.16,4.25-4.35,8.49a2.14,2.14,0,0,1-.36.38Z" transform="translate(-2.18)"/>
    <path d="M161.56,244.88c.36,1.39-1.18,4.64-2.73,5.93-.57-.34-.45-.88-.37-1.37A9.65,9.65,0,0,1,161.56,244.88Z" transform="translate(-2.18)"/>
    <path d="M234.29,254.84c2.15,1.21,5.37,4.88,5.55,6.26-.69.12-1-.41-1.38-.8-.71-.76-1.35-1.58-2.06-2.35a8.06,8.06,0,0,0-1.15-1A2.25,2.25,0,0,1,234.29,254.84Z" transform="translate(-2.18)"/>
    <path d="M118.34,299.8a12.93,12.93,0,0,1,2.71-6.72C121.5,294.77,119.87,298.91,118.34,299.8Z" transform="translate(-2.18)"/>
    <path d="M167.52,291.65a9.58,9.58,0,0,1,2.64-6.62c.38.37.18.78.08,1.17C169.34,289.49,168.78,290.64,167.52,291.65Z" transform="translate(-2.18)"/>
    <path d="M157.89,251.9a9,9,0,0,1-1.76,5.28,2.36,2.36,0,0,1-1.38.57C155.16,255.42,156.73,253.78,157.89,251.9Z" transform="translate(-2.18)"/>
    <path d="M152.83,256.52c-.45-2.63,1-5.72,3.14-6l-1.44,3.11-1.38,3Z" transform="translate(-2.18)"/>
    <path d="M151.14,247.11a25.69,25.69,0,0,1,3.5-8.26c.13.59.3.87.22,1.05-1,2.34-2.12,4.66-3.2,7C151.63,247,151.5,247,151.14,247.11Z" transform="translate(-2.18)"/>
    <path d="M157.46,228.59a16.36,16.36,0,0,1-1,1.61,6.28,6.28,0,0,0-1.23,2.67,3,3,0,0,1-.5,1.3,1.33,1.33,0,0,1-1,.56c-.5-.08-.46-.62-.37-1.06a3.17,3.17,0,0,1,.12-.41,15.76,15.76,0,0,1,3.63-4.88Z" transform="translate(-2.18)"/>
    <path d="M178.37,277.54a1.89,1.89,0,0,1-.25,2,14.69,14.69,0,0,0-1.83,4c-.1.59-.6.93-1.48,1A17.53,17.53,0,0,1,178.37,277.54Z" transform="translate(-2.18)"/>
    <path d="M129.64,286.42c-.4.83-.81,1.67-1.2,2.51s-.8,1.71-1.13,2.59a1.83,1.83,0,0,1-1.3,1.35c-.2-1.76,1.9-5.87,3.35-6.64Z" transform="translate(-2.18)"/>
    <path d="M240.46,256.44c-2.1-.74-3.27-2.17-4.52-3.66C237.53,252.31,239.56,254,240.46,256.44Z" transform="translate(-2.18)"/>
    <path d="M124.4,287c.4,1.22-.2,3.23-1.4,4.61-.67-.18-.6-.75-.57-1.24A5.1,5.1,0,0,1,124.4,287Z" transform="translate(-2.18)"/>
    <path d="M241.57,258.09c2.07.83,3,2.75,4.39,4.55A7.53,7.53,0,0,1,241.57,258.09Z" transform="translate(-2.18)"/>
    <path d="M128.18,280.5c-.43,1.84-.85,3.66-2.36,5.07C125.22,284.34,126.33,282,128.18,280.5Z" transform="translate(-2.18)"/>
    <path d="M173.37,278.7a4.86,4.86,0,0,1-1.41,4.56C171.12,282,171.63,280.26,173.37,278.7Z" transform="translate(-2.18)"/>
    <path d="M174.72,277.06c0-2,1.15-3.37,2.26-5a1.78,1.78,0,0,1-.08,1.87C176.35,275,176,276.37,174.72,277.06Z" transform="translate(-2.18)"/>
    <path d="M150.36,255.23a8.31,8.31,0,0,1,1.67-4.95C152.55,251.61,151.7,254.19,150.36,255.23Z" transform="translate(-2.18)"/>
    <path d="M158.07,244.46a1.59,1.59,0,0,1-.09,1.7c-.35.87-.7,1.75-1,2.63a1.05,1.05,0,0,1-1.27.85A12.83,12.83,0,0,1,158.07,244.46Z" transform="translate(-2.18)"/>
    <path d="M153.66,249.23c-.92-1.24-.58-2.52.87-3.78C154.88,246.88,154.25,247.94,153.66,249.23Z" transform="translate(-2.18)"/>
    <path d="M157.11,240.58a6.53,6.53,0,0,1-1.52,3.84c-.19-.24-.4-.38-.38-.49A5.52,5.52,0,0,1,157.11,240.58Z" transform="translate(-2.18)"/>
    <path d="M147.54,91.38a23,23,0,0,1,0,2.34c-.16,1.77-1.12,2.6-2.86,2.4A25.12,25.12,0,0,1,137.18,94a20.54,20.54,0,0,1-5.13-3.53,11.18,11.18,0,0,1-1.88-2.13,21.25,21.25,0,0,1-3.47-9.4c-.26-2.22-.4-4.45-.58-6.67a6.68,6.68,0,0,1,0-1c.09-.87.27-1.08,1.16-1.11a15.87,15.87,0,0,1,4.22.41,21.09,21.09,0,0,1,6.3,2.58,19.62,19.62,0,0,1,8.9,11.74A17.58,17.58,0,0,1,147.54,91.38Zm-2.92-1.3.25-.1a7.61,7.61,0,0,0,0-2.19,28,28,0,0,0-2-5.76,17.89,17.89,0,0,0-12.73-9.18c-1.08-.22-1.39.09-1.28,1.21.17,1.7.27,3.41.54,5.1a17.28,17.28,0,0,0,3.21,8A16.52,16.52,0,0,0,140,92.4a23.06,23.06,0,0,0,2.33.68,6.27,6.27,0,0,0,1.19,0c-.44-.63-.71-1-1-1.45l-5.89-7.7c-.56-.73-.57-1.3-.06-1.76a1.29,1.29,0,0,1,1.8.07,9.89,9.89,0,0,1,1.36,1.46c.94,1.19,1.82,2.43,2.74,3.64C143.18,88.27,143.91,89.17,144.62,90.08Z" transform="translate(-2.18)"/>
    <path d="M87,107.89c-3.4.1-6.82-1.48-9.88-4a36.65,36.65,0,0,1-7.38-8.24c-.74-1.14-.71-1.25.48-2a20.58,20.58,0,0,1,8.88-3.26,26.13,26.13,0,0,1,9.16.86,14.78,14.78,0,0,1,4.31,2.16,22.54,22.54,0,0,1,6.67,6.94,8.49,8.49,0,0,1,.66,1.27c.66,1.56.25,2.57-1.19,3.45C95.26,107.1,91.56,107.9,87,107.89Zm9.33-6.9c-5.07-8.57-16.53-10.3-23.58-5.74a11.82,11.82,0,0,0,.79,1.16c.92,1.08,1.93,2.1,2.81,3.22a14.12,14.12,0,0,0,5,4,13.5,13.5,0,0,0,4.1,1.56,16.83,16.83,0,0,0,8.43-.78c.53-.22,1.21-.13,1.73-.8-.55-.19-1-.36-1.42-.49-2.6-.76-5.21-1.5-7.8-2.27a3.35,3.35,0,0,1-1.38-.7,1.77,1.77,0,0,1-.41-1.25c0-.54.55-.76,1.06-.73a5.54,5.54,0,0,1,1.4.23c2,.56,3.91,1.18,5.88,1.74C93.89,100.4,94.94,100.64,96.29,101Z" transform="translate(-2.18)"/>
    <path d="M87,55.43c-.16,2.87-.58,5.53-2.17,7.86a2.07,2.07,0,0,1-2.93.86c-4-2.31-7-5.39-7.92-10.07a17.53,17.53,0,0,1,.5-8.32c.39-1.27.79-2.54,1.29-3.77s.89-1.47,2.15-.81a16.43,16.43,0,0,1,7.81,8.17A19.33,19.33,0,0,1,87,55.43Zm-6.15,5.22.37-.15c-.13-.49-.26-1-.4-1.47-.42-1.41-.86-2.82-1.28-4.23a6.71,6.71,0,0,1-.26-1.26,1,1,0,0,1,.79-1.2,1,1,0,0,1,1.26.64c.4,1.12.71,2.27,1.07,3.4.4,1.29.81,2.57,1.27,4,3-6.81-1.26-14.83-6.08-16.5-.13.29-.29.58-.4.88a21.4,21.4,0,0,0-1.15,6C75.86,55,77.69,58.16,80.88,60.65Z" transform="translate(-2.18)"/>
    <path d="M109.82,69.62c0-.57,0-1.14,0-1.71.06-1,.35-1.32,1.34-1.19a19.51,19.51,0,0,1,4.61.9,13.59,13.59,0,0,1,9,12.56c0,.71,0,1.43,0,2.14a1.86,1.86,0,0,1-2,1.92c-3.52-.39-6.75-1.47-9.23-4.23C110.78,77,110,73.46,109.82,69.62Zm2.6-.3c-1.46,4.62,3.37,12,7.87,11.82-.65-.79-1.25-1.51-1.83-2.24s-1.26-1.55-1.81-2.37a1,1,0,0,1,.19-1.53,1.14,1.14,0,0,1,1.55.22,3.45,3.45,0,0,1,.46.54c.87,1.06,1.74,2.13,2.62,3.19a4.81,4.81,0,0,0,.77.6C122.5,74.76,117.42,69.39,112.42,69.32Z" transform="translate(-2.18)"/>
    <path d="M111.53,57.77a7.12,7.12,0,0,1,3.2-1,11.51,11.51,0,0,1,12.53,7.76c.64,1.86,0,3.16-2,3.47-4.67.76-8.63-.3-11.41-4.56A14.79,14.79,0,0,1,111.53,57.77Zm3,1.49c1.07,4,4.42,7,8.48,6.51-.72-.43-1.32-.78-1.91-1.15a17.65,17.65,0,0,1-1.77-1.19,1,1,0,0,1-.24-1.4,1,1,0,0,1,1.39-.35c.56.25,1.09.58,1.63.86l1.86,1C122.68,60.18,117.93,58.16,114.53,59.26Z" transform="translate(-2.18)"/>
    <path d="M72.49,88.8A6.54,6.54,0,0,1,71,84.9a12,12,0,0,1,2.75-9.3,10.47,10.47,0,0,1,4.88-3.08c1.68-.52,2.65.13,3,1.82a12.28,12.28,0,0,1-.36,7.27,8.45,8.45,0,0,1-2.85,3.83,16.93,16.93,0,0,1-5.21,3.15Zm4.7-12.53c-2.87,1.34-4.72,6-3.82,8.82.18.57.51.73,1.1.39a11.07,11.07,0,0,0,4.43-4.1,7,7,0,0,0,.64-4.57c-.39.76-.72,1.44-1.06,2.1s-.6,1.19-1,1.75a.94.94,0,0,1-1.25.36,1,1,0,0,1-.58-1.29,13.4,13.4,0,0,1,.56-1.3C76.57,77.71,76.88,77,77.19,76.27Z" transform="translate(-2.18)"/>
    <path d="M98.72,56.41c-.29,5.48-3.56,10-9,11.25-1.41.33-2.15-.21-2.46-1.62a13.08,13.08,0,0,1,.26-6.34A8.94,8.94,0,0,1,91,54.78a18.24,18.24,0,0,1,5.3-2.72c1.17-.36,1.58-.21,1.86,1S98.56,55.48,98.72,56.41Zm-7.39,8.1c3.64-1.36,5.42-6.1,5-8.81-.12-.83-.5-1.06-1.3-.7a10.23,10.23,0,0,0-4.42,3.46,5.94,5.94,0,0,0-1.11,4.33,6.43,6.43,0,0,0,.85-1.13c.37-.61.71-1.24,1.13-1.81a1.3,1.3,0,0,1,1.76-.4c.55.45.43,1,.16,1.55-.15.29-.34.57-.51.85Z" transform="translate(-2.18)"/>
    <path d="M103.77,96.1A11.13,11.13,0,0,1,115,105.6c0,.19,0,.38.08.56.35,2.26-.47,3.22-2.77,3.13-4.32-.16-8.25-2.48-9.75-6.8a37.77,37.77,0,0,1-1.3-4.94c-.24-1.2,0-1.39,1.25-1.45C103,96.08,103.48,96.1,103.77,96.1Zm6.64,10.22c-.39-.4-.79-.79-1.17-1.19s-1-1-1.48-1.55a1,1,0,0,1-.06-1.3,1,1,0,0,1,1.41-.27,8.64,8.64,0,0,1,1.19,1,13.83,13.83,0,0,0,1.94,1.73c-.52-3.68-5-6.75-8.28-6.35C104,102.1,106.68,106.18,110.41,106.32Z" transform="translate(-2.18)"/>
    <path d="M76.6,70.76c-4.74.26-7.93-2.12-10.16-6A25.7,25.7,0,0,1,65,61.18c-.35-.93-.21-1.19.71-1.51a11.15,11.15,0,0,1,13.69,5.46,12,12,0,0,1,1,2.79c.32,1.65-.41,2.53-2.07,2.75C77.75,70.75,77.17,70.73,76.6,70.76Zm-8.81-9.1c1,4.51,5.13,7.09,8.34,6.81a5.41,5.41,0,0,0-.59-.47c-1-.61-1.94-1.19-2.89-1.83-.49-.33-.89-.77-.57-1.43a1.21,1.21,0,0,1,1.61-.48,14.94,14.94,0,0,1,1.6.91,7.92,7.92,0,0,0,2,1C76.07,62.92,70.76,60.37,67.79,61.66Z" transform="translate(-2.18)"/>
    <path d="M48.79,70.31c.35-1.62.66-3.25,1.06-4.85a4.25,4.25,0,0,1,.74-1.37c2.11-3.08,5.21-4.61,8.7-5.54a.91.91,0,0,1,1.27.76,11.41,11.41,0,0,1-2,10.25,12,12,0,0,1-6.16,4.13c-2.2.68-3.38-.17-3.46-2.49,0-.28,0-.57,0-.85ZM51.3,69l.3.16c.45-.66.88-1.32,1.33-2a9,9,0,0,1,1-1.24,1.11,1.11,0,0,1,1.55-.17,1,1,0,0,1,.12,1.42c-.54.9-1.15,1.75-1.71,2.64a7.34,7.34,0,0,0-.4.93,8.7,8.7,0,0,0,5.22-8.41c-.08-1-.41-1.19-1.31-.83a11,11,0,0,0-4.59,3.29A8.54,8.54,0,0,0,51.3,69Z" transform="translate(-2.18)"/>
    <path d="M61.18,80.69a15.37,15.37,0,0,1-5.9-1.83c-.8-.46-.86-.64-.49-1.49a11,11,0,0,1,8.73-6.73,11.25,11.25,0,0,1,6.77,1.08c1.52.71,2,1.81,1.13,3.23C69.29,78.5,66.34,80.81,61.18,80.69Zm6.46-7.46c-4.43-1.13-9.27.93-10.1,4.07,3,1.79,8.53,1.58,10.23-1.71-.7.22-1.27.42-1.85.57a16.82,16.82,0,0,1-2.08.46.94.94,0,0,1-1.07-.76,1,1,0,0,1,.6-1.29c.26-.11.55-.17.82-.26Z" transform="translate(-2.18)"/>
    <path d="M91.42,69.54c3.23,0,5.69,1.32,7,4.37a21.93,21.93,0,0,1,1.06,2.94c.35,1.21.16,1.36-1,1.61a8.21,8.21,0,0,1-9.43-7.16c-.15-1.34.12-1.69,1.51-1.76C90.85,69.52,91.14,69.54,91.42,69.54Zm1.13,1.84a24.79,24.79,0,0,1,2,1.83,1,1,0,0,1,.09,1,1.17,1.17,0,0,1-1,.22c-.29,0-.54-.35-.81-.55l-1.35-1a5.54,5.54,0,0,0,6,3.85C97.5,74.15,95.6,71.93,92.55,71.38Z" transform="translate(-2.18)"/>
    <path d="M65.72,91a8.18,8.18,0,0,1-8.07-7,1.64,1.64,0,0,1,1.75-2.06,7.75,7.75,0,0,1,5.46,1.68c2,1.55,2.71,3.72,3.19,6,.17.79-.1,1.12-.91,1.32a1.94,1.94,0,0,1-.42.07ZM60,85.19c.88,2.83,3.95,4.62,5.88,3.69a5.31,5.31,0,0,0-4.85-5.07l1.24,1.08c.18.15.39.28.56.44.34.35.68.75.32,1.25s-.83.37-1.27.08-.62-.44-.92-.68Z" transform="translate(-2.18)"/>
    <path d="M108.48,63a13.62,13.62,0,0,1-.1,1.7,1.66,1.66,0,0,1-1.95,1.44,5.35,5.35,0,0,1-.55-.11,7.94,7.94,0,0,1-5.46-6.45,27.44,27.44,0,0,1,0-3.27c0-1.19.46-1.51,1.66-1.22,3.74.9,6.54,3.81,6.39,7.63a2.62,2.62,0,0,0,0,.28ZM102.24,57c-.87,2.39.44,5.57,2.66,6.23-.39-.67-.71-1.24-1-1.81-.22-.41-.35-.9.15-1.1a1.44,1.44,0,0,1,1.13.18,2.81,2.81,0,0,1,.7.88c.27.4.53.82,1,1.47C106.53,59.65,104.87,57.6,102.24,57Z" transform="translate(-2.18)"/>
    <path d="M65.22,48.7a8.26,8.26,0,0,1,8.12,7c.24,1.65-.43,2.46-2.12,2.38a7.66,7.66,0,0,1-6.78-4.27,15.87,15.87,0,0,1-1.17-3.65c-.26-1.1,0-1.37,1.1-1.49A8,8,0,0,1,65.22,48.7Zm0,2a6,6,0,0,0,5,5.5c-.37-.33-.6-.52-.83-.74A14.35,14.35,0,0,1,68,54.05a.92.92,0,0,1,0-.88.94.94,0,0,1,.86-.22,4.41,4.41,0,0,1,1,.72c.36.26.71.54,1.23.94C70.44,51.94,67.57,50.09,65.22,50.68Z" transform="translate(-2.18)"/>
    <path d="M122.81,99.54a6.73,6.73,0,0,1,5.41,2,3.88,3.88,0,0,1,.95,1.38,1.37,1.37,0,0,1-.51,1.77c-2.15,1.48-4.44,2.39-7.08,1.47a11.43,11.43,0,0,1-4.58-3c-.73-.78-.68-1.17.24-1.84A7.68,7.68,0,0,1,122.81,99.54Zm-3.91,2.92c2.3,2.42,5.07,3.13,6.79,1.69l-1.89-.3c-.56-.1-1.18-.19-1.18-1,0-.48.61-.78,1.36-.71.37,0,.74.15,1.12.17a6.31,6.31,0,0,0,1-.12A5.61,5.61,0,0,0,118.9,102.46Z" transform="translate(-2.18)"/>
    <path d="M254.52,91.89a14.76,14.76,0,0,1-1.24,4.49A19,19,0,0,1,244,106a16.7,16.7,0,0,1-6.8,1.94c-2.45.07-4.93.14-7.28-.94a3.52,3.52,0,0,1-2-4.9,19.23,19.23,0,0,1,3.43-5.72c3-3.29,6.49-5.63,11.17-5.86a36.43,36.43,0,0,1,7.53.35c1.26.21,2.51.44,3.77.68A4.82,4.82,0,0,1,254.52,91.89ZM230.83,102l.21.23c.46-.21.92-.41,1.37-.64,2.09-1,4.17-2.08,6.26-3.12a9.75,9.75,0,0,1,1.05-.45,1.09,1.09,0,0,1,1.35.52,1.13,1.13,0,0,1-.13,1.45,5.1,5.1,0,0,1-1.29.86c-2.39,1.18-4.79,2.33-7.19,3.5a6.77,6.77,0,0,0-.58.42c7.21,2.72,17.77-3,19.41-11.11a16.14,16.14,0,0,0-2.47-.42,57.11,57.11,0,0,0-7.4,0c-3.56.37-6.15,2.63-8.43,5.19A14.65,14.65,0,0,0,230.83,102Z" transform="translate(-2.18)"/>
    <path d="M205.52,95.28a13.84,13.84,0,0,1,1.76-7.37,25.71,25.71,0,0,1,4.7-6.07c1.09-1,1.29-1,2.32,0a16.41,16.41,0,0,1,4.11,8.48,14.43,14.43,0,0,1-.78,7.85,17.09,17.09,0,0,1-5.16,7.08,2.29,2.29,0,0,1-3.5-.53,15.58,15.58,0,0,1-3.45-8.91Zm7,5.82a8.83,8.83,0,0,0,2.73-3.75,12.8,12.8,0,0,0-2-12.74C208,89,206.4,96,209.79,100.85a8,8,0,0,0,.27-1c.13-1.18.21-2.36.35-3.54a19.18,19.18,0,0,1,.38-2.39,1.11,1.11,0,0,1,1.29-.88,1.17,1.17,0,0,1,1.07,1.15,2.06,2.06,0,0,1,0,.43c-.11,1.08-.23,2.17-.34,3.26S212.6,100,212.49,101.1Z" transform="translate(-2.18)"/>
    <path d="M189.12,106.81a17.28,17.28,0,0,1-2.38-.35,2.1,2.1,0,0,1-1.59-2.48,16.67,16.67,0,0,1,2.33-7.42c2.45-4.07,6.24-6.1,10.87-6.71,1.6-.21,3.2-.36,4.81-.53,1.22-.13,1.54.13,1.54,1.4a15.83,15.83,0,0,1-3.24,9.68,16.23,16.23,0,0,1-5.34,4.61A15.65,15.65,0,0,1,189.12,106.81Zm.76-3c4.89.85,12-5.58,12-11.59-6.41-.37-12.35,2.62-13.56,9.29a5.83,5.83,0,0,0,.75-.47c1.13-1,2.24-1.92,3.37-2.86A9.84,9.84,0,0,1,194,97.16a1.13,1.13,0,0,1,1.42.31,1,1,0,0,1,0,1.42,14.36,14.36,0,0,1-1.52,1.5C192.59,101.54,191.26,102.67,189.88,103.86Z" transform="translate(-2.18)"/>
    <path d="M251.81,65.87c4.69-.18,8.33,1.94,11.23,5.41a50.26,50.26,0,0,1,3.38,4.91c.68,1,.56,1.37-.62,2-4.78,2.42-9.71,2.85-14.51.33a14.72,14.72,0,0,1-7.47-8.07c-.67-1.89-.2-2.9,1.72-3.44,1.42-.39,2.84-.79,4.28-1.09A10.16,10.16,0,0,1,251.81,65.87Zm-4.33,5.56-.16.2a23.4,23.4,0,0,0,1.62,2,18.15,18.15,0,0,0,2,1.62,12.56,12.56,0,0,0,11.5,1.59c.83-.29.95-.68.48-1.41s-.85-1.14-1.27-1.71c-2.2-2.94-5-5-8.73-5.33a7.65,7.65,0,0,0-4.09.63,33.71,33.71,0,0,0,3.41,1.5c.88.36,1.76.71,2.6,1.15a1.23,1.23,0,0,1,.62,1.68,1.19,1.19,0,0,1-1.58.55c-.41-.13-.8-.32-1.2-.47Z" transform="translate(-2.18)"/>
    <path d="M254.13,53.72a6.61,6.61,0,0,1-1,3.42,20.84,20.84,0,0,1-2.7,4.17A14.84,14.84,0,0,1,242,66.18a21.45,21.45,0,0,1-5.66,0,11.14,11.14,0,0,1-3.5-1.14,2,2,0,0,1-1.17-2.59,6,6,0,0,1,.34-1.09,15.48,15.48,0,0,1,9.7-8.84,12.26,12.26,0,0,1,5.1-.37c2.26.26,4.48.81,6.72,1.25A3.89,3.89,0,0,1,254.13,53.72ZM235.3,60.56l.19.3c.56-.24,1.13-.46,1.68-.7,1.22-.54,2.43-1.1,3.65-1.63a5.71,5.71,0,0,1,1.22-.36,1.14,1.14,0,0,1,1.33.83,1,1,0,0,1-.55,1.32c-.87.47-1.78.88-2.68,1.3l-3.83,1.77c4.95,2.11,14.21-3.07,14.42-8a8.59,8.59,0,0,0-1.32-.36,43.33,43.33,0,0,0-4.54-.34C240.5,54.75,237.54,57.09,235.3,60.56Z" transform="translate(-2.18)"/>
    <path d="M232.14,55.49c.22,1.77-.48,3.45-1.12,5.14a3.49,3.49,0,0,1-.19.39c-1.48,2.5-3,2.53-4.74.69-1.5-1.6-3-3.21-3.45-5.47a10.71,10.71,0,0,1,.36-6.31c.56-1.36,1.17-2.7,1.82-4,.44-.88.72-1,1.58-.48a11.49,11.49,0,0,1,2.37,1.78A10.55,10.55,0,0,1,232.14,55.49Zm-5.26,3.41a11.93,11.93,0,0,0,0-3,6.08,6.08,0,0,1-.06-1.41,1,1,0,0,1,.94-.92,1,1,0,0,1,1.15.85c.1.55.09,1.13.14,1.7s-.05,1.11.46,1.57a8.46,8.46,0,0,0-3.13-9.49C224.23,50.77,223.85,57,226.88,58.9Z" transform="translate(-2.18)"/>
    <path d="M233,67a10.72,10.72,0,0,1,6.39,2.18,9.69,9.69,0,0,1,2.21,2.58,18.25,18.25,0,0,1,2.42,7c.15.81-.06,1.08-.94,1.28a9.56,9.56,0,0,1-5.32-.48c-4.62-1.52-7.1-4.85-7.84-9.58-.33-2,.42-2.91,2.54-2.93Zm1.43,2.74c.38.34.77.67,1.14,1,.63.58,1.27,1.15,1.86,1.76a1,1,0,0,1,0,1.41,1,1,0,0,1-1.41.16,8.64,8.64,0,0,1-.88-.72l-2.27-1.84c.57,3.55,5.3,6.9,8.35,6.08C241.37,74.78,238.62,69.75,234.44,69.7Z" transform="translate(-2.18)"/>
    <path d="M217.45,82.64c.2-5.36,2.47-8.8,6.54-11.12a4.69,4.69,0,0,1,1.48-.49,2.53,2.53,0,0,1,3.27,2.12,10.59,10.59,0,0,1-4.67,11.38,32.29,32.29,0,0,1-4.07,2c-1.12.49-1.47.34-1.82-.79S217.6,83.31,217.45,82.64Zm2.69,1.25c4.46-1.22,7.13-5.82,6.26-8.29-.24.37-.44.67-.63,1-.46.78-.88,1.57-1.38,2.33a1,1,0,0,1-1.36.41,1.1,1.1,0,0,1-.54-1.35,7.32,7.32,0,0,1,.49-1c.42-.82.85-1.64,1.37-2.64C221.07,75.57,219,80.36,220.14,83.89Z" transform="translate(-2.18)"/>
    <path d="M241,43.45c.31,2.59-.82,5.06-2.57,7.28a9.07,9.07,0,0,1-2,1.77,1.55,1.55,0,0,1-2.29-.24,9.45,9.45,0,0,1-2.22-3.93c-1.31-3.63-.38-6.92,1.77-9.94a20.27,20.27,0,0,1,2.49-2.9c1-.91,1.2-.82,2.13.08A9.64,9.64,0,0,1,241,41.68,16.49,16.49,0,0,1,241,43.45Zm-6.36,5c.21-.82.37-1.41.51-2s.29-1.39.49-2.07a1.07,1.07,0,0,1,1.25-.92,1.15,1.15,0,0,1,.91,1.39,11.66,11.66,0,0,1-.31,1.54c-.13.6-.29,1.19-.43,1.79a8.33,8.33,0,0,0,.13-10.24C234.36,39.84,232.32,45.36,234.65,48.45Z" transform="translate(-2.18)"/>
    <path d="M253.45,83.23a10,10,0,0,1,6.15,2.37.91.91,0,0,1,.13,1.48,10.65,10.65,0,0,1-2.57,2.19,7.86,7.86,0,0,1-8.83-.61c-1.39-1-1.45-2.17-.11-3.25A8,8,0,0,1,253.45,83.23Zm-2.56,4.59a5.4,5.4,0,0,0,6.86-1.18c-1.74-2-5.38-2.3-7.1-.6l.59,0a19,19,0,0,1,2.14.08,1,1,0,0,1,.59.65c0,.16-.25.52-.47.61a4.52,4.52,0,0,1-1.12.16Z" transform="translate(-2.18)"/>
    <path d="M239.24,89.72a21,21,0,0,1-2.62-.55,1.5,1.5,0,0,1-1-2.34c2.16-4.74,6.17-5.84,10.78-4.55.85.24,1,.65.69,1.55C245.94,87.27,242.36,89.89,239.24,89.72ZM245,83.88c-2.66-.9-5.8-.06-6.62,2,.42-.12.78-.2,1.11-.32a5.8,5.8,0,0,1,1.18-.47,1.13,1.13,0,0,1,1,.34,1,1,0,0,1-.3.92,7.85,7.85,0,0,1-1.45.87c-.34.19-.7.36-1.24.64C241.45,88.3,244.55,86.25,245,83.88Z" transform="translate(-2.18)"/>
    <path d="M257.56,65.86a7.81,7.81,0,0,1-4.35-1.57c-1.29-.91-1.38-2-.26-3.1,2.3-2.23,5-3.14,8.1-2a17.31,17.31,0,0,1,3,1.53c.94.58,1,1,.3,1.86A8.4,8.4,0,0,1,257.56,65.86Zm4.94-4c-2.31-1.85-5.83-1.91-7-.17.62,0,1.23-.13,1.84-.13s1.33-.14,1.51.71c.1.48-.48.86-1.37,1-.28,0-.57,0-.85,0s-.6.1-1,.18A5.31,5.31,0,0,0,262.5,61.85Z" transform="translate(-2.18)"/>
    <path d="M206.33,79.84c.57,0,1.15,0,1.71,0,.92.07,1.11.27,1,1.17a8.46,8.46,0,0,1-2.51,4.83A7.34,7.34,0,0,1,202.08,88a8.79,8.79,0,0,1-2.93-.26A1.59,1.59,0,0,1,198,85.47c.93-2.89,3.29-5.64,7-5.66h1.28Zm-5.83,4.72,1-.62c.33-.19.65-.4,1-.58s.94-.39,1.28.1-.06,1-.47,1.29-.71.48-1.06.72l-1,.67c2.35.39,5.14-1.86,5.63-4.41C204.82,80.63,201.49,82,200.5,84.56Z" transform="translate(-2.18)"/>
    <path d="M244,51.2c-.49-.07-1-.12-1.43-.21a1.56,1.56,0,0,1-1.47-2.11c.6-2.88,2.86-5.64,5.89-6a27.2,27.2,0,0,1,3.83-.15c.81,0,1.14.36,1,1.2a10.76,10.76,0,0,1-.81,2.7C249.92,49.11,246.5,51.3,244,51.2Zm.29-2c3.15-.21,5.44-2.31,5.53-4.82-2.45-.65-5.71.84-6.3,3.17l.9-.5c.41-.25.79-.54,1.21-.75s.91-.26,1.11.21a1.27,1.27,0,0,1-.2,1,3.25,3.25,0,0,1-.87.72C245.21,48.59,244.74,48.91,244.28,49.23Z" transform="translate(-2.18)"/>
    <path d="M210.34,33.6a28.08,28.08,0,0,1-.55,3.4,27.43,27.43,0,0,1-2.4,6.37,23,23,0,0,1-6.11,6.49A20.53,20.53,0,0,1,197.11,52a16.56,16.56,0,0,1-2.43.83c-2.12.59-3.88-.36-4-2.53a63.33,63.33,0,0,1,0-8.38,15,15,0,0,1,3.33-8.2,21.16,21.16,0,0,1,2-2,19.45,19.45,0,0,1,7.1-4.64c1.42-.53,2.79-1.21,4.22-1.73s1.6-.42,2.08,1a20.91,20.91,0,0,1,.79,3.59C210.28,31,210.26,32.12,210.34,33.6ZM193,49a5.73,5.73,0,0,0,.49-.53c1.26-2.23,2.53-4.46,3.79-6.7.44-.78.87-1.58,1.35-2.34a1.53,1.53,0,0,1,2-.6c.56.3.67.88.28,1.75a10.72,10.72,0,0,1-.52,1c-1.39,2.44-2.78,4.87-4.16,7.31a2.77,2.77,0,0,0-.18.67c3.66-1.06,6-3.58,8.27-6.25a10.91,10.91,0,0,0,1.68-2.8,21.07,21.07,0,0,0,1.53-11.15c-.14-1.05-.48-1.35-1.38-.92-2.48,1.17-5.09,2.08-7.22,3.93a17.24,17.24,0,0,0-4.67,5.83,11.21,11.21,0,0,0-.89,2.4A39,39,0,0,0,193,49Z" transform="translate(-2.18)"/>
    <path d="M167.8,78.72c.26-3.9,1.15-7.44,3.68-10.41.61-.72,1.08-1.58,1.73-2.26,1.47-1.55,3-3,4.53-4.53.1-.1.21-.19.32-.28,1.65-1.25,2.54-1.06,3.63.73a21.62,21.62,0,0,1,2.87,7.25,18.21,18.21,0,0,1,.16,7.78,30.29,30.29,0,0,1-1.39,5.2A24.64,24.64,0,0,1,179,88.3a10,10,0,0,1-4.3,3.2c-1.64.55-2.51.27-3.47-1.23a22,22,0,0,1-3.05-9C168,80.4,167.9,79.5,167.8,78.72Zm7.48,9.14c.42-.1.6-.09.68-.17A49.1,49.1,0,0,0,180,83c1.94-2.84,2.37-6.18,2.49-9.53a18.88,18.88,0,0,0-1.28-6.54,6.79,6.79,0,0,0-1.95-3.22c-1.4,1.32-2.77,2.49-4,3.79-.75.79-1.23,1.82-1.94,2.64a13.67,13.67,0,0,0-2.58,5.49,11.41,11.41,0,0,0-.05,5.23c.31,1.68.73,3.34,1.14,5a7.23,7.23,0,0,0,.63,1.32c.81-2.41,1.36-4.76,1.91-7.11.23-1,.42-2,.72-2.9a1.18,1.18,0,0,1,1.45-.86,1.26,1.26,0,0,1,.95,1.4,4.07,4.07,0,0,1-.13.84c-.51,2.13-1,4.25-1.52,6.39C175.67,85.81,175.51,86.73,175.28,87.86Z" transform="translate(-2.18)"/>
    <path d="M184,17.87a13.78,13.78,0,0,1,7.27,7.81,14,14,0,0,1-.88,12,6,6,0,0,1-.9,1.27,1.89,1.89,0,0,1-2.69.37,12.78,12.78,0,0,1-4.38-4.39,11.48,11.48,0,0,1-1.85-5.62,18.26,18.26,0,0,1,2-8.81C183,19.65,183.45,18.84,184,17.87ZM186.33,36c-.07-.51-.1-.74-.14-1-.29-1.64-.63-3.27-.87-4.91-.13-.86.29-1.42,1-1.5s1.12.36,1.28,1.21c.26,1.41.51,2.81.77,4.21.08.4.21.78.35,1.28,2.65-3.95.59-11.87-3.84-14.09a11.41,11.41,0,0,0-.77,1.47,24.19,24.19,0,0,0-.88,2.86,9.37,9.37,0,0,0,.25,6.29C184.11,33.25,184.63,34.81,186.33,36Z" transform="translate(-2.18)"/>
    <path d="M203.28,56.13a15.19,15.19,0,0,1-4,10.24c-2.23,2.49-5.09,3.59-8.18,4.25-2.13.45-3.2-.59-3.28-2.77a14.11,14.11,0,0,1,1.48-7c1.88-3.72,5.2-5.53,9-6.65,1.14-.34,2.32-.5,3.48-.74a.87.87,0,0,1,1.15.75C203.05,54.83,203.16,55.48,203.28,56.13Zm-2.6,0c-5.05-.27-11.3,5.71-10.27,10L192,64.27c.65-.76,1.28-1.53,1.94-2.27s1.28-.83,1.76-.5.53,1.14,0,1.93a9.9,9.9,0,0,1-.74.86l-3,3.61C198,66.92,201.66,59.86,200.68,56.13Z" transform="translate(-2.18)"/>
    <path d="M189.34,52.8a10.94,10.94,0,0,1-1,5.13,6.47,6.47,0,0,1-.72,1.38,2.12,2.12,0,0,1-2.88.77c-4.95-2.37-8.28-8-7.3-13.14.42-2.19,1-4.34,1.6-6.49.3-1.09.61-1.18,1.66-.73a14.12,14.12,0,0,1,8.51,10.52A15.46,15.46,0,0,1,189.34,52.8ZM183,56l.32-.09c-.21-1-.44-2-.62-3a17.36,17.36,0,0,1-.25-2.26.9.9,0,0,1,.81-1,1,1,0,0,1,1.21.76,7.68,7.68,0,0,1,.26,1c.24,1.16.45,2.33.7,3.49.16.75.36,1.5.6,2.48a10.79,10.79,0,0,0-.2-10c-1.45-2.73-3.31-4.4-4.88-4.57C178.6,47.49,179.2,52.76,183,56Z" transform="translate(-2.18)"/>
    <path d="M171,57.25c-.08-2.81,1.39-4.74,2.92-6.65a.79.79,0,0,1,1.15-.13,3.85,3.85,0,0,1,.76.64c2,2.39,3.24,7,.57,10.57-1.41,1.85-3.09,1.78-4.29-.25A7.62,7.62,0,0,1,171,57.25Zm4.15,2.94c1.69-2.44,1.34-6-.53-7.47-1.79,1.46-2.95,5.13-1,7.22,0-.82,0-1.53,0-2.23s.38-1.23.91-1.2.81.5.74,1.29c0,.19-.09.38-.1.56C175.09,58.87,175.1,59.38,175.1,60.19Z" transform="translate(-2.18)"/>
    <path d="M199.61,23.08a7.48,7.48,0,0,1-3.69,6.17c-1.3.82-2.2.59-2.85-.82a8.34,8.34,0,0,1-.48-5.57c.6-2.51,2.47-4,4.38-5.39.6-.45,1.05-.21,1.43.35C199.34,19.22,199.59,20.79,199.61,23.08Zm-2.33-3.58c-2.63,1.49-4,4.49-3,6.52.13-.37.25-.67.35-1s.17-.64.29-.95c.18-.48.47-.86,1.06-.68s.58.59.5,1-.23.92-.33,1.38-.13.66-.24,1.19A6.18,6.18,0,0,0,197.28,19.5Z" transform="translate(-2.18)"/>
    <path d="M93,263.75a5.27,5.27,0,0,1-.13,1.2,5.62,5.62,0,0,1-.75,1.36c-1.14,1.43-2.32,2.83-3.44,4.2a.78.78,0,0,1-.65-1.05,3.77,3.77,0,0,1,.62-1.56c1.12-1.33,2.33-2.58,3.53-3.84C92.27,263.91,92.54,263.9,93,263.75Z" transform="translate(-2.18)"/>
    <path d="M85.71,255.15c0,.38.07.7-.06.89-1.8,2.84-3.64,5.67-5.48,8.5,0,.09-.23.1-.61.24a30.38,30.38,0,0,1,4.24-7.69C84.28,256.39,84.61,255.48,85.71,255.15Z" transform="translate(-2.18)"/>
    <path d="M85.22,269.37c-2,2.29-2.92,5-4.69,7.23-.53-1.34.09-3.47,1.51-5.48C82.72,270.17,83.42,269.2,85.22,269.37Z" transform="translate(-2.18)"/>
    <path d="M90.82,242.91a5.41,5.41,0,0,1-1.48,2.1,9.8,9.8,0,0,0-2,3.19,4.75,4.75,0,0,1-.93,1.4,1.11,1.11,0,0,1-1,.26,1,1,0,0,1-.35-.93,9.6,9.6,0,0,1,1.52-2.67A48.28,48.28,0,0,1,90.29,243C90.38,243,90.54,243,90.82,242.91Z" transform="translate(-2.18)"/>
    <path d="M82.2,277.9c1.41-2.44,3.31-4.46,4.81-6.77l.27.12c0,.16.11.35,0,.48-.67,1.56-1.31,3.15-2.09,4.66a5.64,5.64,0,0,1-1.43,1.54A1.07,1.07,0,0,1,82.2,277.9Z" transform="translate(-2.18)"/>
    <path d="M80.48,268.7c.14,1.49-1.66,5.08-2.87,5.73C77.28,272.83,79.07,269.25,80.48,268.7Z" transform="translate(-2.18)"/>
    <path d="M84.72,268.52a11.62,11.62,0,0,1,4-5.59c0,.24,0,.53-.06.71-.36.61-.8,1.18-1.17,1.79a22.55,22.55,0,0,0-1.17,2.1A1.41,1.41,0,0,1,84.72,268.52Z" transform="translate(-2.18)"/>
    <path d="M84.14,262.93a6.4,6.4,0,0,1-1.87,4.5C81.54,266,82.29,264.14,84.14,262.93Z" transform="translate(-2.18)"/>
    <path d="M88.18,257.43a6.09,6.09,0,0,1-2.8,4.39C85.12,260.75,86.54,258.46,88.18,257.43Z" transform="translate(-2.18)"/>
    <path d="M152.45,33.91a14.78,14.78,0,0,1-1.84,7.1,1.63,1.63,0,0,1-2.23,1,5.33,5.33,0,0,1-1.55-.71A15.38,15.38,0,0,1,141,34.09a16,16,0,0,1,.14-10.91,12.23,12.23,0,0,1,1.49-2.42.85.85,0,0,1,1.35-.25c1.28,1,2.55,2,3.79,3a13.14,13.14,0,0,1,2.69,3.11A12.47,12.47,0,0,1,152.45,33.91Zm-3.12,3.6c2.53-4.91-.55-11.54-5.54-14-3.11,3.07-1,12.83,3.32,14.77-.08-.32-.15-.59-.23-.86-.47-1.69-1-3.38-1.41-5.09-.21-.81.06-1.33.65-1.51s1.13.12,1.42.88c.35.93.62,1.9.91,2.85S149,36.43,149.33,37.51Z" transform="translate(-2.18)"/>
    <path d="M167.07,29.08a15.4,15.4,0,0,1-3.38,9.07,14.69,14.69,0,0,1-4.15,3.43c-1.45.8-2.55.57-3.37-.87a10,10,0,0,1-1-2.37,16.77,16.77,0,0,1-.62-6.62,10.65,10.65,0,0,1,2.66-5.89,56.74,56.74,0,0,1,5.29-5c1.18-1,1.72-.8,2.36.61a19.4,19.4,0,0,1,1.82,5.24C166.83,27.53,167,28.38,167.07,29.08Zm-4-5.67a2.23,2.23,0,0,0-.57.31,46.24,46.24,0,0,0-3.42,3.44,8.4,8.4,0,0,0-2.25,5.14,43,43,0,0,0,.36,4.67c0,.17.23.32.47.63.48-1.61.89-3,1.33-4.43a11.33,11.33,0,0,1,.61-1.59c.27-.55.7-.95,1.37-.7a1.08,1.08,0,0,1,.69,1.39c0,.23-.13.46-.2.69-.36,1.18-.73,2.36-1.08,3.55-.17.57-.3,1.16-.49,1.9C164.35,35.47,166.31,28.45,163.05,23.41Z" transform="translate(-2.18)"/>
    <path d="M160.12,55a17.33,17.33,0,0,1-1,3.36,28.35,28.35,0,0,1-2.93,4.69,2.57,2.57,0,0,1-3.91-.11,18.69,18.69,0,0,1-3.78-6.79,12.38,12.38,0,0,1,.57-7.51,22.36,22.36,0,0,1,3.67-6.37c.63-.82,1-.84,1.76-.18a14.22,14.22,0,0,1,5.18,8.75C159.93,52.13,160,53.41,160.12,55Zm-4.68,4.75c4.21-3.9,1.86-13.1-1.55-14.77-.08,0-.19.06-.25.13a13.22,13.22,0,0,0-2.8,5.69,8,8,0,0,0,.17,5.45c.45,1,.89,2,1.37,3,.11.21.38.35.87.77-.06-1.25-.11-2.17-.14-3.1,0-1.09-.1-2.18-.08-3.26a1.13,1.13,0,0,1,1.1-1.12c.56-.06,1,.34,1.1,1.07a7.2,7.2,0,0,1,.07,1.14c0,1.14,0,2.28,0,3.42C155.32,58.62,155.38,59.07,155.44,59.78Z" transform="translate(-2.18)"/>
    <path d="M156.44,21.13a7.13,7.13,0,0,1-1.89,5.36,1.62,1.62,0,0,1-2.77,0c-2.29-2.56-3-5.42-1.52-8.65A19.26,19.26,0,0,1,151.9,15c.64-.93,1-1,1.81-.2a8.1,8.1,0,0,1,2.73,5.3C156.47,20.47,156.44,20.81,156.44,21.13Zm-3.51-4.42c-2,2.49-2.35,5.34-.9,6.72.06-.71.08-1.37.18-2s.41-1,.95-.82a1.27,1.27,0,0,1,.64.93,21.07,21.07,0,0,1,.14,2.49A5.54,5.54,0,0,0,152.93,16.71Z" transform="translate(-2.18)"/>
    <path d="M110.85,25.86c.12-1.44.21-2.91.4-4.37.13-1,.28-1,1.21-.94,4.92.21,8.91,2.43,12.33,5.81a28,28,0,0,1,3,3.55c1.91,2.62,2.38,5.74,2.9,8.85a23.24,23.24,0,0,1-.39,7.49A2,2,0,0,1,128,48a8.37,8.37,0,0,1-2.21-.52,39.36,39.36,0,0,1-4.6-1.9,22.25,22.25,0,0,1-5.81-4.52,17,17,0,0,1-3.18-5.51,16.06,16.06,0,0,1-.9-4C111.05,29.69,111,27.79,110.85,25.86ZM125.4,44.54l.21-.28c-1.19-1.82-2.39-3.64-3.57-5.47-.65-1-1.33-2-1.91-3a1.36,1.36,0,0,1,.34-2c.59-.34,1.24-.11,1.8.65.09.12.15.25.23.37l4.76,7.28a6.78,6.78,0,0,0,.66.76,8,8,0,0,0,.38-2.91,30.18,30.18,0,0,0-.6-3.65,11.35,11.35,0,0,0-1.81-4.62c-.79-1-1.67-2-2.51-3.07-2.13-2.6-5.08-3.93-8.1-5.1-1.24-.48-1.71-.09-1.69,1.22,0,1.84-.38,3.67.11,5.52.39,1.46.43,3,1,4.44a14.12,14.12,0,0,0,2.27,4.23,22.5,22.5,0,0,0,4.5,3.91A10.48,10.48,0,0,0,125.4,44.54Z" transform="translate(-2.18)"/>
    <path d="M112.78,41.2a13.9,13.9,0,0,1-.38,1.93,1.59,1.59,0,0,1-1.76,1.16c-3.9-.49-7.38-1.9-9.89-5.06a14.83,14.83,0,0,1-2.93-7.92c-.11-1.09-.24-2.18-.25-3.27s.26-1.42,1.35-1.33a14,14,0,0,1,6.41,1.68,14.66,14.66,0,0,1,5.49,5.26A18.76,18.76,0,0,1,112.78,41.2Zm-2.54-1.27c-.26-6.75-6.44-11-10.13-10.59-.58,5.17,2.92,11.15,8.16,11.91l-2.13-2.65c-.53-.67-1.09-1.32-1.6-2a1.06,1.06,0,0,1,0-1.54c.46-.43,1-.39,1.65.17a12.82,12.82,0,0,1,1,1.16Z" transform="translate(-2.18)"/>
    <path d="M210.37,229a6.34,6.34,0,0,1-2.77-3.57,6.24,6.24,0,0,1,2.87,3.48Z" transform="translate(-2.18)"/>
    <path d="M209.08,230.19c-1.39-.09-1.78-.48-2-1.87C208.07,228.59,208.37,228.86,209.08,230.19Z" transform="translate(-2.18)"/>
    <path d="M206.61,227.22a3.15,3.15,0,0,1-1.86-2.61A3.08,3.08,0,0,1,206.61,227.22Z" transform="translate(-2.18)"/>
    <path d="M71.06,54.61c-.52-.4-.87-.68-1.23-.94a4.41,4.41,0,0,0-1-.72.94.94,0,0,0-.86.22.92.92,0,0,0,0,.88,14.35,14.35,0,0,0,1.42,1.39c.23.22.46.41.83.74a6,6,0,0,1-5-5.5" transform="translate(-2.18)" style="fill: #fff"/>
  </g>
</svg>
